<svg width="24" height="24" viewBox="0 0 24 24" fill="none" xmlns="http://www.w3.org/2000/svg">
<path d="M11.9942 24C10.3377 24 8.78568 23.6864 7.33817 23.0591C5.89066 22.4395 4.61732 21.5799 3.51814 20.4802C2.41896 19.3804 1.55588 18.1065 0.928882 16.6583C0.309628 15.2101 0 13.6573 0 12C0 10.3427 0.309628 8.78993 0.928882 7.34172C1.55588 5.88577 2.41896 4.61181 3.51814 3.51985C4.61732 2.42014 5.89066 1.5605 7.33817 0.940949C8.78568 0.31365 10.3377 0 11.9942 0C13.6507 0 15.2027 0.31365 16.6502 0.940949C18.1055 1.5605 19.3827 2.42014 20.4819 3.51985C21.581 4.61181 22.4403 5.88577 23.0595 7.34172C23.6865 8.78993 24 10.3427 24 12C24 13.6573 23.6865 15.2101 23.0595 16.6583C22.4403 18.1065 21.581 19.3804 20.4819 20.4802C19.3827 21.5799 18.1055 22.4395 16.6502 23.0591C15.2027 23.6864 13.6507 24 11.9942 24ZM6.3164 12.0116C6.3164 12.3446 6.42477 12.6157 6.64151 12.8248C6.85825 13.0339 7.13304 13.1384 7.46589 13.1384H10.8563V16.5421C10.8563 16.8751 10.9608 17.15 11.1698 17.3669C11.3788 17.576 11.6497 17.6805 11.9826 17.6805C12.3232 17.6805 12.598 17.576 12.807 17.3669C13.0237 17.15 13.1321 16.8751 13.1321 16.5421V13.1384H16.5341C16.8592 13.1384 17.1301 13.0339 17.3469 12.8248C17.5636 12.6157 17.672 12.3446 17.672 12.0116C17.672 11.6709 17.5636 11.3959 17.3469 11.1868C17.1379 10.97 16.867 10.8616 16.5341 10.8616H13.1321V7.46951C13.1321 7.1365 13.0237 6.86157 12.807 6.64472C12.598 6.42014 12.3232 6.30784 11.9826 6.30784C11.6497 6.30784 11.3788 6.42014 11.1698 6.64472C10.9608 6.86157 10.8563 7.1365 10.8563 7.46951V10.8616H7.46589C7.13304 10.8616 6.85825 10.97 6.64151 11.1868C6.42477 11.3959 6.3164 11.6709 6.3164 12.0116Z" fill="black"/>
</svg>
