<svg width="24" height="24" viewBox="0 0 24 24" fill="none" xmlns="http://www.w3.org/2000/svg">
<path d="M10.171 19.1991L3.34981 12.5353C3.1166 12.3021 3 12.0397 3 11.7482C3 11.5966 3.02915 11.4538 3.08745 11.3197C3.14575 11.1856 3.23612 11.0661 3.35855 10.9611L10.171 4.29733C10.3692 4.09911 10.6054 4 10.8794 4C11.0718 4 11.2438 4.04664 11.3953 4.13992C11.5527 4.22737 11.6752 4.34981 11.7626 4.50722C11.8559 4.6588 11.9026 4.83079 11.9026 5.02318C11.9026 5.2972 11.8005 5.54206 11.5965 5.75777L5.01138 12.168V11.3109L11.5965 17.7386C11.8005 17.9543 11.9026 18.2021 11.9026 18.482C11.9026 18.6685 11.8559 18.8376 11.7626 18.9892C11.6752 19.1466 11.5527 19.269 11.3953 19.3565C11.2438 19.4498 11.0718 19.4964 10.8794 19.4964C10.7394 19.4964 10.6112 19.4702 10.4946 19.4177C10.378 19.3652 10.2701 19.2923 10.171 19.1991ZM19.2597 19.1991L12.4473 12.5353C12.2082 12.3021 12.0887 12.0397 12.0887 11.7482C12.0887 11.5966 12.1179 11.4538 12.1762 11.3197C12.2403 11.1856 12.3306 11.0661 12.4473 10.9611L19.2597 4.29733C19.4579 4.09911 19.697 4 19.9768 4C20.1634 4 20.3354 4.04664 20.4928 4.13992C20.6502 4.22737 20.7726 4.34981 20.8601 4.50722C20.9534 4.6588 21 4.83079 21 5.02318C21 5.2972 20.8951 5.54206 20.6852 5.75777L14.1088 12.168V11.3109L20.6852 17.7386C20.8951 17.9543 21 18.2021 21 18.482C21 18.6685 20.9534 18.8376 20.8601 18.9892C20.7726 19.1466 20.6502 19.269 20.4928 19.3565C20.3354 19.4498 20.1634 19.4964 19.9768 19.4964C19.8369 19.4964 19.7057 19.4702 19.5833 19.4177C19.4667 19.3652 19.3588 19.2923 19.2597 19.1991Z" fill="black"/>
</svg>
