<svg width="24" height="24" viewBox="0 0 24 24" fill="none" xmlns="http://www.w3.org/2000/svg">
<path d="M12.6935 19.2258C12.5054 19.2258 12.328 19.1855 12.1613 19.1048C11.9946 19.0242 11.8199 18.8952 11.6371 18.7177L8.20161 15.4597C8.14785 15.4113 8.08065 15.3871 8 15.3871H5.68548C5.14247 15.3871 4.72581 15.2392 4.43548 14.9435C4.14516 14.6479 4 14.207 4 13.621V10.621C4 10.0403 4.14516 9.60215 4.43548 9.30645C4.72581 9.00538 5.14247 8.85484 5.68548 8.85484H8C8.08065 8.85484 8.14785 8.83065 8.20161 8.78226L11.6371 5.55645C11.8468 5.3629 12.0242 5.22312 12.1694 5.1371C12.3199 5.0457 12.4892 5 12.6774 5C12.9516 5 13.1747 5.09409 13.3468 5.28226C13.5188 5.46505 13.6048 5.68817 13.6048 5.95161V18.3226C13.6048 18.5806 13.5188 18.7957 13.3468 18.9677C13.1801 19.1398 12.9624 19.2258 12.6935 19.2258ZM16.4839 15.5403C16.3226 15.4274 16.2312 15.2823 16.2097 15.1048C16.1882 14.9274 16.2392 14.7527 16.3629 14.5806C16.5941 14.2527 16.7742 13.8763 16.9032 13.4516C17.0323 13.0215 17.0968 12.5726 17.0968 12.1048C17.0968 11.6371 17.0323 11.1882 16.9032 10.7581C16.7796 10.328 16.5995 9.95161 16.3629 9.62903C16.2339 9.46237 16.1801 9.29032 16.2016 9.1129C16.2285 8.93011 16.3226 8.78226 16.4839 8.66936C16.6237 8.57258 16.7769 8.54032 16.9435 8.57258C17.1102 8.60484 17.2473 8.69893 17.3548 8.85484C17.6667 9.26344 17.9086 9.75269 18.0806 10.3226C18.2581 10.8925 18.3468 11.4866 18.3468 12.1048C18.3468 12.7231 18.2581 13.3172 18.0806 13.8871C17.9086 14.457 17.6667 14.9462 17.3548 15.3548C17.2473 15.5108 17.1102 15.6048 16.9435 15.6371C16.7769 15.664 16.6237 15.6317 16.4839 15.5403ZM19.4758 17.6452C19.3306 17.543 19.2473 17.4086 19.2258 17.2419C19.2043 17.0699 19.25 16.9005 19.3629 16.7339C19.7984 16.1048 20.1371 15.3925 20.379 14.5968C20.6263 13.7957 20.75 12.9651 20.75 12.1048C20.75 11.2446 20.629 10.414 20.3871 9.6129C20.1452 8.81183 19.8038 8.09946 19.3629 7.47581C19.2446 7.30914 19.1962 7.14247 19.2177 6.97581C19.2446 6.80376 19.3306 6.66667 19.4758 6.56452C19.6263 6.46237 19.7849 6.42742 19.9516 6.45968C20.1183 6.49194 20.2554 6.58602 20.3629 6.74194C20.8844 7.44086 21.2876 8.26075 21.5726 9.20161C21.8575 10.1425 22 11.1102 22 12.1048C22 13.0995 21.8548 14.0645 21.5645 15C21.2796 15.9355 20.879 16.7581 20.3629 17.4677C20.2554 17.6237 20.1183 17.7177 19.9516 17.75C19.7849 17.7769 19.6263 17.7419 19.4758 17.6452Z" fill="black"/>
</svg>
