<svg width="24" height="24" viewBox="0 0 24 24" fill="none" xmlns="http://www.w3.org/2000/svg">
<path d="M8.84424 21.7805C9.92532 21.7877 10.997 21.5792 11.9965 21.1673C12.8497 21.5743 13.7836 21.7838 14.7289 21.7804C15.6742 21.777 16.6065 21.5607 17.4568 21.1476C18.307 20.7345 19.0533 20.1352 19.6401 19.3941C20.227 18.6531 20.6394 17.7894 20.8467 16.8671C21.0541 15.9449 21.051 14.9877 20.8378 14.0668C20.6245 13.1459 20.2065 12.2849 19.6149 11.5476C19.0233 10.8104 18.2732 10.2158 17.4204 9.80819C16.5675 9.40054 15.6338 9.19024 14.6885 9.19291V5.89586C14.6885 3.70832 12.1215 2 8.84424 2C5.56697 2 3 3.70832 3 5.89586V17.8846C3 20.0722 5.56697 21.7805 8.84424 21.7805ZM14.6885 10.9911C15.5776 10.9911 16.4468 11.2548 17.1861 11.7488C17.9254 12.2428 18.5016 12.9449 18.8418 13.7663C19.1821 14.5878 19.2711 15.4917 19.0977 16.3637C18.9242 17.2358 18.496 18.0368 17.8673 18.6655C17.2386 19.2943 16.4376 19.7224 15.5655 19.8959C14.6935 20.0693 13.7896 19.9803 12.9681 19.6401C12.1466 19.2998 11.4445 18.7236 10.9505 17.9843C10.4566 17.245 10.1929 16.3758 10.1929 15.4867C10.1943 14.2948 10.6684 13.1522 11.5112 12.3094C12.354 11.4667 13.4966 10.9926 14.6885 10.9911ZM8.84424 3.79823C11.2287 3.79823 12.8902 4.90414 12.8902 5.89586C12.8902 6.88758 11.2287 7.99439 8.84424 7.99439C6.45979 7.99439 4.79823 6.88848 4.79823 5.89586C4.79823 4.90324 6.45979 3.79823 8.84424 3.79823ZM4.79823 8.72717C6.0209 9.45327 7.42252 9.82237 8.84424 9.79261C10.266 9.82237 11.6676 9.45327 12.8902 8.72717V9.46264C11.5066 9.87677 10.3068 10.7526 9.4907 11.9442C9.27581 11.9631 9.06272 11.99 8.84424 11.99C6.45979 11.99 4.79823 10.8841 4.79823 9.89242V8.72717ZM4.79823 12.7237C5.95978 13.4127 7.28512 13.777 8.63564 13.7784C8.47707 14.334 8.39599 14.9089 8.39468 15.4867C8.39468 15.6467 8.40727 15.8041 8.41896 15.9614C6.26918 15.8374 4.79823 14.8187 4.79823 13.8881V12.7237ZM4.79823 16.7194C6.01831 17.4437 7.41663 17.8125 8.83525 17.7839C9.13846 18.5539 9.59032 19.2565 10.165 19.8519C9.72985 19.9368 9.28762 19.9805 8.84424 19.9823C6.45979 19.9823 4.79823 18.8764 4.79823 17.8846V16.7194Z" fill="black"/>
</svg>
