<svg width="24" height="24" viewBox="0 0 24 24" fill="none" xmlns="http://www.w3.org/2000/svg">
<mask id="path-1-inside-1_3_1519" fill="white">
<path d="M7.12725 21H13.6979C17.537 21 19.9664 18.9734 19.9664 15.8643C19.9664 13.4097 18.2042 11.6349 15.6363 11.4965V11.3957C17.7259 11.1062 19.1482 9.53282 19.1482 7.53142C19.1482 4.72449 17.0084 3 13.5091 3H7.12725C5.78037 3 5 3.79304 5 5.17764V18.8349C5 20.207 5.78037 21 7.12725 21ZM9.15381 10.4769V5.95801H12.2503C14.0125 5.95801 15.0573 6.76362 15.0573 8.14822C15.0573 9.60836 13.8993 10.4769 11.9357 10.4769H9.15381ZM9.15381 18.0923V13.0951H12.3133C14.5286 13.0951 15.7496 13.9511 15.7496 15.5622C15.7496 17.2111 14.5664 18.0923 12.4014 18.0923H9.15381Z"/>
</mask>
<path d="M7.12725 21H13.6979C17.537 21 19.9664 18.9734 19.9664 15.8643C19.9664 13.4097 18.2042 11.6349 15.6363 11.4965V11.3957C17.7259 11.1062 19.1482 9.53282 19.1482 7.53142C19.1482 4.72449 17.0084 3 13.5091 3H7.12725C5.78037 3 5 3.79304 5 5.17764V18.8349C5 20.207 5.78037 21 7.12725 21ZM9.15381 10.4769V5.95801H12.2503C14.0125 5.95801 15.0573 6.76362 15.0573 8.14822C15.0573 9.60836 13.8993 10.4769 11.9357 10.4769H9.15381ZM9.15381 18.0923V13.0951H12.3133C14.5286 13.0951 15.7496 13.9511 15.7496 15.5622C15.7496 17.2111 14.5664 18.0923 12.4014 18.0923H9.15381Z" fill="black"/>
<path d="M15.6363 11.4965H-0.388581V26.6809L14.7738 27.4982L15.6363 11.4965ZM15.6363 11.3957L13.4371 -4.47756L-0.388581 -2.56206V11.3957H15.6363ZM9.15381 10.4769H-6.8711V26.5018H9.15381V10.4769ZM9.15381 5.95801V-10.0669H-6.8711V5.95801H9.15381ZM9.15381 18.0923H-6.8711V34.1172H9.15381V18.0923ZM9.15381 13.0951V-2.92985H-6.8711V13.0951H9.15381ZM7.12725 21V37.0249H13.6979V21V4.97509H7.12725V21ZM13.6979 21V37.0249C18.297 37.0249 23.7924 35.8109 28.4585 31.9685C33.4379 27.8681 35.9913 21.9483 35.9913 15.8643H19.9664H3.94145C3.94145 12.8893 5.28017 9.53734 8.0851 7.22757C10.5768 5.17576 12.938 4.97509 13.6979 4.97509V21ZM19.9664 15.8643H35.9913C35.9913 4.23115 26.8909 -3.945 16.4989 -4.50517L15.6363 11.4965L14.7738 27.4982C12.5333 27.3774 9.72209 26.4514 7.38647 24.0965C5.00405 21.6944 3.94145 18.6208 3.94145 15.8643H19.9664ZM15.6363 11.4965H31.6612V11.3957H15.6363H-0.388581V11.4965H15.6363ZM15.6363 11.3957L17.8355 27.269C27.2728 25.9615 35.1731 18.1025 35.1731 7.53142H19.1482H3.12327C3.12327 4.61374 4.20774 1.65201 6.30836 -0.662982C8.38408 -2.95053 11.0154 -4.14204 13.4371 -4.47756L15.6363 11.3957ZM19.1482 7.53142H35.1731C35.1731 1.6739 32.7391 -4.20883 27.6836 -8.27455C23.0417 -12.0076 17.6934 -13.0249 13.5091 -13.0249V3V19.0249C12.824 19.0249 10.2953 18.8698 7.59814 16.7008C4.48734 14.199 3.12327 10.582 3.12327 7.53142H19.1482ZM13.5091 3V-13.0249H7.12725V3V19.0249H13.5091V3ZM7.12725 3V-13.0249C3.30943 -13.0249 -1.78792 -11.8343 -5.89366 -7.63954C-9.95331 -3.49186 -11.0249 1.53293 -11.0249 5.17764H5H21.0249C21.0249 7.43774 20.3435 11.3737 17.0108 14.7787C13.6319 18.2308 9.59819 19.0249 7.12725 19.0249V3ZM5 5.17764H-11.0249V18.8349H5H21.0249V5.17764H5ZM5 18.8349H-11.0249C-11.0249 22.5107 -9.93203 27.5327 -5.86986 31.6654C-1.77049 35.8359 3.31059 37.0249 7.12725 37.0249V21V4.97509C9.59704 4.97509 13.6145 5.76757 16.9869 9.19858C20.3222 12.5917 21.0249 16.5312 21.0249 18.8349H5ZM9.15381 10.4769H25.1787V5.95801H9.15381H-6.8711V10.4769H9.15381ZM9.15381 5.95801V21.9829H12.2503V5.95801V-10.0669H9.15381V5.95801ZM12.2503 5.95801V21.9829C10.9506 21.9829 7.73296 21.7161 4.47639 19.1832C0.683814 16.2335 -0.967574 11.9119 -0.967574 8.14822H15.0573H31.0822C31.0822 2.99995 28.9085 -2.41677 24.1529 -6.11547C19.9334 -9.39728 15.3122 -10.0669 12.2503 -10.0669V5.95801ZM15.0573 8.14822H-0.967574C-0.967574 4.12687 0.890788 -0.175386 4.64194 -2.97779C7.80388 -5.34 10.832 -5.54797 11.9357 -5.54797V10.4769V26.5018C15.003 26.5018 19.5919 25.8596 23.8238 22.6981C28.6448 19.0963 31.0822 13.6297 31.0822 8.14822H15.0573ZM11.9357 10.4769V-5.54797H9.15381V10.4769V26.5018H11.9357V10.4769ZM9.15381 18.0923H25.1787V13.0951H9.15381H-6.8711V18.0923H9.15381ZM9.15381 13.0951V29.12H12.3133V13.0951V-2.92985H9.15381V13.0951ZM12.3133 13.0951V29.12C11.7505 29.12 8.7875 29.076 5.55437 26.7691C3.79706 25.5152 2.20062 23.7436 1.11067 21.5004C0.0432916 19.3037 -0.275316 17.2014 -0.275316 15.5622H15.7496H31.7745C31.7745 10.1493 29.4113 4.41968 24.17 0.679837C19.7726 -2.45791 15.0915 -2.92985 12.3133 -2.92985V13.0951ZM15.7496 15.5622H-0.275316C-0.275316 12.1256 1.21451 7.68043 5.24949 4.6429C8.55147 2.15717 11.6779 2.06738 12.4014 2.06738V18.0923V34.1172C15.2898 34.1172 20.0904 33.5868 24.5252 30.2483C29.6931 26.358 31.7745 20.6478 31.7745 15.5622H15.7496ZM12.4014 18.0923V2.06738H9.15381V18.0923V34.1172H12.4014V18.0923Z" fill="black" mask="url(#path-1-inside-1_3_1519)"/>
</svg>
