<svg width="24" height="24" viewBox="0 0 24 24" fill="none" xmlns="http://www.w3.org/2000/svg">
<path d="M3.36694 7.73388C2.99208 7.73388 2.66893 7.60139 2.39748 7.3364C2.13249 7.07142 2 6.74826 2 6.36694C2 5.99208 2.13249 5.67216 2.39748 5.40717C2.66893 5.13572 2.99208 5 3.36694 5C3.7418 5 4.06172 5.13572 4.32671 5.40717C4.59816 5.67216 4.73388 5.99208 4.73388 6.36694C4.73388 6.74826 4.59816 7.07142 4.32671 7.3364C4.06172 7.60139 3.7418 7.73388 3.36694 7.73388ZM7.89433 7.29762C7.63581 7.29762 7.41929 7.20714 7.24479 7.02618C7.07029 6.83875 6.98303 6.619 6.98303 6.36694C6.98303 6.11488 7.07029 5.9016 7.24479 5.7271C7.41929 5.54613 7.63581 5.45565 7.89433 5.45565H21.079C21.3311 5.45565 21.5476 5.5429 21.7285 5.7174C21.9095 5.8919 22 6.10842 22 6.36694C22 6.62546 21.9095 6.84521 21.7285 7.02618C21.5476 7.20714 21.3311 7.29762 21.079 7.29762H7.89433ZM3.36694 13.6961C2.99208 13.6961 2.66893 13.5636 2.39748 13.2986C2.13249 13.0271 2 12.704 2 12.3291C2 11.9543 2.13249 11.6344 2.39748 11.3694C2.66893 11.0979 2.99208 10.9622 3.36694 10.9622C3.7418 10.9622 4.06172 11.0979 4.32671 11.3694C4.59816 11.6344 4.73388 11.9543 4.73388 12.3291C4.73388 12.704 4.59816 13.0271 4.32671 13.2986C4.06172 13.5636 3.7418 13.6961 3.36694 13.6961ZM7.89433 13.2404C7.63581 13.2404 7.41929 13.1532 7.24479 12.9787C7.07029 12.7977 6.98303 12.5812 6.98303 12.3291C6.98303 12.0706 7.07029 11.8509 7.24479 11.6699C7.41929 11.4889 7.63581 11.3984 7.89433 11.3984H21.079C21.3311 11.3984 21.5476 11.4889 21.7285 11.6699C21.9095 11.8509 22 12.0706 22 12.3291C22 12.5812 21.9095 12.7977 21.7285 12.9787C21.5476 13.1532 21.3311 13.2404 21.079 13.2404H7.89433ZM3.36694 19.6389C2.99208 19.6389 2.66893 19.5064 2.39748 19.2414C2.13249 18.9764 2 18.6565 2 18.2816C2 17.9003 2.13249 17.5772 2.39748 17.3122C2.66893 17.0472 2.99208 16.9147 3.36694 16.9147C3.7418 16.9147 4.06172 17.0472 4.32671 17.3122C4.59816 17.5772 4.73388 17.9003 4.73388 18.2816C4.73388 18.6565 4.59816 18.9764 4.32671 19.2414C4.06172 19.5064 3.7418 19.6389 3.36694 19.6389ZM7.89433 19.2026C7.63581 19.2026 7.41929 19.1121 7.24479 18.9312C7.07029 18.7437 6.98303 18.5272 6.98303 18.2816C6.98303 18.0231 7.07029 17.8066 7.24479 17.6321C7.41929 17.4511 7.63581 17.3606 7.89433 17.3606H21.079C21.3311 17.3606 21.5476 17.4511 21.7285 17.6321C21.9095 17.8066 22 18.0231 22 18.2816C22 18.5337 21.9095 18.7502 21.7285 18.9312C21.5476 19.1121 21.3311 19.2026 21.079 19.2026H7.89433Z" fill="black"/>
</svg>
