<svg width="24" height="24" viewBox="0 0 24 24" fill="none" xmlns="http://www.w3.org/2000/svg">
<path d="M7.40906 12.1938C7.22233 12.1938 7.06325 12.1281 6.93185 11.9967C6.80044 11.8653 6.73474 11.7097 6.73474 11.5299C6.73474 11.3431 6.80044 11.1841 6.93185 11.0527C7.06325 10.9213 7.22233 10.8556 7.40906 10.8556H16.3517C16.5384 10.8556 16.6975 10.9213 16.8289 11.0527C16.9603 11.1841 17.026 11.3431 17.026 11.5299C17.026 11.7097 16.9603 11.8653 16.8289 11.9967C16.6975 12.1281 16.5384 12.1938 16.3517 12.1938H7.40906ZM7.40906 16.3812C7.22233 16.3812 7.06325 16.3155 6.93185 16.1841C6.80044 16.0527 6.73474 15.8971 6.73474 15.7173C6.73474 15.5305 6.80044 15.3749 6.93185 15.2504C7.06325 15.119 7.22233 15.0533 7.40906 15.0533H12.0567C12.2435 15.0533 12.3991 15.119 12.5236 15.2504C12.655 15.3749 12.7207 15.5305 12.7207 15.7173C12.7207 15.8971 12.655 16.0527 12.5236 16.1841C12.3922 16.3155 12.2366 16.3812 12.0567 16.3812H7.40906ZM6.37164 23C5.27196 23 4.43511 22.7095 3.86106 22.1286C3.28702 21.5476 3 20.7004 3 19.5869V7.24531C3 6.14564 3.27665 5.30186 3.82994 4.71399C4.39015 4.1192 5.20626 3.8218 6.27827 3.8218H6.51688C6.49613 3.88405 6.4823 3.95321 6.47538 4.02929C6.46846 4.09845 6.46501 4.17107 6.46501 4.24715V5.21195C6.46501 5.45402 6.48921 5.65459 6.53763 5.81366H6.33014C5.8875 5.81366 5.55207 5.94507 5.32384 6.20788C5.10252 6.4707 4.99186 6.82342 4.99186 7.26606V19.5661C4.99186 20.0295 5.11635 20.3857 5.36533 20.6347C5.61432 20.8836 5.98087 21.0081 6.46501 21.0081H17.2957C17.7799 21.0081 18.1464 20.8836 18.3954 20.6347C18.6444 20.3857 18.7689 20.0295 18.7689 19.5661V7.26606C18.7689 6.82342 18.6548 6.4707 18.4265 6.20788C18.2052 5.94507 17.8767 5.81366 17.441 5.81366H17.2127C17.2681 5.65459 17.2957 5.45402 17.2957 5.21195V4.24715C17.2957 4.17107 17.2923 4.09845 17.2854 4.02929C17.2784 3.95321 17.2646 3.88405 17.2439 3.8218H17.4825C18.5545 3.8218 19.3671 4.1192 19.9204 4.71399C20.4806 5.30186 20.7607 6.14564 20.7607 7.24531V19.5869C20.7607 20.7004 20.4737 21.5476 19.8997 22.1286C19.3256 22.7095 18.4853 23 17.3787 23H6.37164ZM8.6851 6.40499C8.36695 6.40499 8.11797 6.31163 7.93815 6.12489C7.76525 5.93815 7.67879 5.67534 7.67879 5.33644V4.24715C7.67879 3.90825 7.76525 3.64544 7.93815 3.4587C8.11797 3.27196 8.36695 3.1786 8.6851 3.1786H9.56691C9.60149 2.57689 9.8401 2.06509 10.2827 1.6432C10.7254 1.2144 11.2579 1 11.8804 1C12.4959 1 13.025 1.2144 13.4676 1.6432C13.9172 2.06509 14.1593 2.57689 14.1938 3.1786H15.0756C15.3938 3.1786 15.6393 3.27196 15.8122 3.4587C15.992 3.64544 16.082 3.90825 16.082 4.24715V5.33644C16.082 5.67534 15.992 5.93815 15.8122 6.12489C15.6393 6.31163 15.3938 6.40499 15.0756 6.40499H8.6851ZM11.8804 4.1849C12.1363 4.1849 12.3507 4.09499 12.5236 3.91517C12.7034 3.72843 12.7933 3.51403 12.7933 3.27196C12.7933 3.01607 12.7034 2.79821 12.5236 2.61839C12.3507 2.43857 12.1363 2.34865 11.8804 2.34865C11.6245 2.34865 11.4066 2.43857 11.2268 2.61839C11.0539 2.79821 10.9674 3.01607 10.9674 3.27196C10.9674 3.51403 11.0539 3.72843 11.2268 3.91517C11.4066 4.09499 11.6245 4.1849 11.8804 4.1849Z" fill="black"/>
</svg>
