<svg width="24" height="24" viewBox="0 0 24 24" fill="none" xmlns="http://www.w3.org/2000/svg">
<path d="M12 2C17.5228 2 22 6.47715 22 12C22 17.1523 18.0997 21.4362 13.0928 21.9834L13.0918 21.9814C13.0296 21.9924 12.9658 22 12.9004 22H4.29102C3.24395 21.9996 2.78961 20.6742 3.61621 20.0312L4.89551 19.0361C3.107 17.2302 2 14.7444 2 12C2 6.47715 6.47715 2 12 2ZM12 4C7.58172 4 4 7.58172 4 12C4 14.5587 5.20016 16.8366 7.07227 18.3027L6.45508 19.0898L7.06934 19.8789L6.91406 20H12.4395L12.8799 19.9521C16.8837 19.5147 20 16.1206 20 12C20 7.58172 16.4183 4 12 4ZM8.08105 19.0928L7.06934 19.8789L6.45605 19.0898L7.07227 18.3027L8.08105 19.0928ZM8 11C8.55224 11 8.99993 11.4478 9 12C9 12.5523 8.55228 13 8 13C7.44772 13 7 12.5523 7 12C7.00007 11.4478 7.44776 11 8 11ZM12 11C12.5522 11 12.9999 11.4478 13 12C13 12.5523 12.5523 13 12 13C11.4477 13 11 12.5523 11 12C11.0001 11.4478 11.4477 11 12 11ZM16 11C16.5523 11 16.9999 11.4478 17 12C17 12.5523 16.5523 13 16 13C15.4478 12.9999 15 12.5522 15 12C15.0001 11.4479 15.4479 11.0001 16 11Z" fill="black"/>
</svg>
