<svg width="24" height="24" viewBox="0 0 24 24" fill="none" xmlns="http://www.w3.org/2000/svg">
<path d="M0 12C0 7.32222 0 4.98333 1.07293 3.27578C1.63242 2.38535 2.38535 1.63242 3.27578 1.07293C4.98333 0 7.32222 0 12 0C16.6778 0 19.0167 0 20.7242 1.07293C21.6147 1.63242 22.3676 2.38535 22.9271 3.27578C24 4.98333 24 7.32222 24 12C24 16.6778 24 19.0167 22.9271 20.7242C22.3676 21.6147 21.6147 22.3676 20.7242 22.9271C19.0167 24 16.6778 24 12 24C7.32222 24 4.98333 24 3.27578 22.9271C2.38535 22.3676 1.63242 21.6147 1.07293 20.7242C0 19.0167 0 16.6778 0 12Z" fill="#22A0FB"/>
<path d="M6.0822 12.7664L6.08589 12.7766L6.08997 12.7865C6.15176 12.9376 6.24066 13.0757 6.34406 13.2014L9.53759 17.1964C9.83486 17.5692 10.2367 17.7964 10.7227 17.7964C11.226 17.7964 11.6457 17.5718 11.9274 17.1557L17.7347 8.10495L17.7382 8.09946C17.8167 7.97376 17.8833 7.84198 17.9289 7.70521L17.9311 7.69809C17.9753 7.55939 18 7.41516 18 7.26738C18 6.92846 17.8875 6.60829 17.6337 6.36045C17.384 6.11234 17.0656 6 16.7265 6C16.5045 6 16.2705 6.04302 16.0619 6.17106C15.8664 6.28718 15.716 6.46117 15.598 6.64074L10.6506 14.5007L8.36553 11.5679C8.10551 11.2286 7.74265 11.0165 7.29823 11.0165C6.95171 11.0165 6.63015 11.1327 6.37514 11.3804L6.36955 11.386C6.11855 11.637 6 11.9568 6 12.3023C6 12.4617 6.02796 12.6173 6.0822 12.7664Z" fill="white"/>
</svg>
