<svg width="24" height="24" viewBox="0 0 24 24" fill="none" xmlns="http://www.w3.org/2000/svg">
<path fill-rule="evenodd" clip-rule="evenodd" d="M15.2736 1C16.1618 1 16.8967 1.37099 17.5942 1.90313C18.2681 2.41736 19.0179 3.17093 19.9235 4.07649L20.5732 4.72731C21.1912 5.3519 21.7112 5.90034 22.0969 6.40579C22.629 7.10326 23 7.83831 23 8.72642C23 9.61429 22.6288 10.3487 22.0969 11.046C21.5827 11.7199 20.8291 12.4708 19.9235 13.3764L13.3764 19.9235C12.9941 20.3058 12.6384 20.66 12.3054 20.9815H21.9799C22.5311 20.9815 22.9783 21.4287 22.9783 21.9799C22.9783 22.5311 22.5311 22.9783 21.9799 22.9783H9.08053C8.96508 22.9916 8.84726 23 8.72642 23C7.83831 23 7.10326 22.629 6.40579 22.0969C5.90034 21.7112 5.3519 21.1912 4.72731 20.5732L4.07649 19.9235C3.17093 19.0179 2.41736 18.2681 1.90313 17.5942C1.37099 16.8967 1 16.1618 1 15.2736C1.00002 14.3857 1.37116 13.6513 1.90313 12.954C2.41736 12.2801 3.17087 11.5293 4.07649 10.6236L10.6236 4.07649C11.5293 3.17087 12.2801 2.41736 12.954 1.90313C13.6513 1.37116 14.3857 1.00002 15.2736 1ZM5.5189 12.0671C4.57272 13.0133 3.93692 13.6523 3.5253 14.1918C3.13198 14.7074 3.04018 15.011 3.04017 15.2736C3.04017 15.5363 3.13167 15.8406 3.5253 16.3565C3.93699 16.896 4.57254 17.5348 5.5189 18.4811C6.46527 19.4274 7.10399 20.063 7.64353 20.4747C8.15944 20.8683 8.46374 20.9598 8.72642 20.9598C8.98899 20.9598 9.29266 20.868 9.80823 20.4747C10.3477 20.0631 10.9867 19.4273 11.9329 18.4811L12.5209 17.892L6.10691 11.478L5.5189 12.0671ZM15.2736 3.04017C15.011 3.04018 14.7074 3.13198 14.1918 3.5253C13.6523 3.93692 13.0133 4.57272 12.0671 5.5189L7.5504 10.0356L13.9644 16.4496L18.4811 11.9329C19.4273 10.9867 20.0631 10.3477 20.4747 9.80823C20.868 9.29266 20.9598 8.98899 20.9598 8.72642C20.9598 8.46374 20.8683 8.15944 20.4747 7.64353C20.063 7.10399 19.4274 6.46527 18.4811 5.5189C17.5348 4.57254 16.896 3.93699 16.3565 3.5253C15.8406 3.13167 15.5363 3.04017 15.2736 3.04017Z" fill="black"/>
</svg>
