<svg width="24" height="24" viewBox="0 0 24 24" fill="none" xmlns="http://www.w3.org/2000/svg">
<rect width="24" height="24" rx="12" fill="black" fill-opacity="0.04"/>
<path d="M8.21543 15.7846C8.11839 15.6876 8.05434 15.5751 8.02329 15.4471C7.99224 15.3151 7.99224 15.1852 8.02329 15.0571C8.05434 14.9291 8.11645 14.8185 8.20961 14.7254L10.9403 11.9956L8.20961 9.27174C8.11645 9.17861 8.05434 9.06802 8.02329 8.93998C7.99224 8.81193 7.99224 8.68389 8.02329 8.55584C8.05434 8.42391 8.11839 8.30945 8.21543 8.21244C8.30859 8.11932 8.41921 8.05723 8.54731 8.02619C8.67928 7.99127 8.80932 7.99127 8.93741 8.02619C9.06938 8.05723 9.18195 8.11738 9.27511 8.20662L12 10.9363L14.7307 8.21244C14.8239 8.11932 14.9326 8.05723 15.0568 8.02619C15.1849 7.99127 15.313 7.99127 15.441 8.02619C15.573 8.05723 15.6856 8.12126 15.7787 8.21826C15.8797 8.31139 15.9457 8.42391 15.9767 8.55584C16.0078 8.68389 16.0078 8.81193 15.9767 8.93998C15.9457 9.06802 15.8816 9.17861 15.7846 9.27174L13.0655 11.9956L15.7846 14.7254C15.8816 14.8185 15.9457 14.9291 15.9767 15.0571C16.0078 15.1852 16.0078 15.3151 15.9767 15.4471C15.9457 15.5751 15.8797 15.6857 15.7787 15.7788C15.6856 15.8758 15.573 15.9418 15.441 15.9767C15.313 16.0078 15.1849 16.0078 15.0568 15.9767C14.9326 15.9457 14.8239 15.8817 14.7307 15.7846L12 13.0607L9.27511 15.7905C9.18195 15.8797 9.06938 15.9418 8.93741 15.9767C8.80932 16.0078 8.67928 16.0078 8.54731 15.9767C8.41921 15.9418 8.30859 15.8778 8.21543 15.7846Z" fill="#707070"/>
</svg>
