<svg width="24" height="24" viewBox="0 0 24 24" fill="none" xmlns="http://www.w3.org/2000/svg">
<path d="M18.0878 13.2263L18.6513 11.8591C20.3141 12.2717 21.6197 12.8414 22.5681 13.5681C23.5227 14.2887 24 15.1109 24 16.0346C24 16.7614 23.7075 17.4234 23.1224 18.0208C22.5373 18.6182 21.709 19.1355 20.6374 19.5727C19.5658 20.01 18.2972 20.3456 16.8314 20.5797C15.3657 20.8137 13.7552 20.9307 12 20.9307C10.2448 20.9307 8.63433 20.8137 7.16859 20.5797C5.70901 20.3456 4.44342 20.01 3.37182 19.5727C2.30023 19.1355 1.46882 18.6182 0.877598 18.0208C0.292533 17.4234 0 16.7614 0 16.0346C0 15.1293 0.452656 14.3226 1.35797 13.6143C2.26328 12.9061 3.51347 12.3426 5.10855 11.9238L5.81062 13.2356C4.91147 13.4573 4.13241 13.7159 3.47344 14.0115C2.82063 14.3072 2.31563 14.6274 1.95843 14.9723C1.60739 15.311 1.43187 15.6651 1.43187 16.0346C1.43187 16.4842 1.69977 16.9184 2.23557 17.3372C2.77136 17.7498 3.51963 18.1193 4.48037 18.4457C5.44111 18.7721 6.56197 19.0277 7.84296 19.2125C9.12394 19.4034 10.5096 19.4988 12 19.4988C13.4904 19.4988 14.8761 19.4034 16.157 19.2125C17.438 19.0277 18.5589 18.7721 19.5196 18.4457C20.4804 18.1193 21.2286 17.7498 21.7644 17.3372C22.3002 16.9184 22.5681 16.4842 22.5681 16.0346C22.5681 15.6651 22.3865 15.3079 22.0231 14.963C21.6597 14.612 21.1424 14.2887 20.4711 13.9931C19.7998 13.6975 19.0054 13.4419 18.0878 13.2263ZM18.9192 6.81524H20.4065V8.74596C20.4065 9.94688 20.2156 11.0493 19.8337 12.0531C19.4519 13.0508 18.9069 13.9161 18.1986 14.649C17.4965 15.3757 16.6559 15.9392 15.6767 16.3395C14.7036 16.7398 13.6197 16.94 12.4249 16.94H11.5658C10.3772 16.94 9.2933 16.7398 8.31409 16.3395C7.34103 15.9392 6.50038 15.3757 5.79215 14.649C5.09007 13.9161 4.54811 13.0508 4.16628 12.0531C3.78445 11.0554 3.59353 9.95304 3.59353 8.74596V6.81524H5.08083V8.74596C5.08083 10.0824 5.34565 11.2556 5.87529 12.2656C6.41109 13.2694 7.16243 14.0516 8.12933 14.612C9.10239 15.1724 10.2479 15.4527 11.5658 15.4527H12.4249C13.7429 15.4527 14.8853 15.1724 15.8522 14.612C16.8253 14.0454 17.5797 13.2602 18.1155 12.2564C18.6513 11.2463 18.9192 10.0762 18.9192 8.74596V6.81524ZM12 10.6212C10.331 10.6212 8.86528 10.4611 7.60277 10.1409C6.34026 9.82063 5.35489 9.37721 4.64665 8.81062C3.94457 8.23788 3.59353 7.57275 3.59353 6.81524C3.59353 6.05774 3.94457 5.39261 4.64665 4.81986C5.35489 4.24711 6.33718 3.80062 7.59353 3.48037C8.85604 3.16012 10.3249 3 12 3C13.669 3 15.1347 3.16012 16.3972 3.48037C17.6597 3.80062 18.642 4.24711 19.3441 4.81986C20.0523 5.39261 20.4065 6.05774 20.4065 6.81524C20.4065 7.57275 20.0523 8.23788 19.3441 8.81062C18.642 9.37721 17.6597 9.82063 16.3972 10.1409C15.1347 10.4611 13.669 10.6212 12 10.6212ZM12 9.13395C12.9977 9.13395 13.9153 9.07544 14.7529 8.95843C15.5966 8.84142 16.3295 8.67821 16.9515 8.46882C17.5735 8.25327 18.057 8.00693 18.4018 7.72979C18.7467 7.4465 18.9192 7.14165 18.9192 6.81524C18.9192 6.48884 18.7467 6.18399 18.4018 5.90069C18.057 5.6174 17.5735 5.37105 16.9515 5.16166C16.3295 4.95227 15.5966 4.78907 14.7529 4.67206C13.9153 4.54888 12.9977 4.4873 12 4.4873C11.0023 4.4873 10.0816 4.54888 9.23787 4.67206C8.40031 4.78907 7.67052 4.95227 7.0485 5.16166C6.42648 5.37105 5.94303 5.6174 5.59815 5.90069C5.25327 6.18399 5.08083 6.48884 5.08083 6.81524C5.08083 7.14165 5.25327 7.4465 5.59815 7.72979C5.94303 8.00693 6.42648 8.25327 7.0485 8.46882C7.67052 8.67821 8.40031 8.84142 9.23787 8.95843C10.0816 9.07544 11.0023 9.13395 12 9.13395ZM19.3718 12.7367V11.2494H20.1293C20.7267 11.2494 21.1948 11.117 21.5335 10.8522C21.8722 10.5874 22.0416 10.224 22.0416 9.76212C22.0416 9.30023 21.8722 8.93995 21.5335 8.68129C21.1948 8.41647 20.7267 8.28406 20.1293 8.28406H19.5104V6.79677H20.1293C21.1824 6.79677 22.0108 7.06159 22.6143 7.59122C23.224 8.12086 23.5289 8.8445 23.5289 9.76212C23.5289 10.6921 23.2271 11.4219 22.6236 11.9515C22.02 12.475 21.1886 12.7367 20.1293 12.7367H19.3718Z" fill="black"/>
</svg>
