<svg width="24" height="24" viewBox="0 0 24 24" fill="none" xmlns="http://www.w3.org/2000/svg">
<path d="M12.0045 7.68C11.6542 7.68 11.3337 7.8267 11.0428 8.12011L4.33834 15.1803C4.22556 15.3025 4.13949 15.434 4.08013 15.5746C4.02671 15.7151 4 15.871 4 16.0422C4 16.2683 4.05342 16.4762 4.16027 16.6657C4.26711 16.8552 4.40957 17.0049 4.58765 17.115C4.77166 17.225 4.97347 17.28 5.1931 17.28C5.52551 17.28 5.81636 17.1547 6.06567 16.9041L12.414 10.1923H11.6038L17.9343 16.9041C18.1836 17.1547 18.4745 17.28 18.8069 17.28C19.0265 17.28 19.2254 17.225 19.4035 17.115C19.5875 17.0049 19.7329 16.8552 19.8397 16.6657C19.9466 16.4762 20 16.2683 20 16.0422C20 15.706 19.8843 15.4217 19.6528 15.1895L12.9661 8.12011C12.8236 7.97341 12.6722 7.86338 12.512 7.79003C12.3576 7.72279 12.1885 7.68611 12.0045 7.68Z" fill="black"/>
</svg>
