<svg width="24" height="24" viewBox="0 0 24 24" fill="none" xmlns="http://www.w3.org/2000/svg">
<path d="M17.71 13.7982C17.8755 13.3135 18.5601 13.3135 18.7256 13.7982L19.21 15.2162C19.5324 16.1603 20.2746 16.9025 21.2188 17.2249L22.6367 17.7093C23.1214 17.8748 23.1214 18.5594 22.6367 18.7249L21.2188 19.2093C20.2746 19.5317 19.5324 20.274 19.21 21.2181L18.7256 22.6361C18.5601 23.1207 17.8755 23.1207 17.71 22.6361L17.2256 21.2181C16.9032 20.274 16.1609 19.5317 15.2168 19.2093L13.7988 18.7249C13.3142 18.5594 13.3142 17.8748 13.7988 17.7093L15.2168 17.2249C16.1609 16.9025 16.9032 16.1603 17.2256 15.2162L17.71 13.7982ZM14.458 1.97299C15.7559 0.675233 17.8603 0.675256 19.1582 1.97299C20.456 3.27086 20.456 5.3753 19.1582 6.67319L7.77734 18.054L7.58594 18.2249C7.38489 18.3839 7.15646 18.5067 6.91211 18.5882L2.45996 20.0726L2.29785 20.1136C1.49528 20.257 0.788402 19.4817 1.05859 18.6703L2.54297 14.2201C2.62446 13.9756 2.74822 13.7474 2.90723 13.5462L3.07812 13.3539L14.458 1.97299ZM3.16016 17.971L6.3252 16.9164L4.21484 14.805L3.16016 17.971ZM17.9053 3.22592C17.2997 2.62052 16.3176 2.62074 15.7119 3.22592L5.40918 13.5277L7.60254 15.722L17.9053 5.42026C18.5109 4.81458 18.5109 3.83158 17.9053 3.22592Z" fill="black"/>
</svg>
