<svg width="24" height="24" viewBox="0 0 24 24" fill="none" xmlns="http://www.w3.org/2000/svg">
<path d="M3.23162 7.94485C2.88848 7.94485 2.59436 7.82843 2.34926 7.59559C2.11642 7.35049 2 7.0625 2 6.73162C2 6.40074 2.11642 6.11887 2.34926 5.88603C2.59436 5.64093 2.88848 5.51838 3.23162 5.51838H12.4412V7.94485H3.23162ZM14.9963 10.4449C14.3223 10.4449 13.7034 10.2794 13.1397 9.94853C12.576 9.60539 12.1225 9.15196 11.7794 8.58823C11.4485 8.02451 11.2831 7.39951 11.2831 6.71324C11.2831 6.02696 11.4485 5.40809 11.7794 4.85662C12.1225 4.29289 12.576 3.84559 13.1397 3.51471C13.7034 3.17157 14.3223 3 14.9963 3C15.6826 3 16.3076 3.17157 16.8713 3.51471C17.4351 3.84559 17.8824 4.29289 18.2132 4.85662C18.5441 5.40809 18.7096 6.02696 18.7096 6.71324C18.7096 7.39951 18.5441 8.02451 18.2132 8.58823C17.8824 9.15196 17.4351 9.60539 16.8713 9.94853C16.3076 10.2794 15.6826 10.4449 14.9963 10.4449ZM14.9963 8.55147C15.511 8.55147 15.94 8.37377 16.2831 8.01838C16.6385 7.66299 16.8162 7.22794 16.8162 6.71324C16.8162 6.19853 16.6385 5.76961 16.2831 5.42647C15.94 5.07108 15.511 4.89338 14.9963 4.89338C14.4816 4.89338 14.0466 5.07108 13.6912 5.42647C13.348 5.76961 13.1765 6.19853 13.1765 6.71324C13.1765 7.22794 13.348 7.66299 13.6912 8.01838C14.0466 8.37377 14.4816 8.55147 14.9963 8.55147ZM17.4228 7.94485V5.51838H20.8235C21.1422 5.51838 21.4179 5.64093 21.6507 5.88603C21.8836 6.11887 22 6.40074 22 6.73162C22 7.0625 21.8836 7.35049 21.6507 7.59559C21.4179 7.82843 21.1422 7.94485 20.8235 7.94485H17.4228ZM20.75 15.4265C21.1054 15.4265 21.3995 15.5429 21.6324 15.7757C21.8775 16.0086 22 16.2966 22 16.6397C22 16.9706 21.8775 17.2586 21.6324 17.5037C21.3995 17.7365 21.1054 17.8529 20.75 17.8529H11.5588V15.4265H20.75ZM8.98529 12.9081C9.67157 12.9081 10.2966 13.0797 10.8603 13.4228C11.424 13.7537 11.8713 14.2071 12.2022 14.7831C12.5331 15.3468 12.6985 15.9718 12.6985 16.6581C12.6985 17.3321 12.5331 17.951 12.2022 18.5147C11.8713 19.0784 11.424 19.5319 10.8603 19.875C10.2966 20.2059 9.67157 20.3713 8.98529 20.3713C8.29902 20.3713 7.67402 20.2059 7.11029 19.875C6.55882 19.5319 6.11152 19.0784 5.76838 18.5147C5.4375 17.951 5.27206 17.3321 5.27206 16.6581C5.27206 15.9718 5.4375 15.3468 5.76838 14.7831C6.11152 14.2071 6.55882 13.7537 7.11029 13.4228C7.67402 13.0797 8.29902 12.9081 8.98529 12.9081ZM8.98529 14.8199C8.48284 14.8199 8.05392 14.9975 7.69853 15.3529C7.34314 15.7083 7.16544 16.1434 7.16544 16.6581C7.16544 17.1728 7.34314 17.6078 7.69853 17.9632C8.05392 18.3064 8.48284 18.4779 8.98529 18.4779C9.5 18.4779 9.92892 18.3064 10.2721 17.9632C10.6275 17.6078 10.8051 17.1728 10.8051 16.6581C10.8051 16.1434 10.6275 15.7083 10.2721 15.3529C9.92892 14.9975 9.5 14.8199 8.98529 14.8199ZM6.57721 15.4265V17.8529H3.15809C2.85172 17.8529 2.58211 17.7365 2.34926 17.5037C2.11642 17.2586 2 16.9706 2 16.6397C2 16.2966 2.11642 16.0086 2.34926 15.7757C2.58211 15.5429 2.85172 15.4265 3.15809 15.4265H6.57721Z" fill="black"/>
</svg>
