<svg width="24" height="24" viewBox="0 0 24 24" fill="none" xmlns="http://www.w3.org/2000/svg">
<path d="M16.1475 14.2801C16.4727 14.2801 16.7923 14.2604 17.1064 14.2212C17.426 14.1819 17.726 14.1315 18.0064 14.0698C18.2924 14.0025 18.5448 13.924 18.7635 13.8342C18.8869 13.7894 18.9906 13.7585 19.0747 13.7417C19.1644 13.7193 19.2514 13.7081 19.3355 13.7081C19.5037 13.7081 19.6551 13.7698 19.7897 13.8931C19.9299 14.0165 20 14.1847 20 14.3978C20 14.4595 19.9916 14.5436 19.9748 14.6502C19.9579 14.7567 19.9187 14.8745 19.857 15.0035C19.3635 16.0577 18.7074 16.9662 17.8887 17.7288C17.0699 18.4915 16.1418 19.0775 15.1044 19.4869C14.0726 19.9019 12.9875 20.1094 11.8491 20.1094C10.6266 20.1094 9.4798 19.8794 8.40871 19.4196C7.34323 18.9654 6.40393 18.3317 5.5908 17.5186C4.78328 16.7054 4.1496 15.7661 3.68976 14.7006C3.22992 13.6296 3 12.4828 3 11.2603C3 10.0602 3.22992 8.92182 3.68976 7.84513C4.1496 6.76843 4.78328 5.82352 5.5908 5.01039C6.40393 4.19165 7.33762 3.56919 8.39189 3.143C8.52086 3.08692 8.63022 3.05047 8.71994 3.03365C8.81527 3.01122 8.89098 3 8.94706 3C9.16015 3 9.33399 3.07571 9.46858 3.22712C9.60317 3.37853 9.67046 3.54396 9.67046 3.7234C9.67046 3.82434 9.65644 3.92248 9.6284 4.01781C9.60597 4.10754 9.5583 4.21969 9.4854 4.35428C9.32839 4.6571 9.1966 5.06647 9.09005 5.58239C8.98911 6.0983 8.93864 6.66469 8.93864 7.28154C8.93864 8.72274 9.23025 9.96767 9.81346 11.0163C10.3967 12.0594 11.2266 12.8641 12.3033 13.4305C13.38 13.9969 14.6614 14.2801 16.1475 14.2801ZM4.62345 11.2098C4.62345 12.2528 4.80571 13.2174 5.17021 14.1034C5.54033 14.9894 6.05344 15.7605 6.70955 16.4166C7.36566 17.0727 8.13393 17.583 9.01435 17.9476C9.90038 18.3177 10.8621 18.5027 11.8996 18.5027C12.7127 18.5027 13.4922 18.3822 14.238 18.141C14.9894 17.8999 15.6708 17.5522 16.282 17.098C16.8989 16.6437 17.412 16.1026 17.8214 15.4745C17.5242 15.5811 17.2157 15.6568 16.8961 15.7016C16.5821 15.7465 16.2428 15.7689 15.8783 15.7689C14.1118 15.7689 12.5977 15.4381 11.336 14.7763C10.0742 14.109 9.10688 13.1557 8.43394 11.9164C7.76662 10.6771 7.43295 9.1938 7.43295 7.4666C7.43295 7.05162 7.46099 6.65908 7.51707 6.28897C7.57876 5.91885 7.66568 5.56276 7.77783 5.22068C7.12733 5.66931 6.56655 6.20765 6.0955 6.83573C5.62444 7.4638 5.25994 8.15355 5.00198 8.905C4.74963 9.65083 4.62345 10.4191 4.62345 11.2098Z" fill="black"/>
</svg>
