<svg width="24" height="24" viewBox="0 0 24 24" fill="none" xmlns="http://www.w3.org/2000/svg">
<path d="M13.9297 10.6866C14.3118 10.3045 14.9314 10.3045 15.3135 10.6866C15.6956 11.0687 15.6956 11.6882 15.3135 12.0703L13.5838 13.8L15.3134 15.5296C15.6955 15.9117 15.6955 16.5313 15.3134 16.9134C14.9313 17.2955 14.3118 17.2955 13.9297 16.9134L12.2 15.1837L10.4704 16.9134C10.0883 17.2955 9.46879 17.2955 9.08668 16.9134C8.70457 16.5313 8.70457 15.9117 9.08668 15.5296L10.8163 13.8L9.08663 12.0703C8.70452 11.6882 8.70452 11.0687 9.08663 10.6866C9.46874 10.3045 10.0883 10.3045 10.4704 10.6866L12.2 12.4163L13.9297 10.6866Z" fill="black"/>
<path fill-rule="evenodd" clip-rule="evenodd" d="M17 5H21C21.5522 5 22 5.44775 22 6C22 6.55225 21.5522 7 21 7H19.9001V19C19.9001 21.1538 18.1541 22.8999 16 22.8999H8C5.84619 22.8999 4.1001 21.1538 4.1001 19V7H3C2.44775 7 2 6.55225 2 6C2 5.44775 2.44775 5 3 5H7V3.5C7 2.11938 8.11938 1 9.5 1H14.5C15.8806 1 17 2.11938 17 3.5V5ZM5.90015 7H18.1001V19C18.1001 20.1599 17.1599 21.1001 16 21.1001H8C6.84033 21.1001 5.90015 20.1599 5.90015 19V7ZM14.5 2.80005H9.5C9.11328 2.80005 8.80005 3.11328 8.80005 3.5V5H15.2V3.5C15.2 3.11328 14.8867 2.80005 14.5 2.80005Z" fill="black"/>
</svg>
