<svg width="24" height="24" viewBox="0 0 24 24" fill="none" xmlns="http://www.w3.org/2000/svg">
<path d="M11.9942 24C10.3377 24 8.78568 23.6863 7.33817 23.0591C5.89066 22.4395 4.61732 21.5799 3.51814 20.4802C2.41896 19.3882 1.55588 18.1181 0.928882 16.6699C0.309627 15.2139 0 13.6573 0 12C0 10.3427 0.309627 8.78993 0.928882 7.34172C1.55588 5.88577 2.41896 4.60794 3.51814 3.50823C4.61732 2.40852 5.89066 1.54889 7.33817 0.929332C8.78568 0.309777 10.3377 0 11.9942 0C13.6507 0 15.2027 0.309777 16.6502 0.929332C18.1055 1.54889 19.3827 2.40852 20.4819 3.50823C21.581 4.60794 22.4403 5.88577 23.0595 7.34172C23.6865 8.78993 24 10.3427 24 12C24 13.6573 23.6865 15.2139 23.0595 16.6699C22.4403 18.1181 21.581 19.3882 20.4819 20.4802C19.3827 21.5799 18.1055 22.4395 16.6502 23.0591C15.2027 23.6863 13.6507 24 11.9942 24ZM11.9942 21.6302C13.3256 21.6302 14.5718 21.3785 15.7329 20.8751C16.8941 20.3795 17.9158 19.6902 18.7983 18.8074C19.6884 17.9245 20.3812 16.9022 20.8766 15.7406C21.372 14.5789 21.6197 13.332 21.6197 12C21.6197 10.668 21.372 9.4211 20.8766 8.25944C20.3812 7.09003 19.6884 6.06776 18.7983 5.19264C17.9158 4.30978 16.8941 3.62052 15.7329 3.12488C14.5718 2.62149 13.3256 2.3698 11.9942 2.3698C10.6705 2.3698 9.42429 2.62149 8.25544 3.12488C7.09434 3.62052 6.07257 4.30978 5.19013 5.19264C4.30769 6.06776 3.6149 7.09003 3.11176 8.25944C2.61635 9.4211 2.36865 10.668 2.36865 12C2.36865 13.332 2.61635 14.5789 3.11176 15.7406C3.6149 16.9022 4.30769 17.9245 5.19013 18.8074C6.07257 19.6902 7.09434 20.3795 8.25544 20.8751C9.42429 21.3785 10.6705 21.6302 11.9942 21.6302ZM11.9942 17.8548C11.8626 17.8548 11.731 17.8277 11.5994 17.7735C11.4678 17.7193 11.3324 17.6263 11.193 17.4947L7.40784 13.847C7.30721 13.7464 7.2298 13.6418 7.17562 13.5334C7.12917 13.425 7.10595 13.3011 7.10595 13.1617C7.10595 12.8984 7.19884 12.6815 7.38462 12.5111C7.57039 12.333 7.791 12.2439 8.04644 12.2439C8.34059 12.2439 8.58055 12.3524 8.76633 12.5692L10.3919 14.3001L11.0305 15.0552L10.9376 13.3359V7.17909C10.9376 6.90803 11.0421 6.66796 11.2511 6.45886C11.4601 6.24976 11.7078 6.14521 11.9942 6.14521C12.2961 6.14521 12.5477 6.24976 12.7489 6.45886C12.9579 6.66796 13.0624 6.90803 13.0624 7.17909V13.3359L12.9811 15.0552L13.6081 14.3001L15.2337 12.5692C15.4194 12.3524 15.6555 12.2439 15.9419 12.2439C16.1974 12.2439 16.418 12.333 16.6038 12.5111C16.7973 12.6815 16.8941 12.8984 16.8941 13.1617C16.8941 13.3011 16.867 13.425 16.8128 13.5334C16.7586 13.6418 16.6851 13.7464 16.5922 13.847L12.7954 17.4947C12.6638 17.6263 12.5322 17.7193 12.4006 17.7735C12.2767 17.8277 12.1413 17.8548 11.9942 17.8548Z" fill="black"/>
</svg>
