<svg width="24" height="24" viewBox="0 0 24 24" fill="none" xmlns="http://www.w3.org/2000/svg">
<path d="M19.8779 15.1113C19.8779 14.163 19.8767 13.5058 19.835 12.9951C19.7941 12.4952 19.7185 12.2154 19.6123 12.0068V12.0059C19.379 11.5482 19.0065 11.1765 18.5488 10.9434C18.316 10.8248 17.9978 10.7451 17.3896 10.708C16.8996 10.6781 16.2853 10.6777 15.4443 10.6777H8.33301C7.49252 10.6777 6.87865 10.6781 6.38867 10.708H6.3877C5.77956 10.7451 5.46119 10.8248 5.22852 10.9434C4.77074 11.1766 4.39828 11.5491 4.16504 12.0068C4.05891 12.2153 3.98322 12.4953 3.94238 12.9951C3.90066 13.5058 3.90039 14.1631 3.90039 15.1113V16.667C3.90039 17.6148 3.9007 18.2717 3.94238 18.7822C3.98325 19.2824 4.0588 19.5629 4.16504 19.7715C4.39832 20.2293 4.77065 20.6017 5.22852 20.835C5.437 20.9412 5.71759 21.0167 6.21777 21.0576C6.72833 21.0993 7.3852 21.0996 8.33301 21.0996H15.4443C16.3926 21.0996 17.0499 21.0993 17.5605 21.0576C18.0604 21.0168 18.3403 20.9411 18.5488 20.835C19.0066 20.6017 19.379 20.2293 19.6123 19.7715C19.7186 19.5629 19.7941 19.2824 19.835 18.7822C19.8766 18.2717 19.8779 17.6148 19.8779 16.667V15.1113ZM16.5449 7.55566C16.5449 4.98448 14.4598 2.90039 11.8887 2.90039C9.31758 2.90051 7.2334 4.98455 7.2334 7.55566V8.88086C7.56783 8.87701 7.9335 8.87793 8.33301 8.87793H15.4443C15.8442 8.87793 16.2102 8.877 16.5449 8.88086V7.55566ZM18.3447 9.00781C18.7067 9.07368 19.0449 9.17521 19.3662 9.33887C20.1628 9.74471 20.811 10.3929 21.2168 11.1895C21.4737 11.6939 21.579 12.2373 21.6289 12.8486C21.678 13.4496 21.6777 14.1928 21.6777 15.1113V16.667C21.6777 17.5854 21.678 18.3288 21.6289 18.9297C21.5789 19.541 21.4738 20.0844 21.2168 20.5889C20.8109 21.3854 20.1628 22.0326 19.3662 22.4385C18.8617 22.6955 18.3185 22.8016 17.707 22.8516C17.1061 22.9007 16.3629 22.9004 15.4443 22.9004H8.33301C7.41459 22.9004 6.67123 22.9007 6.07031 22.8516C5.45897 22.8016 4.91557 22.6955 4.41113 22.4385C3.61481 22.0327 2.96736 21.3852 2.56152 20.5889C2.30452 20.0844 2.19841 19.541 2.14844 18.9297C2.09934 18.3288 2.09961 17.5854 2.09961 16.667V15.1113C2.09961 14.1928 2.09935 13.4496 2.14844 12.8486C2.1984 12.2372 2.30452 11.694 2.56152 11.1895L2.72461 10.8975C3.13134 10.2344 3.71423 9.69396 4.41113 9.33887C4.73265 9.17507 5.07132 9.07369 5.43359 9.00781V7.55566C5.43359 3.99044 8.32347 1.09973 11.8887 1.09961C15.4539 1.09961 18.3447 3.99036 18.3447 7.55566V9.00781Z" fill="black"/>
</svg>
