<svg width="24" height="24" viewBox="0 0 24 24" fill="none" xmlns="http://www.w3.org/2000/svg">
<path d="M17.7725 12.8817C17.936 12.4028 18.6138 12.4028 18.7773 12.8817L19.2559 14.283C19.5744 15.2154 20.3069 15.9479 21.2393 16.2664L22.6406 16.7449C23.1194 16.9084 23.1194 17.5863 22.6406 17.7498L21.2393 18.2274C20.3067 18.5459 19.5744 19.2792 19.2559 20.2117L18.7773 21.6131C18.6138 22.0919 17.936 22.0919 17.7725 21.6131L17.2939 20.2117C16.9754 19.2792 16.2431 18.5459 15.3105 18.2274L13.9092 17.7498C13.4304 17.5863 13.4304 16.9084 13.9092 16.7449L15.3105 16.2664C16.2429 15.9479 16.9754 15.2154 17.2939 14.283L17.7725 12.8817ZM16.2529 2.86798C16.7775 2.86798 17.2293 2.86802 17.5996 2.89825C17.9813 2.92944 18.3613 2.99923 18.7266 3.18536C19.2712 3.46299 19.7146 3.90518 19.9922 4.45001C20.1782 4.81518 20.2471 5.19543 20.2783 5.57697C20.3085 5.94723 20.3076 6.39923 20.3076 6.92365V9.62579C20.3075 10.1587 19.8757 10.5913 19.3428 10.5916C18.8098 10.5915 18.377 10.1588 18.377 9.62579V8.53302L14.6162 11.0408C13.4411 11.8242 12.6559 12.3648 11.7793 12.575C11.0399 12.7521 10.2686 12.7521 9.5293 12.575C8.65262 12.3648 7.86742 11.8241 6.69238 11.0408H6.69043L2.93164 8.53302V14.2606C2.93164 14.8168 2.93079 15.1766 2.95312 15.45C2.97453 15.7115 3.01184 15.8095 3.03613 15.8572C3.12868 16.0386 3.27677 16.1867 3.45801 16.2791C3.50581 16.3034 3.60388 16.3388 3.86523 16.3602C4.13873 16.3825 4.49923 16.3836 5.05566 16.3836H9.68848C10.2213 16.3838 10.6541 16.8166 10.6543 17.3494C10.6539 17.8821 10.2212 18.3141 9.68848 18.3143H5.05566C4.53131 18.3143 4.07923 18.3152 3.70898 18.285C3.42287 18.2616 3.13704 18.2172 2.8584 18.118L2.58203 17.9988C2.03719 17.7213 1.59403 17.2778 1.31641 16.7332C1.1304 16.3681 1.06145 15.9878 1.03027 15.6063C1.00006 15.2361 1 14.7848 1 14.2606V6.92365C1 6.39921 1.00006 5.94724 1.03027 5.57697C1.06145 5.19536 1.13034 4.81525 1.31641 4.45001C1.59401 3.90521 2.03726 3.46302 2.58203 3.18536C2.94727 2.99929 3.32738 2.92943 3.70898 2.89825C4.07923 2.86805 4.53129 2.86798 5.05566 2.86798H16.2529ZM5.05566 4.79962C4.49929 4.79962 4.13872 4.79976 3.86523 4.82208C3.60334 4.84352 3.50571 4.87981 3.45801 4.90411C3.27645 4.99663 3.12868 5.14445 3.03613 5.32599C3.01181 5.37372 2.97455 5.47193 2.95312 5.73419C2.94213 5.86902 2.9366 6.02479 2.93359 6.21466L7.7627 9.43439C9.06342 10.3015 9.51693 10.5873 9.97852 10.6981C10.4218 10.8043 10.8847 10.8042 11.3281 10.6981C11.79 10.5874 12.2442 10.3022 13.5459 9.43439L18.3711 6.21466C18.3681 6.02475 18.3645 5.86904 18.3535 5.73419C18.3321 5.47228 18.2968 5.37378 18.2725 5.32599C18.18 5.14468 18.032 4.99666 17.8506 4.90411C17.8029 4.87982 17.7051 4.84351 17.4434 4.82208C17.1698 4.79973 16.8095 4.79962 16.2529 4.79962H5.05566Z" fill="black"/>
</svg>
