<svg width="24" height="25" viewBox="0 0 24 25" fill="none" xmlns="http://www.w3.org/2000/svg">
<path d="M11.9943 24.0381C10.3436 24.0381 8.79129 23.7237 7.33743 23.0949C5.89115 22.4737 4.61903 21.6138 3.52106 20.5154C2.4231 19.4169 1.55987 18.1441 0.931377 16.6972C0.310459 15.2426 0 13.6896 0 12.0381C0 10.379 0.310459 8.82597 0.931377 7.379C1.55987 5.92445 2.4231 4.64793 3.52106 3.54945C4.61903 2.45096 5.89115 1.59112 7.33743 0.969904C8.79129 0.348692 10.3436 0.0380859 11.9943 0.0380859C13.6526 0.0380859 15.2049 0.348692 16.6512 0.969904C18.1051 1.59112 19.381 2.45096 20.4789 3.54945C21.5769 4.64793 22.4363 5.92445 23.0573 7.379C23.6858 8.82597 24 10.379 24 12.0381C24 13.6896 23.6858 15.2426 23.0573 16.6972C22.4363 18.1441 21.5769 19.4169 20.4789 20.5154C19.381 21.6138 18.1051 22.4737 16.6512 23.0949C15.2049 23.7237 13.6526 24.0381 11.9943 24.0381ZM12.0057 13.7313C12.8159 13.7313 13.2437 13.3146 13.2892 12.4813L13.4823 7.58354C13.4974 7.1593 13.3649 6.8146 13.0847 6.54945C12.8045 6.27672 12.4411 6.14036 11.9943 6.14036C11.54 6.14036 11.1727 6.27293 10.8926 6.53809C10.62 6.80324 10.495 7.14793 10.5177 7.57218L10.6995 12.4926C10.7449 13.3184 11.1803 13.7313 12.0057 13.7313ZM12.0057 17.8449C12.46 17.8449 12.8386 17.7123 13.1415 17.4472C13.452 17.182 13.6072 16.8335 13.6072 16.4017C13.6072 15.9699 13.452 15.6214 13.1415 15.3563C12.8386 15.0911 12.46 14.9585 12.0057 14.9585C11.5513 14.9585 11.169 15.0911 10.8585 15.3563C10.548 15.6214 10.3928 15.9699 10.3928 16.4017C10.3928 16.8335 10.548 17.182 10.8585 17.4472C11.1765 17.7123 11.5589 17.8449 12.0057 17.8449Z" fill="black"/>
</svg>
