<svg width="24" height="24" viewBox="0 0 24 24" fill="none" xmlns="http://www.w3.org/2000/svg">
<path d="M12.0045 17.28C11.6542 17.28 11.3337 17.1333 11.0428 16.8399L4.33834 9.77974C4.22556 9.65748 4.13949 9.52606 4.08013 9.38547C4.02671 9.24488 4 9.089 4 8.91785C4 8.69168 4.05342 8.48384 4.16027 8.29435C4.26711 8.10486 4.40957 7.95509 4.58765 7.84507C4.77166 7.73504 4.97347 7.68002 5.1931 7.68002C5.52551 7.68002 5.81636 7.80533 6.06567 8.05595L12.414 14.7677H11.6038L17.9343 8.05595C18.1836 7.80533 18.4745 7.68002 18.8069 7.68002C19.0265 7.68002 19.2254 7.73504 19.4035 7.84507C19.5875 7.95509 19.7329 8.10486 19.8397 8.29435C19.9466 8.48384 20 8.69168 20 8.91785C20 9.25404 19.8843 9.53828 19.6528 9.77057L12.9661 16.8399C12.8236 16.9866 12.6722 17.0966 12.512 17.17C12.3576 17.2372 12.1885 17.2739 12.0045 17.28Z" fill="black"/>
</svg>
