<svg width="24" height="24" viewBox="0 0 24 24" fill="none" xmlns="http://www.w3.org/2000/svg">
<path d="M12 4.17453C13.1936 4.17453 14.3173 4.31717 15.3712 4.60247C16.425 4.88777 17.3974 5.26623 18.2882 5.73784C19.1849 6.20364 19.9825 6.71892 20.6812 7.2837C21.3857 7.84847 21.9854 8.41616 22.4803 8.98675C22.9753 9.55153 23.3508 10.0755 23.607 10.5588C23.869 11.0421 24 11.4322 24 11.7291C24 12.061 23.837 12.5093 23.5109 13.0741C23.1907 13.6389 22.7249 14.2473 22.1135 14.8994C21.5022 15.5457 20.7656 16.1629 19.9039 16.7509L18.6201 15.4671C19.1383 15.1178 19.607 14.7597 20.0262 14.3929C20.4454 14.0202 20.8035 13.6651 21.1004 13.3274C21.3974 12.9838 21.6245 12.6723 21.7817 12.3929C21.9389 12.1134 22.0175 11.8921 22.0175 11.7291C22.0175 11.5603 21.8981 11.3012 21.6594 10.9518C21.4265 10.6025 21.0917 10.2065 20.655 9.76405C20.2183 9.31572 19.6972 8.86448 19.0917 8.41033C18.4862 7.95619 17.8108 7.53697 17.0655 7.15269C16.3202 6.76259 15.5226 6.44818 14.6725 6.20946C13.8224 5.97074 12.9316 5.85138 12 5.85138C11.54 5.85138 11.0888 5.88632 10.6463 5.95619C10.2096 6.02605 9.79039 6.12212 9.38865 6.24439L7.9738 4.82955C8.59097 4.63159 9.23435 4.47438 9.90393 4.35793C10.5793 4.23566 11.278 4.17453 12 4.17453ZM12 19.2924C10.8239 19.2924 9.70888 19.1498 8.65502 18.8645C7.60699 18.5792 6.63755 18.2036 5.74673 17.7378C4.8559 17.2662 4.05531 16.748 3.34498 16.1833C2.64047 15.6185 2.03785 15.0537 1.53712 14.4889C1.04221 13.9183 0.660844 13.3914 0.393013 12.9082C0.131004 12.4191 0 12.0261 0 11.7291C0 11.4787 0.0960699 11.1585 0.28821 10.7684C0.486172 10.3725 0.77147 9.93872 1.1441 9.4671C1.51674 8.98966 1.96798 8.5064 2.49782 8.01732C3.03348 7.52242 3.63901 7.04789 4.31441 6.59374L5.63319 7.90378C5.07424 8.2706 4.5706 8.64614 4.12227 9.03042C3.67394 9.4147 3.28967 9.78734 2.96943 10.1483C2.65502 10.5093 2.41048 10.8295 2.23581 11.109C2.06696 11.3827 1.98253 11.5894 1.98253 11.7291C1.98253 11.9329 2.09898 12.2182 2.33188 12.585C2.5706 12.9518 2.9083 13.3565 3.34498 13.799C3.78166 14.2357 4.29985 14.6782 4.89956 15.1265C5.50509 15.569 6.18049 15.9795 6.92576 16.3579C7.67103 16.7364 8.4687 17.0392 9.31878 17.2662C10.1747 17.4933 11.0684 17.6068 12 17.6068C12.5065 17.6068 13.0044 17.569 13.4935 17.4933C13.9825 17.4176 14.4541 17.3099 14.9083 17.1702L16.2969 18.5675C15.6448 18.7946 14.9578 18.9722 14.2358 19.1003C13.5197 19.2284 12.7744 19.2924 12 19.2924ZM12.0087 7.03042C12.655 7.03042 13.2635 7.15269 13.8341 7.39723C14.4047 7.63595 14.9054 7.97074 15.3362 8.4016C15.7671 8.82664 16.1048 9.32445 16.3493 9.89505C16.5939 10.4656 16.7162 11.077 16.7162 11.7291C16.7162 12.0028 16.69 12.2677 16.6376 12.5239C16.5852 12.7801 16.5124 13.0275 16.4192 13.2662L10.4716 7.31863C10.7045 7.23129 10.9491 7.16143 11.2052 7.10902C11.4672 7.05662 11.7351 7.03042 12.0087 7.03042ZM12.0087 16.4365C11.345 16.4365 10.7278 16.3143 10.1572 16.0697C9.58661 15.8194 9.08588 15.4787 8.65502 15.0479C8.22416 14.6112 7.88646 14.1105 7.64192 13.5457C7.4032 12.9751 7.28384 12.3696 7.28384 11.7291C7.28384 11.4089 7.31587 11.1003 7.37991 10.8033C7.44396 10.5006 7.54003 10.2153 7.66812 9.94745L13.7817 16.0523C13.508 16.1745 13.2198 16.2706 12.917 16.3405C12.6201 16.4045 12.3173 16.4365 12.0087 16.4365ZM18.9083 19.4409L4.1048 4.65488C3.97089 4.52096 3.90393 4.35793 3.90393 4.16579C3.90393 3.96783 3.97089 3.80189 4.1048 3.66798C4.23872 3.53406 4.40466 3.4671 4.60262 3.4671C4.80058 3.4671 4.96361 3.53406 5.0917 3.66798L19.8865 18.454C20.0262 18.5937 20.0961 18.7568 20.0961 18.9431C20.1019 19.1294 20.032 19.2953 19.8865 19.4409C19.7525 19.5865 19.5895 19.6563 19.3974 19.6505C19.2052 19.6505 19.0422 19.5806 18.9083 19.4409Z" fill="black"/>
</svg>
