<svg width="24" height="24" viewBox="0 0 24 24" fill="none" xmlns="http://www.w3.org/2000/svg">
<path d="M21.8366 4C22.5425 4.00026 23 4.40636 23 5.03398C23 5.6616 22.5425 6.04156 21.8366 6.04181H17.4418V19.7296C17.4418 20.501 16.9967 20.9849 16.2908 20.9852C15.5845 20.9852 15.1522 20.5013 15.1522 19.7296V6.04181H10.7712C10.0518 6.04181 9.59403 5.66181 9.59403 5.03398C9.59403 4.40616 10.0518 4 10.7712 4H21.8366Z" fill="black"/>
<path d="M8.97171 10.5784C9.53345 10.5784 9.92997 10.9666 9.92997 11.5201C9.92997 12.0653 9.53345 12.4536 8.97171 12.4536H6.57607V19.7475C6.57607 20.4827 6.1465 20.937 5.46086 20.937C4.76694 20.937 4.34564 20.491 4.34564 19.7475V12.4536H1.95826C1.40478 12.4536 1 12.0571 1 11.5201C1 10.9749 1.40478 10.5784 1.95826 10.5784H8.97171Z" fill="black"/>
</svg>
