<svg width="24" height="24" viewBox="0 0 24 24" fill="none" xmlns="http://www.w3.org/2000/svg">
<path d="M17.7985 18.8923C17.1321 18.8923 16.5428 18.7658 16.0307 18.5128C15.5248 18.2599 15.1268 17.9081 14.8368 17.4577C14.5468 17.0011 14.4018 16.4736 14.4018 15.8751C14.4018 14.9804 14.7257 14.2739 15.3736 13.7556C16.0276 13.2311 16.9655 12.9349 18.1872 12.8671L21.0656 12.7097V11.9508C21.0656 11.3399 20.8744 10.8617 20.4918 10.5162C20.1154 10.1645 19.5909 9.98864 18.9184 9.98864C18.3631 9.98864 17.8972 10.1059 17.5208 10.3403C17.1506 10.5748 16.8298 10.945 16.5583 11.451C16.4657 11.5929 16.3516 11.6978 16.2158 11.7657C16.0801 11.8335 15.9258 11.8675 15.753 11.8675C15.5001 11.8675 15.2934 11.7965 15.1329 11.6546C14.9787 11.5065 14.9016 11.3152 14.9016 11.0808C14.9016 10.9759 14.917 10.871 14.9478 10.7661C14.9787 10.655 15.0188 10.544 15.0682 10.4329C15.3273 9.81587 15.8086 9.32842 16.512 8.97055C17.2216 8.60651 18.0453 8.42448 18.9832 8.42448C19.8038 8.42448 20.5134 8.5664 21.1119 8.85023C21.7166 9.12789 22.1824 9.5197 22.5095 10.0257C22.8365 10.5316 23 11.124 23 11.8027V17.9205C23 18.229 22.9105 18.4696 22.7316 18.6424C22.5588 18.8152 22.3336 18.9016 22.056 18.9016C21.7845 18.9016 21.5623 18.8183 21.3896 18.6517C21.2168 18.4912 21.1273 18.2722 21.1212 17.9945V16.9579H21.0934C20.9021 17.3528 20.6368 17.6953 20.2974 17.9853C19.9581 18.2753 19.5724 18.4974 19.1405 18.6517C18.7086 18.8121 18.2613 18.8923 17.7985 18.8923ZM18.3168 17.3929C18.8289 17.3929 19.2917 17.285 19.7051 17.069C20.1247 16.853 20.4548 16.5599 20.6954 16.1897C20.9422 15.8195 21.0656 15.4061 21.0656 14.9495V14.024L18.4464 14.1906C17.7738 14.2338 17.2586 14.4004 16.9007 14.6904C16.5428 14.9742 16.3639 15.3444 16.3639 15.801C16.3639 16.2761 16.5428 16.6618 16.9007 16.9579C17.2648 17.2479 17.7368 17.3929 18.3168 17.3929ZM2.02735 18.883C1.70649 18.883 1.45351 18.7967 1.26841 18.6239C1.08947 18.4511 1 18.2105 1 17.902C1 17.7169 1.04011 17.504 1.12032 17.2634L5.23896 6.15692C5.51045 5.38564 6.04726 5 6.84939 5C7.27514 5 7.62067 5.09564 7.88599 5.28692C8.15748 5.47819 8.36418 5.7682 8.5061 6.15692L12.597 17.2171C12.6834 17.4577 12.7265 17.6798 12.7265 17.8835C12.7265 18.192 12.6278 18.4357 12.4304 18.6146C12.2391 18.7936 11.9799 18.883 11.6529 18.883C11.3444 18.883 11.1007 18.8121 10.9218 18.6702C10.749 18.5344 10.6132 18.3 10.5145 17.9668L9.48717 15.0976H4.20236L3.17501 17.9668C3.07629 18.3 2.93746 18.5344 2.75852 18.6702C2.58575 18.8121 2.34203 18.883 2.02735 18.883ZM4.73917 13.3761H8.96887L6.87716 7.36012H6.83088L4.73917 13.3761Z" fill="black"/>
</svg>
