<svg width="24" height="24" viewBox="0 0 24 24" fill="none" xmlns="http://www.w3.org/2000/svg">
<path fill-rule="evenodd" clip-rule="evenodd" d="M14.4923 6.23824C14.3825 6.12846 14.1948 6.20621 14.1948 6.36147V10.4275C14.1948 10.6322 14.0522 10.8094 13.8522 10.8531L4.1806 12.9688C4.08639 12.9894 4.09049 13.1251 4.18577 13.14L13.8263 14.6463C14.0384 14.6795 14.1948 14.8621 14.1948 15.0768V19.6738C14.1948 19.827 14.3783 19.9056 14.4892 19.8L21.3724 13.2446C21.4078 13.2108 21.4085 13.1545 21.3739 13.1199L14.4923 6.23824ZM12.6263 5.30965C12.6263 4.14521 14.0342 3.56206 14.8576 4.38544L22.483 12.0108C23.1407 12.6685 23.1276 13.7389 22.4541 14.3804L14.8348 21.6368C14.0026 22.4293 12.6263 21.8395 12.6263 20.6904V16.0463L2.1053 14.4024C0.676079 14.1791 0.614598 12.1433 2.02777 11.8342L12.6263 9.51574V5.30965Z" fill="black"/>
</svg>
