<svg width="24" height="24" viewBox="0 0 24 24" fill="none" xmlns="http://www.w3.org/2000/svg">
<path d="M11.9952 22C10.6147 22 9.3214 21.7386 8.11514 21.2159C6.90889 20.6996 5.84777 19.9832 4.93179 19.0668C4.0158 18.1568 3.29657 17.0984 2.77407 15.8916C2.25802 14.6783 2 13.3811 2 12C2 10.6189 2.25802 9.32494 2.77407 8.1181C3.29657 6.90481 4.0158 5.83995 4.93179 4.92352C5.84777 4.0071 6.90889 3.29074 8.11514 2.77444C9.3214 2.25815 10.6147 2 11.9952 2C13.3756 2 14.6689 2.25815 15.8752 2.77444C17.0879 3.29074 18.1522 4.0071 19.0682 4.92352C19.9842 5.83995 20.7002 6.90481 21.2163 8.1181C21.7388 9.32494 22 10.6189 22 12C22 13.3811 21.7388 14.6783 21.2163 15.8916C20.7002 17.0984 19.9842 18.1568 19.0682 19.0668C18.1522 19.9832 17.0879 20.6996 15.8752 21.2159C14.6689 21.7386 13.3756 22 11.9952 22ZM11.9952 20.0252C13.1047 20.0252 14.1432 19.8154 15.1108 19.3959C16.0784 18.9829 16.9298 18.4085 17.6652 17.6728C18.407 16.9371 18.9844 16.0852 19.3972 15.1171C19.81 14.1491 20.0164 13.11 20.0164 12C20.0164 10.89 19.81 9.85092 19.3972 8.88287C18.9844 7.90836 18.407 7.05647 17.6652 6.3272C16.9298 5.59148 16.0784 5.0171 15.1108 4.60407C14.1432 4.18458 13.1047 3.97483 11.9952 3.97483C10.8921 3.97483 9.85357 4.18458 8.87954 4.60407C7.91195 5.0171 7.06047 5.59148 6.32511 6.3272C5.58974 7.05647 5.01242 7.90836 4.59313 8.88287C4.18029 9.85092 3.97388 10.89 3.97388 12C3.97388 13.11 4.18029 14.1491 4.59313 15.1171C5.01242 16.0852 5.58974 16.9371 6.32511 17.6728C7.06047 18.4085 7.91195 18.9829 8.87954 19.3959C9.85357 19.8154 10.8921 20.0252 11.9952 20.0252ZM11.9855 16.7628C11.3146 16.7628 10.7212 16.6434 10.2051 16.4046C9.69553 16.1594 9.29882 15.8787 9.015 15.5624C8.73762 15.2462 8.59894 14.9816 8.59894 14.7686C8.59894 14.6525 8.64409 14.5718 8.7344 14.5266C8.83116 14.475 8.93437 14.475 9.04402 14.5266C9.39881 14.7138 9.80197 14.8945 10.2535 15.0687C10.705 15.243 11.2824 15.3301 11.9855 15.3301C12.6886 15.3301 13.2659 15.243 13.7175 15.0687C14.1755 14.8945 14.5786 14.7138 14.9269 14.5266C15.0366 14.475 15.1398 14.475 15.2366 14.5266C15.3333 14.5718 15.3817 14.6525 15.3817 14.7686C15.3817 14.9816 15.2398 15.2462 14.956 15.5624C14.6721 15.8787 14.2754 16.1594 13.7658 16.4046C13.2562 16.6434 12.6628 16.7628 11.9855 16.7628ZM9.13111 11.1288C8.82793 11.1288 8.56346 11.0061 8.33769 10.7609C8.11837 10.5156 8.00871 10.1994 8.00871 9.8122C8.00871 9.43143 8.11837 9.11843 8.33769 8.87318C8.56346 8.62149 8.82793 8.49564 9.13111 8.49564C9.43428 8.49564 9.70198 8.62149 9.9342 8.87318C10.1664 9.11843 10.2825 9.43143 10.2825 9.8122C10.2825 10.1994 10.1664 10.5156 9.9342 10.7609C9.70198 11.0061 9.43428 11.1288 9.13111 11.1288ZM14.8399 11.1288C14.5367 11.1288 14.2722 11.0061 14.0464 10.7609C13.8271 10.5156 13.7175 10.1994 13.7175 9.8122C13.7175 9.43143 13.8271 9.11843 14.0464 8.87318C14.2722 8.62149 14.5367 8.49564 14.8399 8.49564C15.143 8.49564 15.4107 8.62149 15.643 8.87318C15.8752 9.11843 15.9913 9.43143 15.9913 9.8122C15.9913 10.1994 15.8752 10.5156 15.643 10.7609C15.4107 11.0061 15.143 11.1288 14.8399 11.1288Z" fill="black"/>
</svg>
