<svg width="24" height="24" viewBox="0 0 24 24" fill="none" xmlns="http://www.w3.org/2000/svg">
<path d="M10.7002 12.0996C10.7545 12.0996 10.8079 12.1043 10.8604 12.1113C11.1349 12.0685 11.4254 12.1519 11.6367 12.3633C11.8479 12.5745 11.9303 12.8644 11.8877 13.1387C11.8948 13.1915 11.9004 13.2451 11.9004 13.2998V19C11.9004 19.4971 11.4971 19.9004 11 19.9004C10.5029 19.9004 10.0996 19.4971 10.0996 19V15.1738L5.63672 19.6367C5.28527 19.9882 4.71476 19.9881 4.36328 19.6367C4.01181 19.2852 4.01181 18.7148 4.36328 18.3633L8.82617 13.9004H5C4.50294 13.9004 4.09961 13.4971 4.09961 13C4.09961 12.5029 4.50294 12.0996 5 12.0996H10.7002Z" fill="black"/>
<path d="M18.3633 4.36328C18.7148 4.01181 19.2852 4.01181 19.6367 4.36328C19.9881 4.71476 19.9882 5.28527 19.6367 5.63672L15.1738 10.0996H19C19.4971 10.0996 19.9004 10.5029 19.9004 11C19.9004 11.4971 19.4971 11.9004 19 11.9004H13.2998C13.2451 11.9004 13.1915 11.8948 13.1387 11.8877C12.8644 11.9303 12.5745 11.8479 12.3633 11.6367C12.1519 11.4254 12.0685 11.1349 12.1113 10.8604C12.1043 10.8079 12.0996 10.7545 12.0996 10.7002V5C12.0996 4.50294 12.5029 4.09961 13 4.09961C13.4971 4.09961 13.9004 4.50294 13.9004 5V8.82617L18.3633 4.36328Z" fill="black"/>
</svg>
