<svg width="24" height="24" viewBox="0 0 24 24" fill="none" xmlns="http://www.w3.org/2000/svg">
<path d="M18.7002 4.09961C19.3628 4.09971 19.9003 4.63722 19.9004 5.2998V11C19.9004 11.4971 19.4971 11.9004 19 11.9004C18.5029 11.9004 18.0996 11.4971 18.0996 11V7.17383L7.17383 18.0996H11C11.4971 18.0996 11.9004 18.5029 11.9004 19C11.9004 19.4971 11.4971 19.9004 11 19.9004H5.2998C4.63722 19.9003 4.09971 19.3628 4.09961 18.7002V13C4.09961 12.5029 4.50294 12.0996 5 12.0996C5.49706 12.0996 5.90039 12.5029 5.90039 13V16.8262L16.8262 5.90039H13C12.5029 5.90039 12.0996 5.49706 12.0996 5C12.0996 4.50294 12.5029 4.09961 13 4.09961H18.7002Z" fill="black"/>
</svg>
