<svg width="24" height="24" viewBox="0 0 24 24" fill="none" xmlns="http://www.w3.org/2000/svg">
<g clip-path="url(#clip0_1365_1028)">
<path d="M23.5189 12.2726C23.5189 11.4217 23.4426 10.6036 23.3008 9.81812H11.999V14.4654H18.4572C18.1735 15.9599 17.3226 17.2253 16.0463 18.0762V21.098H19.9408C22.2099 19.0035 23.5189 15.9272 23.5189 12.2726Z" fill="#4285F4"/>
<path d="M11.9988 24C15.2387 24 17.9551 22.9309 19.9405 21.0982L16.046 18.0764C14.9769 18.7964 13.6133 19.2327 11.9988 19.2327C8.8788 19.2327 6.22791 17.1273 5.27883 14.291H1.28613V17.3891C3.26066 21.3054 7.3079 24 11.9988 24Z" fill="#34A853"/>
<path d="M5.27996 14.28C5.03996 13.56 4.89814 12.7964 4.89814 12C4.89814 11.2037 5.03996 10.44 5.27996 9.72004V6.62189H1.28726C0.469087 8.23642 0 10.0582 0 12C0 13.9418 0.469087 15.7636 1.28726 17.3782L4.39633 14.9564L5.27996 14.28Z" fill="#FBBC05"/>
<path d="M11.9988 4.77814C13.766 4.77814 15.3369 5.38905 16.5915 6.56722L20.0278 3.13088C17.9442 1.18908 15.2388 0 11.9988 0C7.3079 0 3.26066 2.69452 1.28613 6.62177L5.27883 9.71992C6.22791 6.88358 8.8788 4.77814 11.9988 4.77814Z" fill="#EA4335"/>
</g>
<defs>
<clipPath id="clip0_1365_1028">
<rect width="24" height="24" fill="white"/>
</clipPath>
</defs>
</svg>
