<svg width="24" height="24" viewBox="0 0 24 24" fill="none" xmlns="http://www.w3.org/2000/svg">
<path d="M22.8408 6.35156C22.9069 6.30354 22.9998 6.35104 23 6.43262V18C23 19.6523 21.6523 21 20 21H4C2.34772 21 1.00001 19.6523 1 18V6.43262C1.00019 6.35104 1.09315 6.30354 1.15918 6.35156L10.8232 13.3809C11.5245 13.8909 12.4755 13.8909 13.1768 13.3809L22.8408 6.35156Z" fill="black"/>
<path d="M20 3C20.9056 3 21.7197 3.40498 22.2705 4.04297C22.3435 4.12754 22.3238 4.2546 22.2334 4.32031L13.1768 10.9082C12.4755 11.4182 11.5245 11.4182 10.8232 10.9082L1.7666 4.32031C1.67624 4.2546 1.65647 4.12754 1.72949 4.04297C2.28034 3.40497 3.09438 3.00002 4 3H20Z" fill="black"/>
</svg>
