<svg width="24" height="24" viewBox="0 0 24 24" fill="none" xmlns="http://www.w3.org/2000/svg">
<path fill-rule="evenodd" clip-rule="evenodd" d="M23 5.99979V17.9998C23 19.6521 21.6523 20.9998 20 20.9998H4C2.34772 20.9998 1 19.6521 1 17.9998V5.99979C1 4.34294 2.34315 2.99979 4 2.99979H20C21.6569 2.99979 23 4.34294 23 5.99979ZM3.24859 5.65315C3.16709 5.5961 3.13831 5.48631 3.19771 5.40651C3.38079 5.16057 3.67343 4.99979 4 4.99979H20C20.3266 4.99979 20.6192 5.16057 20.8023 5.40651C20.8617 5.48631 20.8329 5.5961 20.7514 5.65315L12.2867 11.5784C12.1146 11.6989 11.8854 11.6989 11.7133 11.5784L3.24859 5.65315ZM3 8.11251C3 8.03161 3.09107 7.98419 3.15735 8.03059L10.8531 13.4176C11.5417 13.8997 12.4583 13.8997 13.1469 13.4176L20.8427 8.03059C20.9089 7.98419 21 8.03161 21 8.11251V17.9998C21 18.5475 20.5477 18.9998 20 18.9998H4C3.45228 18.9998 3 18.5475 3 17.9998V8.11251Z" fill="black"/>
</svg>
