<svg width="24" height="24" viewBox="0 0 24 24" fill="none" xmlns="http://www.w3.org/2000/svg">
<path d="M12 10.0996C12.4971 10.0996 12.9004 10.5029 12.9004 11V17C12.9004 17.4971 12.4971 17.9004 12 17.9004C11.5029 17.9004 11.0996 17.4971 11.0996 17V11C11.0996 10.5029 11.5029 10.0996 12 10.0996Z" fill="black"/>
<path d="M12.1025 7.00488C12.116 7.00625 12.1293 7.00884 12.1426 7.01074C12.1899 7.0175 12.2363 7.02689 12.2812 7.04004C12.3058 7.04721 12.3298 7.05549 12.3535 7.06445C12.3587 7.06642 12.364 7.06826 12.3691 7.07031C12.3861 7.07706 12.4024 7.08514 12.4189 7.09277C12.4367 7.10098 12.4545 7.10896 12.4717 7.11816L12.5449 7.16211C12.5551 7.16877 12.5652 7.17559 12.5752 7.18262C12.5939 7.19576 12.6122 7.20927 12.6299 7.22363C12.6336 7.22668 12.6369 7.2303 12.6406 7.2334C12.6598 7.24939 12.6784 7.26584 12.6963 7.2832C12.7029 7.28962 12.7094 7.29613 12.7158 7.30273C12.7321 7.31942 12.7476 7.33671 12.7627 7.35449C12.7672 7.35977 12.772 7.36474 12.7764 7.37012C12.7897 7.38654 12.8022 7.40364 12.8145 7.4209C12.8215 7.43083 12.8282 7.44098 12.835 7.45117C12.8622 7.49247 12.8863 7.53579 12.9072 7.58105C12.913 7.59346 12.9196 7.60549 12.9248 7.61816C12.961 7.7057 12.9851 7.79949 12.9951 7.89746C12.9985 7.93116 13 7.96539 13 8C13 8.51768 12.6067 8.94379 12.1025 8.99512C12.0688 8.99855 12.0346 9 12 9C11.9654 9 11.9312 8.99855 11.8975 8.99512C11.3933 8.94379 11 8.51768 11 8C11 7.95123 11.004 7.90335 11.0107 7.85645C11.0178 7.80768 11.0282 7.7601 11.042 7.71387C11.0489 7.69078 11.056 7.66786 11.0645 7.64551C11.0668 7.63923 11.0698 7.63317 11.0723 7.62695C11.0787 7.61109 11.0856 7.59553 11.0928 7.58008C11.113 7.53634 11.136 7.49415 11.1621 7.4541C11.1688 7.44389 11.1756 7.43378 11.1826 7.42383C11.213 7.38083 11.2466 7.34036 11.2832 7.30273C11.2896 7.29613 11.2961 7.28962 11.3027 7.2832C11.3194 7.26696 11.3367 7.25138 11.3545 7.23633C11.3598 7.23186 11.3647 7.22702 11.3701 7.22266C11.3865 7.20933 11.4036 7.19685 11.4209 7.18457C11.4308 7.17751 11.441 7.17077 11.4512 7.16406C11.4696 7.15195 11.4886 7.14079 11.5078 7.12988C11.515 7.12578 11.522 7.12111 11.5293 7.11719C11.5462 7.10814 11.5636 7.09988 11.5811 7.0918C11.5934 7.08607 11.6055 7.07945 11.6182 7.07422C11.6411 7.06474 11.6647 7.05661 11.6885 7.04883C11.6934 7.04723 11.6982 7.04547 11.7031 7.04395C11.7655 7.0246 11.8306 7.01169 11.8975 7.00488L12 7L12.1025 7.00488Z" fill="black"/>
<path fill-rule="evenodd" clip-rule="evenodd" d="M12 1.09961C18.0199 1.09961 22.9004 5.9801 22.9004 12C22.9004 18.0199 18.0199 22.9004 12 22.9004C5.9801 22.9004 1.09961 18.0199 1.09961 12C1.09961 5.9801 5.9801 1.09961 12 1.09961ZM12 2.90039C6.97421 2.90039 2.90039 6.97421 2.90039 12C2.90039 17.0258 6.97421 21.0996 12 21.0996C17.0258 21.0996 21.0996 17.0258 21.0996 12C21.0996 6.97421 17.0258 2.90039 12 2.90039Z" fill="black"/>
</svg>
