<svg width="24" height="24" viewBox="0 0 24 24" fill="none" xmlns="http://www.w3.org/2000/svg">
<path d="M3.85153 22C3.5959 22 3.3739 21.9058 3.18554 21.7175C3.0039 21.5358 2.91309 21.3206 2.91309 21.0716V4.32089C2.91309 3.86344 3.01736 3.4968 3.2259 3.22099C3.44117 2.93845 3.72371 2.71645 4.07353 2.55499C4.34935 2.43391 4.6218 2.333 4.89089 2.25227C5.15997 2.16482 5.46943 2.10091 5.81924 2.06054C6.16906 2.02018 6.5996 2 7.11087 2C8.02577 2 8.88012 2.09082 9.67393 2.27245C10.4745 2.45409 11.2515 2.66936 12.0049 2.91826C12.7651 3.16044 13.532 3.37571 14.3056 3.56408C15.086 3.74571 15.9134 3.83653 16.788 3.83653C17.602 3.83653 18.2511 3.77262 18.7355 3.6448C19.2198 3.51026 19.6067 3.44299 19.8959 3.44299C20.239 3.44299 20.5216 3.54053 20.7436 3.73562C20.9723 3.92398 21.0866 4.18298 21.0866 4.51261V14.5732C21.0866 15.0441 20.9824 15.4309 20.7738 15.7336C20.572 16.0296 20.2928 16.2583 19.9363 16.4198C19.6739 16.5409 19.4082 16.6451 19.1391 16.7326C18.87 16.8133 18.5572 16.8739 18.2007 16.9142C17.8509 16.9546 17.417 16.9748 16.899 16.9748C16.011 16.9748 15.1768 16.884 14.3964 16.7023C13.6161 16.514 12.8492 16.2987 12.0957 16.0565C11.349 15.8143 10.5787 15.6024 9.78493 15.4208C8.99112 15.2324 8.13677 15.1382 7.22187 15.1382C6.56933 15.1382 6.03451 15.1954 5.61742 15.3098C5.20034 15.4174 4.92452 15.4981 4.78998 15.552V21.0716C4.78998 21.3273 4.6958 21.5459 4.50744 21.7275C4.3258 21.9092 4.10717 22 3.85153 22ZM16.8687 15.0878C17.5549 15.0878 18.0897 15.0104 18.4731 14.8557C18.8633 14.701 19.0988 14.5496 19.1795 14.4016V5.43088C18.8768 5.5116 18.5202 5.57888 18.1099 5.63269C17.6995 5.67978 17.2488 5.70333 16.7577 5.70333C15.8495 5.70333 14.9952 5.61251 14.1946 5.43088C13.4008 5.24252 12.6272 5.03061 11.8737 4.79516C11.1203 4.55298 10.3567 4.34107 9.58312 4.15944C8.81621 3.97107 8.00222 3.87689 7.14114 3.87689C6.44824 3.87689 5.91006 3.95762 5.52661 4.11907C5.14316 4.2738 4.91107 4.42516 4.83034 4.57316V13.5742C5.0927 13.4733 5.43579 13.3959 5.8596 13.3421C6.29015 13.2883 6.75432 13.2614 7.25214 13.2614C8.20067 13.2614 9.08194 13.3555 9.89593 13.5439C10.7167 13.7255 11.5037 13.9374 12.2572 14.1796C13.0106 14.4151 13.7607 14.627 14.5074 14.8153C15.2609 14.997 16.048 15.0878 16.8687 15.0878Z" fill="black"/>
</svg>
