<svg width="24" height="24" viewBox="0 0 24 24" fill="none" xmlns="http://www.w3.org/2000/svg">
<path d="M3.45924 22C3.20252 22 2.97958 21.9054 2.79042 21.7163C2.60801 21.5339 2.51681 21.3177 2.51681 21.0677V4.20544C2.51681 3.97574 2.55397 3.78996 2.62828 3.64809L4.44219 5.45187V13.5385C4.70567 13.4371 5.05021 13.3594 5.47582 13.3054C5.90818 13.2513 6.37433 13.2243 6.87425 13.2243C7.53631 13.2243 8.16122 13.275 8.74896 13.3763C9.33671 13.4709 9.90081 13.5925 10.4413 13.7411C10.9885 13.8898 11.5256 14.0418 12.0525 14.1971C12.5795 14.3458 13.1165 14.4741 13.6637 14.5822L16.0046 16.9332C15.1669 16.8859 14.3799 16.7677 13.6435 16.5785C12.9139 16.3894 12.191 16.1799 11.4749 15.9503C10.7655 15.7206 10.0325 15.5246 9.27591 15.3625C8.52602 15.1936 7.71534 15.1092 6.84385 15.1092C6.18855 15.1092 5.65147 15.1666 5.23261 15.2814C4.81376 15.3895 4.53677 15.4706 4.40166 15.5246V21.0677C4.40166 21.3244 4.30708 21.544 4.11792 21.7264C3.93551 21.9088 3.71595 22 3.45924 22ZM20.5444 15.5044L18.8521 13.8121V5.36066C18.5481 5.44173 18.1901 5.50929 17.778 5.56333C17.3659 5.61062 16.9132 5.63427 16.4201 5.63427C15.7107 5.63427 15.0419 5.57685 14.4136 5.462C13.7921 5.34715 13.1875 5.20528 12.5997 5.03639C12.012 4.86074 11.4276 4.68847 10.8466 4.51958C10.2656 4.34393 9.66098 4.20206 9.0327 4.09397L6.85398 1.91525C7.75925 1.92876 8.61047 2.03009 9.40765 2.21925C10.2048 2.40166 10.975 2.61446 11.7181 2.85767C12.468 3.09412 13.228 3.30355 13.9982 3.48595C14.7683 3.66836 15.5857 3.75956 16.4505 3.75956C17.2679 3.75956 17.9199 3.69538 18.4063 3.56702C18.8927 3.43191 19.2811 3.36435 19.5716 3.36435C19.9162 3.36435 20.1999 3.46231 20.4228 3.65822C20.6525 3.84738 20.7674 4.10748 20.7674 4.43851V14.5417C20.7674 14.7444 20.7505 14.9268 20.7167 15.0889C20.6829 15.2443 20.6255 15.3828 20.5444 15.5044ZM19.9162 19.0511L2.23307 1.37817C2.08445 1.22279 2.00676 1.03363 2 0.810686C2 0.580992 2.07769 0.388454 2.23307 0.233072C2.39521 0.0776908 2.58775 0 2.81069 0C3.03362 0 3.22616 0.0776908 3.3883 0.233072L21.0613 17.906C21.2166 18.0614 21.2943 18.2506 21.2943 18.4735C21.2943 18.6965 21.2166 18.889 21.0613 19.0511C20.9059 19.1998 20.7167 19.2741 20.4938 19.2741C20.2708 19.2808 20.0783 19.2065 19.9162 19.0511Z" fill="black"/>
</svg>
