<svg width="24" height="24" viewBox="0 0 24 24" fill="none" xmlns="http://www.w3.org/2000/svg">
<path d="M13.7501 9.8252C13.7501 7.82146 14.1851 5.96243 14.9337 4.57227C14.9419 4.55691 14.9507 4.54166 14.9591 4.52637L4.77644 6.37793C3.74576 6.56533 3.41178 6.63524 3.15827 6.75977C2.58614 7.0408 2.15959 7.55089 1.98542 8.16406C1.90825 8.43579 1.90046 8.77737 1.90046 9.8252C1.90046 10.8722 1.90838 11.2137 1.98542 11.4854C2.15958 12.0985 2.58606 12.6095 3.15827 12.8906L3.25788 12.9346C3.50588 13.0339 3.8745 13.1075 4.77644 13.2715L14.9591 15.123C14.9508 15.108 14.9418 15.0933 14.9337 15.0781C14.1851 13.688 13.7501 11.8289 13.7501 9.8252ZM5.46101 20.2754C5.48166 20.5645 5.49457 20.7295 5.51276 20.8496C5.51941 20.8935 5.52492 20.9194 5.52839 20.9326C5.54136 20.9521 5.55869 20.9679 5.57917 20.9795C5.59253 20.982 5.61874 20.9867 5.66315 20.9902C5.78423 20.9998 5.94943 21 6.23933 21H8.11042C8.44091 21 8.63334 20.9991 8.77351 20.9873C8.82684 20.9828 8.8577 20.9768 8.87312 20.9736C8.89319 20.9603 8.90927 20.943 8.92097 20.9219C8.92294 20.9062 8.92643 20.8751 8.92683 20.8223C8.92733 20.7519 8.92458 20.6683 8.91804 20.5615L8.88874 20.1602L8.55183 15.7871L5.09577 15.1592L5.46101 20.2754ZM15.5499 9.8252C15.5499 11.5907 15.9371 13.1447 16.5186 14.2246C16.9559 15.0367 17.4356 15.473 17.8663 15.6514L18.3878 15.7461C18.9035 15.7147 19.5534 15.297 20.1309 14.2246C20.7124 13.1447 21.0996 11.5907 21.0997 9.8252C21.0997 8.05965 20.7125 6.50577 20.1309 5.42578C19.5534 4.35319 18.9035 3.93473 18.3878 3.90332L17.8663 3.99805C17.4356 4.17639 16.956 4.6135 16.5186 5.42578C15.9371 6.50576 15.5499 8.05975 15.5499 9.8252ZM22.9005 9.8252C22.9004 11.8289 22.4644 13.688 21.7159 15.0781C20.9871 16.4314 19.8296 17.5497 18.3253 17.5498C17.9916 17.5498 17.6757 17.492 17.377 17.3916L10.3819 16.1201L10.6837 20.0225C10.7066 20.3211 10.7283 20.601 10.7266 20.835C10.7249 21.0787 10.6986 21.3583 10.5733 21.6406C10.3981 22.0356 10.0965 22.3613 9.71589 22.5664C9.44415 22.7128 9.16763 22.7608 8.92487 22.7812C8.69167 22.8009 8.41008 22.7998 8.11042 22.7998H6.23933C5.97821 22.7998 5.73007 22.8007 5.52155 22.7842C5.30201 22.7668 5.05413 22.7268 4.80476 22.6064C4.45128 22.4357 4.15761 22.1618 3.96198 21.8213C3.82405 21.5811 3.76548 21.3369 3.73249 21.1191C3.70117 20.9124 3.68469 20.6647 3.66608 20.4043L3.26569 14.8105C2.92462 14.73 2.63116 14.6369 2.36433 14.5059C1.33464 13.9999 0.567454 13.0812 0.253975 11.9775C0.0914949 11.4054 0.099677 10.7569 0.0996782 9.8252C0.0996782 8.89361 0.0915969 8.24495 0.253975 7.67285C0.567469 6.56913 1.33447 5.64943 2.36433 5.14355C2.89825 4.88128 3.53835 4.77412 4.45515 4.60742L17.38 2.25684C17.6777 2.15707 17.9927 2.09961 18.3253 2.09961C19.8297 2.09971 20.9871 3.21886 21.7159 4.57227C22.4644 5.96244 22.9005 7.8214 22.9005 9.8252Z" fill="black"/>
</svg>
