<svg width="24" height="24" viewBox="0 0 24 24" fill="none" xmlns="http://www.w3.org/2000/svg">
<path fill-rule="evenodd" clip-rule="evenodd" d="M12 3.6092C7.36589 3.6092 3.6092 7.36589 3.6092 12C3.6092 16.6341 7.36589 20.3908 12 20.3908C16.6341 20.3908 20.3908 16.6341 20.3908 12C20.3908 7.36589 16.6341 3.6092 12 3.6092ZM2 12C2 6.47715 6.47715 2 12 2C17.5228 2 22 6.47715 22 12C22 17.5228 17.5228 22 12 22C6.47715 22 2 17.5228 2 12Z" fill="black"/>
<path fill-rule="evenodd" clip-rule="evenodd" d="M2 12C2 11.5556 2.36023 11.1954 2.8046 11.1954H21.1954C21.6398 11.1954 22 11.5556 22 12C22 12.4443 21.6398 12.8046 21.1954 12.8046H2.8046C2.36023 12.8046 2 12.4443 2 12Z" fill="black"/>
<path fill-rule="evenodd" clip-rule="evenodd" d="M12.0013 2C12.2273 2 12.4429 2.09507 12.5954 2.26196C15.0269 4.92399 16.4088 8.37862 16.4839 11.9832C16.4841 11.9944 16.4841 12.0056 16.4839 12.0168C16.4088 15.6214 15.0269 19.076 12.5954 21.738C12.4429 21.9049 12.2273 22 12.0013 22C11.7753 22 11.5597 21.9049 11.4072 21.738C8.97568 19.076 7.59382 15.6214 7.51873 12.0168C7.5185 12.0056 7.5185 11.9944 7.51873 11.9832C7.59382 8.37862 8.97568 4.92399 11.4072 2.26196C11.5597 2.09507 11.7753 2 12.0013 2ZM9.12794 12C9.19207 14.9024 10.2061 17.6949 12.0013 19.9555C13.7965 17.6949 14.8106 14.9024 14.8747 12C14.8106 9.09763 13.7965 6.30513 12.0013 4.04449C10.2061 6.30513 9.19207 9.09763 9.12794 12Z" fill="black"/>
</svg>
