<svg width="24" height="24" viewBox="0 0 24 24" fill="none" xmlns="http://www.w3.org/2000/svg">
<path d="M10.3333 2.09907C10.947 2.09907 11.4444 2.59653 11.4444 3.21018C11.4444 3.82383 10.947 4.32129 10.3333 4.32129H7.55556C5.71461 4.32129 4.22222 5.81367 4.22222 7.65462V16.5435C4.22222 18.3845 5.71461 19.8768 7.55556 19.8768H16.4444C18.2854 19.8768 19.7778 18.3845 19.7778 16.5435V13.2102C19.7778 12.5965 20.2752 12.0991 20.8889 12.0991C21.5025 12.0991 22 12.5965 22 13.2102V16.5435C22 19.6118 19.5127 22.0991 16.4444 22.0991H7.55556C4.48731 22.0991 2 19.6118 2 16.5435V7.65462C2 4.58637 4.48731 2.09907 7.55556 2.09907H10.3333Z" fill="black"/>
<path d="M20.9052 2.09907C20.9609 2.09987 21.0155 2.10554 21.069 2.11426C21.0799 2.11603 21.0908 2.11759 21.1016 2.11968L21.1124 2.12185C21.1234 2.12409 21.1341 2.12689 21.145 2.12945C21.1678 2.13483 21.1908 2.13997 21.2133 2.14681C21.2351 2.15344 21.2562 2.16169 21.2773 2.1696C21.2882 2.17362 21.2992 2.17716 21.3099 2.18153C21.3251 2.18774 21.3396 2.1953 21.3544 2.20215C21.4062 2.22604 21.4568 2.2534 21.5052 2.2857C21.5175 2.2939 21.5291 2.30306 21.541 2.31174C21.5876 2.34563 21.6335 2.38254 21.6756 2.42459C21.7663 2.51542 21.8366 2.6189 21.8893 2.72841C21.9135 2.77861 21.9346 2.8306 21.9512 2.88466C21.9835 2.99063 22 3.10032 22 3.21018V8.14833C22 8.76198 21.5025 9.25944 20.8889 9.25944C20.2753 9.25937 19.7778 8.76194 19.7778 8.14833V5.89355L14.2678 11.4035C13.834 11.8371 13.1305 11.8369 12.6966 11.4035C12.2628 10.9697 12.2629 10.2663 12.6966 9.83236L18.2077 4.32129H15.9507C15.3371 4.32129 14.8396 3.82383 14.8396 3.21018C14.8396 2.59653 15.3371 2.09907 15.9507 2.09907C16.1717 1.87821 20.6156 2.09502 20.9052 2.09907Z" fill="black"/>
</svg>
