<svg width="24" height="24" viewBox="0 0 24 24" fill="none" xmlns="http://www.w3.org/2000/svg">
<path d="M5.75033 20.6163C4.83224 20.6163 4.01226 20.4866 3.29041 20.2273C2.57556 19.968 1.97985 19.5966 1.50329 19.113C0.501095 18.1248 0 16.7057 0 14.8555V6.76084C0 4.91765 0.501095 3.49847 1.50329 2.50329C1.97985 2.01971 2.57556 1.64827 3.29041 1.38896C4.01226 1.12965 4.83224 1 5.75033 1H13.8555C14.7735 1 15.59 1.12965 16.3049 1.38896C17.0197 1.64827 17.6189 2.01971 18.1025 2.50329C19.1047 3.49847 19.6058 4.91765 19.6058 6.76084V10.3456C19.2624 10.2755 18.919 10.2405 18.5756 10.2405C18.2181 10.2405 17.8747 10.2755 17.5453 10.3456V6.82392C17.5453 6.20018 17.4647 5.65353 17.3035 5.18397C17.1494 4.71441 16.9146 4.32195 16.5992 4.00657C16.2908 3.70521 15.9019 3.47394 15.4323 3.31275C14.9628 3.15156 14.4126 3.07096 13.7819 3.07096H5.8134C5.19667 3.07096 4.65002 3.15156 4.17346 3.31275C3.7039 3.47394 3.31844 3.70521 3.01708 4.00657C2.6947 4.32195 2.45642 4.71441 2.30223 5.18397C2.14805 5.65353 2.07096 6.20018 2.07096 6.82392V14.7924C2.07096 15.4161 2.14805 15.9663 2.30223 16.4428C2.45642 16.9124 2.6947 17.3014 3.01708 17.6097C3.31844 17.9111 3.7039 18.1424 4.17346 18.3036C4.65002 18.4647 5.19667 18.5453 5.8134 18.5453H11.8476C11.9106 18.9168 12.0053 19.2742 12.1314 19.6176C12.2646 19.961 12.4258 20.2939 12.615 20.6163H5.75033ZM18.5861 22.5821C17.8432 22.5821 17.1459 22.442 16.4941 22.1616C15.8423 21.8813 15.2676 21.4888 14.77 20.9842C14.2724 20.4866 13.88 19.912 13.5926 19.2602C13.3123 18.6084 13.1721 17.9111 13.1721 17.1682C13.1721 16.4253 13.3123 15.728 13.5926 15.0762C13.88 14.4244 14.2724 13.8498 14.77 13.3522C15.2676 12.8476 15.8423 12.4551 16.4941 12.1748C17.1459 11.8944 17.8432 11.7543 18.5861 11.7543C19.329 11.7543 20.0263 11.8944 20.6781 12.1748C21.3298 12.4551 21.9045 12.8441 22.4021 13.3417C22.8997 13.8392 23.2887 14.4174 23.569 15.0762C23.8563 15.728 24 16.4253 24 17.1682C24 17.9041 23.8563 18.5979 23.569 19.2497C23.2887 19.9085 22.8962 20.4866 22.3916 20.9842C21.894 21.4818 21.3158 21.8708 20.657 22.1511C20.0053 22.4385 19.3149 22.5821 18.5861 22.5821ZM17.9343 20.1012C18.2076 20.1012 18.4144 20.0066 18.5545 19.8173L21.5926 15.6334C21.6487 15.5563 21.6873 15.4792 21.7083 15.4021C21.7363 15.325 21.7503 15.2549 21.7503 15.1919C21.7503 14.9816 21.6732 14.8064 21.5191 14.6662C21.3719 14.5191 21.2002 14.4455 21.0039 14.4455C20.7376 14.4455 20.5274 14.5576 20.3732 14.7819L17.8922 18.2089L16.6728 16.8739C16.6027 16.8038 16.5221 16.7477 16.431 16.7057C16.3399 16.6636 16.2313 16.6426 16.1051 16.6426C15.9019 16.6426 15.7267 16.7127 15.5795 16.8528C15.4323 16.986 15.3587 17.1647 15.3587 17.389C15.3587 17.4801 15.3763 17.5747 15.4113 17.6728C15.4534 17.7639 15.5059 17.8515 15.569 17.9356L17.3351 19.8489C17.4052 19.933 17.4963 19.9961 17.6084 20.0381C17.7205 20.0802 17.8292 20.1012 17.9343 20.1012Z" fill="black"/>
</svg>
