<svg width="24" height="24" viewBox="0 0 24 24" fill="none" xmlns="http://www.w3.org/2000/svg">
<path d="M21.7325 9.39545C22.2277 9.39558 22.6288 9.79744 22.6288 10.2927C22.6286 15.6743 18.4981 20.0878 13.2343 20.5425V23.1038C13.2342 23.599 12.8324 24 12.3371 24C11.8418 24 11.44 23.599 11.4399 23.1038V20.5425C6.17603 20.0879 2.04465 15.6743 2.04443 10.2927C2.04443 9.79736 2.44635 9.39545 2.94165 9.39545C3.43695 9.39545 3.83886 9.79736 3.83886 10.2927C3.83909 14.9818 7.63681 18.7831 12.3244 18.7899H12.3488C17.0369 18.7836 20.8351 14.9821 20.8353 10.2927C20.8353 9.79736 21.2372 9.39545 21.7325 9.39545Z" fill="black"/>
<path fill-rule="evenodd" clip-rule="evenodd" d="M12.3371 0C15.6624 0.000262982 18.3586 2.69633 18.3588 6.02165V10.2927C18.3585 13.6179 15.6623 16.3141 12.3371 16.3143C9.01178 16.3142 6.3157 13.618 6.31545 10.2927V6.02165C6.31562 2.69626 9.01172 0.000159448 12.3371 0ZM12.3371 1.79443C10.0023 1.79459 8.11004 3.68687 8.10988 6.02165V10.2927C8.11013 12.6274 10.0024 14.5207 12.3371 14.5209C14.6717 14.5206 16.565 12.6273 16.5653 10.2927V6.02165C16.5651 3.68693 14.6718 1.79469 12.3371 1.79443Z" fill="black"/>
</svg>
