<svg width="24" height="24" viewBox="0 0 24 24" fill="none" xmlns="http://www.w3.org/2000/svg">
<rect width="24" height="24" rx="12" fill="#787880" fill-opacity="0.12"/>
<path d="M7 11.611V10.4773C7 10.2745 7.07359 10.1034 7.22076 9.9642C7.37192 9.821 7.55091 9.7494 7.75776 9.7494C7.9646 9.7494 8.1436 9.821 8.29475 9.9642C8.4459 10.1034 8.52148 10.2745 8.52148 10.4773V11.5632C8.52148 12.2395 8.67064 12.8282 8.96897 13.3294C9.27128 13.8305 9.68298 14.2204 10.2041 14.4988C10.7291 14.7733 11.3278 14.9105 12 14.9105C12.6722 14.9105 13.2689 14.7733 13.79 14.4988C14.315 14.2204 14.7267 13.8305 15.0251 13.3294C15.3274 12.8282 15.4785 12.2395 15.4785 11.5632V10.4773C15.4785 10.2745 15.5521 10.1034 15.6993 9.9642C15.8504 9.821 16.0314 9.7494 16.2422 9.7494C16.4491 9.7494 16.6261 9.821 16.7733 9.9642C16.9244 10.1034 17 10.2745 17 10.4773V11.611C17 12.498 16.815 13.2776 16.4451 13.9499C16.0792 14.6181 15.574 15.1551 14.9296 15.5609C14.2852 15.9666 13.5473 16.2152 12.716 16.3067V17.2434H14.864C15.0708 17.2434 15.2498 17.315 15.401 17.4582C15.5561 17.6054 15.6337 17.7844 15.6337 17.9952C15.6337 18.1941 15.5561 18.3671 15.401 18.5143C15.2498 18.6615 15.0708 18.7351 14.864 18.7351H9.13604C8.9292 18.7351 8.74821 18.6615 8.59308 18.5143C8.44193 18.3671 8.36635 18.1941 8.36635 17.9952C8.36635 17.7844 8.44193 17.6054 8.59308 17.4582C8.74821 17.315 8.9292 17.2434 9.13604 17.2434H11.284V16.3067C10.4527 16.2152 9.7148 15.9666 9.07041 15.5609C8.42601 15.1551 7.91885 14.6181 7.54893 13.9499C7.18298 13.2776 7 12.498 7 11.611ZM12 13.753C11.5863 13.753 11.2064 13.6555 10.8604 13.4606C10.5143 13.2657 10.2359 12.9932 10.0251 12.6432C9.81822 12.2892 9.7148 11.8775 9.7148 11.4081V7.34487C9.7148 6.8755 9.81822 6.46579 10.0251 6.11575C10.2359 5.76571 10.5143 5.49324 10.8604 5.29833C11.2064 5.09944 11.5863 5 12 5C12.4137 5 12.7936 5.09944 13.1396 5.29833C13.4857 5.49324 13.7601 5.7677 13.963 6.12172C14.1698 6.47176 14.2733 6.88146 14.2733 7.35084V11.4081C14.2733 11.8775 14.1698 12.2892 13.963 12.6432C13.7601 12.9932 13.4857 13.2657 13.1396 13.4606C12.7936 13.6555 12.4137 13.753 12 13.753Z" fill="black"/>
</svg>
