<svg width="24" height="24" viewBox="0 0 24 24" fill="none" xmlns="http://www.w3.org/2000/svg">
<path d="M11.9942 24C10.3377 24 8.78568 23.6864 7.33817 23.0591C5.89066 22.4395 4.61732 21.5799 3.51814 20.4802C2.41896 19.3804 1.55588 18.1065 0.928882 16.6583C0.309628 15.2101 0 13.6573 0 12C0 10.3427 0.309628 8.78993 0.928882 7.34172C1.55588 5.88577 2.41896 4.61181 3.51814 3.51985C4.61732 2.42014 5.89066 1.5605 7.33817 0.940949C8.78568 0.31365 10.3377 0 11.9942 0C13.6507 0 15.2027 0.31365 16.6502 0.940949C18.1055 1.5605 19.3827 2.42014 20.4819 3.51985C21.581 4.61181 22.4403 5.88577 23.0595 7.34172C23.6865 8.78993 24 10.3427 24 12C24 13.6573 23.6865 15.2101 23.0595 16.6583C22.4403 18.1065 21.581 19.3804 20.4819 20.4802C19.3827 21.5799 18.1055 22.4395 16.6502 23.0591C15.2027 23.6864 13.6507 24 11.9942 24ZM7.43106 13.1617H16.5689C16.9328 13.1617 17.2308 13.061 17.463 12.8596C17.6952 12.6505 17.8113 12.3717 17.8113 12.0232C17.8113 11.667 17.6991 11.3882 17.4746 11.1868C17.2501 10.9777 16.9482 10.8732 16.5689 10.8732H7.43106C7.05951 10.8732 6.75762 10.9777 6.5254 11.1868C6.30092 11.3882 6.18868 11.667 6.18868 12.0232C6.18868 12.3717 6.30479 12.6505 6.53701 12.8596C6.76923 13.061 7.06725 13.1617 7.43106 13.1617Z" fill="black"/>
</svg>
