<svg width="24" height="24" viewBox="0 0 24 24" fill="none" xmlns="http://www.w3.org/2000/svg">
<path d="M21.2227 12C21.2227 12.3134 21.099 12.5898 20.8515 12.829L16.0022 17.6536C15.763 17.8845 15.4949 18 15.198 18C14.8928 18 14.637 17.8969 14.4308 17.6907C14.2246 17.4927 14.1215 17.2411 14.1215 16.9359C14.1215 16.7875 14.1463 16.6472 14.1958 16.5153C14.2452 16.375 14.3195 16.2554 14.4185 16.1564L18.7234 12.2475L18.9708 13.14L14.9868 13.1012H4.08881C3.76712 13.1012 3.50316 12.9981 3.29695 12.7919C3.09898 12.5856 3 12.3217 3 12C3 11.6783 3.09898 11.4144 3.29695 11.2081C3.50316 11.0019 3.76712 10.8988 4.08881 10.8988H14.9868L18.9708 10.9425L18.7234 11.7649L15.6186 8.94308L14.4185 7.84355C14.3195 7.74457 14.2452 7.62909 14.1958 7.49711C14.1463 7.35689 14.1215 7.21254 14.1215 7.06406C14.1215 6.75887 14.2246 6.50729 14.4308 6.30932C14.637 6.10311 14.8928 6 15.198 6C15.3464 6 15.4866 6.02887 15.6186 6.08661C15.7589 6.14435 15.895 6.23921 16.0269 6.37119L20.8515 11.171C21.099 11.4102 21.2227 11.6866 21.2227 12Z" fill="black"/>
</svg>
