<svg width="24" height="24" viewBox="0 0 24 24" fill="none" xmlns="http://www.w3.org/2000/svg">
<path d="M7.89469 7.29761C7.63617 7.29761 7.41966 7.20712 7.24515 7.02616C7.07065 6.83873 6.9834 6.61898 6.9834 6.36692C6.9834 6.11486 7.07065 5.90158 7.24515 5.72708C7.41966 5.54611 7.63617 5.45563 7.89469 5.45563H21.0794C21.3314 5.45563 21.5479 5.54288 21.7289 5.71738C21.9099 5.89189 22.0004 6.1084 22.0004 6.36692C22.0004 6.62544 21.9099 6.84519 21.7289 7.02616C21.5479 7.20712 21.3314 7.29761 21.0794 7.29761H7.89469ZM7.89469 13.2404C7.63617 13.2404 7.41966 13.1532 7.24515 12.9787C7.07065 12.7977 6.9834 12.5812 6.9834 12.3291C6.9834 12.0706 7.07065 11.8508 7.24515 11.6699C7.41966 11.4889 7.63617 11.3984 7.89469 11.3984H21.0794C21.3314 11.3984 21.5479 11.4889 21.7289 11.6699C21.9099 11.8508 22.0004 12.0706 22.0004 12.3291C22.0004 12.5812 21.9099 12.7977 21.7289 12.9787C21.5479 13.1532 21.3314 13.2404 21.0794 13.2404H7.89469ZM7.89469 19.2026C7.63617 19.2026 7.41966 19.1121 7.24515 18.9311C7.07065 18.7437 6.9834 18.5272 6.9834 18.2816C6.9834 18.0231 7.07065 17.8066 7.24515 17.6321C7.41966 17.4511 7.63617 17.3606 7.89469 17.3606H21.0794C21.3314 17.3606 21.5479 17.4511 21.7289 17.6321C21.9099 17.8066 22.0004 18.0231 22.0004 18.2816C22.0004 18.5337 21.9099 18.7502 21.7289 18.9311C21.5479 19.1121 21.3314 19.2026 21.0794 19.2026H7.89469Z" fill="black"/>
<path d="M1.03976 18.9742C1.03976 18.8549 1.0782 18.7343 1.15507 18.6123C1.23194 18.4904 1.36978 18.3327 1.56859 18.1392L2.94433 16.7237C3.15905 16.5063 3.31279 16.3194 3.40557 16.163C3.50099 16.0066 3.54871 15.8529 3.54871 15.7018C3.54871 15.5056 3.48376 15.3479 3.35388 15.2286C3.22664 15.1093 3.05832 15.0497 2.84891 15.0497C2.73757 15.0497 2.63419 15.0696 2.53877 15.1093C2.44599 15.1465 2.36249 15.2048 2.28827 15.2843C2.21405 15.3612 2.14778 15.4579 2.08946 15.5746C2.00199 15.7097 1.91584 15.8065 1.83101 15.8648C1.74619 15.9205 1.64679 15.9483 1.5328 15.9483C1.37641 15.9483 1.24785 15.9006 1.14712 15.8052C1.04904 15.7071 1 15.5825 1 15.4314C1 15.1849 1.08482 14.9529 1.25447 14.7356C1.42412 14.5156 1.65341 14.338 1.94235 14.2028C2.23393 14.0676 2.55997 14 2.92048 14C3.28628 14 3.611 14.0689 3.89463 14.2068C4.17826 14.3419 4.40225 14.5288 4.5666 14.7674C4.73095 15.0033 4.81312 15.2737 4.81312 15.5785C4.81312 15.7641 4.78131 15.947 4.71769 16.1272C4.65408 16.3048 4.55335 16.4877 4.41551 16.6759C4.28032 16.8641 4.10139 17.0669 3.87873 17.2843L2.74553 18.4294V18.4851H4.3996C4.5825 18.4851 4.7283 18.5315 4.83698 18.6243C4.94566 18.717 5 18.8456 5 19.0099C5 19.1716 4.94698 19.2989 4.84095 19.3917C4.73492 19.4818 4.58781 19.5268 4.3996 19.5268H1.67992C1.48907 19.5268 1.334 19.4765 1.21471 19.3757C1.09808 19.2724 1.03976 19.1385 1.03976 18.9742Z" fill="black"/>
<path d="M2.52036 10.4796V6.41176H2.50226L2.02715 6.73303C1.91252 6.80543 1.81599 6.85671 1.73756 6.88688C1.66214 6.91403 1.58824 6.9276 1.51584 6.9276C1.36802 6.9276 1.24434 6.87934 1.1448 6.78281C1.04827 6.68326 1 6.55958 1 6.41176C1 6.18854 1.13424 5.99246 1.40271 5.82353L2.14027 5.33032C2.31825 5.2187 2.48718 5.13575 2.64706 5.08145C2.80995 5.02715 2.96682 5 3.11765 5C3.38311 5 3.59578 5.08296 3.75566 5.24887C3.91855 5.41478 4 5.63499 4 5.9095V10.4796C4 10.736 3.93514 10.9336 3.80543 11.0724C3.67873 11.2081 3.49774 11.276 3.26244 11.276C3.02715 11.276 2.84465 11.2066 2.71493 11.0679C2.58522 10.9291 2.52036 10.733 2.52036 10.4796Z" fill="black"/>
</svg>
