<svg width="24" height="24" viewBox="0 0 24 24" fill="none" xmlns="http://www.w3.org/2000/svg">
<path fill-rule="evenodd" clip-rule="evenodd" d="M18.5862 1.7998C19.4469 1.79983 20.2434 2.15693 20.9533 2.83691L21.1584 3.0332L21.1467 3.03809C21.8188 3.74964 22.184 4.51888 22.1994 5.33301C22.2156 6.23424 21.8013 7.1076 21.009 7.92383C20.6369 8.30815 17.6547 11.2658 14.7063 14.1855L8.60569 20.2217C8.53283 20.2939 8.44754 20.3518 8.35471 20.3926L8.25901 20.4277C7.88485 20.5396 6.55496 20.9651 5.30979 21.3652C4.68801 21.565 4.08797 21.7581 3.64085 21.9023C3.41739 21.9744 3.23173 22.0339 3.10081 22.0762C3.03552 22.0973 2.98365 22.1143 2.94749 22.126C2.9297 22.1317 2.91545 22.1364 2.9055 22.1396C2.9008 22.1412 2.89658 22.1426 2.89378 22.1436C2.8924 22.144 2.89073 22.1443 2.88987 22.1445L2.88889 22.1455C2.8053 22.1726 2.71851 22.1855 2.63304 22.1855C2.44372 22.1855 2.25805 22.1208 2.10862 21.999L2.0471 21.9434C1.82794 21.7242 1.74561 21.3996 1.83714 21.1016C1.85205 21.0527 3.20494 16.6248 3.47386 15.6299L3.50901 15.5264C3.55093 15.4261 3.61306 15.3344 3.69065 15.2568L3.69261 15.2549C3.69401 15.2535 3.69572 15.2508 3.69846 15.248C3.70422 15.2423 3.71355 15.2339 3.72483 15.2227C3.74747 15.2 3.78068 15.1659 3.82444 15.1221C3.91234 15.0341 4.04205 14.9045 4.20628 14.7402C4.53476 14.4116 5.00409 13.9416 5.56858 13.377C6.69805 12.2471 8.20813 10.7368 9.72874 9.21582C12.7678 6.17599 15.852 3.09165 16.0315 2.91406C16.2904 2.65707 17.2528 1.79982 18.5862 1.7998ZM2.82639 21.9551C2.76307 21.9755 2.6976 21.9853 2.63304 21.9854C2.66527 21.9853 2.69763 21.9835 2.72971 21.9785L2.82639 21.9551ZM4.34886 18.4434C4.16375 19.023 3.97548 19.6189 3.81565 20.1338C4.34741 19.9592 4.96538 19.7546 5.55589 19.5557C6.18606 19.3433 6.7873 19.1416 7.21995 19C7.08567 18.6422 6.84065 18.152 6.39475 17.7021C5.81312 17.1161 5.24371 16.8465 4.88792 16.7246C4.7448 17.1936 4.55112 17.8099 4.34886 18.4434ZM5.94944 15.3574C6.43437 15.5879 7.00961 15.9494 7.57444 16.5186C8.03471 16.9821 8.34873 17.4741 8.56468 17.9111C10.8866 15.6144 16.1857 10.3709 18.6057 7.96387C18.5331 7.66582 18.3041 6.93759 17.6643 6.29199C17.0085 5.63037 16.3681 5.37114 16.0324 5.27344C13.6459 7.65944 8.25844 13.0478 5.94944 15.3574ZM20.8645 7.78516C20.6783 7.97741 19.841 8.81201 18.6819 9.96289L20.8645 7.78516ZM21.9387 5.94727C21.9714 5.79625 21.9919 5.64497 21.9983 5.49316L22.0002 5.33691C21.9963 5.1311 21.968 4.92727 21.9162 4.72559L21.9504 4.87793C21.9802 5.02975 21.9973 5.18281 22.0002 5.33691C22.0039 5.54101 21.9825 5.74452 21.9387 5.94727ZM18.5852 3.47656C18.2316 3.47656 17.9034 3.61222 17.6487 3.76562C17.5121 3.84788 17.4008 3.93302 17.3225 3.99805C17.7841 4.22965 18.3168 4.57892 18.842 5.1084C19.357 5.62718 19.6904 6.18057 19.9065 6.6543C20.3461 6.17239 20.5403 5.74024 20.5334 5.36328C20.526 4.96999 20.3007 4.52874 19.803 4.05078C19.3934 3.65766 18.9841 3.47666 18.5852 3.47656ZM2.00804 21.2461L2.00022 21.3223C2.00013 21.3245 2.00029 21.3268 2.00022 21.3291C2.00102 21.3014 2.00359 21.2737 2.00804 21.2461Z" fill="black"/>
</svg>
