<svg width="24" height="24" viewBox="0 0 24 24" fill="none" xmlns="http://www.w3.org/2000/svg">
<path d="M11.5993 18.2368V15.9399C10.5003 15.8468 9.44732 15.5843 8.45867 15.1782L7.51434 17.061C7.2915 17.5053 6.75064 17.6852 6.30633 17.4623C5.86223 17.2394 5.68317 16.6985 5.90594 16.2543L6.85516 14.3598C6.06138 13.8706 5.32534 13.2828 4.65984 12.6118L3.13641 14.1362C2.78494 14.4876 2.21445 14.4876 1.86297 14.1362C1.51177 13.7848 1.51187 13.2152 1.86297 12.8637L3.48309 11.2426C3.00288 10.5956 2.57861 9.89718 2.21746 9.15765C1.99951 8.71113 2.18416 8.17271 2.63055 7.95453C3.07719 7.73641 3.61653 7.92195 3.83465 8.36859C4.25737 9.23412 4.7757 10.0256 5.37078 10.728C5.37849 10.737 5.38595 10.7461 5.39324 10.7553C6.24929 11.759 7.2646 12.5769 8.38836 13.1616C8.40897 13.1701 8.42964 13.1788 8.44988 13.1889C8.47754 13.2028 8.50439 13.2176 8.52996 13.2338C9.75074 13.8428 11.0947 14.1791 12.4997 14.1791C13.9046 14.1791 15.2486 13.8427 16.4694 13.2338C16.495 13.2176 16.5218 13.2028 16.5495 13.1889C16.5697 13.1788 16.5904 13.1701 16.611 13.1616C17.7297 12.5795 18.7407 11.7664 19.5944 10.769C19.6105 10.7478 19.628 10.7275 19.6462 10.7075C20.2341 10.0102 20.747 9.22573 21.1657 8.36859C21.3838 7.9222 21.9223 7.73671 22.3688 7.95453C22.8154 8.1727 23.001 8.71205 22.7829 9.15863C22.4216 9.89816 21.9957 10.5956 21.5153 11.2426L23.1364 12.8637C23.4875 13.2152 23.4876 13.7848 23.1364 14.1362C22.7849 14.4876 22.2144 14.4876 21.863 14.1362L20.3386 12.6118C19.6729 13.2828 18.9371 13.8707 18.1432 14.3598L19.0934 16.2543C19.3163 16.6986 19.1372 17.2394 18.693 17.4623C18.2487 17.6852 17.7079 17.5053 17.485 17.061L16.5397 15.1782C15.5513 15.5841 14.4987 15.8468 13.4001 15.9399V18.2368C13.4 18.7338 12.9967 19.1362 12.4997 19.1362C12.0027 19.1361 11.5994 18.7337 11.5993 18.2368Z" fill="black"/>
</svg>
