<svg width="24" height="24" viewBox="0 0 24 24" fill="none" xmlns="http://www.w3.org/2000/svg">
<path d="M5.77167 7.85624H7.34461V19.8393H5.77167V7.85624ZM16.6469 7.85624H18.2199V19.8393H16.6469V7.85624ZM4.7315 20.8288C3.8351 20.8288 3.15574 20.6004 2.69345 20.1438C2.23115 19.6927 2 19.019 2 18.1226V9.84355C2 8.94151 2.23115 8.26498 2.69345 7.81395C3.15574 7.36293 3.8351 7.13742 4.7315 7.13742H19.2685C20.1705 7.13742 20.8499 7.36293 21.3066 7.81395C21.7689 8.26498 22 8.94151 22 9.84355V18.1226C22 19.019 21.7689 19.6927 21.3066 20.1438C20.8499 20.6004 20.1705 20.8288 19.2685 20.8288H4.7315ZM4.79915 19.2304H19.2008C19.5673 19.2304 19.8464 19.1318 20.0381 18.9345C20.2354 18.7428 20.334 18.4552 20.334 18.0719V9.89429C20.334 9.50529 20.2354 9.21494 20.0381 9.02326C19.8464 8.83157 19.5673 8.73573 19.2008 8.73573H4.79915C4.4327 8.73573 4.15081 8.83157 3.95349 9.02326C3.7618 9.21494 3.66596 9.50529 3.66596 9.89429V18.0719C3.66596 18.4552 3.7618 18.7428 3.95349 18.9345C4.15081 19.1318 4.4327 19.2304 4.79915 19.2304ZM7.56448 7.82241V6.35941C7.56448 5.56448 7.78436 4.97252 8.2241 4.58351C8.66385 4.1945 9.26145 4 10.0169 4H13.9662C14.7667 4 15.3756 4.1945 15.7928 4.58351C16.2156 4.97252 16.4271 5.56448 16.4271 6.35941V7.81395H14.8879V6.36786C14.8879 6.06342 14.8034 5.82946 14.6342 5.66596C14.4708 5.50247 14.234 5.42072 13.9239 5.42072H10.0761C9.76603 5.42072 9.52643 5.50247 9.35729 5.66596C9.18816 5.82946 9.10359 6.06342 9.10359 6.36786V7.82241H7.56448Z" fill="black"/>
</svg>
