<svg width="24" height="24" viewBox="0 0 24 24" fill="none" xmlns="http://www.w3.org/2000/svg">
<path d="M2 10.1679C2 9.04197 2.21153 7.98772 2.6346 7.00512C3.05766 6.01569 3.64449 5.14568 4.39509 4.39509C5.14568 3.64449 6.01228 3.05766 6.99488 2.6346C7.98431 2.21153 9.04197 2 10.1679 2C11.2938 2 12.348 2.21153 13.3306 2.6346C14.32 3.05766 15.19 3.64449 15.9406 4.39509C16.6912 5.14568 17.2781 6.01569 17.7011 7.00512C18.1242 7.98772 18.3357 9.04197 18.3357 10.1679C18.3357 11.1027 18.1856 11.9898 17.8854 12.8291C17.5919 13.6684 17.1825 14.4292 16.6571 15.1116L21.6622 20.1474C21.7714 20.2566 21.8533 20.3828 21.9079 20.5261C21.9693 20.6694 22 20.8229 22 20.9867C22 21.2119 21.9488 21.4166 21.8465 21.6008C21.7509 21.7851 21.6145 21.9284 21.4371 22.0307C21.2596 22.1399 21.0549 22.1945 20.8229 22.1945C20.6592 22.1945 20.5022 22.1638 20.3521 22.1024C20.2088 22.0478 20.0757 21.9625 19.9529 21.8465L14.9171 16.8004C14.2484 17.2781 13.5114 17.6534 12.7062 17.9263C11.9011 18.1992 11.0549 18.3357 10.1679 18.3357C9.04197 18.3357 7.98431 18.1242 6.99488 17.7011C6.01228 17.2781 5.14568 16.6912 4.39509 15.9406C3.64449 15.19 3.05766 14.3234 2.6346 13.3408C2.21153 12.3514 2 11.2938 2 10.1679ZM3.75026 10.1679C3.75026 11.0549 3.91402 11.8874 4.24156 12.6653C4.57591 13.4364 5.03651 14.1153 5.62334 14.7021C6.21699 15.289 6.89935 15.7496 7.67042 16.0839C8.44831 16.4183 9.28079 16.5855 10.1679 16.5855C11.0549 16.5855 11.884 16.4183 12.6551 16.0839C13.433 15.7496 14.1153 15.289 14.7021 14.7021C15.289 14.1153 15.7496 13.4364 16.0839 12.6653C16.4183 11.8874 16.5855 11.0549 16.5855 10.1679C16.5855 9.28079 16.4183 8.45172 16.0839 7.68066C15.7496 6.90276 15.289 6.2204 14.7021 5.63357C14.1153 5.03992 13.433 4.57932 12.6551 4.25179C11.884 3.91743 11.0549 3.75026 10.1679 3.75026C9.28079 3.75026 8.44831 3.91743 7.67042 4.25179C6.89935 4.57932 6.21699 5.03992 5.62334 5.63357C5.03651 6.2204 4.57591 6.90276 4.24156 7.68066C3.91402 8.45172 3.75026 9.28079 3.75026 10.1679ZM6.94371 9.51279C6.73217 9.51279 6.55817 9.44456 6.4217 9.30809C6.29205 9.16479 6.22723 8.9942 6.22723 8.79632C6.22723 8.59161 6.29205 8.42102 6.4217 8.28454C6.55817 8.14807 6.73217 8.07984 6.94371 8.07984H13.4227C13.6274 8.07984 13.798 8.14807 13.9345 8.28454C14.071 8.42102 14.1392 8.59161 14.1392 8.79632C14.1392 8.9942 14.071 9.16479 13.9345 9.30809C13.798 9.44456 13.6274 9.51279 13.4227 9.51279H6.94371ZM6.94371 12.2456C6.73217 12.2456 6.55817 12.1774 6.4217 12.0409C6.29205 11.9045 6.22723 11.7339 6.22723 11.5292C6.22723 11.3313 6.29205 11.1641 6.4217 11.0276C6.55817 10.8843 6.73217 10.8127 6.94371 10.8127H11.652C11.8499 10.8127 12.0171 10.8843 12.1535 11.0276C12.2968 11.1641 12.3685 11.3313 12.3685 11.5292C12.3685 11.7339 12.2968 11.9045 12.1535 12.0409C12.0171 12.1774 11.8499 12.2456 11.652 12.2456H6.94371Z" fill="black"/>
</svg>
