<svg width="24" height="24" viewBox="0 0 24 24" fill="none" xmlns="http://www.w3.org/2000/svg">
<path d="M11.9952 21.9998C10.6147 21.9998 9.3214 21.7384 8.11514 21.2157C6.90889 20.6994 5.84777 19.983 4.93179 19.0666C4.0158 18.1566 3.29657 17.0982 2.77407 15.8914C2.25802 14.6781 2 13.3809 2 11.9998C2 10.6187 2.25802 9.32476 2.77407 8.11792C3.29657 6.90462 4.0158 5.83977 4.93179 4.92334C5.84777 4.00692 6.90889 3.29056 8.11514 2.77426C9.3214 2.25796 10.6147 1.99982 11.9952 1.99982C13.3756 1.99982 14.6689 2.25796 15.8752 2.77426C17.0879 3.29056 18.1522 4.00692 19.0682 4.92334C19.9842 5.83977 20.7002 6.90462 21.2163 8.11792C21.7388 9.32476 22 10.6187 22 11.9998C22 13.3809 21.7388 14.6781 21.2163 15.8914C20.7002 17.0982 19.9842 18.1566 19.0682 19.0666C18.1522 19.983 17.0879 20.6994 15.8752 21.2157C14.6689 21.7384 13.3756 21.9998 11.9952 21.9998ZM11.9952 20.025C13.1047 20.025 14.1432 19.8152 15.1108 19.3958C16.0784 18.9827 16.9298 18.4083 17.6652 17.6726C18.407 16.9369 18.9844 16.085 19.3972 15.117C19.81 14.1489 20.0164 13.1099 20.0164 11.9998C20.0164 10.8898 19.81 9.85074 19.3972 8.88268C18.9844 7.90817 18.407 7.05629 17.6652 6.32702C16.9298 5.5913 16.0784 5.01692 15.1108 4.60388C14.1432 4.18439 13.1047 3.97465 11.9952 3.97465C10.8921 3.97465 9.85357 4.18439 8.87954 4.60388C7.91195 5.01692 7.06047 5.5913 6.32511 6.32702C5.58974 7.05629 5.01242 7.90817 4.59313 8.88268C4.18029 9.85074 3.97388 10.8898 3.97388 11.9998C3.97388 13.1099 4.18029 14.1489 4.59313 15.117C5.01242 16.085 5.58974 16.9369 6.32511 17.6726C7.06047 18.4083 7.91195 18.9827 8.87954 19.3958C9.85357 19.8152 10.8921 20.025 11.9952 20.025ZM11.7823 13.9262C11.1695 13.9262 10.8631 13.652 10.8631 13.1034C10.8631 13.084 10.8631 13.0647 10.8631 13.0453C10.8631 13.026 10.8631 13.0098 10.8631 12.9969C10.8631 12.5516 10.9727 12.1902 11.1921 11.9127C11.4178 11.6352 11.7049 11.377 12.0532 11.1382C12.4661 10.8543 12.7725 10.6123 12.9724 10.4122C13.1788 10.2121 13.2821 9.96045 13.2821 9.65713C13.2821 9.32799 13.1595 9.06016 12.9144 8.85364C12.6757 8.64067 12.3596 8.53418 11.9661 8.53418C11.7726 8.53418 11.592 8.56645 11.4243 8.63099C11.263 8.69553 11.1114 8.7891 10.9695 8.91172C10.8341 9.02789 10.7115 9.1731 10.6018 9.34735L10.447 9.55064C10.3567 9.67326 10.2471 9.77007 10.118 9.84106C9.99548 9.91205 9.84712 9.94754 9.67296 9.94754C9.47299 9.94754 9.2956 9.87978 9.14078 9.74425C8.98597 9.60872 8.90856 9.42479 8.90856 9.19246C8.90856 9.10211 8.91501 9.01821 8.92791 8.94077C8.94727 8.85687 8.97307 8.77297 9.00532 8.68907C9.15368 8.23731 9.49556 7.84686 10.031 7.51773C10.5728 7.18859 11.2598 7.02402 12.0919 7.02402C12.6596 7.02402 13.1821 7.12405 13.6594 7.32411C14.1432 7.52418 14.5302 7.81137 14.8205 8.18568C15.1108 8.56 15.2559 9.01498 15.2559 9.55064C15.2559 10.1186 15.1108 10.5671 14.8205 10.8962C14.5367 11.2254 14.1593 11.5481 13.6884 11.8643C13.3659 12.0708 13.1208 12.2676 12.9531 12.4548C12.7854 12.642 12.695 12.8614 12.6821 13.1131C12.6821 13.126 12.6821 13.1453 12.6821 13.1712C12.6821 13.1905 12.6789 13.2099 12.6725 13.2292C12.6596 13.4229 12.5725 13.5874 12.4112 13.723C12.2564 13.8585 12.0468 13.9262 11.7823 13.9262ZM11.7629 16.8982C11.4533 16.8982 11.1856 16.7981 10.9598 16.5981C10.7405 16.3916 10.6309 16.1366 10.6309 15.8333C10.6309 15.53 10.7405 15.2783 10.9598 15.0782C11.1792 14.8717 11.4469 14.7685 11.7629 14.7685C12.079 14.7685 12.3467 14.8685 12.566 15.0685C12.7854 15.2686 12.895 15.5235 12.895 15.8333C12.895 16.1431 12.7854 16.398 12.566 16.5981C12.3467 16.7981 12.079 16.8982 11.7629 16.8982Z" fill="black"/>
</svg>
