<svg width="24" height="24" viewBox="0 0 24 24" fill="none" xmlns="http://www.w3.org/2000/svg">
<path d="M20 13.3501C20 14.8391 19.64 16.1998 18.9199 17.4325C18.1998 18.6529 17.2357 19.6232 16.0275 20.3433C14.8192 21.0633 13.4767 21.4233 12 21.4233C10.5111 21.4233 9.16247 21.0633 7.95423 20.3433C6.746 19.6232 5.78185 18.659 5.06178 17.4508C4.35393 16.2304 4 14.8757 4 13.3867C4 13.1182 4.09764 12.8924 4.29291 12.7094C4.48818 12.5141 4.72006 12.4165 4.98856 12.4165C5.26926 12.4165 5.50725 12.5141 5.70252 12.7094C5.89779 12.8924 5.99542 13.1182 5.99542 13.3867C5.99542 14.5095 6.25782 15.5286 6.78261 16.4439C7.3196 17.3471 8.03966 18.0732 8.94279 18.6224C9.85812 19.1594 10.8772 19.4279 12 19.4279C13.1106 19.4279 14.1175 19.1594 15.0206 18.6224C15.9359 18.0732 16.6621 17.3471 17.1991 16.4439C17.7361 15.5286 18.0046 14.5095 18.0046 13.3867C18.0046 12.2761 17.7361 11.2693 17.1991 10.3661C16.6621 9.4508 15.9359 8.73074 15.0206 8.20595C14.1175 7.66896 13.1106 7.40046 12 7.40046C11.4752 7.40046 11.0481 7.43707 10.7185 7.5103L13.0801 9.83524C13.2876 10.0427 13.3913 10.2868 13.3913 10.5675C13.3913 10.8238 13.2998 11.0435 13.1167 11.2265C12.9336 11.4096 12.714 11.5011 12.4577 11.5011C12.2014 11.5011 11.9878 11.4096 11.8169 11.2265L8.11899 7.47368C7.92372 7.29062 7.82609 7.05873 7.82609 6.77803C7.83829 6.48513 7.93593 6.24104 8.11899 6.04577L11.762 2.32952C11.8474 2.21968 11.9512 2.14035 12.0732 2.09153C12.1953 2.03051 12.3234 2 12.4577 2C12.7262 2 12.9458 2.09153 13.1167 2.2746C13.2998 2.45767 13.3913 2.67735 13.3913 2.93364C13.3913 3.05568 13.3669 3.17773 13.3181 3.29977C13.2815 3.42182 13.2204 3.53166 13.135 3.62929L11.2311 5.53318C11.3776 5.52098 11.5362 5.50877 11.7071 5.49657C11.878 5.47216 12.0488 5.45995 12.2197 5.45995C13.611 5.45995 14.8924 5.81388 16.0641 6.52174C17.2479 7.21739 18.1998 8.16323 18.9199 9.35927C19.64 10.5431 20 11.8734 20 13.3501Z" fill="black"/>
</svg>
