<svg width="24" height="24" viewBox="0 0 24 24" fill="none" xmlns="http://www.w3.org/2000/svg">
<path d="M11.0971 20.8C10.8538 20.8 10.6292 20.7485 10.4234 20.6456C10.2222 20.5474 10.007 20.393 9.77778 20.1825L2.60585 13.4737C2.41871 13.3006 2.28772 13.1205 2.21287 12.9333C2.13801 12.7462 2.10059 12.5684 2.10059 12.4C2.10059 12.2269 2.13801 12.0491 2.21287 11.8667C2.28772 11.6795 2.41871 11.4971 2.60585 11.3193L9.77778 4.65263C10.0257 4.42339 10.2456 4.25731 10.4374 4.15439C10.6292 4.05146 10.8444 4 11.083 4C11.4386 4 11.7287 4.12164 11.9532 4.36491C12.1825 4.60351 12.2971 4.89825 12.2971 5.24912V8.49825H12.5287C14.0444 8.49825 15.3684 8.73216 16.5006 9.2C17.6374 9.66316 18.5825 10.3439 19.3357 11.2421C20.0936 12.1357 20.6596 13.2304 21.0339 14.5263C21.4129 15.8222 21.6023 17.2959 21.6023 18.9474C21.6023 19.5415 21.4971 19.9883 21.2865 20.2877C21.076 20.5918 20.8094 20.7439 20.4865 20.7439C20.2433 20.7439 20.0164 20.6877 19.8058 20.5754C19.6 20.4678 19.4082 20.2503 19.2304 19.9228C18.7906 19.076 18.2643 18.3883 17.6515 17.8596C17.0386 17.331 16.3111 16.9474 15.469 16.7088C14.6316 16.4655 13.6515 16.3439 12.5287 16.3439H12.2971V19.593C12.2971 19.9345 12.1825 20.2199 11.9532 20.4491C11.7287 20.683 11.4433 20.8 11.0971 20.8ZM10.5637 18.5404C10.6573 18.5404 10.7041 18.4889 10.7041 18.386V15.0105C10.7041 14.8187 10.8 14.7228 10.9918 14.7228H12.0585C13.4386 14.7228 14.6503 14.8585 15.6936 15.1298C16.7415 15.4012 17.6164 15.8058 18.3181 16.3439C19.0246 16.8772 19.5602 17.5345 19.9251 18.3158C19.9439 18.3485 19.9579 18.3743 19.9673 18.393C19.9813 18.4117 20.0023 18.4211 20.0304 18.4211C20.0772 18.4211 20.1006 18.3883 20.1006 18.3228C20.0725 17.1579 19.8994 16.0772 19.5813 15.0807C19.2678 14.0842 18.7906 13.214 18.1497 12.4702C17.5134 11.7216 16.6901 11.1392 15.6795 10.7228C14.6737 10.3064 13.4667 10.0982 12.0585 10.0982H10.9918C10.8 10.0982 10.7041 10.0023 10.7041 9.81053V6.36491C10.7041 6.26667 10.6573 6.21754 10.5637 6.21754C10.531 6.21754 10.5006 6.22456 10.4725 6.2386C10.4444 6.25263 10.4187 6.27134 10.3953 6.29474L4.19181 12.1825C4.14971 12.2292 4.1193 12.269 4.10059 12.3018C4.08187 12.3345 4.07252 12.3673 4.07252 12.4C4.07252 12.4327 4.07953 12.4678 4.09357 12.5053C4.11228 12.538 4.14503 12.5754 4.19181 12.6175L10.4023 18.4632C10.4585 18.5146 10.5123 18.5404 10.5637 18.5404Z" fill="black"/>
</svg>
