<svg width="24" height="24" viewBox="0 0 24 24" fill="none" xmlns="http://www.w3.org/2000/svg">
<path d="M8.74895 7.46323C9.08368 7.1285 9.08368 6.58579 8.74895 6.25105C8.41421 5.91632 7.8715 5.91632 7.53677 6.25105L3.25105 10.5368C2.91632 10.8715 2.91632 11.4142 3.25105 11.7489L7.53677 16.0347C7.8715 16.3694 8.41421 16.3694 8.74895 16.0347C9.08368 15.6999 9.08368 15.1572 8.74895 14.8225L5.06933 11.1429L8.74895 7.46323Z" fill="black"/>
<path d="M13.1418 7.46323C13.4765 7.1285 13.4765 6.58579 13.1418 6.25105C12.8071 5.91632 12.2644 5.91632 11.9296 6.25105L7.64696 10.5337C7.63714 10.5434 7.62756 10.5534 7.61822 10.5636C7.55117 10.6366 7.49908 10.7184 7.46195 10.8051C7.41748 10.9088 7.39286 11.0229 7.39286 11.1428C7.39286 11.2564 7.41495 11.3649 7.45509 11.4641C7.49693 11.5678 7.55987 11.6649 7.64391 11.7489L11.9296 16.0347C12.2644 16.3694 12.8071 16.3694 13.1418 16.0347C13.4765 15.6999 13.4765 15.1572 13.1418 14.8225L10.3193 12H16.7143C17.3963 12 18.0503 12.2709 18.5326 12.7531C19.0148 13.2354 19.2857 13.8894 19.2857 14.5714V18C19.2857 18.4734 19.6695 18.8571 20.1429 18.8571C20.6162 18.8571 21 18.4734 21 18V14.5714C21 13.4348 20.5485 12.3447 19.7447 11.541C18.941 10.7372 17.8509 10.2857 16.7143 10.2857H10.3193L13.1418 7.46323Z" fill="black"/>
</svg>
