<svg width="24" height="24" viewBox="0 0 24 24" fill="none" xmlns="http://www.w3.org/2000/svg">
<path d="M4.34115 7.28122C4.56975 7.50982 4.56975 7.88045 4.34115 8.10905L2.41361 10.0366H9.78089C10.5571 10.0366 11.3016 10.345 11.8505 10.8938C12.3994 11.4427 12.7077 12.1872 12.7077 12.9634V15.3049C12.7077 15.6282 12.4456 15.8902 12.1224 15.8902C11.7991 15.8902 11.537 15.6282 11.537 15.3049V12.9634C11.537 12.4977 11.352 12.051 11.0226 11.7217C10.6933 11.3923 10.2466 11.2073 9.78089 11.2073H2.41359L4.34115 13.1349C4.56975 13.3635 4.56975 13.7341 4.34115 13.9627C4.11255 14.1913 3.74192 14.1913 3.51332 13.9627L0.586489 11.0359C0.529104 10.9785 0.486124 10.9122 0.45755 10.8414C0.430135 10.7736 0.415039 10.6995 0.415039 10.622C0.415039 10.4694 0.473372 10.3305 0.568944 10.2264C0.575325 10.2194 0.581872 10.2126 0.588579 10.206L3.51332 7.28122C3.74192 7.05262 4.11255 7.05262 4.34115 7.28122Z" fill="black"/>
<path d="M23.3794 10.5541L20.6756 12.8073C20.567 12.8977 20.4094 12.8977 20.3008 12.8073L17.597 10.5541C17.3867 10.3789 17.5107 10.0366 17.7844 10.0366H23.192C23.4657 10.0366 23.5897 10.3789 23.3794 10.5541Z" fill="black"/>
</svg>
