<svg width="24" height="24" viewBox="0 0 24 24" fill="none" xmlns="http://www.w3.org/2000/svg">
<path d="M9.07219 5.76759C9.40693 6.10233 9.40693 6.64504 9.07219 6.97977L6.24973 9.80224H17.0375C18.1742 9.80224 19.2643 10.2538 20.068 11.0575C20.8717 11.8612 21.3232 12.9513 21.3232 14.088V17.5165C21.3232 17.9899 20.9395 18.3737 20.4661 18.3737C19.9927 18.3737 19.609 17.9899 19.609 17.5165V14.088C19.609 13.406 19.338 12.7519 18.8558 12.2697C18.3736 11.7874 17.7195 11.5165 17.0375 11.5165H6.2497L9.07219 14.339C9.40693 14.6738 9.40693 15.2165 9.07219 15.5512C8.73746 15.8859 8.19474 15.8859 7.86001 15.5512L3.57429 11.2655C3.49027 11.1815 3.42733 11.0843 3.38549 10.9807C3.34535 10.8814 3.32324 10.773 3.32324 10.6594C3.32324 10.436 3.40866 10.2327 3.5486 10.0801C3.55795 10.0699 3.56753 10.06 3.57735 10.0502L7.86001 5.76759C8.19474 5.43286 8.73746 5.43286 9.07219 5.76759Z" fill="black"/>
</svg>
