<svg width="24" height="24" viewBox="0 0 24 24" fill="none" xmlns="http://www.w3.org/2000/svg">
<path d="M11.9289 14.5895C12.6764 14.5896 13.334 14.7232 13.9018 14.9892C14.4697 15.2623 14.9084 15.5716 15.2175 15.9166C15.5337 16.2687 15.692 16.5637 15.692 16.8009C15.6919 16.9298 15.6382 17.0196 15.5309 17.0699C15.4304 17.1201 15.3222 17.12 15.2074 17.0699C14.8191 16.8542 14.3692 16.6457 13.8587 16.4444C13.3556 16.2503 12.7123 16.1539 11.9289 16.1539C11.1456 16.1539 10.4981 16.2504 9.98777 16.4444C9.48451 16.6457 9.03452 16.8542 8.6391 17.0699C8.52407 17.1202 8.41622 17.1202 8.31557 17.0699C8.21508 17.0197 8.16475 16.93 8.16459 16.8009C8.16459 16.5637 8.31983 16.2689 8.62895 15.9166C8.94524 15.5716 9.38693 15.2623 9.95479 14.9892C10.5228 14.7231 11.1812 14.5895 11.9289 14.5895Z" fill="black"/>
<path d="M8.78754 8.07451C9.13238 8.07468 9.43476 8.21551 9.69343 8.49573C9.95184 8.77602 10.0817 9.13171 10.0817 9.56275C10.0817 9.99412 9.95225 10.3506 9.69343 10.631C9.43476 10.9041 9.13237 11.0407 8.78754 11.0408C8.44991 11.0408 8.15473 10.9038 7.90323 10.631C7.6516 10.3506 7.52514 9.99412 7.52514 9.56275C7.52514 9.13139 7.65162 8.77612 7.90323 8.49573C8.15486 8.21534 8.44963 8.07451 8.78754 8.07451Z" fill="black"/>
<path d="M15.182 8.07451C15.5271 8.07451 15.8291 8.21534 16.0879 8.49573C16.3465 8.77607 16.4761 9.13155 16.4761 9.56275C16.4761 9.99412 16.3467 10.3506 16.0879 10.631C15.8291 10.904 15.527 11.0408 15.182 11.0408C14.8442 11.0408 14.5493 10.904 14.2977 10.631C14.0461 10.3506 13.9209 9.99412 13.9209 9.56275C13.9209 9.13155 14.0463 8.77607 14.2977 8.49573C14.5493 8.21534 14.8441 8.07451 15.182 8.07451Z" fill="black"/>
<path fill-rule="evenodd" clip-rule="evenodd" d="M12.0013 1C13.518 1.00008 14.942 1.2847 16.2719 1.8526C17.6016 2.42055 18.7698 3.21161 19.7761 4.22514C20.7825 5.23161 21.5706 6.39949 22.1385 7.72941C22.7136 9.05941 23.0013 10.4831 23.0013 12C23.0013 13.5169 22.7136 14.9406 22.1385 16.2706C21.5705 17.6007 20.7827 18.7696 19.7761 19.7761C18.7698 20.7824 17.6016 21.5694 16.2719 22.1373C14.942 22.7123 13.518 22.9999 12.0013 23C10.4845 23 9.06059 22.7123 7.73068 22.1373C6.40075 21.5693 5.23161 20.7825 4.22514 19.7761C3.21861 18.7696 2.42776 17.6007 1.8526 16.2706C1.28462 14.9405 1 13.517 1 12C1 10.483 1.28462 9.05948 1.8526 7.72941C2.4277 6.39949 3.21876 5.23161 4.22514 4.22514C5.23168 3.21142 6.40061 2.42057 7.73068 1.8526C9.06066 1.28471 10.4844 1 12.0013 1ZM12.0013 2.83333C10.7361 2.83333 9.54948 3.07074 8.44244 3.5451C7.33526 4.01961 6.36044 4.67809 5.51926 5.51926C4.67829 6.35312 4.02081 7.32703 3.54637 8.44118C3.07186 9.54837 2.8346 10.7346 2.8346 12C2.8346 13.2654 3.07186 14.4516 3.54637 15.5588C4.02087 16.6659 4.67814 17.6409 5.51926 18.482C6.36037 19.323 7.33539 19.9805 8.44244 20.4549C9.54948 20.9293 10.7361 21.1667 12.0013 21.1667C13.2664 21.1666 14.4531 20.9293 15.5601 20.4549C16.6669 19.9805 17.641 19.3229 18.482 18.482C19.3232 17.6408 19.9817 16.666 20.4562 15.5588C20.9306 14.4517 21.1679 13.2653 21.1679 12C21.1679 10.7347 20.9306 9.5483 20.4562 8.44118C19.9817 7.32694 19.323 6.35318 18.482 5.51926C17.641 4.67822 16.6671 4.01959 15.5601 3.5451C14.4531 3.07067 13.2664 2.83341 12.0013 2.83333Z" fill="black"/>
</svg>
