<svg width="24" height="24" viewBox="0 0 24 24" fill="none" xmlns="http://www.w3.org/2000/svg">
<path d="M12.1113 16.2227C11.7979 16.2227 11.5216 16.099 11.2823 15.8515L6.45777 11.0022C6.22681 10.763 6.11133 10.4949 6.11133 10.1979C6.11133 9.89275 6.21444 9.63705 6.42065 9.43083C6.61861 9.22462 6.8702 9.12151 7.17539 9.12151C7.32387 9.12151 7.46409 9.14626 7.59607 9.19575C7.73629 9.24524 7.8559 9.31948 7.95488 9.41846L11.8639 13.7234L10.9714 13.9708L11.0101 9.98679L11.0101 3.08881C11.0101 2.76712 11.1133 2.50316 11.3195 2.29695C11.5257 2.09898 11.7896 2 12.1113 2C12.433 2 12.697 2.09898 12.9032 2.29695C13.1094 2.50316 13.2125 2.76712 13.2125 3.08881L13.2125 9.98679L13.1688 13.9708L12.3464 13.7234L15.1682 10.6186L16.2678 9.41846C16.3668 9.31948 16.4822 9.24524 16.6142 9.19575C16.7544 9.14626 16.8988 9.12151 17.0473 9.12151C17.3525 9.12151 17.604 9.22462 17.802 9.43083C18.0082 9.63705 18.1113 9.89275 18.1113 10.198C18.1113 10.3464 18.0825 10.4866 18.0247 10.6186C17.967 10.7589 17.8721 10.895 17.7401 11.0269L12.9403 15.8515C12.7011 16.099 12.4248 16.2227 12.1113 16.2227Z" fill="black"/>
<rect x="4" y="19" width="16" height="2" rx="1" fill="black"/>
</svg>
