<svg width="24" height="24" viewBox="0 0 24 24" fill="none" xmlns="http://www.w3.org/2000/svg">
<path d="M11.9969 7C12.1933 7 12.3647 7.07524 12.511 7.22572L15.7743 10.4953C15.8495 10.5705 15.906 10.6499 15.9436 10.7335C15.9812 10.8171 16 10.9049 16 10.9969C16 11.1891 15.9373 11.3501 15.8119 11.4796C15.6865 11.6092 15.5298 11.674 15.3417 11.674C15.2413 11.674 15.1494 11.6552 15.0658 11.6176C14.9864 11.58 14.9153 11.5298 14.8526 11.4671L14.2854 10.9187L12.1473 8.58629L12.6866 8.36057L12.6866 10.5362L12.6866 16.586C12.6866 16.795 12.6218 16.9622 12.4922 17.0876C12.3668 17.2172 12.2017 17.282 11.9969 17.282C11.7962 17.282 11.6311 17.2172 11.5015 17.0876C11.3761 16.9622 11.3134 16.795 11.3134 16.586L11.3134 10.5362L11.3134 8.36057L11.8401 8.58629L9.70834 10.9187L9.14739 11.4671C9.0847 11.5298 9.01155 11.58 8.92795 11.6176C8.84435 11.6552 8.75448 11.674 8.65834 11.674C8.47024 11.674 8.3135 11.6092 8.1881 11.4796C8.0627 11.3501 8 11.1891 8 10.9969C8 10.8129 8.07106 10.6478 8.21318 10.5015L11.4827 7.22572C11.629 7.07524 11.8004 7 11.9969 7Z" fill="black"/>
</svg>
