<svg width="24" height="24" viewBox="0 0 24 24" fill="none" xmlns="http://www.w3.org/2000/svg">
<path d="M10.2432 2.00056C10.9483 2.00057 11.625 2.08221 12.2734 2.2447C11.8717 3.02353 11.2621 3.67263 10.5146 4.12263C10.4248 4.11899 10.3343 4.11677 10.2432 4.11677C9.39933 4.11677 8.60586 4.2751 7.86328 4.59236C7.12072 4.90289 6.4655 5.34172 5.89844 5.90876C5.33813 6.46909 4.89932 7.12125 4.58203 7.86384C4.27159 8.60635 4.11621 9.39998 4.11621 10.2437C4.11627 11.0942 4.27154 11.8909 4.58203 12.6334C4.89931 13.3692 5.33816 14.0174 5.89844 14.5777C6.46549 15.138 7.12074 15.5798 7.86328 15.9039C8.60588 16.2212 9.3993 16.3804 10.2432 16.3804C11.0937 16.3804 11.8872 16.2212 12.623 15.9039C13.3655 15.5799 14.0169 15.1379 14.5771 14.5777C15.1374 14.0174 15.5763 13.3691 15.8936 12.6334C16.2175 11.8909 16.3798 11.0942 16.3799 10.2437C16.3799 9.80077 16.3334 9.37167 16.2441 8.95662C16.7225 8.3633 17.3422 7.89043 18.0537 7.58455C18.3471 8.42292 18.4961 9.30907 18.4961 10.2437C18.496 11.1346 18.3577 11.9816 18.0811 12.7847C17.811 13.5881 17.4363 14.3214 16.957 14.983L21.5742 19.6207C21.7159 19.7556 21.8212 19.9141 21.8887 20.0963C21.9629 20.2784 22 20.4711 22 20.6734C22 20.9568 21.9357 21.2135 21.8076 21.4429C21.6794 21.6724 21.5039 21.8518 21.2812 21.9801C21.0586 22.115 20.8019 22.1822 20.5117 22.1822C20.3092 22.1822 20.1128 22.1451 19.9238 22.0709C19.7418 22.0034 19.5761 21.896 19.4277 21.7476L14.7793 17.0992C14.1314 17.5311 13.4227 17.8719 12.6533 18.1217C11.8905 18.3647 11.087 18.4869 10.2432 18.4869C9.109 18.4869 8.04211 18.2735 7.04297 17.8482C6.05067 17.4229 5.17598 16.8328 4.41992 16.0767C3.66384 15.3207 3.06976 14.446 2.6377 13.4537C2.21244 12.4547 2.00006 11.3845 2 10.2437C2 9.10959 2.21241 8.04567 2.6377 7.0533C3.06973 6.05425 3.6639 5.17654 4.41992 4.42048C5.17602 3.65763 6.0506 3.06357 7.04297 2.63826C8.04212 2.21294 9.10899 2.00056 10.2432 2.00056Z" fill="black"/>
<path d="M13.5752 2.30427C13.7136 1.89901 14.2864 1.89901 14.4248 2.30427L14.8301 3.4908C15.0998 4.28026 15.7203 4.90088 16.5098 5.17048L17.6963 5.57478C18.1014 5.71327 18.1013 6.28681 17.6963 6.42537L16.5098 6.83064C15.7202 7.1003 15.0997 7.72075 14.8301 8.51033L14.4248 9.69587C14.2864 10.1012 13.7136 10.1012 13.5752 9.69587L13.1699 8.51033C12.9003 7.72075 12.2798 7.1003 11.4902 6.83064L10.3037 6.42537C9.89869 6.28681 9.89863 5.71327 10.3037 5.57478L11.4902 5.17048C12.2797 4.90088 12.9002 4.28026 13.1699 3.4908L13.5752 2.30427Z" fill="black"/>
<path d="M17.7871 0.151929C17.8564 -0.050521 18.1436 -0.0505209 18.2129 0.151929L18.415 0.745679C18.5499 1.14034 18.8602 1.45074 19.2549 1.58552L19.8477 1.78767C20.0503 1.85688 20.0503 2.14327 19.8477 2.21248L19.2549 2.4156C18.8601 2.55044 18.5498 2.86067 18.415 3.25544L18.2129 3.84822C18.1437 4.05089 17.8563 4.05089 17.7871 3.84822L17.585 3.25544C17.4502 2.86067 17.1399 2.55044 16.7451 2.4156L16.1523 2.21248C15.9497 2.14327 15.9497 1.85688 16.1523 1.78767L16.7451 1.58552C17.1398 1.45074 17.4501 1.14034 17.585 0.745679L17.7871 0.151929Z" fill="black"/>
</svg>
