<svg width="24" height="24" viewBox="0 0 24 24" fill="none" xmlns="http://www.w3.org/2000/svg">
<path d="M17.1482 13.4627C16.3963 10.8014 15.6407 6.35929 17.7985 3.48159C18.0502 3.1461 18.0449 2.68347 17.7857 2.3538C17.5266 2.02406 17.0784 1.90977 16.6929 2.075C16.6017 2.114 14.4342 3.0558 11.9572 5.21871C10.0401 6.89269 7.62357 9.59977 6.1294 13.4768C2.86306 14.2722 1 15.7008 1 17.4299C1 18.4136 1.60042 19.8102 4.46067 20.8775C6.40052 21.6014 8.96019 22 11.668 22C14.3758 22 16.9355 21.6014 18.8753 20.8775C21.7356 19.8102 22.336 18.4136 22.336 17.4299C22.336 15.6871 20.4523 14.2547 17.1482 13.4627ZM13.1246 6.65821C13.7617 6.09808 14.3795 5.62568 14.9382 5.23574C13.8553 9.16551 15.2033 13.6877 15.8746 15.5551C14.7675 15.9742 13.5135 16.1667 12.1343 16.1667H12.1338C10.1572 16.1667 8.37636 15.746 7.40223 15.4501C8.41846 12.0469 10.3406 9.10524 13.1246 6.65821ZM17.8922 15.6707C19.7438 16.2921 20.4558 17.0152 20.4558 17.433C20.4558 17.8565 19.7637 18.5391 18.218 19.116C16.4831 19.7633 14.157 20.1198 11.668 20.1198C9.17894 20.1198 6.85288 19.7633 5.11799 19.116C3.57217 18.5392 2.88022 17.8536 2.88022 17.4299C2.88022 17.0172 3.60048 16.2524 5.43544 15.6311C5.41712 15.7013 5.39787 15.7704 5.38005 15.8412C5.26727 16.2907 5.50412 16.7788 5.93429 16.9508C6.04973 16.997 8.80013 18.1063 12.1337 18.1063C12.134 18.1063 12.1342 18.1063 12.1344 18.1063C14.1334 18.1063 15.9292 17.6907 17.4719 16.9192C17.9109 16.6997 18.0862 16.1215 17.8922 15.6707Z" fill="black"/>
</svg>
