<svg width="24" height="24" viewBox="0 0 24 24" fill="none" xmlns="http://www.w3.org/2000/svg">
<path fill-rule="evenodd" clip-rule="evenodd" d="M8.41969 4C9.14305 4 9.80345 4.19056 10.4 4.57098C10.9966 4.95147 11.5108 5.48264 11.943 6.16373C12.3752 6.84486 12.7092 7.64104 12.944 8.55233C13.1137 9.20702 13.2213 9.90113 13.2684 10.6342C13.781 10.5433 14.3096 10.4974 14.8539 10.4974C15.3704 10.4974 15.7792 10.6216 16.0798 10.8705C16.3804 11.1194 16.5305 11.4627 16.5306 11.8995C16.5306 12.0216 16.5163 12.1391 16.4881 12.2518C16.4646 12.3644 16.4395 12.4678 16.4114 12.5617C16.3832 12.6509 16.3689 12.729 16.3689 12.7948C16.369 12.8604 16.3992 12.8932 16.4601 12.8933C16.5399 12.8933 16.6667 12.8227 16.8404 12.6819C17.0189 12.5409 17.2288 12.3673 17.4684 12.1606C17.7079 11.9493 17.9638 11.7378 18.2363 11.5264C18.5134 11.3151 18.7928 11.1388 19.0746 10.9979C19.3612 10.857 19.6339 10.7865 19.8922 10.7865C20.2067 10.7866 20.446 10.8639 20.6104 11.0187C20.7748 11.169 20.8922 11.3595 20.9627 11.5896C21.0379 11.8151 21.0925 12.0408 21.1254 12.2663C21.1583 12.4917 21.1961 12.6823 21.2383 12.8373C21.2807 12.9873 21.3604 13.0622 21.4777 13.0622C21.5669 13.0621 21.661 13.0361 21.7596 12.9845C21.8627 12.9283 21.973 12.9006 22.0902 12.9005C22.2875 12.9005 22.4453 12.9735 22.5627 13.1192C22.6847 13.2647 22.7461 13.4335 22.7461 13.6259C22.7461 13.7715 22.7109 13.9033 22.6404 14.0207C22.57 14.1334 22.4784 14.2275 22.3658 14.3026C22.2061 14.4106 22.0273 14.4903 21.8301 14.542C21.6374 14.5889 21.4536 14.6124 21.2798 14.6124C20.9183 14.6124 20.6361 14.5419 20.4342 14.401C20.2324 14.2601 20.082 14.0864 19.9834 13.8798C19.8848 13.6732 19.8117 13.4667 19.7648 13.2601C19.7225 13.0534 19.6832 12.8788 19.6456 12.7378C19.6128 12.5974 19.5563 12.5267 19.4767 12.5264C19.3827 12.5264 19.2392 12.6071 19.0466 12.7668C18.8587 12.9265 18.633 13.1237 18.3699 13.3585C18.1116 13.5934 17.8322 13.8284 17.5316 14.0632C17.231 14.2981 16.9205 14.4952 16.601 14.6549C16.2865 14.8145 15.9767 14.8942 15.6715 14.8943C15.3474 14.8943 15.0813 14.8003 14.8746 14.6124C14.668 14.4245 14.5648 14.1752 14.5648 13.8653C14.5648 13.64 14.5934 13.4359 14.6497 13.2528C14.7108 13.065 14.7695 12.8888 14.8259 12.7244C14.887 12.5553 14.9171 12.379 14.9171 12.1959C14.9171 12.069 14.8323 12.0052 14.6632 12.0052C14.1899 12.0052 13.7302 12.0521 13.2839 12.1451C13.2506 13.1418 13.141 14.07 12.9513 14.9295C12.8754 15.279 12.7859 15.6125 12.686 15.9306H22.3016C22.4941 15.9306 22.6586 16.0011 22.7948 16.142C22.9311 16.2829 23 16.4499 23 16.6425C22.9999 16.8302 22.9309 16.9965 22.7948 17.142C22.6586 17.2876 22.4942 17.3606 22.3016 17.3606H12.1036C12.0562 17.4517 12.0077 17.5416 11.9575 17.629C11.5207 18.3946 10.9895 18.9861 10.3648 19.4041C9.74003 19.8269 9.02856 20.0383 8.23005 20.0383C7.48311 20.0383 6.91171 19.8269 6.5171 19.4041C6.12737 18.9861 5.93264 18.4221 5.93264 17.713C5.93265 17.5971 5.94042 17.4797 5.95233 17.3606H1.69741C1.50489 17.3606 1.34033 17.2875 1.20415 17.142C1.06821 16.9965 1.00011 16.8301 1 16.6425C1 16.45 1.06805 16.2829 1.20415 16.142C1.34033 16.0011 1.50489 15.9306 1.69741 15.9306H6.34611C6.35627 15.9073 6.36564 15.8835 6.37617 15.8601C6.67208 15.2025 7.0884 14.559 7.62383 13.9295C7.78133 13.7447 7.94762 13.5645 8.12228 13.3896C7.79225 13.1301 7.47029 12.8454 7.15855 12.5337C6.74053 12.1156 6.36458 11.6549 6.03109 11.1523C5.69766 10.6498 5.43249 10.1118 5.23523 9.53886C5.04269 8.9659 4.94616 8.3625 4.94611 7.7285C4.94611 7.00506 5.09369 6.36317 5.38964 5.80414C5.6856 5.24511 6.09513 4.80649 6.61658 4.48705C7.1379 4.16301 7.73873 4.00007 8.41969 4ZM7.53575 17.3606C7.52936 17.4255 7.52539 17.4892 7.52539 17.5513C7.52543 17.8471 7.59997 18.0847 7.75026 18.2632C7.90059 18.4417 8.12224 18.5306 8.41347 18.5306C8.89718 18.5305 9.34374 18.3517 9.75233 17.9948C9.95468 17.818 10.1442 17.6065 10.3212 17.3606H7.53575ZM11.7389 12.6674C11.334 12.8536 10.9504 13.0698 10.5876 13.315C10.6817 13.3873 10.7512 13.4647 10.7948 13.5482C10.8559 13.6562 10.886 13.7722 10.886 13.8943C10.8859 14.082 10.8154 14.2391 10.6746 14.3658C10.5384 14.4926 10.3739 14.5565 10.1813 14.5565C10.0407 14.5564 9.90695 14.5211 9.78031 14.4508C9.65956 14.3911 9.53817 14.3257 9.41554 14.257C9.23369 14.4295 9.06033 14.6053 8.89948 14.7886C8.56011 15.1718 8.28146 15.5531 8.06114 15.9306H11.0653C11.2552 15.4302 11.4098 14.876 11.5275 14.2674C11.6282 13.7582 11.6981 13.2248 11.7389 12.6674ZM8.41969 5.51503C8.03464 5.51509 7.69378 5.61161 7.39793 5.80414C7.10677 5.99204 6.87685 6.25307 6.70777 6.58653C6.54336 6.91537 6.46114 7.2912 6.46114 7.71399C6.46114 8.40909 6.59965 9.0502 6.87668 9.63731C7.15385 10.2198 7.50618 10.7468 7.93368 11.2166C8.3607 11.6761 8.79979 12.0753 9.24974 12.4155C9.34673 12.3433 9.44644 12.2732 9.54715 12.2031C10.2251 11.7311 10.9666 11.3462 11.7699 11.0466C11.7455 10.3756 11.6693 9.74361 11.5347 9.1513C11.375 8.42323 11.1452 7.7889 10.8446 7.2487C10.5486 6.70376 10.1937 6.27841 9.78031 5.97306C9.37162 5.66773 8.91763 5.51503 8.41969 5.51503Z" fill="black"/>
<path d="M4.15648 11.2653C4.3162 11.2653 4.45306 11.324 4.5658 11.4415C4.68324 11.5542 4.74197 11.6911 4.74197 11.8508C4.74186 12.0055 4.683 12.1392 4.5658 12.2518L3.76995 13.0466L4.5658 13.8373C4.68324 13.95 4.74197 14.0869 4.74197 14.2466C4.74186 14.4061 4.68308 14.5423 4.5658 14.6549C4.45306 14.7724 4.3162 14.8311 4.15648 14.8311C4.00168 14.831 3.86806 14.7722 3.75544 14.6549L2.95648 13.8601L2.15544 14.6622C2.04279 14.7747 1.90668 14.831 1.74715 14.8311C1.59212 14.8311 1.45782 14.7724 1.34508 14.6549C1.22781 14.5376 1.16902 14.4014 1.16891 14.2466C1.16891 14.0916 1.22764 13.9547 1.34508 13.8373L2.13679 13.0466L1.34508 12.2591C1.22781 12.1418 1.16902 12.0056 1.16891 11.8508C1.16891 11.6911 1.22765 11.5542 1.34508 11.4415C1.45782 11.324 1.59212 11.2653 1.74715 11.2653C1.90669 11.2653 2.04278 11.3242 2.15544 11.4415L2.95233 12.2342L3.75544 11.4342C3.86802 11.3217 4.00176 11.2654 4.15648 11.2653Z" fill="black"/>
</svg>
