<svg width="24" height="24" viewBox="0 0 24 24" fill="none" xmlns="http://www.w3.org/2000/svg">
<path d="M10 18H5.2C4.0799 18 3.51984 18 3.09202 17.782C2.71569 17.5903 2.40973 17.2843 2.21799 16.908C2 16.4802 2 15.9201 2 14.8V7.2C2 6.0799 2 5.51984 2.21799 5.09202C2.40973 4.71569 2.71569 4.40973 3.09202 4.21799C3.51984 4 4.0799 4 5.2 4H16.8C17.9201 4 18.4802 4 18.908 4.21799C19.2843 4.40973 19.5903 4.71569 19.782 5.09202C20 5.51984 20 6.0799 20 7.2V10M19.6067 7.26229L14.5499 10.6335C13.2669 11.4888 12.6254 11.9165 11.932 12.0827C11.3192 12.2295 10.6804 12.2295 10.0677 12.0827C9.3743 11.9165 8.73279 11.4888 7.44975 10.6335L2.14746 7.09863" stroke="black" stroke-width="2" stroke-linecap="round" stroke-linejoin="round"/>
<path d="M23.555 17.2002C23.555 17.2776 23.5378 17.3608 23.5034 17.4497C23.469 17.5385 23.4088 17.6217 23.3228 17.6991L19.9206 20.8991C19.8059 21.0052 19.6984 21.0812 19.598 21.1271C19.4977 21.1758 19.3902 21.2002 19.2755 21.2002C19.1092 21.2002 18.9701 21.1457 18.8583 21.0368C18.7493 20.9278 18.6948 20.7916 18.6948 20.6282V18.9937H15.254C14.9213 18.9937 14.6618 18.9034 14.4755 18.7228C14.292 18.5421 14.2002 18.2869 14.2002 17.9572V16.4561C14.2002 16.1264 14.292 15.8712 14.4755 15.6905C14.6618 15.5099 14.9213 15.4196 15.254 15.4196H18.6948V13.7937C18.6948 13.6303 18.7493 13.4912 18.8583 13.3765C18.9701 13.259 19.112 13.2002 19.2841 13.2002C19.3959 13.2002 19.4977 13.226 19.5894 13.2776C19.6841 13.3264 19.7945 13.4095 19.9206 13.5271L23.3228 16.7013C23.4088 16.7787 23.469 16.8618 23.5034 16.9507C23.5378 17.0368 23.555 17.1199 23.555 17.2002Z" fill="black"/>
</svg>
