<svg width="24" height="24" viewBox="0 0 24 24" fill="none" xmlns="http://www.w3.org/2000/svg">
<path d="M6.21094 1.70776C6.70588 1.70818 7.10689 2.10974 7.10689 2.60478C7.10682 3.09976 6.70584 3.50138 6.21094 3.5018H5.55043C5.10269 3.5021 4.73993 3.86477 4.7397 4.31252V8.23937C4.73958 9.70552 3.99395 11.0718 2.76136 11.8658L2.55256 12L2.76136 12.1343C3.99399 12.9282 4.73962 14.2945 4.7397 15.7607V19.6865C4.7397 20.1344 5.10254 20.4979 5.55043 20.4982H6.21094C6.70579 20.4987 7.10674 20.9003 7.10689 21.3953C7.10674 21.8902 6.70579 22.2919 6.21094 22.2923H5.55043C4.11194 22.292 2.94567 21.125 2.94567 19.6865V15.7607C2.94558 14.9043 2.51075 14.1055 1.79084 13.6417L0.411222 12.7543C0.155122 12.5892 4.69451e-05 12.3047 0 12C2.50065e-05 11.6953 0.155064 11.4109 0.411222 11.2458L1.79084 10.3573C2.51065 9.89347 2.94554 9.09564 2.94567 8.23937V4.31252C2.94589 2.87418 4.11207 1.70807 5.55043 1.70776H6.21094Z" fill="black"/>
<path d="M18.4496 1.70776C19.888 1.70801 21.0541 2.87415 21.0543 4.31252V8.23937C21.0545 9.09572 21.4903 9.89349 22.2102 10.3573L23.5888 11.2458C23.845 11.4108 24 11.6952 24 12C24 12.3048 23.845 12.5892 23.5888 12.7543L22.2102 13.6428C21.4902 14.1066 21.0544 14.9042 21.0543 15.7607V19.6865C21.0543 21.1251 19.8881 22.292 18.4496 22.2923H17.7901C17.295 22.2922 16.8933 21.8904 16.8931 21.3953C16.8933 20.9002 17.295 20.4984 17.7901 20.4982H18.4496C18.8975 20.498 19.2603 20.1345 19.2603 19.6865V15.7607C19.2604 14.2946 20.0061 12.9282 21.2386 12.1343L21.4474 12L21.2386 11.8658C20.0062 11.0718 19.2604 9.7054 19.2603 8.23937V4.31252C19.2601 3.86473 18.8974 3.50204 18.4496 3.5018H17.7901C17.295 3.50169 16.8932 3.09996 16.8931 2.60478C16.8931 2.10954 17.2949 1.70787 17.7901 1.70776H18.4496Z" fill="black"/>
<path d="M8.413 11.0039C9.18343 11.0039 9.80852 11.628 9.80859 12.3985C9.80859 13.1689 9.18347 13.7941 8.413 13.7941C7.64277 13.7938 7.01847 13.1688 7.01847 12.3985C7.01854 11.6282 7.64281 11.0042 8.413 11.0039Z" fill="black"/>
<path d="M12.3984 11.0039C13.1689 11.0039 13.794 11.628 13.794 12.3985C13.794 13.1689 13.1689 13.7941 12.3984 13.7941C11.6282 13.7938 11.0039 13.1688 11.0039 12.3985C11.004 11.6282 11.6283 11.0042 12.3984 11.0039Z" fill="black"/>
<path d="M16.3849 11.0039C17.1554 11.0039 17.7805 11.628 17.7805 12.3985C17.7805 13.1689 17.1554 13.7941 16.3849 13.7941C15.6147 13.7938 14.9904 13.1688 14.9904 12.3985C14.9905 11.6282 15.6148 11.0042 16.3849 11.0039Z" fill="black"/>
</svg>
