<svg width="24" height="24" viewBox="0 0 24 24" fill="none" xmlns="http://www.w3.org/2000/svg">
<path d="M12.0002 22.8C10.5108 22.8 9.11314 22.5177 7.80725 21.953C6.50137 21.3953 5.35431 20.6224 4.36608 19.6341C3.37784 18.6459 2.60137 17.4988 2.03667 16.193C1.47902 14.8871 1.2002 13.4894 1.2002 12C1.2002 10.5106 1.47902 9.11295 2.03667 7.80707C2.60137 6.50119 3.37784 5.35413 4.36608 4.36589C5.35431 3.3706 6.50137 2.59413 7.80725 2.03648C9.11314 1.47884 10.5108 1.20001 12.0002 1.20001C13.4896 1.20001 14.8873 1.47884 16.1931 2.03648C17.499 2.59413 18.6461 3.3706 19.6343 4.36589C20.6225 5.35413 21.3955 6.50119 21.9531 7.80707C22.5178 9.11295 22.8002 10.5106 22.8002 12C22.8002 13.4894 22.5178 14.8871 21.9531 16.193C21.3955 17.4988 20.6225 18.6459 19.6343 19.6341C18.6461 20.6224 17.499 21.3953 16.1931 21.953C14.8873 22.5177 13.4896 22.8 12.0002 22.8ZM12.0002 21C13.2425 21 14.4073 20.7671 15.4943 20.3012C16.5814 19.8353 17.5378 19.1894 18.3637 18.3635C19.1896 17.5377 19.8355 16.5812 20.3014 15.4941C20.7673 14.4071 21.0002 13.2424 21.0002 12C21.0002 10.7577 20.7673 9.59295 20.3014 8.50589C19.8355 7.41178 19.1896 6.45531 18.3637 5.63648C17.5378 4.8106 16.5814 4.16472 15.4943 3.69884C14.4073 3.23295 13.2425 3.00001 12.0002 3.00001C10.7578 3.00001 9.59314 3.23295 8.50608 3.69884C7.41902 4.16472 6.46255 4.8106 5.63667 5.63648C4.81078 6.45531 4.1649 7.41178 3.69902 8.50589C3.23314 9.59295 3.0002 10.7577 3.0002 12C3.0002 13.2424 3.23314 14.4071 3.69902 15.4941C4.1649 16.5812 4.81078 17.5377 5.63667 18.3635C6.46255 19.1894 7.41902 19.8353 8.50608 20.3012C9.59314 20.7671 10.7578 21 12.0002 21ZM11.9896 13.9059C11.4461 13.9059 11.1673 13.6271 11.1531 13.0694L11.0155 7.46825C11.0084 7.20001 11.0931 6.97766 11.2696 6.80119C11.4531 6.62472 11.6896 6.53648 11.979 6.53648C12.2614 6.53648 12.4943 6.62825 12.6778 6.81178C12.8684 6.98825 12.9602 7.2106 12.9531 7.47884L12.7943 13.0694C12.7873 13.6271 12.519 13.9059 11.9896 13.9059ZM11.9896 17.3471C11.679 17.3471 11.4108 17.2412 11.1849 17.0294C10.959 16.8106 10.8461 16.5494 10.8461 16.2459C10.8461 15.9424 10.959 15.6847 11.1849 15.473C11.4108 15.2541 11.679 15.1447 11.9896 15.1447C12.3002 15.1447 12.5684 15.2506 12.7943 15.4624C13.0202 15.6741 13.1331 15.9353 13.1331 16.2459C13.1331 16.5565 13.0167 16.8177 12.7837 17.0294C12.5578 17.2412 12.2931 17.3471 11.9896 17.3471Z" fill="black"/>
</svg>
