<svg width="24" height="24" viewBox="0 0 24 24" fill="none" xmlns="http://www.w3.org/2000/svg">
<path d="M11.1639 3.26915C11.42 2.53233 11.5481 2.16393 11.7375 2.06182C11.9014 1.97345 12.0986 1.97345 12.2626 2.06182C12.4519 2.16393 12.5799 2.53233 12.8361 3.26915L14.5293 8.14025C14.6022 8.34996 14.6386 8.45481 14.7044 8.53289C14.7623 8.60187 14.8364 8.65563 14.9199 8.68949C15.0144 8.72783 15.1254 8.73009 15.3473 8.73461L20.5033 8.83968C21.2832 8.85557 21.6731 8.86353 21.8288 9.01207C21.9635 9.14063 22.0244 9.32832 21.991 9.5115C21.9525 9.72317 21.6417 9.95874 21.0201 10.4301L16.9106 13.5456C16.7336 13.6798 16.6452 13.7468 16.5912 13.8334C16.5435 13.9099 16.5153 13.9969 16.5089 14.0868C16.5017 14.1885 16.5338 14.2948 16.5981 14.5073L18.0915 19.4434C18.3173 20.19 18.4303 20.5633 18.3371 20.7572C18.2565 20.9251 18.0968 21.041 17.9122 21.0659C17.699 21.0946 17.3789 20.8718 16.7386 20.4263L12.5056 17.4807C12.3234 17.3539 12.2323 17.2905 12.1333 17.2659C12.0457 17.2442 11.9542 17.2442 11.8668 17.2659C11.7678 17.2905 11.6766 17.3539 11.4944 17.4807L7.26143 20.4263C6.62114 20.8718 6.301 21.0946 6.08778 21.0659C5.90325 21.041 5.74359 20.9251 5.66294 20.7572C5.56975 20.5633 5.6827 20.19 5.90859 19.4434L7.40193 14.5073C7.46622 14.2948 7.49836 14.1885 7.49112 14.0868C7.48473 13.9969 7.45647 13.9099 7.40879 13.8334C7.35483 13.7468 7.26637 13.6798 7.08945 13.5456L2.97999 10.4301C2.35837 9.95874 2.04757 9.72317 2.00898 9.5115C1.97558 9.32832 2.03657 9.14063 2.17126 9.01207C2.32687 8.86353 2.71682 8.85558 3.49672 8.83968L8.65265 8.73461C8.87461 8.73009 8.9856 8.72783 9.08016 8.68949C9.16368 8.65563 9.23768 8.60187 9.2957 8.53289C9.36138 8.45481 9.39782 8.34996 9.47072 8.14025L11.1639 3.26915Z" fill="#FFCD4F" stroke="#FFCD4F" stroke-width="1.8" stroke-linecap="round" stroke-linejoin="round"/>
</svg>
