<svg width="24" height="24" viewBox="0 0 24 24" fill="none" xmlns="http://www.w3.org/2000/svg">
<path d="M11.1639 3.2736C11.42 2.53678 11.5481 2.16839 11.7375 2.06628C11.9013 1.97791 12.0986 1.97791 12.2626 2.06628C12.4519 2.16839 12.5799 2.53678 12.8361 3.2736L14.5293 8.14471C14.6022 8.35442 14.6386 8.45926 14.7044 8.53735C14.7623 8.60632 14.8364 8.66009 14.9199 8.69395C15.0144 8.73228 15.1254 8.73454 15.3473 8.73907L20.5033 8.84414C21.2832 8.86003 21.6731 8.86798 21.8288 9.01653C21.9635 9.14509 22.0244 9.33278 21.991 9.51595C21.9525 9.72763 21.6417 9.9632 21.0201 10.4346L16.9106 13.55C16.7336 13.6842 16.6452 13.7513 16.5912 13.8378C16.5435 13.9144 16.5153 14.0014 16.5089 14.0912C16.5017 14.193 16.5338 14.2992 16.5981 14.5118L18.0915 19.4478C18.3173 20.1945 18.4303 20.5678 18.3371 20.7617C18.2565 20.9295 18.0968 21.0455 17.9122 21.0704C17.699 21.099 17.3789 20.8763 16.7386 20.4307L12.5056 17.4852C12.3234 17.3584 12.2323 17.295 12.1333 17.2703C12.0457 17.2486 11.9542 17.2486 11.8668 17.2703C11.7678 17.295 11.6766 17.3584 11.4944 17.4852L7.26143 20.4307C6.62114 20.8763 6.301 21.099 6.08778 21.0704C5.90325 21.0455 5.74359 20.9295 5.66294 20.7617C5.56975 20.5678 5.6827 20.1945 5.90859 19.4478L7.40193 14.5118C7.46622 14.2992 7.49836 14.193 7.49112 14.0912C7.48473 14.0014 7.45647 13.9144 7.40879 13.8378C7.35483 13.7513 7.26637 13.6842 7.08945 13.55L2.97999 10.4346C2.35837 9.9632 2.04757 9.72763 2.00898 9.51595C1.97558 9.33278 2.03657 9.14509 2.17126 9.01653C2.32687 8.86798 2.71682 8.86004 3.49672 8.84414L8.65265 8.73907C8.87461 8.73454 8.9856 8.73228 9.08016 8.69395C9.16368 8.66009 9.23768 8.60632 9.2957 8.53735C9.36138 8.45926 9.39782 8.35442 9.47072 8.14471L11.1639 3.2736Z" stroke="black" stroke-width="1.8" stroke-linecap="round" stroke-linejoin="round"/>
</svg>
