<svg width="24" height="25" viewBox="0 0 24 25" fill="none" xmlns="http://www.w3.org/2000/svg">
<path d="M12 24C10.341 24 8.78564 23.6889 7.334 23.0668C5.88235 22.4447 4.60618 21.5833 3.50548 20.4826C2.41276 19.3819 1.55533 18.1097 0.9332 16.666C0.311067 15.2144 0 13.659 0 12C0 10.341 0.311067 8.78963 0.9332 7.34596C1.55533 5.89432 2.41276 4.61815 3.50548 3.51745C4.60618 2.40877 5.88235 1.54736 7.334 0.9332C8.78564 0.311067 10.341 0 12 0C13.651 0 15.2024 0.311067 16.654 0.9332C18.1057 1.54736 19.3779 2.40877 20.4706 3.51745C21.5713 4.61815 22.4327 5.89432 23.0548 7.34596C23.6849 8.78963 24 10.341 24 12C24 13.659 23.6849 15.2144 23.0548 16.666C22.4327 18.1097 21.5713 19.3819 20.4706 20.4826C19.3779 21.5833 18.1057 22.4447 16.654 23.0668C15.2024 23.6889 13.651 24 12 24ZM12 22.4566C13.4437 22.4566 14.7956 22.1854 16.0558 21.6431C17.324 21.1007 18.4367 20.3509 19.3938 19.3938C20.3509 18.4367 21.1007 17.328 21.6431 16.0678C22.1854 14.7996 22.4566 13.4437 22.4566 12C22.4566 10.5563 22.1854 9.2004 21.6431 7.9322C21.1007 6.66401 20.3509 5.55533 19.3938 4.60618C18.4367 3.64905 17.324 2.8993 16.0558 2.35693C14.7956 1.81456 13.4437 1.54337 12 1.54337C10.5563 1.54337 9.2004 1.81456 7.9322 2.35693C6.67198 2.8993 5.56331 3.64905 4.60618 4.60618C3.64905 5.55533 2.8993 6.66401 2.35693 7.9322C1.81456 9.2004 1.54337 10.5563 1.54337 12C1.54337 13.4437 1.81456 14.7996 2.35693 16.0678C2.8993 17.328 3.64905 18.4367 4.60618 19.3938C5.56331 20.3509 6.67198 21.1007 7.9322 21.6431C9.2004 22.1854 10.5563 22.4566 12 22.4566ZM8.78166 16.319C8.43868 16.319 8.1675 16.2233 7.9681 16.0319C7.76869 15.8325 7.66899 15.5613 7.66899 15.2183V8.75773C7.66899 8.41476 7.76869 8.14756 7.9681 7.95613C8.1675 7.75673 8.43868 7.65703 8.78166 7.65703H15.2064C15.5494 7.65703 15.8205 7.75673 16.0199 7.95613C16.2193 8.14756 16.319 8.41476 16.319 8.75773V15.2183C16.319 15.5613 16.2193 15.8325 16.0199 16.0319C15.8205 16.2233 15.5494 16.319 15.2064 16.319H8.78166Z" fill="black"/>
</svg>
