<svg width="24" height="24" viewBox="0 0 24 24" fill="none" xmlns="http://www.w3.org/2000/svg">
<path fill-rule="evenodd" clip-rule="evenodd" d="M12.0005 0.999939C14.8736 0.999982 17.5147 1.44646 19.4699 2.19842C20.4443 2.57322 21.2937 3.04155 21.9148 3.60625C22.5363 4.17134 23 4.90335 23 5.77562V18.2243C23 19.0963 22.5362 19.8277 21.9148 20.3927C21.2937 20.9574 20.4445 21.4256 19.4699 21.8005C17.5147 22.5526 14.8738 22.9999 12.0005 22.9999C9.12699 22.9999 6.48537 22.5526 4.53014 21.8005C3.55551 21.4256 2.70628 20.9574 2.08516 20.3927C1.46386 19.8277 1 19.0963 1 18.2243V5.77562C1 4.90335 1.46373 4.17134 2.08516 3.60625C2.70632 3.04152 3.55562 2.57324 4.53014 2.19842C6.48541 1.4464 9.12719 0.999939 12.0005 0.999939ZM21.2301 14.6922C20.72 15.0288 20.1239 15.325 19.4699 15.5767C17.5147 16.3287 14.8737 16.7761 12.0005 16.7761C9.12705 16.7761 6.48536 16.3288 4.53014 15.5767C3.87655 15.3252 3.28066 15.0295 2.77083 14.6932V18.2243C2.77083 18.4258 2.8737 18.718 3.27596 19.0837C3.67846 19.4496 4.31043 19.8197 5.16587 20.1487C6.87136 20.8048 9.28769 21.2291 12.0005 21.2291C14.713 21.2291 17.1287 20.8047 18.8341 20.1487C19.6895 19.8197 20.3215 19.4496 20.724 19.0837C21.1263 18.718 21.2301 18.4258 21.2301 18.2243V14.6922ZM21.2301 8.46836C20.72 8.80505 20.1239 9.10125 19.4699 9.35281C17.5147 10.1048 14.8735 10.5513 12.0005 10.5513C9.12719 10.5513 6.48541 10.1048 4.53014 9.35281C3.87653 9.10142 3.28074 8.8057 2.77083 8.46932V12.0004L2.77563 12.0801C2.80091 12.2759 2.92418 12.5391 3.27596 12.8589C3.67846 13.2249 4.31032 13.5958 5.16587 13.9249C6.87134 14.5809 9.28778 15.0053 12.0005 15.0053C14.7129 15.0052 17.1287 14.5809 18.8341 13.9249C19.6897 13.5958 20.3215 13.2249 20.724 12.8589C21.0759 12.539 21.1999 12.2759 21.2253 12.0801L21.2301 12.0004V8.46836ZM12.0005 2.77077C9.28768 2.77077 6.87138 3.19519 5.16587 3.85113C4.31027 4.18021 3.67844 4.55019 3.27596 4.91613C2.87374 5.28188 2.77083 5.57363 2.77083 5.77562C2.77084 5.97761 2.87375 6.26936 3.27596 6.6351C3.67844 7.00104 4.31028 7.37103 5.16587 7.7001C6.87137 8.35604 9.28768 8.78046 12.0005 8.78046C14.713 8.78042 17.1287 8.35598 18.8341 7.7001C19.6897 7.37105 20.3216 7.00102 20.724 6.6351C21.1263 6.26936 21.2301 5.97761 21.2301 5.77562C21.2301 5.57363 21.1263 5.28188 20.724 4.91613C20.3216 4.55021 19.6897 4.18019 18.8341 3.85113C17.1287 3.19525 14.713 2.77081 12.0005 2.77077Z" fill="black"/>
</svg>
