<svg width="24" height="24" viewBox="0 0 24 24" fill="none" xmlns="http://www.w3.org/2000/svg">
<path d="M12.0005 12C13.0078 12 13.9966 12.2165 14.8638 12.6266C15.2555 12.8119 15.6163 13.034 15.9384 13.2865C16.3293 13.5931 16.6638 13.945 16.9298 14.3322C17.4151 15.0384 17.6544 15.8357 17.6228 16.6411C17.5911 17.4466 17.2896 18.2306 16.7498 18.911C16.2101 19.5914 15.4518 20.1432 14.5542 20.5091C13.6567 20.8749 12.6526 21.0418 11.6472 20.9911C10.6418 20.9405 9.67234 20.6744 8.83917 20.2215C8.00599 19.7685 7.34 19.1451 6.91109 18.4159M12.0005 12H3M12.0005 12H20.9998M17.0897 5.5843C16.6607 4.8551 15.995 4.23143 15.1617 3.77845C14.3285 3.32548 13.3584 3.05948 12.3531 3.00887C11.3477 2.95827 10.3437 3.12477 9.44615 3.49064C8.54858 3.85651 7.79033 4.40854 7.25056 5.08898C6.71079 5.76941 6.40935 6.55366 6.37771 7.35915C6.36844 7.59515 6.38249 7.83007 6.41911 8.0626" stroke="black" stroke-width="1.8" stroke-linecap="round" stroke-linejoin="round"/>
</svg>
