<svg width="24" height="24" viewBox="0 0 24 24" fill="none" xmlns="http://www.w3.org/2000/svg">
<path d="M12 17.7107C12 17.4144 11.9988 17.2521 11.9893 17.1355C11.9889 17.131 11.9877 17.1269 11.9873 17.1228C11.9836 17.1225 11.9797 17.1222 11.9756 17.1219C11.8591 17.1123 11.6967 17.1111 11.4004 17.1111H10.5996C10.3033 17.1111 10.1409 17.1123 10.0244 17.1219C10.02 17.1222 10.0157 17.1225 10.0117 17.1228C10.0113 17.1268 10.0111 17.1311 10.0107 17.1355C10.0012 17.2521 10 17.4144 10 17.7107V19.5115C10 19.8078 10.0012 19.9702 10.0107 20.0867C10.0111 20.0908 10.0114 20.0947 10.0117 20.0984C10.0157 20.0988 10.0199 20.1 10.0244 20.1004C10.1409 20.1099 10.3033 20.1111 10.5996 20.1111H11.4004C11.6967 20.1111 11.8591 20.1099 11.9756 20.1004C11.9797 20.1 11.9836 20.0988 11.9873 20.0984C11.9876 20.0947 11.9889 20.0908 11.9893 20.0867C11.9988 19.9702 12 19.8078 12 19.5115V17.7107ZM14 19.5115C14 19.7749 14.0011 20.033 13.9834 20.2498C13.9647 20.4783 13.9205 20.748 13.7822 21.0193C13.5905 21.3956 13.2845 21.7016 12.9082 21.8933C12.6369 22.0316 12.3672 22.0758 12.1387 22.0945C11.9219 22.1122 11.6638 22.1111 11.4004 22.1111H10.5996C10.3362 22.1111 10.0781 22.1122 9.86133 22.0945C9.6328 22.0758 9.36306 22.0316 9.0918 21.8933C8.71576 21.7017 8.40962 21.3958 8.21777 21.0193C8.07955 20.748 8.0353 20.4783 8.0166 20.2498C7.99889 20.033 8 19.7749 8 19.5115V17.7107C8 17.4473 7.99889 17.1892 8.0166 16.9724C8.0353 16.7439 8.07955 16.4742 8.21777 16.2029C8.40962 15.8264 8.71576 15.5205 9.0918 15.3289C9.36306 15.1907 9.6328 15.1464 9.86133 15.1277C9.91031 15.1237 9.9619 15.1232 10.0146 15.1209C10.0172 15.0616 10.0177 15.0042 10.0215 14.949C10.044 14.6193 10.0937 14.2894 10.2285 13.9636V13.9627C10.533 13.2279 11.1168 12.6441 11.8516 12.3396H11.8525C12.1783 12.2048 12.5082 12.1551 12.8379 12.1326C13.1587 12.1107 13.5478 12.1111 14 12.1111H16.7998C17.3764 12.1111 17.7489 12.1098 18.0322 12.0867C18.3038 12.0645 18.4047 12.0269 18.4541 12.0017C18.6421 11.9059 18.7948 11.7532 18.8906 11.5652C18.9158 11.5158 18.9534 11.415 18.9756 11.1433C18.9987 10.86 19 10.4875 19 9.91092V9.31131C19 8.73475 18.9987 8.36222 18.9756 8.07889C18.9534 7.80731 18.9158 7.70644 18.8906 7.65701C18.7949 7.4691 18.6421 7.31636 18.4541 7.22049C18.4047 7.19531 18.3038 7.15773 18.0322 7.13553C17.7801 7.11493 17.4576 7.1115 16.9834 7.11111C16.9809 7.16688 16.9821 7.22105 16.9785 7.27322C16.956 7.60304 16.9064 7.93365 16.7715 8.25955C16.467 8.99436 15.8831 9.57814 15.1484 9.8826C14.8225 10.0176 14.4919 10.0671 14.1621 10.0896C13.8413 10.1115 13.4521 10.1111 13 10.1111H7C6.54786 10.1111 6.15869 10.1115 5.83789 10.0896C5.50806 10.0671 5.17749 10.0176 4.85156 9.8826C4.11679 9.57812 3.53299 8.99432 3.22852 8.25955C3.09352 7.93362 3.04399 7.60305 3.02148 7.27322C2.99961 6.95243 3 6.56325 3 6.11111C3 5.65898 2.99961 5.2698 3.02148 4.949C3.04399 4.61917 3.09352 4.2886 3.22852 3.96268C3.53299 3.22791 4.11679 2.64411 4.85156 2.33963C5.17749 2.20463 5.50806 2.1551 5.83789 2.1326C6.15869 2.11073 6.54786 2.11111 7 2.11111H13C13.4521 2.11111 13.8413 2.11073 14.1621 2.1326C14.4919 2.1551 14.8225 2.20465 15.1484 2.33963C15.8831 2.64408 16.467 3.22787 16.7715 3.96268C16.9064 4.28858 16.956 4.61919 16.9785 4.949C16.9821 5.00118 16.9809 5.05534 16.9834 5.11111C17.4494 5.11134 17.8555 5.11362 18.1953 5.14139C18.5906 5.1737 18.984 5.24549 19.3623 5.43826C19.9264 5.72579 20.3853 6.1845 20.6728 6.74881C20.8656 7.12711 20.9374 7.52054 20.9697 7.9158C21.0011 8.29947 21 8.76776 21 9.31131V9.91092C21 10.4545 21.0011 10.9227 20.9697 11.3064C20.9374 11.7017 20.8656 12.0951 20.6728 12.4734C20.3853 13.0376 19.9265 13.4964 19.3623 13.784C18.984 13.9767 18.5906 14.0485 18.1953 14.0808C17.8116 14.1122 17.3433 14.1111 16.7998 14.1111H14C13.5204 14.1111 13.2106 14.1115 12.9736 14.1277C12.8597 14.1355 12.781 14.1463 12.7256 14.157L12.6172 14.1873C12.4027 14.2762 12.2267 14.4365 12.1182 14.6394L12.0762 14.7283C12.0589 14.77 12.0321 14.8569 12.0166 15.0847C12.0158 15.0969 12.0154 15.1093 12.0146 15.1219C12.0571 15.124 12.0988 15.1245 12.1387 15.1277C12.3672 15.1464 12.6369 15.1906 12.9082 15.3289C13.2375 15.4967 13.5129 15.7519 13.7051 16.0652L13.7822 16.2029L13.8691 16.406C13.9406 16.6069 13.9694 16.8012 13.9834 16.9724C14.0011 17.1893 14 17.4473 14 17.7107V19.5115ZM5 6.11111C5 6.59074 5.00043 6.9005 5.0166 7.13748C5.03216 7.36539 5.05893 7.45231 5.07617 7.49393C5.17766 7.73885 5.37227 7.93345 5.61719 8.03494C5.6588 8.05218 5.74573 8.07895 5.97363 8.09451C6.21061 8.11068 6.52038 8.11111 7 8.11111H13C13.4796 8.11111 13.7894 8.11068 14.0264 8.09451C14.2543 8.07896 14.3411 8.0522 14.3828 8.03494C14.6277 7.93344 14.8223 7.73881 14.9238 7.49393C14.9411 7.45228 14.9678 7.36542 14.9834 7.13748C14.9996 6.90049 15 6.59073 15 6.11111C15 5.6315 14.9996 5.32174 14.9834 5.08475C14.9678 4.85681 14.9411 4.76994 14.9238 4.7283C14.8223 4.48342 14.6277 4.28879 14.3828 4.18729C14.3411 4.17003 14.2543 4.14327 14.0264 4.12772C13.7894 4.11155 13.4796 4.11111 13 4.11111H7C6.52038 4.11111 6.21061 4.11155 5.97363 4.12772C5.74573 4.14327 5.6588 4.17005 5.61719 4.18729C5.37227 4.28878 5.17766 4.48338 5.07617 4.7283C5.05893 4.76992 5.03216 4.85684 5.0166 5.08475C5.00043 5.32173 5 5.63149 5 6.11111Z" fill="black"/>
</svg>
