<svg width="24" height="24" viewBox="0 0 24 24" fill="none" xmlns="http://www.w3.org/2000/svg">
<path d="M12.876 17.7998C13.3727 17.8002 13.7754 18.2034 13.7754 18.7002C13.7754 19.197 13.3727 19.6002 12.876 19.6006H7.10059C6.60355 19.6006 6.20023 19.1972 6.2002 18.7002C6.2002 18.2031 6.60353 17.7998 7.10059 17.7998H12.876Z" fill="black"/>
<path d="M15.501 14.125C15.9977 14.1254 16.4004 14.5286 16.4004 15.0254C16.4003 15.5221 15.9976 15.9254 15.501 15.9258H7.10059C6.60361 15.9258 6.20033 15.5223 6.2002 15.0254C6.2002 14.5283 6.60353 14.125 7.10059 14.125H15.501Z" fill="black"/>
<path fill-rule="evenodd" clip-rule="evenodd" d="M14.9756 1C16.2191 1.00013 17.2454 1.91832 17.4209 3.11328C18.1853 3.13106 18.8543 3.17441 19.4307 3.28027C20.2406 3.4291 20.9415 3.71508 21.5137 4.28711C22.1699 4.94344 22.4484 5.76719 22.5771 6.72461C22.7023 7.65617 22.7002 8.84169 22.7002 10.3008V16.6006C22.7002 18.0598 22.7024 19.2461 22.5771 20.1777C22.4484 21.1349 22.1698 21.9581 21.5137 22.6143C20.8573 23.2705 20.0336 23.549 19.0762 23.6777C18.1446 23.8029 16.9592 23.8008 15.5 23.8008H9.2002C7.74083 23.8008 6.55567 23.803 5.62402 23.6777C4.66656 23.549 3.84288 23.2705 3.18652 22.6143C2.53052 21.9582 2.2528 21.1348 2.12402 20.1777C1.99878 19.2461 2 18.0598 2 16.6006V10.3008C2 8.84169 1.99883 7.65617 2.12402 6.72461C2.25276 5.76722 2.53034 4.94342 3.18652 4.28711C3.75877 3.71489 4.46035 3.4291 5.27051 3.28027C5.84664 3.17447 6.51531 3.13108 7.2793 3.11328C7.45487 1.91824 8.4819 1 9.72559 1H14.9756ZM17.416 4.91504C17.2289 6.09639 16.2095 6.99987 14.9756 7H9.72559C8.49142 7 7.47037 6.09654 7.2832 4.91504C6.57937 4.93216 6.03553 4.97002 5.5957 5.05078C5.01495 5.15747 4.69348 5.32605 4.45898 5.56055C4.19314 5.82673 4.00905 6.2075 3.90723 6.96484C3.80195 7.74858 3.80078 8.79108 3.80078 10.3008V16.6006C3.80078 18.1107 3.80185 19.1537 3.90723 19.9375C4.00912 20.695 4.19298 21.0757 4.45898 21.3418C4.72519 21.6079 5.10651 21.7917 5.86426 21.8936C6.64806 21.9989 7.69019 22.001 9.2002 22.001H15.5C17.0103 22.001 18.0531 21.9989 18.8369 21.8936C19.5945 21.7917 19.975 21.6079 20.2412 21.3418L20.3369 21.2363C20.5518 20.9749 20.7038 20.6006 20.793 19.9375C20.8983 19.1537 20.9004 18.1107 20.9004 16.6006V10.3008C20.9004 8.79104 20.8983 7.74859 20.793 6.96484C20.6911 6.20732 20.5072 5.82674 20.2412 5.56055C20.0067 5.32608 19.686 5.15747 19.1055 5.05078C18.6654 4.96994 18.1207 4.93214 17.416 4.91504ZM9.72559 2.80078C9.3528 2.80078 9.05078 3.1028 9.05078 3.47559V4.52539C9.0508 4.89816 9.35281 5.2002 9.72559 5.2002H14.9756C15.3482 5.20005 15.6504 4.89807 15.6504 4.52539V3.47559C15.6504 3.1029 15.3482 2.80092 14.9756 2.80078H9.72559Z" fill="black"/>
</svg>
