<svg width="24" height="24" viewBox="0 0 24 24" fill="none" xmlns="http://www.w3.org/2000/svg">
<path d="M13.3484 23C11.5669 23 10.0509 22.5238 8.80056 21.5715C7.55669 20.6192 6.59787 19.2069 5.92411 17.3346L4.18464 12.4757C4.12633 12.3008 4.08098 12.1161 4.04859 11.9218C4.0162 11.7274 4 11.5493 4 11.3873C4 10.8107 4.19112 10.3605 4.57335 10.0366C4.95558 9.71263 5.41231 9.55067 5.94354 9.55067C6.29338 9.55067 6.61083 9.64461 6.89588 9.83249C7.18093 10.0204 7.41092 10.2989 7.58584 10.6682L8.13003 11.9509C8.14947 11.9963 8.17538 12.019 8.20777 12.019C8.25312 12.019 8.2758 11.9866 8.2758 11.9218V4.21564C8.2758 3.54836 8.47987 3.01388 8.88801 2.61222C9.29616 2.20407 9.81768 2 10.4526 2C11.081 2 11.5928 2.20407 11.988 2.61222C12.3896 3.01388 12.5905 3.54836 12.5905 4.21564V7.15039C12.7783 7.09857 12.9727 7.07265 13.1735 7.07265C13.6011 7.07265 13.9704 7.18603 14.2814 7.41277C14.5988 7.63304 14.8288 7.94401 14.9713 8.34567C15.2369 8.26145 15.5058 8.21934 15.7779 8.21934C16.199 8.21934 16.5618 8.323 16.8663 8.53031C17.1708 8.73762 17.3845 9.02268 17.5076 9.38547C18.4535 9.40491 19.1888 9.74179 19.7136 10.3961C20.2448 11.0504 20.5104 11.9509 20.5104 13.0976V15.4299C20.5104 17.0106 20.2156 18.3646 19.6261 19.4919C19.0366 20.6192 18.2041 21.484 17.1286 22.0865C16.0597 22.6955 14.7996 23 13.3484 23ZM13.397 21.348C14.5502 21.348 15.5414 21.1083 16.3707 20.6289C17.1999 20.1559 17.8348 19.466 18.2753 18.559C18.7224 17.652 18.9459 16.5539 18.9459 15.2647V13.1851C18.9459 12.4984 18.839 11.9704 18.6252 11.6011C18.4114 11.2254 18.1069 11.0375 17.7117 11.0375V12.0287C17.7117 12.2295 17.6404 12.3947 17.4979 12.5243C17.3619 12.6539 17.2031 12.7186 17.0217 12.7186C16.8274 12.7186 16.6557 12.6539 16.5067 12.5243C16.3642 12.3947 16.2929 12.2295 16.2929 12.0287V10.4933C16.2929 10.2665 16.2314 10.0884 16.1083 9.95882C15.9917 9.82925 15.8232 9.76446 15.603 9.76446C15.4216 9.76446 15.2499 9.80009 15.0879 9.87136V11.64C15.0879 11.8473 15.0167 12.0157 14.8741 12.1453C14.7381 12.2684 14.5761 12.3299 14.3882 12.3299C14.2004 12.3299 14.0352 12.2684 13.8926 12.1453C13.7501 12.0157 13.6789 11.8473 13.6789 11.64V9.3466C13.6789 9.11985 13.6141 8.94169 13.4845 8.81212C13.3614 8.68255 13.1962 8.61777 12.9889 8.61777C12.8075 8.61777 12.6326 8.6534 12.4641 8.72466V11.2513C12.4641 11.4456 12.3929 11.6108 12.2503 11.7469C12.1143 11.8829 11.9491 11.9509 11.7547 11.9509C11.5604 11.9509 11.3919 11.8829 11.2494 11.7469C11.1134 11.6108 11.0453 11.4456 11.0453 11.2513V4.11846C11.0453 3.93059 10.9903 3.78158 10.8801 3.67145C10.77 3.55484 10.6242 3.49653 10.4429 3.49653C10.2615 3.49653 10.1124 3.55484 9.99583 3.67145C9.8857 3.78158 9.83063 3.93059 9.83063 4.11846L9.82092 14.2735C9.82092 14.5261 9.74317 14.7335 9.58769 14.8954C9.43869 15.0574 9.25081 15.1384 9.02406 15.1384C8.83619 15.1384 8.66127 15.0898 8.49931 14.9926C8.34382 14.8954 8.21101 14.7205 8.10088 14.4678L6.71124 11.4942C6.58815 11.1897 6.3938 11.0375 6.12818 11.0375C5.95326 11.0375 5.81397 11.0926 5.71032 11.2027C5.61314 11.3063 5.56455 11.4327 5.56455 11.5817C5.56455 11.7112 5.58723 11.8441 5.63258 11.9801L7.41092 16.7904C8.01342 18.4165 8.81675 19.5826 9.82092 20.2888C10.8316 20.9949 12.0236 21.348 13.397 21.348Z" fill="black"/>
</svg>
