<svg width="24" height="24" viewBox="0 0 24 24" fill="none" xmlns="http://www.w3.org/2000/svg">
<path fill-rule="evenodd" clip-rule="evenodd" d="M13.1785 2.17852C13.1785 1.52764 12.6509 1 12 1C11.3491 1 10.8215 1.52764 10.8215 2.17852V21.8214C10.8215 22.4722 11.3491 22.9999 12 22.9999C12.6509 22.9999 13.1785 22.4722 13.1785 21.8214V2.17852ZM7.08916 4.77746C7.74005 4.77746 8.26768 5.30511 8.26768 5.95598V18.0439C8.26768 18.6947 7.74005 19.2224 7.08916 19.2224C6.43829 19.2224 5.91065 18.6947 5.91065 18.0439V5.95598C5.91065 5.30511 6.43829 4.77746 7.08916 4.77746ZM2.17852 8.55494C2.8294 8.55494 3.35702 9.08258 3.35702 9.73345V14.2664C3.35702 14.9173 2.8294 15.4449 2.17852 15.4449C1.52764 15.4449 1 14.9173 1 14.2664V9.73345C1 9.08258 1.52764 8.55494 2.17852 8.55494ZM16.9107 4.77746C17.5615 4.77746 18.0892 5.30511 18.0892 5.95598V18.0439C18.0892 18.6947 17.5615 19.2224 16.9107 19.2224C16.2598 19.2224 15.7322 18.6947 15.7322 18.0439V5.95598C15.7322 5.30511 16.2598 4.77746 16.9107 4.77746ZM23 9.73345C23 9.08258 22.4723 8.55494 21.8215 8.55494C21.1706 8.55494 20.643 9.08258 20.643 9.73345V14.2664C20.643 14.9173 21.1706 15.4449 21.8215 15.4449C22.4723 15.4449 23 14.9173 23 14.2664V9.73345Z" fill="black"/>
</svg>
