<svg width="24" height="24" viewBox="0 0 24 24" fill="none" xmlns="http://www.w3.org/2000/svg">
<path d="M8.86237 4.11956C9.31638 4.11956 9.68478 4.48797 9.68478 4.94198C9.68472 5.39593 9.31634 5.76439 8.86237 5.76439H3.38199C3.18488 5.76449 2.99602 5.84264 2.85661 5.98204C2.71726 6.12143 2.63907 6.31033 2.63897 6.50742V8.81677H11.2119C11.6657 8.81698 12.0333 9.18536 12.0334 9.63919C12.0334 10.0931 11.6657 10.4614 11.2119 10.4616H2.63897V20.5999C2.639 20.7972 2.71725 20.9869 2.85661 21.1262C2.99607 21.2655 3.18507 21.3438 3.38199 21.3439H19.0408C19.4515 21.3437 19.7847 21.0106 19.7848 20.5999V12.771C19.7848 12.3171 20.1524 11.9495 20.6063 11.9494C21.0603 11.9494 21.4286 12.317 21.4287 12.771V20.5999C21.4286 21.9186 20.3595 22.9877 19.0408 22.9878H3.38199C2.7488 22.9877 2.14198 22.7359 1.69435 22.2885C1.24648 21.8407 0.994174 21.2331 0.994141 20.5999V6.50742C0.994242 5.87427 1.24578 5.2666 1.69346 4.81888C2.14117 4.37118 2.74881 4.11967 3.38199 4.11956H8.86237Z" fill="black"/>
<path fill-rule="evenodd" clip-rule="evenodd" d="M17.446 1.00028C17.7739 1.0499 18.0637 1.24393 18.2345 1.52834L18.3094 1.67819L19.1077 3.61827C19.3423 4.18775 19.7951 4.63971 20.3646 4.87419L22.3029 5.67252C22.721 5.8445 22.9941 6.25236 22.9941 6.70365C22.9941 7.09845 22.7858 7.45969 22.4536 7.65897L22.3037 7.7339L20.3646 8.53223C19.795 8.76673 19.3423 9.21948 19.1077 9.78904L18.3094 11.7282C18.1375 12.1457 17.7305 12.4185 17.2792 12.4186C16.8278 12.4186 16.4209 12.1458 16.2489 11.7282L15.4497 9.78904C15.2152 9.21957 14.7632 8.76675 14.1938 8.53223L12.2537 7.7339C11.8884 7.58349 11.6337 7.25314 11.5758 6.87046L11.5633 6.70365L11.5758 6.53685C11.6335 6.15402 11.8883 5.82392 12.2537 5.67341L14.1938 4.87419C14.7631 4.63969 15.2152 4.18758 15.4497 3.61827L16.2489 1.67819L16.3239 1.52834C16.5232 1.19659 16.8843 0.987793 17.2792 0.987793L17.446 1.00028ZM16.9697 4.24444C16.5682 5.21894 15.7945 5.99271 14.82 6.39413L14.0689 6.70276L14.82 7.01228C15.7947 7.41375 16.5683 8.18811 16.9697 9.16287L17.2783 9.91303L17.5878 9.16287C17.9893 8.18799 18.7634 7.41373 19.7384 7.01228L20.4885 6.70276L19.7384 6.39413C18.7636 5.99272 17.9893 5.21911 17.5878 4.24444L17.2783 3.49339L16.9697 4.24444Z" fill="black"/>
</svg>
