<svg width="24" height="24" viewBox="0 0 24 24" fill="none" xmlns="http://www.w3.org/2000/svg">
<path d="M2 15.8739C2 14.8547 2.17199 13.9342 2.51597 13.1125C2.86632 12.2844 3.3377 11.6315 3.93011 11.1537C4.52889 10.676 5.20093 10.4371 5.94622 10.4371H7.26481C6.95905 10.832 6.66922 11.2907 6.39531 11.813C6.12777 12.3353 5.908 12.9277 5.73601 13.5902C5.57039 14.2463 5.48758 14.9757 5.48758 15.7783C5.48121 16.8931 5.67549 17.925 6.07044 18.8742C6.47175 19.8169 7.10556 20.6227 7.97188 21.2916H6.30931C5.48758 21.2916 4.75184 21.0463 4.1021 20.5558C3.45236 20.0653 2.93958 19.4124 2.56375 18.5971C2.18792 17.7753 2 16.8676 2 15.8739ZM6.88261 15.7974C6.88261 15.033 6.9495 14.3483 7.08327 13.7431C7.21704 13.1316 7.42406 12.5551 7.70434 12.0137C7.98462 11.4658 8.33816 10.9085 8.76495 10.3415C9.50387 9.36054 10.3192 8.2872 11.211 7.12149C12.1028 5.95578 12.9118 4.66903 13.638 3.26126C13.8418 2.86632 14.0521 2.55738 14.2686 2.33443C14.4852 2.11148 14.7751 2 15.1381 2C15.5458 2 15.8866 2.13377 16.1605 2.40131C16.4344 2.66885 16.5714 3.0415 16.5714 3.51925C16.5714 3.95241 16.4854 4.4206 16.3134 4.92383C16.1478 5.42069 15.9567 5.91756 15.7401 6.41442C15.5235 6.91128 15.3324 7.37947 15.1668 7.819C15.0076 8.25853 14.9279 8.64073 14.9279 8.9656C14.9279 9.30321 15.0521 9.57076 15.3006 9.76823C15.5554 9.9657 15.8898 10.0644 16.3039 10.0644H19.7532C20.0908 10.0644 20.3934 10.1441 20.6609 10.3033C20.9285 10.4626 21.1419 10.6791 21.3011 10.953C21.4604 11.227 21.54 11.5295 21.54 11.8608C21.54 12.1347 21.4954 12.3831 21.4062 12.6061C21.3171 12.8226 21.196 13.001 21.0431 13.1411C20.9157 13.2558 20.9062 13.3641 21.0145 13.466C21.1355 13.5934 21.2311 13.7686 21.3011 13.9915C21.3776 14.2081 21.4158 14.4343 21.4158 14.6699C21.4158 14.9948 21.3457 15.2878 21.2056 15.549C21.0654 15.8102 20.8839 16.014 20.6609 16.1605C20.5144 16.2433 20.4889 16.3516 20.5845 16.4854C20.8074 16.7848 20.9189 17.1542 20.9189 17.5938C20.9189 17.976 20.8106 18.3104 20.5941 18.5971C20.3838 18.8773 20.1259 19.0875 19.8201 19.2277C19.7118 19.2723 19.6927 19.3551 19.7628 19.4761C19.8201 19.578 19.8679 19.6991 19.9061 19.8392C19.9507 19.9793 19.973 20.1418 19.973 20.3265C19.973 20.7979 19.8137 21.1674 19.4952 21.4349C19.1831 21.7024 18.82 21.8872 18.406 21.9891C18.1384 22.0592 17.769 22.1133 17.2976 22.1515C16.8262 22.1961 16.2784 22.2184 15.6541 22.2184H14.3164C13.1762 22.2184 12.1474 22.056 11.2301 21.7311C10.3129 21.4062 9.52935 20.954 8.87961 20.3743C8.22987 19.7946 7.73301 19.1162 7.38903 18.3391C7.04505 17.5556 6.87624 16.7083 6.88261 15.7974Z" fill="black"/>
</svg>
