<svg width="24" height="24" viewBox="0 0 24 24" fill="none" xmlns="http://www.w3.org/2000/svg">
<path d="M21.5381 8.75391C21.5381 9.83008 21.3464 10.8104 20.9629 11.6948C20.5856 12.5731 20.0723 13.272 19.4229 13.7915C18.7796 14.311 18.0529 14.5708 17.2427 14.5708H15.6284C15.1274 15.1831 14.6636 15.7707 14.2368 16.3335C13.8101 16.8901 13.4142 17.4313 13.0493 17.957C12.6844 18.4766 12.3442 18.993 12.0288 19.5063C11.7134 20.0259 11.4165 20.5578 11.1382 21.1021C10.8289 21.6896 10.498 22.1133 10.1455 22.373C9.79915 22.639 9.39095 22.772 8.9209 22.772C8.48177 22.772 8.09212 22.673 7.75195 22.4751C7.41797 22.2772 7.15202 22.002 6.9541 21.6494C6.76237 21.2969 6.6665 20.8949 6.6665 20.4434C6.6665 19.9919 6.74072 19.5218 6.88916 19.0332C7.0376 18.5384 7.20768 18.0653 7.39941 17.6138C7.59733 17.1561 7.77051 16.7417 7.91895 16.3706C8.07357 15.9933 8.15706 15.6903 8.16943 15.4614C8.17562 15.381 8.15088 15.3192 8.09521 15.2759C8.03955 15.2326 7.96842 15.2109 7.88184 15.2109H4.53271C4.05648 15.2109 3.62663 15.0996 3.24316 14.877C2.8597 14.6481 2.55664 14.342 2.33398 13.9585C2.11133 13.5688 2 13.1359 2 12.6597C2 12.0845 2.12988 11.5959 2.38965 11.1938C2.30306 11.0269 2.23503 10.8382 2.18555 10.6279C2.13607 10.4115 2.11133 10.1981 2.11133 9.98779C2.11133 9.65381 2.16699 9.33529 2.27832 9.03223C2.39583 8.72917 2.55973 8.46631 2.77002 8.24365C2.64014 7.94678 2.5752 7.61279 2.5752 7.2417C2.5752 6.44385 2.89372 5.78825 3.53076 5.2749C3.50602 5.18213 3.48438 5.08626 3.46582 4.9873C3.45345 4.88835 3.44727 4.78939 3.44727 4.69043C3.44727 4.09668 3.64209 3.58024 4.03174 3.14111C4.42139 2.70199 4.9471 2.40202 5.60889 2.24121C5.93669 2.16081 6.3418 2.10205 6.82422 2.06494C7.31283 2.02165 7.84782 2 8.4292 2H9.69092C10.4826 2 11.234 2.08659 11.9453 2.25977C12.6628 2.43294 13.3245 2.67415 13.9307 2.9834H16.8994C17.5488 2.9834 18.1519 3.13493 18.7085 3.43799C19.2713 3.73486 19.763 4.14925 20.1836 4.68115C20.6104 5.21305 20.9412 5.82845 21.1763 6.52734C21.4175 7.22624 21.5381 7.96842 21.5381 8.75391ZM15.916 8.82812C15.916 7.81999 15.6532 6.92936 15.1274 6.15625C14.6079 5.38314 13.8719 4.77702 12.9194 4.33789C11.9731 3.89258 10.866 3.66683 9.59814 3.66064H8.5127C7.96224 3.66064 7.47673 3.67611 7.05615 3.70703C6.63558 3.73796 6.29232 3.78743 6.02637 3.85547C5.72331 3.92969 5.50065 4.04102 5.3584 4.18945C5.21615 4.33171 5.14502 4.4987 5.14502 4.69043C5.14502 4.78939 5.15739 4.88216 5.18213 4.96875C5.20687 5.05534 5.26562 5.21305 5.3584 5.44189C5.42025 5.58415 5.42952 5.7264 5.38623 5.86865C5.34912 6.00472 5.25944 6.11296 5.11719 6.19336C4.54818 6.49642 4.26367 6.85205 4.26367 7.26025C4.26367 7.40251 4.28841 7.53239 4.33789 7.6499C4.38737 7.76123 4.46159 7.90967 4.56055 8.09521C4.64714 8.26839 4.66569 8.44157 4.61621 8.61475C4.57292 8.78174 4.47705 8.91781 4.32861 9.02295C4.14307 9.1652 4.00391 9.31673 3.91113 9.47754C3.82454 9.63216 3.78125 9.80225 3.78125 9.98779C3.78125 10.1424 3.81217 10.2878 3.87402 10.4238C3.93587 10.5537 4.02865 10.7145 4.15234 10.9062C4.25749 11.0176 4.30387 11.1506 4.2915 11.3052C4.27913 11.4598 4.21419 11.5928 4.09668 11.7041C3.94206 11.8587 3.83073 12.0072 3.7627 12.1494C3.70085 12.2855 3.66992 12.4463 3.66992 12.6318C3.66992 12.8916 3.75342 13.1081 3.92041 13.2812C4.09359 13.4544 4.31006 13.541 4.56982 13.541H7.80762C8.39518 13.541 8.88379 13.7018 9.27344 14.0234C9.66309 14.3451 9.85791 14.778 9.85791 15.3223C9.85791 15.6934 9.7806 16.0985 9.62598 16.5376C9.47754 16.9767 9.30127 17.4251 9.09717 17.8828C8.89925 18.3405 8.72298 18.7827 8.56836 19.2095C8.41374 19.6362 8.33643 20.0166 8.33643 20.3506C8.33643 20.5671 8.389 20.734 8.49414 20.8516C8.59928 20.9691 8.73226 21.0278 8.89307 21.0278C9.03532 21.0278 9.16211 20.9814 9.27344 20.8887C9.39095 20.7959 9.52083 20.6073 9.66309 20.3228C10.1146 19.4198 10.6094 18.5724 11.1475 17.7808C11.6917 16.9829 12.236 16.2376 12.7803 15.5449C13.3245 14.8522 13.8224 14.2028 14.2739 13.5967C14.6821 13.0524 15.0068 12.5391 15.248 12.0566C15.4893 11.5742 15.6593 11.0763 15.7583 10.563C15.8634 10.0496 15.916 9.47135 15.916 8.82812ZM19.8867 8.75391C19.8867 8.00553 19.7537 7.3221 19.4878 6.70361C19.2218 6.07894 18.8693 5.57796 18.4302 5.20068C17.991 4.81722 17.5117 4.61621 16.9922 4.59766C16.8252 4.59766 16.6551 4.59766 16.4819 4.59766C16.3149 4.59766 16.1479 4.59766 15.981 4.59766C16.5005 5.16667 16.8963 5.8099 17.1685 6.52734C17.4468 7.24479 17.5859 8.01172 17.5859 8.82812C17.5859 9.60742 17.5117 10.3311 17.3633 10.999C17.221 11.6608 16.9922 12.3009 16.6768 12.9194C16.7943 12.9194 16.9087 12.9194 17.02 12.9194C17.1375 12.9194 17.255 12.9194 17.3726 12.9194C17.8241 12.9009 18.2384 12.703 18.6157 12.3257C18.9992 11.9484 19.3053 11.4505 19.5342 10.832C19.7692 10.2074 19.8867 9.51465 19.8867 8.75391Z" fill="black"/>
</svg>
