<svg width="24" height="24" viewBox="0 0 24 24" fill="none" xmlns="http://www.w3.org/2000/svg">
<path d="M2 16.0181C2 14.9419 2.18864 13.9647 2.56592 13.0864C2.9432 12.2082 3.45654 11.5093 4.10596 10.9897C4.75537 10.464 5.48519 10.2012 6.29541 10.2012H7.90039C8.40755 9.58268 8.87142 8.99821 9.29199 8.44775C9.71875 7.89111 10.1146 7.34994 10.4795 6.82422C10.8506 6.2985 11.1908 5.77897 11.5 5.26562C11.8154 4.74609 12.1123 4.21729 12.3906 3.6792C12.6999 3.08545 13.0277 2.65869 13.374 2.39893C13.7266 2.13298 14.141 2 14.6172 2C15.0501 2 15.4336 2.10205 15.7676 2.30615C16.1077 2.50407 16.3768 2.7793 16.5747 3.13184C16.7726 3.47819 16.8716 3.87712 16.8716 4.32861C16.8716 4.7863 16.7943 5.25944 16.6396 5.74805C16.4912 6.23047 16.318 6.70052 16.1201 7.1582C15.9284 7.61589 15.7552 8.03337 15.6006 8.41064C15.4521 8.78174 15.3717 9.0848 15.3594 9.31982C15.3594 9.40023 15.3841 9.46208 15.4336 9.50537C15.4893 9.54867 15.5604 9.57031 15.647 9.57031H19.0054C19.4816 9.57031 19.9084 9.68473 20.2856 9.91357C20.6691 10.1362 20.9722 10.4393 21.1948 10.8228C21.4237 11.2062 21.5381 11.6361 21.5381 12.1123C21.5381 12.6813 21.4051 13.173 21.1392 13.5874C21.2257 13.7482 21.2938 13.9338 21.3433 14.144C21.3927 14.3543 21.4175 14.5677 21.4175 14.7842C21.4175 15.1182 21.3618 15.4367 21.2505 15.7397C21.1392 16.0428 20.9784 16.3057 20.7681 16.5283C20.8979 16.8252 20.9629 17.1592 20.9629 17.5303C20.9629 18.3281 20.6413 18.9837 19.998 19.4971C20.029 19.596 20.0506 19.6919 20.063 19.7847C20.0754 19.8836 20.0815 19.9857 20.0815 20.0908C20.0815 20.6722 19.8867 21.1855 19.4971 21.6309C19.1074 22.0762 18.5817 22.3761 17.9199 22.5308C17.5921 22.6173 17.187 22.6792 16.7046 22.7163C16.2222 22.7534 15.6872 22.772 15.0996 22.772H13.8472C13.0493 22.772 12.2917 22.6854 11.5742 22.5122C10.863 22.3452 10.2043 22.1071 9.59814 21.7979H6.63867C5.98307 21.7979 5.37386 21.6463 4.81104 21.3433C4.25439 21.0402 3.7627 20.6227 3.33594 20.0908C2.91536 19.5589 2.58757 18.9466 2.35254 18.2539C2.11751 17.555 2 16.8097 2 16.0181ZM7.61279 15.9438C7.61279 16.952 7.87565 17.8457 8.40137 18.625C8.92708 19.3981 9.66309 20.0042 10.6094 20.4434C11.5618 20.8825 12.6689 21.1051 13.9307 21.1113H15.0161C15.5728 21.1113 16.0614 21.0959 16.4819 21.0649C16.9025 21.0402 17.2427 20.9938 17.5024 20.9258C17.8055 20.8454 18.0282 20.731 18.1704 20.5825C18.3127 20.4403 18.3838 20.2733 18.3838 20.0815C18.3838 19.9764 18.3714 19.8836 18.3467 19.8032C18.3281 19.7228 18.2694 19.562 18.1704 19.3208C18.1086 19.1847 18.0993 19.0487 18.1426 18.9126C18.1859 18.7703 18.2786 18.6559 18.4209 18.5693C18.9837 18.2786 19.2651 17.9292 19.2651 17.521C19.2651 17.3787 19.2404 17.252 19.1909 17.1406C19.1414 17.0231 19.0672 16.8716 18.9683 16.686C18.8817 16.5005 18.86 16.3242 18.9033 16.1572C18.9528 15.9902 19.0548 15.8511 19.2095 15.7397C19.3888 15.6037 19.5218 15.4583 19.6084 15.3037C19.695 15.1429 19.7383 14.9728 19.7383 14.7935C19.7383 14.6326 19.7104 14.4873 19.6548 14.3574C19.5991 14.2214 19.5063 14.0605 19.3765 13.875C19.2775 13.7575 19.2311 13.6245 19.2373 13.4761C19.2497 13.3215 19.3177 13.1854 19.4414 13.0679C19.596 12.9132 19.7043 12.7679 19.7661 12.6318C19.8341 12.4958 19.8682 12.3319 19.8682 12.1401C19.8682 11.8804 19.7816 11.6639 19.6084 11.4907C19.4352 11.3175 19.2188 11.231 18.959 11.231H15.7305C15.1367 11.231 14.645 11.0701 14.2554 10.7485C13.8719 10.4269 13.6802 9.99398 13.6802 9.44971C13.6802 9.0848 13.7544 8.68278 13.9028 8.24365C14.0575 7.80452 14.2337 7.35612 14.4316 6.89844C14.6357 6.43457 14.8151 5.98926 14.9697 5.5625C15.1243 5.13574 15.2017 4.75537 15.2017 4.42139C15.2017 4.20492 15.1491 4.03792 15.0439 3.92041C14.9388 3.8029 14.8027 3.74414 14.6357 3.74414C14.4873 3.74414 14.3574 3.79053 14.2461 3.8833C14.1348 3.97607 14.008 4.16781 13.8657 4.4585C13.4142 5.36149 12.9163 6.20882 12.3721 7.00049C11.834 7.79215 11.2928 8.53434 10.7485 9.22705C10.2104 9.91976 9.71256 10.5692 9.25488 11.1753C8.85286 11.7257 8.53125 12.2422 8.29004 12.7246C8.04883 13.2008 7.87565 13.6987 7.77051 14.2183C7.66536 14.7316 7.61279 15.3068 7.61279 15.9438ZM3.64209 16.0181C3.64209 16.7664 3.77507 17.453 4.04102 18.0776C4.30697 18.7023 4.65951 19.2033 5.09863 19.5806C5.53776 19.9578 6.01709 20.1558 6.53662 20.1743C6.7098 20.1743 6.87988 20.1743 7.04688 20.1743C7.21387 20.1805 7.38086 20.1836 7.54785 20.1836C7.03451 19.6084 6.63867 18.9652 6.36035 18.2539C6.08203 17.5365 5.94287 16.7664 5.94287 15.9438C5.94287 15.1646 6.014 14.444 6.15625 13.7822C6.30469 13.1143 6.53662 12.471 6.85205 11.8525C6.74072 11.8525 6.62321 11.8525 6.49951 11.8525C6.382 11.8525 6.26758 11.8556 6.15625 11.8618C5.71094 11.8804 5.29655 12.0783 4.91309 12.4556C4.52962 12.8267 4.22038 13.3245 3.98535 13.9492C3.75651 14.5677 3.64209 15.2573 3.64209 16.0181Z" fill="black"/>
</svg>
