<svg width="24" height="24" viewBox="0 0 24 24" fill="none" xmlns="http://www.w3.org/2000/svg">
<path d="M22.0834 19.9577L17.0435 9.87775C16.9836 9.75817 16.8917 9.65761 16.778 9.58733C16.6643 9.51704 16.5332 9.47982 16.3995 9.47982C16.2658 9.47982 16.1347 9.51704 16.021 9.58733C15.9073 9.65761 15.8154 9.75817 15.7556 9.87775L13.8017 13.7864C12.2701 13.7003 10.7966 13.1713 9.55998 12.2636C11.0108 10.7143 11.8899 8.7164 12.0521 6.59996H14.24C14.4309 6.59996 14.614 6.5241 14.7491 6.38908C14.8841 6.25405 14.96 6.07092 14.96 5.87996C14.96 5.689 14.8841 5.50587 14.7491 5.37085C14.614 5.23582 14.4309 5.15996 14.24 5.15996H9.19998V3.71997C9.19998 3.52901 9.12412 3.34588 8.98909 3.21085C8.85407 3.07583 8.67093 2.99997 8.47998 2.99997C8.28902 2.99997 8.10589 3.07583 7.97086 3.21085C7.83584 3.34588 7.75998 3.52901 7.75998 3.71997V5.15996H2.72C2.52904 5.15996 2.34591 5.23582 2.21088 5.37085C2.07586 5.50587 2 5.689 2 5.87996C2 6.07092 2.07586 6.25405 2.21088 6.38908C2.34591 6.5241 2.52904 6.59996 2.72 6.59996H10.6067C10.4463 8.36454 9.69728 10.0239 8.47998 11.3114C7.72143 10.511 7.13892 9.56065 6.76998 8.52145C6.73965 8.43078 6.69156 8.34706 6.62852 8.27518C6.56548 8.2033 6.48876 8.14469 6.40282 8.10278C6.31689 8.06086 6.22347 8.03649 6.12802 8.03106C6.03256 8.02564 5.93698 8.03929 5.84686 8.0712C5.75673 8.10312 5.67386 8.15266 5.60309 8.21695C5.53232 8.28123 5.47506 8.35897 5.43465 8.44562C5.39425 8.53227 5.3715 8.6261 5.36775 8.72163C5.364 8.81717 5.37931 8.9125 5.41279 9.00205C5.84233 10.2169 6.51895 11.3296 7.39998 12.2699C6.04347 13.2668 4.40338 13.8029 2.72 13.7999C2.52904 13.7999 2.34591 13.8758 2.21088 14.0108C2.07586 14.1458 2 14.329 2 14.5199C2 14.7109 2.07586 14.894 2.21088 15.029C2.34591 15.1641 2.52904 15.2399 2.72 15.2399C4.80852 15.2423 6.83718 14.5424 8.47998 13.2527C9.82059 14.3002 11.4209 14.9632 13.1096 15.1706L10.7156 19.9577C10.6733 20.0423 10.648 20.1343 10.6413 20.2287C10.6346 20.323 10.6465 20.4177 10.6763 20.5074C10.7367 20.6886 10.8665 20.8384 11.0373 20.9239C11.2081 21.0093 11.4058 21.0234 11.587 20.9631C11.7682 20.9027 11.918 20.7729 12.0035 20.6021L13.2446 18.1199H19.5544L20.7955 20.6021C20.8554 20.7217 20.9474 20.8223 21.0612 20.8926C21.175 20.9628 21.3062 21 21.4399 20.9999C21.5627 20.9998 21.6833 20.9684 21.7905 20.9086C21.8976 20.8488 21.9877 20.7626 22.0522 20.6582C22.1167 20.5538 22.1534 20.4346 22.1588 20.312C22.1643 20.1894 22.1383 20.0675 22.0834 19.9577ZM13.9646 16.6799L16.4 11.81L18.8344 16.6799H13.9646Z" fill="black"/>
</svg>
