<svg width="24" height="24" viewBox="0 0 24 24" fill="none" xmlns="http://www.w3.org/2000/svg">
<mask id="path-1-inside-1_3_1523" fill="white">
<path d="M11.5174 18.5622C15.5487 18.5622 18.0347 16.1433 18.0347 12.6271V3.03019C18.0347 2.40314 17.6203 2 16.9933 2C16.3661 2 15.9629 2.40314 15.9629 3.03019V12.4591C15.9629 14.9563 14.3279 16.6473 11.5174 16.6473C8.71784 16.6473 7.07164 14.9563 7.07164 12.4591V3.03019C7.07164 2.40314 6.64597 2 6.01892 2C5.39195 2 5 2.40314 5 3.03019V12.6271C5 16.1433 7.48581 18.5622 11.5174 18.5622ZM5.66046 22H17.374C17.7435 22 18.0347 21.7201 18.0347 21.3393C18.0347 20.9586 17.7435 20.6674 17.374 20.6674H5.66046C5.30222 20.6674 5 20.9586 5 21.3393C5 21.7201 5.30222 22 5.66046 22Z"/>
</mask>
<path d="M11.5174 18.5622C15.5487 18.5622 18.0347 16.1433 18.0347 12.6271V3.03019C18.0347 2.40314 17.6203 2 16.9933 2C16.3661 2 15.9629 2.40314 15.9629 3.03019V12.4591C15.9629 14.9563 14.3279 16.6473 11.5174 16.6473C8.71784 16.6473 7.07164 14.9563 7.07164 12.4591V3.03019C7.07164 2.40314 6.64597 2 6.01892 2C5.39195 2 5 2.40314 5 3.03019V12.6271C5 16.1433 7.48581 18.5622 11.5174 18.5622ZM5.66046 22H17.374C17.7435 22 18.0347 21.7201 18.0347 21.3393C18.0347 20.9586 17.7435 20.6674 17.374 20.6674H5.66046C5.30222 20.6674 5 20.9586 5 21.3393C5 21.7201 5.30222 22 5.66046 22Z" fill="black"/>
<path d="M11.5174 18.5622V32.8185C16.374 32.8185 21.7166 31.324 25.9846 27.3639C30.3418 23.321 32.2911 17.8861 32.2911 12.6271H18.0347H3.77835C3.77835 10.8843 4.48465 8.41694 6.59101 6.46253C8.60814 4.59091 10.692 4.30578 11.5174 4.30578V18.5622ZM18.0347 12.6271H32.2911V3.03019H18.0347H3.77835V12.6271H18.0347ZM18.0347 3.03019H32.2911C32.2911 -0.505273 31.0531 -4.62818 27.751 -7.87913C24.4746 -11.1048 20.4033 -12.2564 16.9933 -12.2564V2V16.2564C14.2103 16.2564 10.6597 15.3064 7.74728 12.439C4.80919 9.54641 3.77835 5.9386 3.77835 3.03019H18.0347ZM16.9933 2V-12.2564C13.5719 -12.2564 9.45673 -11.0948 6.16318 -7.80193C2.86934 -4.50879 1.70648 -0.393001 1.70648 3.03019H15.9629H30.2192C30.2192 5.82633 29.258 9.42703 26.3226 12.3618C23.3874 15.2963 19.7875 16.2564 16.9933 16.2564V2ZM15.9629 3.03019H1.70648V12.4591H15.9629H30.2192V3.03019H15.9629ZM15.9629 12.4591H1.70648C1.70648 10.5284 2.40977 7.63334 4.88437 5.24066C7.32444 2.88138 10.0536 2.39092 11.5174 2.39092V16.6473V30.9037C15.7917 30.9037 20.7436 29.5677 24.7038 25.7387C28.6985 21.8762 30.2192 16.887 30.2192 12.4591H15.9629ZM11.5174 16.6473V2.39092C12.9991 2.39092 15.7168 2.88821 18.1447 5.2313C20.6101 7.61054 21.328 10.5009 21.328 12.4591H7.07164H-7.18475C-7.18475 16.9146 -5.64368 21.899 -1.65534 25.748C2.29555 29.5609 7.23609 30.9037 11.5174 30.9037V16.6473ZM7.07164 12.4591H21.328V3.03019H7.07164H-7.18475V12.4591H7.07164ZM7.07164 3.03019H21.328C21.328 -0.617785 20.0127 -4.74776 16.704 -7.95559C13.4449 -11.1154 9.41659 -12.2564 6.01892 -12.2564V2V16.2564C3.24831 16.2564 -0.253683 15.3169 -3.14319 12.5155C-6.08226 9.66599 -7.18475 6.05111 -7.18475 3.03019H7.07164ZM6.01892 2V-12.2564C2.58382 -12.2564 -1.57636 -11.0829 -4.8857 -7.72094C-8.1678 -4.38661 -9.25638 -0.279269 -9.25638 3.03019H5H19.2564C19.2564 5.7126 18.3638 9.30485 15.4344 12.2808C12.4778 15.2845 8.82705 16.2564 6.01892 16.2564V2ZM5 3.03019H-9.25638V12.6271H5H19.2564V3.03019H5ZM5 12.6271H-9.25638C-9.25638 17.8857 -7.30738 23.3207 -2.95007 27.3638C1.31804 31.3241 6.66075 32.8185 11.5174 32.8185V18.5622V4.30578C12.3424 4.30578 14.4265 4.59081 16.4438 6.46265C18.5503 8.41725 19.2564 10.8847 19.2564 12.6271H5ZM5.66046 22V36.2564H17.374V22V7.74362H5.66046V22ZM17.374 22V36.2564C25.4544 36.2564 32.2911 29.7553 32.2911 21.3393H18.0347H3.77835C3.77835 13.6848 10.0325 7.74362 17.374 7.74362V22ZM18.0347 21.3393H32.2911C32.2911 13.2404 25.7715 6.41105 17.374 6.41105V20.6674V34.9238C9.71547 34.9238 3.77835 28.6769 3.77835 21.3393H18.0347ZM17.374 20.6674V6.41105H5.66046V20.6674V34.9238H17.374V20.6674ZM5.66046 20.6674V6.41105C-2.57674 6.41105 -9.25638 13.0904 -9.25638 21.3393H5H19.2564C19.2564 28.8268 13.1812 34.9238 5.66046 34.9238V20.6674ZM5 21.3393H-9.25638C-9.25638 29.9035 -2.25794 36.2564 5.66046 36.2564V22V7.74362C12.8624 7.74362 19.2564 13.5367 19.2564 21.3393H5Z" fill="black" mask="url(#path-1-inside-1_3_1523)"/>
</svg>
