<svg width="24" height="24" viewBox="0 0 24 24" fill="none" xmlns="http://www.w3.org/2000/svg">
<path fill-rule="evenodd" clip-rule="evenodd" d="M14.0918 4.10449C14.5457 4.15047 14.9004 4.53393 14.9004 5C14.9004 5.46607 14.5457 5.84953 14.0918 5.89551L14 5.90039H6.2002C5.62549 5.90039 5.24828 5.90029 4.95996 5.92383C4.75191 5.94083 4.63481 5.96789 4.56152 5.99414L4.50098 6.01953C4.34585 6.09857 4.21184 6.21308 4.11035 6.35254L4.01953 6.50098C3.98601 6.56694 3.94648 6.68272 3.92383 6.95996C3.91116 7.11513 3.90523 7.296 3.90234 7.51953L8.94922 10.8848L9.80859 11.4521C10.5348 11.9217 10.9026 12.1171 11.2773 12.207L11.4561 12.2441C11.8757 12.3189 12.3069 12.3066 12.7227 12.207L12.9111 12.1523C13.3574 12.0007 13.8771 11.6672 15.0508 10.8848L20.501 7.25098C20.9145 6.97545 21.4734 7.08748 21.749 7.50098C21.8713 7.68445 21.9163 7.8964 21.8936 8.09961C21.8972 8.1326 21.9004 8.16623 21.9004 8.2002V15.7998C21.9004 16.3448 21.901 16.8079 21.8701 17.1865C21.8423 17.527 21.7847 17.8595 21.6475 18.1797L21.584 18.3164C21.3408 18.7937 20.9707 19.1931 20.5166 19.4717L20.3164 19.584C19.9545 19.7683 19.5756 19.8383 19.1865 19.8701C18.8079 19.901 18.3448 19.9004 17.7998 19.9004H6.2002C5.65518 19.9004 5.19206 19.901 4.81348 19.8701C4.47303 19.8423 4.1405 19.7847 3.82031 19.6475L3.68359 19.584C3.20617 19.3408 2.80693 18.9707 2.52832 18.5166L2.41602 18.3164C2.23166 17.9545 2.16167 17.5756 2.12988 17.1865C2.09898 16.8079 2.09961 16.3448 2.09961 15.7998V8.2002C2.09961 8.13867 2.10056 8.07799 2.10059 8.01855C2.10031 8.00553 2.10128 7.99254 2.10156 7.97949C2.10193 7.52908 2.10323 7.13992 2.12988 6.81348C2.16168 6.42437 2.23166 6.04548 2.41602 5.68359L2.52832 5.4834C2.80695 5.02929 3.20625 4.65922 3.68359 4.41602L3.82031 4.35254C4.14051 4.21529 4.47303 4.1577 4.81348 4.12988C5.19206 4.09898 5.65518 4.09961 6.2002 4.09961H14L14.0918 4.10449ZM16.0498 12.3818C14.9022 13.1469 14.1302 13.6758 13.3076 13.9141L13.1416 13.958C12.4848 14.1153 11.8035 14.1347 11.1406 14.0166L10.8584 13.958C10.1933 13.7986 9.5789 13.4505 8.79688 12.9424L7.95117 12.3818L3.90039 9.68164V15.7998C3.90039 16.3745 3.90029 16.7517 3.92383 17.04C3.94648 17.3173 3.98602 17.4331 4.01953 17.499L4.11035 17.6475C4.21185 17.7869 4.34592 17.9015 4.50098 17.9805L4.56152 18.0059C4.6348 18.0321 4.7519 18.0592 4.95996 18.0762C5.24827 18.0997 5.62549 18.0996 6.2002 18.0996H17.7998C18.3745 18.0996 18.7517 18.0997 19.04 18.0762C19.3173 18.0535 19.4331 18.014 19.499 17.9805L19.6475 17.8896C19.7869 17.7882 19.9015 17.6541 19.9805 17.499L20.0059 17.4385C20.0321 17.3652 20.0592 17.2481 20.0762 17.04C20.0997 16.7517 20.0996 16.3745 20.0996 15.7998V9.68164L16.0498 12.3818Z" fill="black"/>
<path d="M19.5 1C20.8807 1 22 2.11929 22 3.5C22 4.88071 20.8807 6 19.5 6C18.1193 6 17 4.88071 17 3.5C17 2.11929 18.1193 1 19.5 1Z" fill="black"/>
</svg>
