<svg width="24" height="24" viewBox="0 0 24 24" fill="none" xmlns="http://www.w3.org/2000/svg">
<path d="M3 19.9022V4.08696C3 3.3913 3.18478 2.86957 3.55435 2.52174C3.92391 2.17391 4.36594 2 4.88043 2C5.32971 2 5.77174 2.12319 6.20652 2.36957L19.3587 10.0435C19.8587 10.3333 20.2319 10.6268 20.4783 10.9239C20.7246 11.2138 20.8478 11.5725 20.8478 12C20.8478 12.413 20.7246 12.7717 20.4783 13.0761C20.2319 13.3732 19.8587 13.663 19.3587 13.9457L6.20652 21.6196C5.77174 21.8732 5.32971 22 4.88043 22C4.36594 22 3.92391 21.8225 3.55435 21.4674C3.18478 21.1196 3 20.5978 3 19.9022Z" fill="black"/>
</svg>
