<svg width="24" height="24" viewBox="0 0 24 24" fill="none" xmlns="http://www.w3.org/2000/svg">
<path d="M1.86034 15.0615C1.24581 15.0615 0.782123 14.8994 0.469274 14.5754C0.156425 14.2514 0 13.7682 0 13.1257V9.89944C0 9.24581 0.156425 8.75978 0.469274 8.44134C0.782123 8.11732 1.24581 7.95531 1.86034 7.95531H4.23184C4.30447 7.95531 4.36592 7.93017 4.4162 7.87989L8.09497 4.62011C8.33519 4.40782 8.53911 4.2514 8.7067 4.15084C8.87989 4.05028 9.07542 4 9.2933 4C9.61173 4 9.8743 4.10894 10.081 4.32682C10.2877 4.54469 10.3911 4.81006 10.3911 5.12291V17.919C10.3911 18.2263 10.2877 18.4832 10.081 18.6899C9.87989 18.8966 9.6229 19 9.31006 19C9.09218 19 8.88827 18.9525 8.69832 18.8575C8.51397 18.7626 8.31285 18.6201 8.09497 18.4302L4.4162 15.1369C4.36592 15.0866 4.30447 15.0615 4.23184 15.0615H1.86034ZM2.00279 13.5782H4.61732C4.72905 13.5782 4.82961 13.595 4.91899 13.6285C5.01397 13.662 5.10894 13.7207 5.20391 13.8045L8.56425 16.838C8.60894 16.8827 8.65363 16.905 8.69832 16.905C8.77095 16.905 8.80726 16.8631 8.80726 16.7793V6.22067C8.80726 6.13687 8.77095 6.09497 8.69832 6.09497C8.67039 6.09497 8.64525 6.10056 8.6229 6.11173C8.60056 6.12291 8.57821 6.13966 8.55587 6.16201L5.20391 9.21229C5.10894 9.30168 5.01397 9.36034 4.91899 9.38827C4.82961 9.4162 4.72905 9.43017 4.61732 9.43017H2.00279C1.86313 9.43017 1.75698 9.46648 1.68436 9.53911C1.61732 9.60615 1.5838 9.7095 1.5838 9.84916V13.1676C1.5838 13.3073 1.61732 13.4106 1.68436 13.4777C1.75698 13.5447 1.86313 13.5782 2.00279 13.5782ZM13.2402 15.2123C13.0391 15.0782 12.9218 14.8994 12.8883 14.676C12.8603 14.4525 12.9246 14.2207 13.081 13.9804C13.3101 13.6453 13.4888 13.2654 13.6173 12.8408C13.7458 12.4106 13.8101 11.9609 13.8101 11.4916C13.8101 11.0223 13.7458 10.5726 13.6173 10.1425C13.4944 9.71229 13.3156 9.3324 13.081 9.00279C12.919 8.76816 12.8547 8.53911 12.8883 8.31564C12.9218 8.08659 13.0391 7.90503 13.2402 7.77095C13.419 7.65363 13.6117 7.61453 13.8184 7.65363C14.0251 7.69274 14.1899 7.80168 14.3128 7.98045C14.6536 8.43296 14.919 8.96648 15.1089 9.58101C15.2989 10.1899 15.3939 10.8268 15.3939 11.4916C15.3939 12.1564 15.2989 12.7933 15.1089 13.4022C14.919 14.0112 14.6536 14.5419 14.3128 14.9944C14.1899 15.1788 14.0251 15.2905 13.8184 15.3296C13.6117 15.3631 13.419 15.324 13.2402 15.2123ZM16.5838 17.4497C16.3883 17.3268 16.2765 17.1564 16.2486 16.9385C16.2207 16.7151 16.2793 16.4944 16.4246 16.2765C16.8659 15.6173 17.2095 14.8771 17.4553 14.0559C17.7011 13.2346 17.824 12.3799 17.824 11.4916C17.824 10.6034 17.7011 9.7486 17.4553 8.92737C17.2151 8.10056 16.8715 7.36034 16.4246 6.7067C16.2737 6.48883 16.2123 6.27095 16.2402 6.05307C16.2737 5.82961 16.3883 5.65642 16.5838 5.53352C16.7737 5.41061 16.9721 5.37151 17.1788 5.4162C17.3911 5.45531 17.5615 5.56983 17.6899 5.75978C18.2374 6.52514 18.6592 7.40782 18.9553 8.40782C19.257 9.40223 19.4078 10.4302 19.4078 11.4916C19.4078 12.5531 19.257 13.581 18.9553 14.5754C18.6536 15.5642 18.2318 16.4469 17.6899 17.2235C17.5615 17.4134 17.3911 17.5279 17.1788 17.567C16.9721 17.6061 16.7737 17.567 16.5838 17.4497Z" fill="black"/>
</svg>
