<svg width="24" height="24" viewBox="0 0 24 24" fill="none" xmlns="http://www.w3.org/2000/svg">
<path d="M1.89246 15.1272C1.26733 15.1272 0.79563 14.9624 0.477378 14.6328C0.159126 14.3032 0 13.8116 0 13.158V9.87606C0 9.21114 0.159126 8.71671 0.477378 8.39278C0.79563 8.06316 1.26733 7.89835 1.89246 7.89835H4.30493C4.37881 7.89835 4.44132 7.87278 4.49247 7.82163L8.23478 4.50556C8.47915 4.2896 8.68658 4.13047 8.85707 4.02818C9.03325 3.92588 9.23215 3.87474 9.4538 3.87474C9.77773 3.87474 10.0448 3.98556 10.2551 4.2072C10.4654 4.42883 10.5705 4.69878 10.5705 5.01703V18.0341C10.5705 18.3467 10.4654 18.6081 10.2551 18.8184C10.0505 19.0287 9.7891 19.1338 9.47084 19.1338C9.2492 19.1338 9.04177 19.0855 8.84855 18.9889C8.66101 18.8923 8.45642 18.7473 8.23478 18.5541L4.49247 15.2039C4.44132 15.1528 4.37881 15.1272 4.30493 15.1272H1.89246ZM2.03738 13.6184H4.69706C4.81072 13.6184 4.91302 13.6354 5.00395 13.6695C5.10056 13.7036 5.19717 13.7633 5.29378 13.8485L8.71215 16.9344C8.75762 16.9799 8.80308 17.0026 8.84855 17.0026C8.92243 17.0026 8.95937 16.96 8.95937 16.8748V6.13376C8.95937 6.04851 8.92243 6.00589 8.84855 6.00589C8.82013 6.00589 8.79456 6.01157 8.77183 6.02294C8.74909 6.0343 8.72636 6.05135 8.70363 6.07408L5.29378 9.17704C5.19717 9.26797 5.10056 9.32765 5.00395 9.35606C4.91302 9.38448 4.81072 9.39868 4.69706 9.39868H2.03738C1.89531 9.39868 1.78733 9.43562 1.71345 9.5095C1.64525 9.5777 1.61115 9.68284 1.61115 9.82491V13.2007C1.61115 13.3427 1.64525 13.4479 1.71345 13.5161C1.78733 13.5843 1.89531 13.6184 2.03738 13.6184ZM13.4689 15.2807C13.2643 15.1443 13.145 14.9624 13.1109 14.7351C13.0824 14.5078 13.1478 14.2719 13.3069 14.0275C13.5399 13.6866 13.7218 13.3001 13.8525 12.8682C13.9832 12.4306 14.0486 11.9731 14.0486 11.4957C14.0486 11.0184 13.9832 10.5609 13.8525 10.1233C13.7275 9.68568 13.5456 9.29923 13.3069 8.96393C13.1421 8.72524 13.0768 8.49223 13.1109 8.26491C13.145 8.0319 13.2643 7.8472 13.4689 7.71081C13.6507 7.59147 13.8468 7.55168 14.0571 7.59147C14.2674 7.63125 14.435 7.74207 14.56 7.92393C14.9067 8.38425 15.1767 8.92699 15.3699 9.55213C15.5631 10.1716 15.6597 10.8195 15.6597 11.4957C15.6597 12.172 15.5631 12.8199 15.3699 13.4393C15.1767 14.0588 14.9067 14.5987 14.56 15.059C14.435 15.2466 14.2674 15.3602 14.0571 15.4C13.8468 15.4341 13.6507 15.3943 13.4689 15.2807ZM16.8702 17.5567C16.6713 17.4317 16.5576 17.2584 16.5292 17.0367C16.5008 16.8094 16.5605 16.5849 16.7082 16.3633C17.1572 15.6927 17.5067 14.9397 17.7568 14.1043C18.0068 13.2689 18.1319 12.3993 18.1319 11.4957C18.1319 10.5921 18.0068 9.72262 17.7568 8.88721C17.5124 8.04611 17.1629 7.2931 16.7082 6.62818C16.5548 6.40654 16.4923 6.1849 16.5207 5.96326C16.5548 5.73594 16.6713 5.55977 16.8702 5.43474C17.0634 5.30971 17.2652 5.26993 17.4755 5.31539C17.6914 5.35518 17.8647 5.47168 17.9955 5.6649C18.5524 6.44348 18.9815 7.34141 19.2827 8.35868C19.5896 9.37027 19.743 10.416 19.743 11.4957C19.743 12.5755 19.5896 13.6212 19.2827 14.6328C18.9758 15.6387 18.5467 16.5366 17.9955 17.3266C17.8647 17.5198 17.6914 17.6363 17.4755 17.6761C17.2652 17.7159 17.0634 17.6761 16.8702 17.5567ZM20.3056 19.8669C20.1067 19.7419 19.9902 19.5657 19.9561 19.3384C19.9277 19.1111 19.9845 18.8894 20.1266 18.6735C20.5585 18.0142 20.9308 17.3038 21.2433 16.5423C21.5616 15.7751 21.806 14.9709 21.9764 14.1298C22.1526 13.2831 22.2407 12.4079 22.2407 11.5043C22.2407 10.5893 22.1526 9.71125 21.9764 8.87016C21.806 8.02338 21.5616 7.22207 21.2433 6.46622C20.9308 5.70468 20.5585 4.99146 20.1266 4.32654C19.9845 4.11058 19.9277 3.89178 19.9561 3.67014C19.9902 3.44282 20.1067 3.2638 20.3056 3.13309C20.4932 3.00807 20.6949 2.97113 20.9109 3.02227C21.1325 3.06774 21.3087 3.19561 21.4394 3.40588C21.9338 4.15605 22.3601 4.96304 22.7181 5.82687C23.0761 6.68502 23.3518 7.59147 23.545 8.54622C23.7439 9.4953 23.8433 10.4813 23.8433 11.5043C23.8433 12.5215 23.7467 13.5075 23.5535 14.4623C23.3603 15.4114 23.0847 16.3178 22.7266 17.1817C22.3686 18.0455 21.9395 18.8525 21.4394 19.6026C21.3087 19.8072 21.1325 19.9323 20.9109 19.9777C20.6949 20.0289 20.4932 19.9919 20.3056 19.8669Z" fill="black"/>
</svg>
