<svg width="24" height="24" viewBox="0 0 24 24" fill="none" xmlns="http://www.w3.org/2000/svg">
<path d="M16.7998 10C17.9199 10 18.4804 9.99979 18.9082 10.2178C19.2845 10.4095 19.5905 10.7155 19.7822 11.0918C20.0002 11.5196 20 12.0801 20 13.2002V13.7998C20 14.9199 20.0002 15.4804 19.7822 15.9082C19.5905 16.2845 19.2845 16.5905 18.9082 16.7822C18.4804 17.0002 17.9199 17 16.7998 17H16.2002C15.0801 17 14.5196 17.0002 14.0918 16.7822C13.7155 16.5905 13.4095 16.2845 13.2178 15.9082C12.9998 15.4804 13 14.9199 13 13.7998V13.2002C13 12.0801 12.9998 11.5196 13.2178 11.0918C13.4095 10.7155 13.7155 10.4095 14.0918 10.2178C14.5196 9.99979 15.0801 10 16.2002 10H16.7998Z" fill="black"/>
<path fill-rule="evenodd" clip-rule="evenodd" d="M16 2C18.8 2 20.2 2.00013 21.2695 2.54492C22.2103 3.02429 22.9757 3.78966 23.4551 4.73047C23.9999 5.79998 24 7.20005 24 10V13L23.9912 14.8545C23.9657 16.4795 23.8636 17.4674 23.4551 18.2695L23.3623 18.4443C22.8798 19.3054 22.1516 20.0056 21.2695 20.4551L21.0654 20.5508C20.2988 20.8801 19.3444 20.9678 17.8545 20.9912L16 21H8L6.14551 20.9912C4.6556 20.9678 3.70119 20.8801 2.93457 20.5508L2.73047 20.4551C1.78966 19.9757 1.02429 19.2103 0.544922 18.2695C0.136356 17.4674 0.0343336 16.4795 0.00878906 14.8545L0 13V10C0 7.37459 9.54866e-05 5.97996 0.449219 4.93457L0.544922 4.73047C0.994354 3.84841 1.6946 3.12016 2.55566 2.6377L2.73047 2.54492C3.79998 2.00013 5.20005 2 8 2H16ZM8 3.7998C6.57017 3.7998 5.60576 3.80156 4.8623 3.8623C4.14006 3.92134 3.78558 4.02681 3.54688 4.14844C2.94487 4.45521 2.45521 4.94487 2.14844 5.54688C2.02681 5.78558 1.92134 6.14006 1.8623 6.8623C1.80156 7.60576 1.7998 8.57017 1.7998 10V13C1.7998 14.4298 1.80156 15.3942 1.8623 16.1377C1.92134 16.8599 2.02681 17.2144 2.14844 17.4531C2.45521 18.0551 2.94487 18.5448 3.54688 18.8516C3.78558 18.9732 4.14006 19.0787 4.8623 19.1377C5.60576 19.1984 6.57017 19.2002 8 19.2002H16C17.4298 19.2002 18.3942 19.1984 19.1377 19.1377C19.8599 19.0787 20.2144 18.9732 20.4531 18.8516C21.0551 18.5448 21.5448 18.0551 21.8516 17.4531C21.9732 17.2144 22.0787 16.8599 22.1377 16.1377C22.1984 15.3942 22.2002 14.4298 22.2002 13V10C22.2002 8.57017 22.1984 7.60576 22.1377 6.8623C22.0787 6.14006 21.9732 5.78558 21.8516 5.54688C21.5448 4.94487 21.0551 4.45521 20.4531 4.14844C20.2144 4.02681 19.8599 3.92134 19.1377 3.8623C18.3942 3.80156 17.4298 3.7998 16 3.7998H8Z" fill="black"/>
</svg>
