<svg width="200" height="200" viewBox="0 0 200 200" fill="none" xmlns="http://www.w3.org/2000/svg">
<g clip-path="url(#clip0_897_2442)">
<mask id="mask0_897_2442" style="mask-type:alpha" maskUnits="userSpaceOnUse" x="0" y="0" width="200" height="200">
<path d="M146.323 0H53.6769C24.0319 0 0 24.0319 0 53.6769V146.323C0 175.968 24.0319 200 53.6769 200H146.323C175.968 200 200 175.968 200 146.323V53.6769C200 24.0319 175.968 0 146.323 0Z" fill="url(#paint0_linear_897_2442)"/>
</mask>
<g mask="url(#mask0_897_2442)">
<path d="M146.323 0H53.6769C24.0319 0 0 24.0319 0 53.6769V146.323C0 175.968 24.0319 200 53.6769 200H146.323C175.968 200 200 175.968 200 146.323V53.6769C200 24.0319 175.968 0 146.323 0Z" fill="url(#paint1_linear_897_2442)"/>
<path fill-rule="evenodd" clip-rule="evenodd" d="M138.848 28.833C156.973 28.8332 171.665 43.5265 171.665 61.6517V90.4342C176.804 89.7657 182.029 89.3254 187.294 89.1236C187.605 89.1114 187.702 89.5416 187.42 89.668C182.116 92.0357 176.87 94.4938 171.665 97.0731C148.839 108.28 127.057 121.262 106.491 135.847C99.5144 140.807 92.6834 145.936 85.9984 151.259C80.0765 155.939 74.2567 160.787 68.5634 165.763C68.3227 165.972 67.9699 165.682 68.1304 165.405C71.9226 158.873 76.1384 152.633 80.7718 146.687C77.9762 144.305 75.1557 141.995 72.2629 139.71C58.8197 129.062 44.4522 119.508 29.3074 111.17C23.8573 108.185 18.3004 105.348 12.6607 102.657C12.3836 102.523 12.4881 102.103 12.7968 102.118C18.3708 102.39 23.8816 102.949 29.3074 103.731V61.6517C29.3074 43.5264 44.0007 28.833 62.126 28.833H138.848ZM128.375 55.0367C125.985 52.6496 122.115 52.6496 119.726 55.0367L92.6275 82.1348L84.7708 74.2781C81.46 70.9673 79.8019 69.3089 77.7917 69.017C77.2109 68.9319 76.6174 68.932 76.0365 69.017C74.0261 69.3087 72.37 70.9647 69.0565 74.2781C65.7458 77.5889 64.0881 79.2469 63.7964 81.2572C63.7113 81.8382 63.7113 82.4314 63.7964 83.0123C64.0881 85.0227 65.7433 86.6782 69.0565 89.9914L88.3006 109.235C90.6878 111.623 94.5604 111.623 96.95 109.235L135.439 70.751C137.826 68.3637 137.826 64.4912 135.439 62.1015L128.375 55.0367Z" fill="white"/>
<circle opacity="0.3" cx="339.258" cy="456.836" r="390.625" fill="#FFCD4F"/>
<circle opacity="0.5" cx="340.625" cy="462.305" r="390.625" fill="#FFCD4F"/>
<circle cx="343.359" cy="466.406" r="390.625" fill="#FFCD4F"/>
<path fill-rule="evenodd" clip-rule="evenodd" d="M113.271 159.101C114.514 158.785 115.666 158.804 116.729 159.158C117.793 159.512 118.717 160.202 119.503 161.229L119.523 161.257C120.094 162.002 120.439 162.811 120.56 163.684C120.68 164.558 120.593 165.424 120.299 166.283C120.007 167.126 119.527 167.883 118.858 168.553L118.932 168.647C119.866 168.005 120.857 167.615 121.903 167.476C122.943 167.329 123.942 167.438 124.897 167.802C125.846 168.157 126.651 168.765 127.312 169.629L127.332 169.656C128.201 170.792 128.678 171.999 128.761 173.275C128.844 174.552 128.548 175.814 127.876 177.063C127.203 178.313 126.163 179.477 124.754 180.555L120.363 183.912L120.364 183.913L115.36 187.74L100.31 168.066L109.472 161.057C110.771 160.063 112.038 159.411 113.271 159.101ZM120.534 172.155C120.011 171.979 119.429 171.992 118.79 172.192C118.16 172.386 117.476 172.765 116.74 173.328L113.918 175.486L117.662 180.381L120.635 178.107C121.662 177.322 122.288 176.511 122.514 175.676C122.741 174.824 122.553 174.003 121.948 173.213L121.927 173.185C121.531 172.668 121.067 172.324 120.534 172.155ZM113.263 164.684C112.482 164.662 111.673 164.971 110.837 165.61L108.015 167.769L111.498 172.323L113.953 170.446C114.953 169.681 115.556 168.896 115.761 168.091C115.968 167.269 115.79 166.49 115.227 165.754L115.206 165.727C114.685 165.046 114.036 164.698 113.263 164.684Z" fill="white"/>
<path d="M136.336 148L127.566 154.091L130.356 158.109L138.605 152.381L141.308 156.272L133.06 162L135.919 166.117L144.688 160.026L147.577 164.186L133.633 173.87L119.503 153.524L133.447 143.841L136.336 148Z" fill="white"/>
<path d="M155.732 135.585L149.98 139.239L160.548 155.873L155.23 159.252L144.662 142.618L138.896 146.282L136.181 142.008L153.017 131.31L155.732 135.585Z" fill="white"/>
<path fill-rule="evenodd" clip-rule="evenodd" d="M185.639 141.299L179.887 144.59L175.85 140.649L168.847 144.655L170.202 150.131L164.45 153.421L159.392 127.777L166.097 123.941L185.639 141.299ZM165.361 130.572L167.71 140.064L172.464 137.345L165.465 130.513L165.361 130.572Z" fill="white"/>
</g>
</g>
<defs>
<linearGradient id="paint0_linear_897_2442" x1="100" y1="199.351" x2="100.034" y2="-5.42094e-06" gradientUnits="userSpaceOnUse">
<stop stop-color="#0D93F3"/>
<stop offset="0.2" stop-color="#22A0FB"/>
<stop offset="1" stop-color="#9DDEFF"/>
</linearGradient>
<linearGradient id="paint1_linear_897_2442" x1="100" y1="199.351" x2="100.034" y2="-5.42094e-06" gradientUnits="userSpaceOnUse">
<stop stop-color="#0D93F3"/>
<stop offset="0.2" stop-color="#22A0FB"/>
<stop offset="1" stop-color="#9DDEFF"/>
</linearGradient>
<clipPath id="clip0_897_2442">
<rect width="200" height="200" fill="white"/>
</clipPath>
</defs>
</svg>
