<svg width="200" height="200" viewBox="0 0 200 200" fill="none" xmlns="http://www.w3.org/2000/svg">
  <!-- Background: Blue gradient rounded square -->
  <path d="M146.323 0H53.6769C24.0319 0 0 24.0319 0 53.6769V146.323C0 175.968 24.0319 200 53.6769 200H146.323C175.968 200 200 175.968 200 146.323V53.6769C200 24.0319 175.968 0 146.323 0Z" fill="url(#gradient)"/>
  
  <!-- Overlay: Speech bubble with checkmark -->
  <g transform="translate(12.5, 28.84)">
    <path fill-rule="evenodd" clip-rule="evenodd" d="M126.348 0C144.473 0.000194164 159.165 14.6935 159.165 32.8187V61.6012C164.304 60.9327 169.529 60.4924 174.794 60.2906C175.105 60.2784 175.202 60.7085 174.92 60.835C169.616 63.2027 164.37 65.6608 159.165 68.2401C136.339 79.4468 114.557 92.4286 93.9912 107.014C87.0144 111.974 80.1834 117.103 73.4984 122.426C67.5765 127.106 61.7567 131.954 56.0634 136.93C55.8227 137.139 55.4699 136.849 55.6304 136.572C59.4226 130.04 63.6384 123.8 68.2718 117.854C65.4761 115.472 62.6557 113.162 59.7629 110.877C46.3197 100.229 31.9522 90.6752 16.8074 82.337C11.3573 79.3519 5.80041 76.5147 0.160728 73.8237C-0.116402 73.69 -0.0119047 73.27 0.296829 73.2846C5.87082 73.5569 11.3816 74.1156 16.8074 74.8984V32.8187C16.8074 14.6934 31.5007 0 49.626 0H126.348ZM115.875 26.2037C113.485 23.8165 109.615 23.8166 107.226 26.2037L80.1275 53.3018L72.2708 45.4451C68.96 42.1343 67.302 40.4759 65.2917 40.184C64.7109 40.0989 64.1174 40.099 63.5365 40.184C61.5261 40.4757 59.87 42.1316 56.5566 45.4451C53.2458 48.7559 51.5881 50.4139 51.2964 52.4242C51.2113 53.0051 51.2113 53.5984 51.2964 54.1793C51.5881 56.1897 53.2433 57.8452 56.5566 61.1584L75.8006 80.4025C78.1878 82.7895 82.0604 82.7896 84.45 80.4025L122.939 41.9179C125.326 39.5307 125.326 35.6582 122.939 33.2685L115.875 26.2037Z" fill="white"/>
  </g>
  
  <defs>
    <linearGradient id="gradient" x1="100" y1="199.351" x2="100.034" y2="0" gradientUnits="userSpaceOnUse">
      <stop stop-color="#0D93F3"/>
      <stop offset="0.2" stop-color="#22A0FB"/>
      <stop offset="1" stop-color="#9DDEFF"/>
    </linearGradient>
  </defs>
</svg>
