<svg width="256" height="256" viewBox="0 0 256 256" fill="none" xmlns="http://www.w3.org/2000/svg">
<path d="M181.047 13.4736H74.9429C40.9924 13.4736 13.4688 40.9973 13.4688 74.9478V181.052C13.4688 215 40.9924 242.526 74.9429 242.526H181.047C214.998 242.526 242.521 215 242.521 181.052V74.9478C242.521 40.9973 214.998 13.4736 181.047 13.4736ZM209.817 124.633C183.579 137.514 158.542 152.436 134.903 169.202C126.883 174.902 119.031 180.798 111.347 186.92C104.026 192.701 96.8444 198.712 89.8308 204.887C94.4414 196.756 99.6108 189.016 105.339 181.664C102.126 178.926 98.8843 176.271 95.5591 173.644C80.1067 161.406 63.5925 150.424 46.1842 140.84C39.45 137.151 34.912 134.667 22.5893 129.327C28.2617 129.587 34.0682 130.171 37.8824 130.71L37.8377 79.7623C37.8181 56.6005 56.5901 37.8118 79.7518 37.8118H176.286C199.434 37.8118 218.2 56.5782 218.2 79.726V115.554C222.059 114.881 226.301 114.596 233.691 114.213C224.59 117.094 216.3 121.419 209.817 124.633Z" fill="black"/>
<path d="M138.197 120.821L171.631 87.3879C174.576 84.4427 174.576 79.6645 171.631 76.7193L162.918 68.0068C159.973 65.0616 155.195 65.0616 152.249 68.0068L118.816 101.44L109.125 91.7497C105.04 87.6645 102.997 85.6219 100.516 85.2614C99.798 85.158 99.0687 85.158 98.3506 85.2614C95.8692 85.6219 93.8266 87.6645 89.7414 91.7497C85.6561 95.835 83.6135 97.8776 83.2531 100.359C83.1497 101.077 83.1497 101.806 83.2531 102.524C83.6135 105.006 85.6561 107.048 89.7414 111.134L113.482 134.874C116.427 137.819 121.205 137.819 124.15 134.874L138.2 120.824L138.197 120.821Z" fill="black"/>
</svg>
