<svg width="293" height="70" viewBox="0 0 293 70" fill="none" xmlns="http://www.w3.org/2000/svg">
<path d="M50.5581 0H18.547C8.30378 0 0 8.30506 0 18.5499V50.5651C0 60.8099 8.30378 69.115 18.547 69.115H50.5581C60.8014 69.115 69.1051 60.8099 69.1051 50.5651V18.5499C69.1051 8.30506 60.8014 0 50.5581 0Z" fill="url(#paint0_linear_914_2605)"/>
<path d="M64.6574 30.7855C64.7647 30.7813 64.7997 30.9303 64.7007 30.9744C62.8605 31.7964 61.042 32.6476 59.2377 33.542C51.3214 37.4292 43.7678 41.9312 36.636 46.9899C34.2169 48.7097 31.8477 50.4894 29.5292 52.3356C27.4752 53.9589 25.4579 55.6396 23.483 57.366C23.3998 57.4392 23.2775 57.3377 23.3324 57.242C24.6477 54.9765 26.1093 52.8124 27.7157 50.7498C26.7465 49.9236 25.7682 49.1224 24.7649 48.3303C20.103 44.637 15.1208 41.3239 9.86828 38.4318C7.97823 37.3967 6.05157 36.4124 4.09497 35.4789C3.99847 35.4332 4.03507 35.2867 4.14238 35.2917C6.0757 35.3866 7.98655 35.5796 9.86828 35.8517V21.2564C9.86828 14.9697 14.9636 9.87354 21.2494 9.87354H47.8557C54.1415 9.87354 59.2368 14.9697 59.2368 21.2564V31.2398C61.0196 31.0076 62.8306 30.8546 64.6566 30.7847L64.6574 30.7855Z" fill="white"/>
<path d="M37.277 33.8115L42.7259 28.3618L46.6748 24.4122C47.5034 23.5835 47.5034 22.2406 46.6748 21.4128L44.2258 18.9633C43.3972 18.1346 42.0545 18.1346 41.226 18.9633L37.277 22.9129L31.8281 28.3626L29.1036 25.6378C27.9548 24.4888 27.3808 23.9147 26.6837 23.8132C26.4815 23.784 26.2769 23.784 26.0747 23.8132C25.3776 23.9147 24.8036 24.4888 23.6548 25.6378C22.5059 26.7868 21.9319 27.3609 21.8304 28.0581C21.8013 28.2603 21.8013 28.465 21.8304 28.6672C21.9319 29.3644 22.5059 29.9385 23.6548 31.0875L26.3792 33.8124L30.3282 37.762C31.1568 38.5906 32.4994 38.5906 33.328 37.762L37.277 33.8115Z" fill="url(#paint1_linear_914_2605)"/>
<path d="M134.738 14.6726H127.011C126.824 14.6726 126.673 14.8242 126.673 15.0112V21.3862C126.673 21.5732 126.824 21.7248 127.011 21.7248H134.738C134.925 21.7248 135.077 21.5732 135.077 21.3862V15.0112C135.077 14.8242 134.925 14.6726 134.738 14.6726Z" fill="#22A0FB"/>
<path d="M90.8584 53.2583V15.0121C90.8584 14.8249 91.0098 14.6734 91.197 14.6734H121.215C121.402 14.6734 121.553 14.8249 121.553 15.0121V21.3862C121.553 21.5734 121.402 21.7248 121.215 21.7248H100.335C100.148 21.7248 99.9967 21.8762 99.9967 22.0634V32.8156C99.9967 33.0028 100.148 33.1543 100.335 33.1543H118.752C118.939 33.1543 119.09 33.3057 119.09 33.4929V39.9793C119.09 40.1665 118.939 40.3179 118.752 40.3179H100.335C100.148 40.3179 99.9967 40.4694 99.9967 40.6566V53.2575C99.9967 53.4447 99.8453 53.5961 99.6581 53.5961H91.1978C91.0106 53.5961 90.8592 53.4447 90.8592 53.2575L90.8584 53.2583Z" fill="url(#paint2_linear_914_2605)"/>
<path d="M126.645 53.2583V26.9499C126.645 26.7627 126.796 26.6112 126.983 26.6112H134.71C134.897 26.6112 135.048 26.7627 135.048 26.9499L135.104 53.2583C135.104 53.4455 134.953 53.5978 134.766 53.5978H126.984C126.797 53.5978 126.646 53.4463 126.646 53.2591L126.645 53.2583Z" fill="url(#paint3_linear_914_2605)"/>
<path d="M149.893 53.5969H142.223C142.035 53.5969 141.884 53.4455 141.884 53.2583V15.0121C141.884 14.8249 142.035 14.6734 142.223 14.6734H149.893C150.08 14.6734 150.231 14.8249 150.231 15.0121V53.2583C150.231 53.4455 150.08 53.5969 149.893 53.5969Z" fill="url(#paint4_linear_914_2605)"/>
<path d="M170.24 54.4431C165.427 54.4431 161.807 53.156 159.382 50.5792C156.957 48.0033 155.744 44.2143 155.744 39.2122C155.744 33.834 156.975 29.9701 159.438 27.6188C161.9 25.2692 165.501 24.0935 170.239 24.0935C173.435 24.0935 176.114 24.6294 178.277 25.7018C180.439 26.7735 182.074 28.4192 183.183 30.6382C184.292 32.8572 184.847 35.7152 184.847 39.213C184.847 44.2151 183.587 48.0041 181.068 50.58C178.549 53.1568 174.938 54.4439 170.238 54.4439L170.24 54.4431ZM170.24 47.7304C171.631 47.7304 172.787 47.4017 173.709 46.7428C174.63 46.0855 175.324 45.127 175.796 43.8665C176.265 42.606 176.502 41.0551 176.502 39.2122C176.502 37.1063 176.266 35.4423 175.796 34.2192C175.325 32.9978 174.621 32.1142 173.681 31.5676C172.741 31.0234 171.593 30.7497 170.24 30.7497C168.81 30.7497 167.645 31.0326 166.743 31.5967C165.841 32.1608 165.172 33.0544 164.741 34.2766C164.308 35.4989 164.092 37.1446 164.092 39.213C164.092 42.0718 164.591 44.2051 165.587 45.6154C166.583 47.0257 168.134 47.7304 170.24 47.7304Z" fill="url(#paint5_linear_914_2605)"/>
<path d="M222.215 14.8273L211.809 30.9153C211.675 31.1233 211.37 31.1216 211.238 30.9119L201.094 14.8307C201.031 14.7325 200.923 14.6726 200.807 14.6726H192.026C191.839 14.6726 191.688 14.824 191.688 15.0112V53.2575C191.688 53.4447 191.839 53.5961 192.026 53.5961H200.091C200.279 53.5961 200.43 53.4447 200.43 53.2575V28.539C200.43 28.2037 200.864 28.0723 201.051 28.351L210.925 43.1235C211.058 43.3232 211.351 43.3248 211.487 43.1268L221.64 28.3144C221.828 28.0398 222.258 28.1729 222.258 28.5057V53.2566C222.258 53.4438 222.409 53.5953 222.597 53.5953H231.056C231.243 53.5953 231.395 53.4438 231.395 53.2566V15.0104C231.395 14.8232 231.243 14.6718 231.056 14.6718H222.498C222.384 14.6718 222.276 14.73 222.214 14.8265L222.215 14.8273Z" fill="url(#paint6_linear_914_2605)"/>
<path d="M263.191 29.8478C262.627 28.6821 261.885 27.7228 260.963 26.9706C260.042 26.2185 259.037 25.6444 257.946 25.25C256.855 24.8548 255.765 24.5828 254.674 24.4322C253.583 24.2824 252.587 24.2067 251.684 24.2067C249.127 24.2067 246.824 24.4696 244.775 24.9963C242.836 25.4938 241.378 26.0263 240.399 26.5912C240.293 26.652 240.234 26.7643 240.234 26.8866V33.4679C240.234 33.7449 240.544 33.898 240.773 33.7416C241.738 33.0827 242.923 32.5086 244.324 32.0202C245.997 31.4369 247.661 31.1449 249.315 31.1449C251.345 31.1449 252.916 31.5318 254.025 32.3022C255.133 33.0735 255.688 34.324 255.688 36.0538V37.8659C255.415 37.7095 255.129 37.5556 254.814 37.4075C253.856 36.9565 252.774 36.5988 251.571 36.3359C250.368 36.0738 249.127 35.9406 247.849 35.9406C245.554 35.9406 243.655 36.2984 242.152 37.0123C240.647 37.727 239.529 38.7421 238.796 40.0583C238.062 41.3754 237.696 42.9171 237.696 44.6843C237.696 46.5655 238.015 48.1347 238.655 49.3952C239.293 50.6557 240.186 51.6517 241.334 52.3847C242.48 53.1185 243.816 53.6443 245.338 53.9638C246.861 54.2833 248.487 54.4431 250.217 54.4431C253.112 54.4431 255.584 54.2176 257.634 53.7666C259.683 53.3157 261.253 52.5918 262.343 51.5951C263.434 50.5992 263.979 49.292 263.979 47.6746L264.036 34.1926C264.036 32.4628 263.754 31.0151 263.189 29.8486L263.191 29.8478ZM254.534 48.1247C253.783 48.3818 252.489 48.5124 250.65 48.5191C250.295 48.5208 249.93 48.5033 249.581 48.4392C248.272 48.1971 247.302 47.6388 246.666 46.771C246.251 46.2069 246.045 45.5679 246.045 44.8532C246.045 43.6876 246.469 42.8314 247.314 42.2865C248.161 41.7415 249.504 41.4686 251.347 41.4686C252.55 41.4686 253.678 41.6009 254.731 41.8638C255.068 41.9478 255.383 42.0452 255.689 42.1492V46.5456C255.689 47.3351 255.304 47.8626 254.534 48.1247Z" fill="url(#paint7_linear_914_2605)"/>
<path d="M270.034 53.2583V26.9499C270.034 26.7627 270.185 26.6112 270.372 26.6112H278.099C278.286 26.6112 278.437 26.7627 278.437 26.9499L278.493 53.2583C278.493 53.4455 278.342 53.5978 278.154 53.5978H270.373C270.186 53.5978 270.034 53.4463 270.034 53.2591L270.034 53.2583Z" fill="url(#paint8_linear_914_2605)"/>
<path d="M278.099 14.6726H270.372C270.185 14.6726 270.033 14.8242 270.033 15.0112V21.3861C270.033 21.5732 270.185 21.7248 270.372 21.7248H278.099C278.286 21.7248 278.437 21.5732 278.437 21.3861V15.0112C278.437 14.8242 278.286 14.6726 278.099 14.6726Z" fill="url(#paint9_linear_914_2605)"/>
<path d="M292.615 53.5969H284.945C284.758 53.5969 284.607 53.4455 284.607 53.2583V15.0121C284.607 14.8249 284.758 14.6734 284.945 14.6734H292.615C292.802 14.6734 292.954 14.8249 292.954 15.0121V53.2583C292.954 53.4455 292.802 53.5969 292.615 53.5969Z" fill="url(#paint10_linear_914_2605)"/>
<defs>
<linearGradient id="paint0_linear_914_2605" x1="34.5526" y1="68.8907" x2="34.5644" y2="-1.87276e-06" gradientUnits="userSpaceOnUse">
<stop stop-color="#0D93F3"/>
<stop offset="0.2" stop-color="#22A0FB"/>
<stop offset="1" stop-color="#9DDEFF"/>
</linearGradient>
<linearGradient id="paint1_linear_914_2605" x1="34.5524" y1="67.6161" x2="34.547" y2="0.640402" gradientUnits="userSpaceOnUse">
<stop stop-color="#0D93F3"/>
<stop offset="0.2" stop-color="#22A0FB"/>
<stop offset="1" stop-color="#9DDEFF"/>
</linearGradient>
<linearGradient id="paint2_linear_914_2605" x1="191.906" y1="14.6718" x2="191.906" y2="54.4439" gradientUnits="userSpaceOnUse">
<stop/>
<stop offset="1" stop-color="#002346"/>
</linearGradient>
<linearGradient id="paint3_linear_914_2605" x1="191.906" y1="14.6718" x2="191.906" y2="54.4439" gradientUnits="userSpaceOnUse">
<stop/>
<stop offset="1" stop-color="#002346"/>
</linearGradient>
<linearGradient id="paint4_linear_914_2605" x1="191.906" y1="14.6718" x2="191.906" y2="54.4439" gradientUnits="userSpaceOnUse">
<stop/>
<stop offset="1" stop-color="#002346"/>
</linearGradient>
<linearGradient id="paint5_linear_914_2605" x1="191.906" y1="14.6718" x2="191.906" y2="54.4439" gradientUnits="userSpaceOnUse">
<stop/>
<stop offset="1" stop-color="#002346"/>
</linearGradient>
<linearGradient id="paint6_linear_914_2605" x1="191.906" y1="14.6718" x2="191.906" y2="54.4439" gradientUnits="userSpaceOnUse">
<stop/>
<stop offset="1" stop-color="#002346"/>
</linearGradient>
<linearGradient id="paint7_linear_914_2605" x1="191.906" y1="14.6718" x2="191.906" y2="54.4439" gradientUnits="userSpaceOnUse">
<stop/>
<stop offset="1" stop-color="#002346"/>
</linearGradient>
<linearGradient id="paint8_linear_914_2605" x1="191.906" y1="14.6718" x2="191.906" y2="54.4439" gradientUnits="userSpaceOnUse">
<stop/>
<stop offset="1" stop-color="#002346"/>
</linearGradient>
<linearGradient id="paint9_linear_914_2605" x1="191.906" y1="14.6718" x2="191.906" y2="54.4439" gradientUnits="userSpaceOnUse">
<stop/>
<stop offset="1" stop-color="#002346"/>
</linearGradient>
<linearGradient id="paint10_linear_914_2605" x1="191.906" y1="14.6718" x2="191.906" y2="54.4439" gradientUnits="userSpaceOnUse">
<stop/>
<stop offset="1" stop-color="#002346"/>
</linearGradient>
</defs>
</svg>
