<svg width="293" height="69" viewBox="0 0 293 69" fill="none" xmlns="http://www.w3.org/2000/svg">
<path d="M50.5581 0H18.547C8.30393 0 0 8.27638 0 18.4855V50.3904C0 60.5995 8.30393 68.875 18.547 68.875H50.5581C60.8012 68.875 69.1051 60.5995 69.1051 50.3904V18.4855C69.1051 8.27638 60.8012 0 50.5581 0ZM64.7011 30.8669C62.861 31.686 61.0425 32.5351 59.2381 33.4264C51.3218 37.2992 43.7682 41.7865 36.6365 46.8276C34.2173 48.5414 31.8481 50.3149 29.5296 52.1548C27.4757 53.7724 25.4583 55.4473 23.4834 57.1677C23.4002 57.2398 23.278 57.1395 23.3329 57.0442C24.6481 54.7864 26.1097 52.6299 27.7161 50.5745C26.7469 49.7511 25.7686 48.9527 24.7654 48.1633C20.1035 44.4828 15.1213 41.1812 9.86872 38.2992C7.97866 37.2677 6.052 36.2869 4.0954 35.3566C3.9989 35.3102 4.0355 35.1651 4.14281 35.17C6.07613 35.2646 7.98698 35.4569 9.86872 35.728V21.1834C9.86872 14.9185 14.964 9.84012 21.2498 9.84012H47.8562C54.1419 9.84012 59.2373 14.9185 59.2373 21.1834V31.1322C61.02 30.9009 62.831 30.7475 64.657 30.6786C64.7643 30.6745 64.8001 30.8229 64.7011 30.8669Z" fill="white"/>
<path d="M46.6749 24.3275C47.5034 23.5017 47.5034 22.1635 46.6749 21.3385L44.2258 18.8975C43.3972 18.0717 42.0546 18.0717 41.226 18.8975L31.8281 28.2642L29.1037 25.5488C27.9548 24.4038 27.3808 23.8317 26.6837 23.7305C26.4816 23.7015 26.2769 23.7015 26.0748 23.7305C25.3776 23.8317 24.8036 24.4038 23.6548 25.5488C22.506 26.6938 21.932 27.2659 21.8305 27.9608C21.8014 28.1622 21.8014 28.3662 21.8305 28.5677C21.932 29.2625 22.506 29.8346 23.6548 30.9796L30.3282 37.6309C31.1568 38.4567 32.4995 38.4567 33.328 37.6309L46.6749 24.3275Z" fill="white"/>
<path d="M90.8582 53.0737V14.9602C90.8582 14.7737 91.0096 14.6228 91.1968 14.6228H121.215C121.402 14.6228 121.553 14.7737 121.553 14.9602V21.3122C121.553 21.4988 121.402 21.6497 121.215 21.6497H100.335C100.148 21.6497 99.9966 21.8006 99.9966 21.9871V32.702C99.9966 32.8885 100.148 33.0394 100.335 33.0394H118.752C118.939 33.0394 119.09 33.1903 119.09 33.3769V39.8408C119.09 40.0273 118.939 40.1782 118.752 40.1782H100.335C100.148 40.1782 99.9966 40.3291 99.9966 40.5157V53.0729C99.9966 53.2594 99.8451 53.4103 99.658 53.4103H91.1976C91.0105 53.4103 90.8591 53.2594 90.8591 53.0729L90.8582 53.0737Z" fill="white"/>
<path d="M126.645 53.0735V26.8564C126.645 26.6698 126.796 26.5189 126.983 26.5189H134.71C134.897 26.5189 135.048 26.6698 135.048 26.8564L135.104 53.0735C135.104 53.26 134.953 53.4118 134.765 53.4118H126.984C126.797 53.4118 126.645 53.2609 126.645 53.0743L126.645 53.0735Z" fill="white"/>
<path d="M149.893 53.4109H142.222C142.035 53.4109 141.884 53.26 141.884 53.0735V14.96C141.884 14.7735 142.035 14.6226 142.222 14.6226H149.893C150.08 14.6226 150.231 14.7735 150.231 14.96V53.0735C150.231 53.26 150.08 53.4109 149.893 53.4109Z" fill="white"/>
<path d="M170.24 54.2542C165.426 54.2542 161.807 52.9715 159.382 50.4037C156.957 47.8367 155.744 44.0608 155.744 39.0761C155.744 33.7166 156.974 29.8661 159.438 27.523C161.9 25.1815 165.501 24.01 170.239 24.01C173.435 24.01 176.114 24.5439 178.277 25.6127C180.439 26.6806 182.073 28.3206 183.183 30.5319C184.292 32.7432 184.847 35.5913 184.847 39.0769C184.847 44.0617 183.587 47.8375 181.068 50.4045C178.549 52.9723 174.938 54.255 170.238 54.255L170.24 54.2542ZM170.24 47.5647C171.631 47.5647 172.787 47.2372 173.709 46.5806C174.63 45.9255 175.324 44.9704 175.796 43.7143C176.265 42.4581 176.501 40.9126 176.501 39.0761C176.501 36.9776 176.266 35.3193 175.796 34.1005C175.325 32.8833 174.62 32.0028 173.68 31.4581C172.74 30.9158 171.593 30.643 170.24 30.643C168.81 30.643 167.645 30.9249 166.742 31.4871C165.841 32.0492 165.172 32.9397 164.741 34.1577C164.307 35.3757 164.092 37.0157 164.092 39.0769C164.092 41.9258 164.59 44.0517 165.587 45.4571C166.583 46.8625 168.133 47.5647 170.24 47.5647Z" fill="white"/>
<path d="M222.215 14.776L211.809 30.808C211.674 31.0153 211.37 31.0136 211.238 30.8047L201.094 14.7793C201.031 14.6814 200.923 14.6217 200.807 14.6217H192.026C191.839 14.6217 191.688 14.7726 191.688 14.9592V53.0727C191.688 53.2592 191.839 53.4101 192.026 53.4101H200.091C200.278 53.4101 200.43 53.2592 200.43 53.0727V28.44C200.43 28.1059 200.864 27.9749 201.05 28.2526L210.925 42.9738C211.058 43.1728 211.351 43.1745 211.486 42.9772L221.64 28.2162C221.828 27.9426 222.258 28.0752 222.258 28.4069V53.0718C222.258 53.2584 222.409 53.4093 222.596 53.4093H231.056C231.243 53.4093 231.394 53.2584 231.394 53.0718V14.9584C231.394 14.7718 231.243 14.6209 231.056 14.6209H222.498C222.383 14.6209 222.276 14.679 222.214 14.7751L222.215 14.776Z" fill="white"/>
<path d="M263.191 29.7442C262.627 28.5826 261.885 27.6266 260.963 26.8771C260.041 26.1276 259.037 25.5555 257.946 25.1625C256.854 24.7686 255.765 24.4975 254.674 24.3474C253.583 24.1982 252.587 24.1227 251.684 24.1227C249.127 24.1227 246.824 24.3847 244.775 24.9096C242.836 25.4054 241.378 25.9361 240.399 26.499C240.293 26.5596 240.234 26.6715 240.234 26.7934V33.3518C240.234 33.6279 240.544 33.7805 240.772 33.6246C241.738 32.9679 242.923 32.3958 244.324 31.9091C245.997 31.3279 247.66 31.0369 249.315 31.0369C251.345 31.0369 252.915 31.4224 254.024 32.1902C255.133 32.9588 255.688 34.205 255.688 35.9287V37.7346C255.415 37.5787 255.129 37.4253 254.814 37.2777C253.855 36.8283 252.774 36.4718 251.571 36.2098C250.367 35.9486 249.127 35.816 247.848 35.816C245.554 35.816 243.655 36.1725 242.152 36.8839C240.647 37.5961 239.529 38.6077 238.796 39.9193C238.062 41.2318 237.696 42.7682 237.696 44.5293C237.696 46.404 238.015 47.9677 238.654 49.2238C239.293 50.48 240.186 51.4724 241.334 52.2029C242.48 52.9342 243.815 53.4582 245.338 53.7766C246.861 54.095 248.486 54.2542 250.217 54.2542C253.112 54.2542 255.583 54.0295 257.634 53.5801C259.683 53.1307 261.253 52.4093 262.343 51.416C263.434 50.4236 263.979 49.121 263.979 47.5092L264.035 34.074C264.035 32.3502 263.753 30.9075 263.188 29.7451L263.191 29.7442ZM254.533 47.9578C253.783 48.214 252.489 48.3441 250.65 48.3508C250.295 48.3524 249.93 48.335 249.58 48.2712C248.272 48.0299 247.302 47.4735 246.665 46.6088C246.251 46.0466 246.045 45.4098 246.045 44.6976C246.045 43.536 246.468 42.6828 247.314 42.1397C248.16 41.5967 249.504 41.3247 251.347 41.3247C252.549 41.3247 253.678 41.4565 254.731 41.7185C255.068 41.8023 255.383 41.8993 255.689 42.0029V46.3841C255.689 47.1709 255.304 47.6966 254.533 47.9578Z" fill="white"/>
<path d="M134.738 14.6217H127.011C126.824 14.6217 126.673 14.7728 126.673 14.9592V21.312C126.673 21.4984 126.824 21.6495 127.011 21.6495H134.738C134.925 21.6495 135.077 21.4984 135.077 21.312V14.9592C135.077 14.7728 134.925 14.6217 134.738 14.6217Z" fill="white"/>
<path d="M270.033 53.0735V26.8564C270.033 26.6698 270.185 26.5189 270.372 26.5189H278.098C278.286 26.5189 278.437 26.6698 278.437 26.8564L278.493 53.0735C278.493 53.26 278.341 53.4118 278.154 53.4118H270.373C270.186 53.4118 270.034 53.2609 270.034 53.0743L270.033 53.0735Z" fill="white"/>
<path d="M278.098 14.6217H270.372C270.185 14.6217 270.033 14.7728 270.033 14.9592V21.312C270.033 21.4984 270.185 21.6495 270.372 21.6495H278.098C278.285 21.6495 278.437 21.4984 278.437 21.312V14.9592C278.437 14.7728 278.285 14.6217 278.098 14.6217Z" fill="white"/>
<path d="M292.615 53.4109H284.945C284.758 53.4109 284.606 53.26 284.606 53.0735V14.96C284.606 14.7735 284.758 14.6226 284.945 14.6226H292.615C292.802 14.6226 292.954 14.7735 292.954 14.96V53.0735C292.954 53.26 292.802 53.4109 292.615 53.4109Z" fill="white"/>
</svg>
