<svg width="156" height="122" viewBox="0 0 156 122" fill="none" xmlns="http://www.w3.org/2000/svg">
<path d="M94.9272 0H60.6821C49.7244 0 40.8414 8.88271 40.8414 19.8401V54.0834C40.8414 65.0408 49.7244 73.9235 60.6821 73.9235H94.9272C105.885 73.9235 114.768 65.0408 114.768 54.0834V19.8401C114.768 8.88271 105.885 0 94.9272 0ZM110.057 33.1289C108.089 34.0077 106.144 34.9185 104.213 35.8754C95.7445 40.033 87.6641 44.8485 80.0347 50.2596C77.4462 52.0991 74.9123 54.0027 72.4321 55.9775C70.2351 57.7133 68.0764 59.5118 65.9646 61.3578C65.8755 61.436 65.7442 61.3284 65.8038 61.2252C67.2111 58.8015 68.774 56.4873 70.4932 54.2814C69.4562 53.3975 68.4102 52.5411 67.3366 51.6937C62.3494 47.7436 57.0195 44.1996 51.4013 41.1059C49.3791 39.9984 47.3179 38.9454 45.2252 37.9475C45.1221 37.8982 45.1612 37.7419 45.2752 37.7477C47.3429 37.8489 49.3874 38.0558 51.4007 38.3466V22.7358C51.4007 16.0117 56.8517 10.5615 63.5754 10.5615H92.0377C98.7614 10.5615 104.212 16.0123 104.212 22.7358V33.4133C106.119 33.1654 108.056 33.0008 110.01 32.9265C110.125 32.922 110.162 33.0821 110.057 33.1289Z" fill="white"/>
<path d="M90.7733 26.1101C91.6591 25.2243 91.6591 23.7876 90.7733 22.9018L88.1528 20.2814C87.267 19.3955 85.8302 19.3955 84.9444 20.2814L74.8911 30.3343L71.9767 27.42C70.7481 26.1915 70.1339 25.5772 69.3876 25.4689C69.1718 25.4376 68.9527 25.4376 68.7362 25.4689C67.9906 25.5772 67.3757 26.1915 66.1471 27.42C64.9186 28.6485 64.3043 29.2627 64.1961 30.0089C64.1647 30.2248 64.1647 30.4445 64.1961 30.6604C64.3043 31.4059 64.9186 32.0202 66.1471 33.2493L73.2859 40.3879C74.1718 41.2737 75.6085 41.2737 76.4944 40.3879L90.7733 26.1101Z" fill="white"/>
<path d="M0 120.556V91.1125C0 90.9684 0.116577 90.8519 0.260698 90.8519H23.3739C23.518 90.8519 23.6346 90.9684 23.6346 91.1125V96.0195C23.6346 96.1637 23.518 96.2802 23.3739 96.2802H7.29701C7.15289 96.2802 7.03632 96.3968 7.03632 96.5409V104.818C7.03632 104.962 7.15289 105.079 7.29701 105.079H21.4773C21.6214 105.079 21.738 105.196 21.738 105.34V110.333C21.738 110.477 21.6214 110.594 21.4773 110.594H7.29701C7.15289 110.594 7.03632 110.71 7.03632 110.855V120.555C7.03632 120.699 6.91974 120.816 6.77562 120.816H0.26134C0.117219 120.816 0 120.7 0 120.556Z" fill="white"/>
<path d="M27.5547 120.556V100.303C27.5547 100.158 27.6713 100.042 27.8154 100.042H33.7647C33.9088 100.042 34.0254 100.158 34.0254 100.303L34.0683 120.556C34.0683 120.7 33.9517 120.817 33.8076 120.817H27.816C27.6719 120.817 27.5547 120.7 27.5547 120.556Z" fill="white"/>
<path d="M45.4545 120.816H39.5488C39.4047 120.816 39.2881 120.7 39.2881 120.556V91.1124C39.2881 90.9683 39.4047 90.8517 39.5488 90.8517H45.4545C45.5987 90.8517 45.7152 90.9683 45.7152 91.1124V120.556C45.7152 120.7 45.5987 120.816 45.4545 120.816Z" fill="white"/>
<path d="M61.1215 121.468C57.4153 121.468 54.6283 120.477 52.7612 118.493C50.894 116.51 49.9601 113.593 49.9601 109.743C49.9601 105.602 50.9074 102.628 52.8041 100.818C54.7001 99.0087 57.473 98.1037 61.1208 98.1037C63.5818 98.1037 65.6443 98.5162 67.3097 99.3418C68.9745 100.167 70.2331 101.434 71.0876 103.142C71.9414 104.85 72.3687 107.05 72.3687 109.743C72.3687 113.594 71.3983 116.511 69.4587 118.494C67.5192 120.478 64.7392 121.469 61.1202 121.469L61.1215 121.468ZM61.1215 116.3C62.1924 116.3 63.0828 116.047 63.7925 115.54C64.5016 115.034 65.0364 114.296 65.3996 113.326C65.7609 112.355 65.9428 111.161 65.9428 109.743C65.9428 108.121 65.7615 106.84 65.3996 105.899C65.0371 104.959 64.4945 104.278 63.7707 103.857C63.0469 103.439 62.1636 103.228 61.1215 103.228C60.0204 103.228 59.1236 103.446 58.4286 103.88C57.7343 104.314 57.2193 105.002 56.8875 105.943C56.5538 106.884 56.3879 108.151 56.3879 109.743C56.3879 111.944 56.7716 113.586 57.5389 114.672C58.3057 115.758 59.4996 116.3 61.1215 116.3Z" fill="white"/>
<path d="M101.142 90.9702L93.1298 103.355C93.0261 103.515 92.7916 103.514 92.6898 103.353L84.8791 90.9728C84.831 90.8972 84.7477 90.8511 84.6581 90.8511H77.8972C77.7531 90.8511 77.6365 90.9677 77.6365 91.1118V120.555C77.6365 120.699 77.7531 120.816 77.8972 120.816H84.1072C84.2513 120.816 84.3679 120.699 84.3679 120.555V101.526C84.3679 101.268 84.7023 101.167 84.8457 101.381L92.4489 112.754C92.5514 112.907 92.7769 112.909 92.8813 112.756L100.699 101.353C100.844 101.142 101.175 101.244 101.175 101.5V120.554C101.175 120.699 101.292 120.815 101.436 120.815H107.949C108.093 120.815 108.21 120.699 108.21 120.554V91.1111C108.21 90.967 108.093 90.8505 107.949 90.8505H101.36C101.272 90.8505 101.19 90.8959 101.142 90.9702Z" fill="white"/>
<path d="M132.693 102.534C132.258 101.636 131.687 100.898 130.977 100.319C130.268 99.7396 129.494 99.2976 128.654 98.994C127.814 98.6898 126.975 98.4803 126.135 98.3644C125.294 98.2491 124.528 98.1908 123.833 98.1908C121.864 98.1908 120.09 98.3932 118.512 98.7986C117.02 99.1817 115.897 99.5916 115.143 100.027C115.062 100.073 115.016 100.16 115.016 100.254V105.32C115.016 105.534 115.255 105.652 115.431 105.531C116.174 105.024 117.087 104.582 118.165 104.206C119.453 103.757 120.734 103.532 122.009 103.532C123.571 103.532 124.781 103.83 125.635 104.423C126.488 105.017 126.916 105.98 126.916 107.311V108.706C126.706 108.586 126.485 108.467 126.242 108.353C125.505 108.006 124.672 107.731 123.746 107.528C122.819 107.326 121.864 107.224 120.879 107.224C119.113 107.224 117.65 107.499 116.493 108.049C115.334 108.599 114.473 109.381 113.909 110.394C113.344 111.408 113.062 112.595 113.062 113.955C113.062 115.403 113.307 116.611 113.8 117.582C114.292 118.552 114.979 119.319 115.863 119.883C116.746 120.448 117.774 120.853 118.946 121.099C120.119 121.345 121.371 121.468 122.703 121.468C124.932 121.468 126.835 121.294 128.414 120.947C129.992 120.6 131.2 120.043 132.04 119.275C132.88 118.509 133.299 117.502 133.299 116.257L133.343 105.878C133.343 104.547 133.126 103.432 132.691 102.534L132.693 102.534ZM126.027 116.604C125.449 116.802 124.452 116.902 123.037 116.907C122.763 116.909 122.482 116.895 122.213 116.846C121.205 116.659 120.458 116.23 119.968 115.562C119.649 115.127 119.491 114.635 119.491 114.085C119.491 113.188 119.817 112.529 120.467 112.109C121.119 111.69 122.154 111.48 123.573 111.48C124.499 111.48 125.368 111.581 126.178 111.784C126.438 111.849 126.681 111.924 126.916 112.004V115.388C126.916 115.996 126.62 116.402 126.027 116.604Z" fill="white"/>
<path d="M33.7865 90.8511H27.8372C27.6932 90.8511 27.5765 90.9678 27.5765 91.1118V96.0194C27.5765 96.1634 27.6932 96.2801 27.8372 96.2801H33.7865C33.9305 96.2801 34.0472 96.1634 34.0472 96.0194V91.1118C34.0472 90.9678 33.9305 90.8511 33.7865 90.8511Z" fill="white"/>
<path d="M137.961 120.556V100.303C137.961 100.158 138.078 100.042 138.222 100.042H144.171C144.315 100.042 144.432 100.158 144.432 100.303L144.475 120.556C144.475 120.7 144.358 120.817 144.214 120.817H138.222C138.078 120.817 137.961 120.7 137.961 120.556Z" fill="white"/>
<path d="M144.171 90.8511H138.222C138.078 90.8511 137.961 90.9678 137.961 91.1118V96.0194C137.961 96.1634 138.078 96.2801 138.222 96.2801H144.171C144.315 96.2801 144.432 96.1634 144.432 96.0194V91.1118C144.432 90.9678 144.315 90.8511 144.171 90.8511Z" fill="white"/>
<path d="M155.349 120.816H149.443C149.299 120.816 149.182 120.7 149.182 120.556V91.1124C149.182 90.9683 149.299 90.8517 149.443 90.8517H155.349C155.493 90.8517 155.609 90.9683 155.609 91.1124V120.556C155.609 120.7 155.493 120.816 155.349 120.816Z" fill="white"/>
</svg>
