<svg width="24" height="24" viewBox="0 0 24 24" fill="none" xmlns="http://www.w3.org/2000/svg">
<mask id="path-1-inside-1_114_312" fill="white">
<path d="M6.00699 21H13.9622C14.5538 21 14.9691 20.635 14.9691 20.0433C14.9691 19.4769 14.5665 19.1119 13.9748 19.1119H11.1425L14.2141 4.88814H17.0208C17.6125 4.88814 18.0278 4.52311 18.0278 3.93145C18.0278 3.36504 17.6252 3 17.0335 3H9.05311C8.46146 3 8.0587 3.36504 8.0587 3.93145C8.0587 4.52311 8.47412 4.88814 9.06569 4.88814H11.8852L8.81392 19.1119H5.99441C5.40276 19.1119 5 19.4769 5 20.0433C5 20.635 5.41534 21 6.00699 21Z"/>
</mask>
<path d="M6.00699 21H13.9622C14.5538 21 14.9691 20.635 14.9691 20.0433C14.9691 19.4769 14.5665 19.1119 13.9748 19.1119H11.1425L14.2141 4.88814H17.0208C17.6125 4.88814 18.0278 4.52311 18.0278 3.93145C18.0278 3.36504 17.6252 3 17.0335 3H9.05311C8.46146 3 8.0587 3.36504 8.0587 3.93145C8.0587 4.52311 8.47412 4.88814 9.06569 4.88814H11.8852L8.81392 19.1119H5.99441C5.40276 19.1119 5 19.4769 5 20.0433C5 20.635 5.41534 21 6.00699 21Z" fill="black"/>
<path d="M11.1425 19.1119L-4.52137 15.7292L-8.71243 35.1368H11.1425V19.1119ZM14.2141 4.88814V-11.1368H1.28036L-1.44975 1.50553L14.2141 4.88814ZM11.8852 4.88814L27.5491 8.27039L31.7396 -11.1368H11.8852V4.88814ZM8.81392 19.1119V35.1368H21.7479L24.4778 22.4941L8.81392 19.1119ZM6.00699 21V37.0249H13.9622V21V4.97509H6.00699V21ZM13.9622 21V37.0249C17.5293 37.0249 21.9309 35.8885 25.5964 32.4821C29.3969 28.9502 30.994 24.2762 30.994 20.0433H14.9691H-1.05577C-1.05577 16.4021 0.333718 12.2064 3.77861 9.00498C7.0886 5.92893 10.9867 4.97509 13.9622 4.97509V21ZM14.9691 20.0433H30.994C30.994 15.7781 29.3697 11.1225 25.5947 7.61915C21.9409 4.2283 17.5511 3.08695 13.9748 3.08695V19.1119V35.1368C10.9902 35.1368 7.0975 34.1779 3.793 31.1112C0.367236 27.932 -1.05577 23.7421 -1.05577 20.0433H14.9691ZM13.9748 19.1119V3.08695H11.1425V19.1119V35.1368H13.9748V19.1119ZM11.1425 19.1119L26.8063 22.4945L29.8779 8.27075L14.2141 4.88814L-1.44975 1.50553L-4.52137 15.7292L11.1425 19.1119ZM14.2141 4.88814V20.913H17.0208V4.88814V-11.1368H14.2141V4.88814ZM17.0208 4.88814V20.913C20.5874 20.913 24.989 19.777 28.6547 16.3706C32.4555 12.8386 34.0527 8.16435 34.0527 3.93145H18.0278H2.00293C2.00293 0.290211 3.39247 -3.90572 6.83767 -7.10722C10.1479 -10.1833 14.0459 -11.1368 17.0208 -11.1368V4.88814ZM18.0278 3.93145H34.0527C34.0527 -0.33378 32.4284 -4.98934 28.6534 -8.49271C24.9996 -11.8835 20.6098 -13.0249 17.0335 -13.0249V3V19.0249C14.0489 19.0249 10.1562 18.0661 6.85169 14.9993C3.42595 11.8201 2.00293 7.63027 2.00293 3.93145H18.0278ZM17.0335 3V-13.0249H9.05311V3V19.0249H17.0335V3ZM9.05311 3V-13.0249C5.47692 -13.0249 1.08745 -11.8836 -2.56611 -8.49336C-6.3411 -4.99041 -7.96621 -0.334811 -7.96621 3.93145H8.0587H24.0836C24.0836 7.6313 22.6599 11.8212 19.2342 15C15.9299 18.0661 12.0377 19.0249 9.05311 19.0249V3ZM8.0587 3.93145H-7.96621C-7.96621 8.16532 -6.36831 12.8394 -2.56784 16.3709C1.09752 19.7768 5.49867 20.913 9.06569 20.913V4.88814V-11.1368C12.0411 -11.1368 15.9388 -10.183 19.2486 -7.10753C22.6934 -3.90652 24.0836 0.28924 24.0836 3.93145H8.0587ZM9.06569 4.88814V20.913H11.8852V4.88814V-11.1368H9.06569V4.88814ZM11.8852 4.88814L-3.77871 1.50589L-6.84999 15.7296L8.81392 19.1119L24.4778 22.4941L27.5491 8.27039L11.8852 4.88814ZM8.81392 19.1119V3.08695H5.99441V19.1119V35.1368H8.81392V19.1119ZM5.99441 19.1119V3.08695C2.41824 3.08695 -1.97122 4.22822 -5.62479 7.61848C-9.3998 11.1214 -11.0249 15.777 -11.0249 20.0433H5H21.0249C21.0249 23.7432 19.6012 27.9331 16.1755 31.1119C12.8712 34.178 8.97893 35.1368 5.99441 35.1368V19.1119ZM5 20.0433H-11.0249C-11.0249 24.2762 -9.42771 28.9505 -5.62693 32.4824C-1.96115 35.8889 2.4404 37.0249 6.00699 37.0249V21V4.97509C8.98193 4.97509 12.88 5.9286 16.1902 9.00465C19.6354 12.2062 21.0249 16.4021 21.0249 20.0433H5Z" fill="black" mask="url(#path-1-inside-1_114_312)"/>
</svg>
