<svg width="24" height="25" viewBox="0 0 24 25" fill="none" xmlns="http://www.w3.org/2000/svg">
<path d="M16.9414 19.8389C18.1109 19.8389 19.0591 20.787 19.0591 21.9565C19.0591 23.126 18.1109 24.0742 16.9414 24.0742C15.7719 24.0742 14.8238 23.126 14.8238 21.9565C14.8238 20.787 15.7719 19.8389 16.9414 19.8389ZM7.05905 19.8389C8.2286 19.8389 9.1767 20.787 9.1767 21.9565C9.1767 23.126 8.2286 24.0742 7.05905 24.0742C5.88951 24.0742 4.94141 23.126 4.94141 21.9565C4.94141 20.787 5.88951 19.8389 7.05905 19.8389ZM16.9414 9.95651C18.1109 9.95651 19.0591 10.9047 19.0591 12.0742C19.0591 13.2437 18.1109 14.1918 16.9414 14.1918C15.7719 14.1918 14.8238 13.2437 14.8238 12.0742C14.8238 10.9047 15.7719 9.95651 16.9414 9.95651ZM7.05905 9.95651C8.2286 9.95651 9.1767 10.9047 9.1767 12.0742C9.1767 13.2437 8.2286 14.1918 7.05905 14.1918C5.88951 14.1918 4.94141 13.2437 4.94141 12.0742C4.94141 10.9047 5.88951 9.95651 7.05905 9.95651ZM16.9414 0.0741577C18.1109 0.0741577 19.0591 1.02226 19.0591 2.1918C19.0591 3.36135 18.1109 4.30945 16.9414 4.30945C15.7719 4.30945 14.8238 3.36135 14.8238 2.1918C14.8238 1.02226 15.7719 0.0741577 16.9414 0.0741577ZM7.05905 0.0741577C8.2286 0.0741577 9.1767 1.02226 9.1767 2.1918C9.1767 3.36135 8.2286 4.30945 7.05905 4.30945C5.88951 4.30945 4.94141 3.36135 4.94141 2.1918C4.94141 1.02226 5.88951 0.0741577 7.05905 0.0741577Z" fill="black"/>
</svg>
