<svg width="24" height="24" viewBox="0 0 24 24" fill="none" xmlns="http://www.w3.org/2000/svg">
<path d="M22.3633 15.1709C22.7148 14.8195 23.2853 14.8195 23.6367 15.1709C23.9881 15.5223 23.9881 16.0929 23.6367 16.4443L20.6768 19.4033L23.6357 22.3545C23.9876 22.7055 23.9877 23.2751 23.6367 23.627C23.2856 23.9785 22.716 23.9798 22.3643 23.6289L19.4043 20.6758L16.4443 23.6367C16.0929 23.9881 15.5224 23.9881 15.1709 23.6367C14.8194 23.2853 14.8195 22.7148 15.1709 22.3633L18.1289 19.4043L15.1719 16.4531C14.8204 16.1021 14.8202 15.5325 15.1709 15.1807C15.522 14.829 16.0916 14.8287 16.4434 15.1797L19.4023 18.1309L22.3633 15.1709Z" fill="black"/>
<path d="M1 8.69141C1.49706 8.69141 1.90039 9.09474 1.90039 9.5918C1.90049 13.8397 5.34383 17.2832 9.5918 17.2832C10.473 17.2832 11.3176 17.1357 12.1035 16.8643C12.5733 16.702 13.0857 16.9512 13.248 17.4209C13.4102 17.8907 13.1612 18.4032 12.6914 18.5654C11.9912 18.8073 11.2543 18.9664 10.4922 19.0381V21.3076C10.4921 21.8046 10.0888 22.208 9.5918 22.208C9.0948 22.208 8.69151 21.8046 8.69141 21.3076V19.0391C3.87166 18.5855 0.0997026 14.5301 0.0996094 9.5918C0.0996094 9.09474 0.502944 8.69141 1 8.69141Z" fill="black"/>
<path fill-rule="evenodd" clip-rule="evenodd" d="M9.5918 0.0996094C12.677 0.099673 15.1777 2.60127 15.1777 5.68652V9.5918C15.1776 12.677 12.677 15.1777 9.5918 15.1777C6.50656 15.1777 4.00497 12.677 4.00488 9.5918V5.68652C4.00488 2.60123 6.50651 0.0996094 9.5918 0.0996094ZM9.5918 1.90039C7.50062 1.90039 5.80566 3.59535 5.80566 5.68652V9.5918C5.80575 11.6829 7.50068 13.3779 9.5918 13.3779C11.6829 13.3779 13.3778 11.6829 13.3779 9.5918V5.68652C13.3779 3.59539 11.6829 1.90045 9.5918 1.90039Z" fill="black"/>
</svg>
