<svg width="24" height="24" viewBox="0 0 24 24" fill="none" xmlns="http://www.w3.org/2000/svg">
<path d="M11.9952 20.0736V4.01355C10.8921 4.01355 9.85357 4.2233 8.87954 4.64279C7.91195 5.05582 7.06047 5.6302 6.32511 6.36592C5.58974 7.09519 5.01242 7.94708 4.59313 8.92159C4.18029 9.8961 3.97388 10.9351 3.97388 12.0387C3.97388 13.1488 4.18029 14.191 4.59313 15.1655C5.01242 16.1336 5.58974 16.9855 6.32511 17.7212C7.06047 18.4569 7.91195 19.0313 8.87954 19.4443C9.85357 19.8638 10.8921 20.0736 11.9952 20.0736ZM11.9952 22C10.6147 22 9.3214 21.7386 8.11514 21.2159C6.90889 20.6996 5.84777 19.9832 4.93179 19.0668C4.0158 18.1504 3.29657 17.0887 2.77407 15.8819C2.25802 14.6751 2 13.3811 2 12C2 10.6189 2.25802 9.32494 2.77407 8.1181C3.29657 6.90481 4.0158 5.84318 4.93179 4.9332C5.84777 4.01678 6.90889 3.30042 8.11514 2.78412C9.3214 2.26137 10.6147 2 11.9952 2C13.3756 2 14.6689 2.26137 15.8752 2.78412C17.0879 3.30042 18.1522 4.01678 19.0682 4.9332C19.9842 5.84318 20.7002 6.90481 21.2163 8.1181C21.7388 9.32494 22 10.6189 22 12C22 13.3811 21.7388 14.6751 21.2163 15.8819C20.7002 17.0887 19.9842 18.1504 19.0682 19.0668C18.1522 19.9832 17.0879 20.6996 15.8752 21.2159C14.6689 21.7386 13.3756 22 11.9952 22Z" fill="black"/>
</svg>
