<svg width="24" height="24" viewBox="0 0 24 24" fill="none" xmlns="http://www.w3.org/2000/svg">
<path d="M2.04466 4C1.5073 4 1.07168 4.49055 1.07168 5.09565C1.07168 5.70076 1.5073 6.1913 2.04466 6.1913H21.0987C21.636 6.1913 22.0717 5.70076 22.0717 5.09565C22.0717 4.49055 21.636 4 21.0987 4H2.04466Z" fill="black"/>
<path d="M15.0177 11.1043C14.4803 11.1043 14.0447 11.5949 14.0447 12.2C14.0447 12.8051 14.4803 13.2957 15.0177 13.2957H21.0987C21.6361 13.2957 22.0717 12.8051 22.0717 12.2C22.0717 11.5949 21.6361 11.1043 21.0987 11.1043H15.0177Z" fill="black"/>
<path d="M15.0177 18.2087C14.4803 18.2087 14.0447 18.6993 14.0447 19.3043C14.0447 19.9094 14.4803 20.4 15.0177 20.4H21.0987C21.6361 20.4 22.0717 19.9094 22.0717 19.3043C22.0717 18.6993 21.6361 18.2087 21.0987 18.2087H15.0177Z" fill="black"/>
<path d="M11.5716 12.589C11.9383 12.1066 11.8545 11.4105 11.3842 11.0344C10.9139 10.658 10.2353 10.7441 9.86835 11.2265L5.07288 17.5322L2.90699 14.8875C2.52337 14.4192 1.84211 14.3583 1.38535 14.7519C0.928725 15.1454 0.869397 15.8441 1.25301 16.3124L4.277 20.0047C4.48666 20.2607 4.7977 20.4059 5.12357 20.3998C5.44944 20.3938 5.75515 20.2372 5.9556 19.9736L11.5716 12.589Z" fill="black"/>
</svg>
