<svg width="24" height="24" viewBox="0 0 24 24" fill="none" xmlns="http://www.w3.org/2000/svg">
<path fill-rule="evenodd" clip-rule="evenodd" d="M11.1836 20.2852C11.1836 19.8331 11.5502 19.4665 12.0023 19.4665H21.1836C21.6358 19.4665 22.0023 19.8331 22.0023 20.2852C22.0023 20.7374 21.6358 21.104 21.1836 21.104H12.0023C11.5502 21.104 11.1836 20.7374 11.1836 20.2852Z" fill="black"/>
<path fill-rule="evenodd" clip-rule="evenodd" d="M18.1209 3.63739C17.7641 3.63739 17.4219 3.77913 17.1696 4.03143L4.57817 16.6228L3.94398 19.1596L6.48073 18.5254L19.0721 5.934C19.1971 5.80907 19.2962 5.66076 19.3638 5.49754C19.4314 5.33432 19.4662 5.15938 19.4662 4.98271C19.4662 4.80604 19.4314 4.6311 19.3638 4.46788C19.2962 4.30466 19.1971 4.15635 19.0721 4.03143C18.9472 3.9065 18.7989 3.80741 18.6357 3.7398C18.4725 3.67219 18.2975 3.63739 18.1209 3.63739ZM16.0117 2.87357C16.5711 2.31419 17.3298 1.99994 18.1209 1.99994C18.5126 1.99994 18.9004 2.07709 19.2623 2.22699C19.6242 2.37689 19.953 2.5966 20.23 2.87357C20.507 3.15055 20.7267 3.47937 20.8766 3.84125C21.0265 4.20314 21.1036 4.59101 21.1036 4.98271C21.1036 5.37442 21.0265 5.76228 20.8766 6.12417C20.7267 6.48606 20.507 6.81488 20.23 7.09185L7.47824 19.8436C7.37331 19.9485 7.24184 20.023 7.09788 20.059L3.01731 21.0791C2.73831 21.1489 2.44317 21.0671 2.23982 20.8638C2.03646 20.6604 1.95471 20.3653 2.02446 20.0863L3.0446 16.0057C3.08059 15.8617 3.15503 15.7303 3.25996 15.6253L16.0117 2.87357Z" fill="black"/>
</svg>
