<svg width="24" height="24" viewBox="0 0 24 24" fill="none" xmlns="http://www.w3.org/2000/svg">
<path d="M7 12.1782C7.00507 12.0098 7.04059 11.8558 7.10654 11.7162C7.1725 11.5767 7.27397 11.442 7.41096 11.312L15.0365 4.31038C15.2547 4.10346 15.5236 4 15.8432 4C16.0563 4 16.2491 4.04812 16.4216 4.14436C16.5992 4.24061 16.7387 4.37053 16.8402 4.53415C16.9467 4.69776 17 4.88062 17 5.08273C17 5.38108 16.8808 5.64334 16.6423 5.86951L9.74734 12.171L16.6423 18.4797C16.8808 18.7107 17 18.9729 17 19.2665C17 19.4734 16.9467 19.6587 16.8402 19.8223C16.7387 19.9859 16.5992 20.1158 16.4216 20.2121C16.2491 20.3131 16.0563 20.3636 15.8432 20.3636C15.5236 20.3636 15.2547 20.2578 15.0365 20.046L7.41096 13.0444C7.2689 12.9145 7.16489 12.7797 7.09893 12.6402C7.03298 12.4958 7 12.3418 7 12.1782Z" fill="black"/>
</svg>
