<svg width="24" height="24" viewBox="0 0 24 24" fill="none" xmlns="http://www.w3.org/2000/svg">
<path d="M12 19.1179C10.8239 19.1179 9.70888 18.9753 8.65502 18.69C7.60699 18.4047 6.63755 18.0291 5.74673 17.5633C4.8559 17.0917 4.05531 16.5735 3.34498 16.0087C2.64047 15.444 2.03785 14.8792 1.53712 14.3144C1.04221 13.7438 0.660844 13.2169 0.393013 12.7336C0.131004 12.2445 0 11.8515 0 11.5546C0 11.2576 0.131004 10.8675 0.393013 10.3843C0.660844 9.90102 1.04221 9.377 1.53712 8.81223C2.03785 8.24163 2.64338 7.67394 3.35371 7.10917C4.06405 6.5444 4.86463 6.02911 5.75546 5.56332C6.64629 5.0917 7.61572 4.71325 8.66376 4.42795C9.71761 4.14265 10.8297 4 12 4C13.1936 4 14.3173 4.14265 15.3712 4.42795C16.425 4.71325 17.3974 5.0917 18.2882 5.56332C19.1849 6.02911 19.9825 6.5444 20.6812 7.10917C21.3857 7.67394 21.9854 8.24163 22.4803 8.81223C22.9753 9.377 23.3508 9.90102 23.607 10.3843C23.869 10.8675 24 11.2576 24 11.5546C24 11.8515 23.869 12.2445 23.607 12.7336C23.3508 13.2169 22.9753 13.7438 22.4803 14.3144C21.9854 14.8792 21.3857 15.444 20.6812 16.0087C19.9825 16.5735 19.1878 17.0917 18.2969 17.5633C17.4061 18.0291 16.4309 18.4047 15.3712 18.69C14.3173 18.9753 13.1936 19.1179 12 19.1179ZM12 17.4323C12.9316 17.4323 13.8224 17.3188 14.6725 17.0917C15.5226 16.8646 16.3202 16.5619 17.0655 16.1834C17.8108 15.8049 18.4862 15.3945 19.0917 14.952C19.6972 14.5036 20.2183 14.0611 20.655 13.6245C21.0917 13.182 21.4265 12.7773 21.6594 12.4105C21.8981 12.0437 22.0175 11.7584 22.0175 11.5546C22.0175 11.3857 21.8981 11.1266 21.6594 10.7773C21.4265 10.4279 21.0917 10.032 20.655 9.58952C20.2183 9.14119 19.6972 8.68996 19.0917 8.23581C18.4862 7.78166 17.8108 7.36245 17.0655 6.97817C16.3202 6.58806 15.5226 6.27365 14.6725 6.03493C13.8224 5.79622 12.9316 5.67686 12 5.67686C11.0684 5.67686 10.1747 5.79622 9.31878 6.03493C8.4687 6.27365 7.67103 6.58806 6.92576 6.97817C6.18049 7.36245 5.50509 7.78166 4.89956 8.23581C4.29985 8.68996 3.78166 9.14119 3.34498 9.58952C2.9083 10.032 2.5706 10.4279 2.33188 10.7773C2.09898 11.1266 1.98253 11.3857 1.98253 11.5546C1.98253 11.7584 2.09898 12.0437 2.33188 12.4105C2.5706 12.7773 2.9083 13.182 3.34498 13.6245C3.78166 14.0611 4.29985 14.5036 4.89956 14.952C5.50509 15.3945 6.18049 15.8049 6.92576 16.1834C7.67103 16.5619 8.4687 16.8646 9.31878 17.0917C10.1747 17.3188 11.0684 17.4323 12 17.4323ZM12.0087 16.2533C11.3566 16.2533 10.7453 16.131 10.1747 15.8865C9.60408 15.6419 9.10335 15.3042 8.67249 14.8734C8.24163 14.4425 7.90102 13.9418 7.65065 13.3712C7.40611 12.8006 7.28384 12.1892 7.28384 11.5371C7.28384 10.8908 7.40611 10.2824 7.65065 9.71179C7.90102 9.14119 8.24163 8.64047 8.67249 8.20961C9.10335 7.77875 9.60408 7.44105 10.1747 7.19651C10.7453 6.95197 11.3566 6.82969 12.0087 6.82969C12.655 6.82969 13.2635 6.95197 13.8341 7.19651C14.4047 7.44105 14.9054 7.77875 15.3362 8.20961C15.7671 8.64047 16.1048 9.14119 16.3493 9.71179C16.5939 10.2824 16.7162 10.8908 16.7162 11.5371C16.7162 12.1892 16.5939 12.8006 16.3493 13.3712C16.1048 13.9418 15.7671 14.4425 15.3362 14.8734C14.9054 15.3042 14.4047 15.6419 13.8341 15.8865C13.2635 16.131 12.655 16.2533 12.0087 16.2533ZM12 13.0742C12.4192 13.0742 12.7773 12.9258 13.0742 12.6288C13.377 12.3261 13.5284 11.9651 13.5284 11.5459C13.5284 11.1325 13.377 10.7773 13.0742 10.4803C12.7773 10.1776 12.4192 10.0262 12 10.0262C11.5808 10.0262 11.2227 10.1776 10.9258 10.4803C10.6288 10.7773 10.4803 11.1325 10.4803 11.5459C10.4803 11.9651 10.6288 12.3261 10.9258 12.6288C11.2227 12.9258 11.5808 13.0742 12 13.0742Z" fill="black"/>
</svg>
