<svg width="24" height="24" viewBox="0 0 24 24" fill="none" xmlns="http://www.w3.org/2000/svg">
<path d="M12 21.0635L11.4766 21.7959C11.7897 22.0198 12.2104 22.0198 12.5234 21.7959L12 21.0635ZM12 21.0635L12.5244 21.7959V21.7949L12.5264 21.7939C12.5276 21.7931 12.5292 21.7915 12.5312 21.79C12.5356 21.7869 12.5418 21.7822 12.5498 21.7764C12.566 21.7646 12.5898 21.7478 12.6201 21.7256C12.6808 21.6812 12.7688 21.6163 12.8809 21.5322C13.1051 21.364 13.426 21.1189 13.8154 20.8096C14.5935 20.1915 15.6502 19.3123 16.7656 18.2686C18.9527 16.222 21.502 13.4175 22.4785 10.6387C22.7455 9.94311 22.8994 9.18509 22.8994 8.3877C22.8992 4.91506 20.084 2.09961 16.6113 2.09961C14.784 2.09975 13.1458 2.88354 12 4.125C10.8541 2.88339 9.21532 2.09961 7.3877 2.09961C3.91518 2.09979 1.09979 4.91518 1.09961 8.3877C1.09961 9.08566 1.21832 9.75306 1.42676 10.375L1.52148 10.6387C2.4979 13.4174 5.04644 16.222 7.2334 18.2686C8.34888 19.3124 9.4065 20.1915 10.1846 20.8096C10.574 21.1189 10.8949 21.364 11.1191 21.5322C11.2312 21.6163 11.3192 21.6812 11.3799 21.7256C11.4102 21.7478 11.434 21.7646 11.4502 21.7764C11.4582 21.7822 11.4644 21.7869 11.4688 21.79C11.4709 21.7916 11.4724 21.793 11.4736 21.7939L11.4756 21.7949V21.7959L12 21.0635Z" stroke="black" stroke-width="1.8" stroke-linecap="round" stroke-linejoin="round"/>
</svg>
