<svg width="24" height="24" viewBox="0 0 24 24" fill="none" xmlns="http://www.w3.org/2000/svg">
<path fill-rule="evenodd" clip-rule="evenodd" d="M12 7.2002C14.651 7.2002 16.7998 9.34903 16.7998 12C16.7997 14.6509 14.6509 16.7998 12 16.7998C9.34911 16.7998 7.20033 14.6509 7.2002 12C7.2002 9.34903 9.34903 7.2002 12 7.2002ZM12 8.79981C10.2327 8.79981 8.79981 10.2327 8.79981 12C8.79994 13.7672 10.2328 15.2002 12 15.2002C13.7672 15.2002 15.2001 13.7672 15.2002 12C15.2002 10.2327 13.7673 8.79981 12 8.79981Z" fill="black"/>
<path fill-rule="evenodd" clip-rule="evenodd" d="M12 1.2002C14.3343 1.2002 16.1655 1.19875 17.5928 1.39063C19.0431 1.58561 20.1959 1.99277 21.1016 2.89844L21.2656 3.07129C22.0574 3.94941 22.4266 5.04763 22.6094 6.40723C22.8013 7.83448 22.7998 9.66566 22.7998 12C22.7998 14.3343 22.8013 16.1655 22.6094 17.5928C22.4266 18.9524 22.0574 20.0506 21.2656 20.9287L21.1016 21.1016C20.1959 22.0072 19.043 22.4144 17.5928 22.6094C16.1655 22.8013 14.3343 22.7998 12 22.7998C9.66566 22.7998 7.83448 22.8013 6.40723 22.6094C5.04763 22.4266 3.94941 22.0574 3.07129 21.2656L2.89844 21.1016C1.99277 20.1959 1.58561 19.0431 1.39063 17.5928C1.19875 16.1655 1.2002 14.3343 1.2002 12C1.2002 9.66566 1.19875 7.83448 1.39063 6.40723C1.58561 4.95695 1.99279 3.80408 2.89844 2.89844L3.07129 2.73438C3.94942 1.94265 5.04763 1.57342 6.40723 1.39063C7.83448 1.19875 9.66566 1.2002 12 1.2002ZM12 2.79981C9.62036 2.79981 7.91599 2.80136 6.62012 2.97559C5.50667 3.12529 4.78688 3.39247 4.25 3.83105L4.03027 4.03027C3.47147 4.58908 3.14672 5.3473 2.97559 6.62012C2.80136 7.91599 2.79981 9.62036 2.79981 12C2.79981 14.3796 2.80136 16.084 2.97559 17.3799C3.14672 18.6527 3.47148 19.411 4.03027 19.9697L4.25 20.1689C4.78688 20.6075 5.50668 20.8747 6.62012 21.0244C7.91599 21.1986 9.62036 21.2002 12 21.2002C14.3796 21.2002 16.084 21.1986 17.3799 21.0244C18.6527 20.8533 19.411 20.5285 19.9697 19.9697L20.1689 19.75C20.6075 19.2131 20.8747 18.4933 21.0244 17.3799C21.1986 16.084 21.2002 14.3796 21.2002 12C21.2002 9.62036 21.1986 7.91599 21.0244 6.62012C20.8747 5.50668 20.6075 4.78688 20.1689 4.25L19.9697 4.03027C19.411 3.47148 18.6527 3.14672 17.3799 2.97559C16.084 2.80136 14.3796 2.79981 12 2.79981Z" fill="black"/>
</svg>
