<svg width="20" height="20" viewBox="0 0 20 20" fill="none" xmlns="http://www.w3.org/2000/svg">
<path d="M11.9523 20C11.5068 20 11.1854 19.8409 10.9881 19.5227C10.7908 19.2045 10.6221 18.8067 10.4821 18.3294L8.47733 11.5227L1.58473 9.49881C1.12649 9.35879 0.747812 9.19332 0.448687 9.00239C0.149562 8.80509 0 8.48687 0 8.04773C0 7.70406 0.136834 7.40811 0.410501 7.1599C0.684169 6.91169 1.02148 6.71122 1.42243 6.55847L17.8425 0.267303C18.0652 0.184566 18.2721 0.120923 18.463 0.0763723C18.6603 0.0254574 18.8385 0 18.9976 0C19.3095 0 19.5545 0.089101 19.7327 0.267303C19.9109 0.445505 20 0.690533 20 1.00239C20 1.16786 19.9745 1.34606 19.9236 1.53699C19.8791 1.72792 19.8154 1.93477 19.7327 2.15752L13.4797 18.4916C13.3015 18.9499 13.0883 19.3158 12.8401 19.5895C12.5919 19.8632 12.2959 20 11.9523 20ZM8.90692 10.0716L15.4749 3.50358C15.7359 3.24264 16.0446 2.96579 16.401 2.67303C16.7574 2.38027 17.0947 2.1066 17.4129 1.85203C17.0565 2.0175 16.6937 2.18934 16.3246 2.36754C15.9618 2.53938 15.5895 2.69849 15.2076 2.84487L2.30072 7.7327C2.23071 7.75815 2.18298 7.78679 2.15752 7.81862C2.13206 7.84407 2.11933 7.87271 2.11933 7.90453C2.11933 7.93636 2.13206 7.965 2.15752 7.99045C2.18934 8.01591 2.24344 8.03819 2.31981 8.05728L8.90692 10.0716ZM12.105 17.8998C12.1368 17.8998 12.1655 17.8839 12.1909 17.852C12.2164 17.8202 12.2418 17.7693 12.2673 17.6993L17.1551 4.79236C17.3015 4.40414 17.4638 4.02546 17.642 3.65632C17.8202 3.28719 17.992 2.92124 18.1575 2.55847C17.9029 2.88306 17.6261 3.22673 17.327 3.5895C17.0342 3.95227 16.7574 4.26412 16.4964 4.52506L9.9284 11.0931L11.9427 17.6802C11.9682 17.7566 11.9905 17.8107 12.0095 17.8425C12.035 17.8807 12.0668 17.8998 12.105 17.8998Z" fill="black"/>
</svg>
