<svg width="24" height="24" viewBox="0 0 24 24" fill="none" xmlns="http://www.w3.org/2000/svg">
<path d="M7.59668 7.64636C7.89082 6.78501 9.1082 6.78501 9.40234 7.64636L10.2637 10.1669C10.8366 11.8447 12.1543 13.1632 13.832 13.7362L16.3535 14.5966C17.2149 14.8907 17.2149 16.1091 16.3535 16.4032L13.832 17.2645C12.1544 17.8376 10.8366 19.1552 10.2637 20.8329L9.40234 23.3544C9.10797 24.2151 7.89104 24.2151 7.59668 23.3544L6.73535 20.8329C6.16241 19.1551 4.84467 17.8376 3.16699 17.2645L0.645508 16.4032C-0.215783 16.109 -0.215821 14.8907 0.645508 14.5966L3.16699 13.7362C4.8448 13.1632 6.16239 11.8447 6.73535 10.1669L7.59668 7.64636ZM19.0215 0.341675C19.1774 -0.113881 19.8216 -0.113867 19.9775 0.341675L20.4336 1.67664C20.7369 2.56495 21.4349 3.26294 22.3232 3.56628L23.6572 4.02136C24.1132 4.17708 24.1132 4.82267 23.6572 4.97839L22.3232 5.43347C21.435 5.73679 20.737 6.43491 20.4336 7.32312L19.9775 8.65808C19.8217 9.11391 19.1773 9.11392 19.0215 8.65808L18.5654 7.32312C18.262 6.43492 17.564 5.73679 16.6758 5.43347L15.3418 4.97839C14.8858 4.82267 14.8858 4.17708 15.3418 4.02136L16.6758 3.56628C17.5641 3.26294 18.2621 2.56494 18.5654 1.67664L19.0215 0.341675Z" fill="#22A0FB"/>
</svg>
