<svg width="24" height="24" viewBox="0 0 24 24" fill="none" xmlns="http://www.w3.org/2000/svg">
<path d="M5.34115 8.41395C5.56975 8.18536 5.56975 7.81472 5.34115 7.58612C5.11255 7.35752 4.74192 7.35752 4.51332 7.58612L1.58649 10.513C1.35789 10.7416 1.35789 11.1122 1.58649 11.3408L4.51332 14.2676C4.74192 14.4962 5.11255 14.4962 5.34115 14.2676C5.56975 14.039 5.56975 13.6684 5.34115 13.4398L2.82824 10.9269L5.34115 8.41395Z" fill="black"/>
<path d="M8.34115 8.41395C8.56975 8.18536 8.56975 7.81472 8.34115 7.58612C8.11255 7.35752 7.74192 7.35752 7.51332 7.58612L4.58857 10.5109C4.58187 10.5175 4.57532 10.5243 4.56894 10.5313C4.52315 10.5811 4.48758 10.637 4.46223 10.6962C4.43186 10.767 4.41504 10.845 4.41504 10.9269C4.41504 11.0044 4.43013 11.0785 4.45754 11.1462C4.48611 11.217 4.5291 11.2834 4.58649 11.3408L7.51332 14.2676C7.74192 14.4962 8.11255 14.4962 8.34115 14.2676C8.56975 14.039 8.56975 13.6684 8.34115 13.4398L6.41359 11.5122H10.7809C11.2466 11.5122 11.6933 11.6972 12.0226 12.0266C12.352 12.3559 12.537 12.8026 12.537 13.2683V15.6098C12.537 15.9331 12.7991 16.1952 13.1224 16.1952C13.4456 16.1952 13.7077 15.9331 13.7077 15.6098V13.2683C13.7077 12.4921 13.3994 11.7476 12.8505 11.1987C12.3016 10.6499 11.5571 10.3415 10.7809 10.3415H6.41361L8.34115 8.41395Z" fill="black"/>
<path d="M23.3794 10.859L20.6756 13.1122C20.567 13.2026 20.4094 13.2026 20.3008 13.1122L17.597 10.859C17.3867 10.6838 17.5107 10.3415 17.7844 10.3415H23.192C23.4657 10.3415 23.5897 10.6838 23.3794 10.859Z" fill="black"/>
</svg>
