<svg width="24" height="24" viewBox="0 0 24 24" fill="none" xmlns="http://www.w3.org/2000/svg">
<path d="M13.829 19.1991L20.6502 12.5353C20.8834 12.3021 21 12.0397 21 11.7482C21 11.5966 20.9708 11.4538 20.9125 11.3197C20.8542 11.1856 20.7639 11.0661 20.6414 10.9611L13.829 4.29733C13.6308 4.09911 13.3946 4 13.1206 4C12.9282 4 12.7562 4.04664 12.6047 4.13992C12.4473 4.22737 12.3248 4.34981 12.2374 4.50722C12.1441 4.6588 12.0974 4.83079 12.0974 5.02318C12.0974 5.2972 12.1995 5.54206 12.4035 5.75777L18.9886 12.168V11.3109L12.4035 17.7386C12.1995 17.9543 12.0974 18.2021 12.0974 18.482C12.0974 18.6685 12.1441 18.8376 12.2374 18.9892C12.3248 19.1466 12.4473 19.269 12.6047 19.3565C12.7562 19.4498 12.9282 19.4964 13.1206 19.4964C13.2606 19.4964 13.3888 19.4702 13.5054 19.4177C13.622 19.3652 13.7299 19.2923 13.829 19.1991ZM4.74028 19.1991L11.5527 12.5353C11.7918 12.3021 11.9113 12.0397 11.9113 11.7482C11.9113 11.5966 11.8821 11.4538 11.8238 11.3197C11.7597 11.1856 11.6694 11.0661 11.5527 10.9611L4.74028 4.29733C4.54206 4.09911 4.30303 4 4.02318 4C3.83662 4 3.66463 4.04664 3.50722 4.13992C3.34981 4.22737 3.22738 4.34981 3.13992 4.50722C3.04664 4.6588 3 4.83079 3 5.02318C3 5.2972 3.10494 5.54206 3.31483 5.75777L9.89117 12.168V11.3109L3.31483 17.7386C3.10494 17.9543 3 18.2021 3 18.482C3 18.6685 3.04664 18.8376 3.13992 18.9892C3.22738 19.1466 3.34981 19.269 3.50722 19.3565C3.66463 19.4498 3.83662 19.4964 4.02318 19.4964C4.16311 19.4964 4.29428 19.4702 4.41671 19.4177C4.53332 19.3652 4.64117 19.2923 4.74028 19.1991Z" fill="black"/>
</svg>
