<svg width="24" height="24" viewBox="0 0 24 24" fill="none" xmlns="http://www.w3.org/2000/svg">
<path d="M1.86034 15.0615C1.24581 15.0615 0.782123 14.8994 0.469274 14.5754C0.156425 14.2514 0 13.7682 0 13.1257V9.89944C0 9.24581 0.156425 8.75978 0.469274 8.44134C0.782123 8.11732 1.24581 7.95531 1.86034 7.95531H4.23184C4.30447 7.95531 4.36592 7.93017 4.4162 7.87989L8.09497 4.62011C8.33519 4.40782 8.53911 4.2514 8.7067 4.15084C8.87989 4.05028 9.07263 4 9.28492 4C9.60894 4 9.87151 4.10894 10.0726 4.32682C10.2793 4.54469 10.3827 4.81006 10.3827 5.12291V17.919C10.3827 18.2263 10.2793 18.4832 10.0726 18.6899C9.87151 18.8966 9.61452 19 9.30168 19C9.08939 19 8.88827 18.9525 8.69832 18.8575C8.51397 18.7626 8.31285 18.6201 8.09497 18.4302L4.4162 15.1369C4.36592 15.0866 4.30447 15.0615 4.23184 15.0615H1.86034ZM2.00279 13.5782H4.61732C4.72905 13.5782 4.82961 13.595 4.91899 13.6285C5.01397 13.662 5.10894 13.7207 5.20391 13.8045L8.56425 16.838C8.60894 16.8827 8.65363 16.905 8.69832 16.905C8.77095 16.905 8.80726 16.8631 8.80726 16.7793V6.22067C8.80726 6.13687 8.77095 6.09497 8.69832 6.09497C8.67039 6.09497 8.64525 6.10056 8.6229 6.11173C8.60056 6.12291 8.57821 6.13966 8.55587 6.16201L5.20391 9.21229C5.10894 9.30168 5.01397 9.36034 4.91899 9.38827C4.82961 9.4162 4.72905 9.43017 4.61732 9.43017H2.00279C1.86313 9.43017 1.75698 9.46648 1.68436 9.53911C1.61732 9.60615 1.5838 9.7095 1.5838 9.84916V13.1676C1.5838 13.3073 1.61732 13.4106 1.68436 13.4777C1.75698 13.5447 1.86313 13.5782 2.00279 13.5782ZM13.2318 15.2207C13.0307 15.0866 12.9134 14.9078 12.8799 14.6844C12.852 14.4609 12.9162 14.2291 13.0726 13.9888C13.3017 13.6536 13.4804 13.2737 13.6089 12.8492C13.7374 12.419 13.8017 11.9693 13.8017 11.5C13.8017 11.0307 13.7374 10.581 13.6089 10.1508C13.486 9.72067 13.3073 9.34078 13.0726 9.01117C12.9106 8.77654 12.8464 8.54749 12.8799 8.32402C12.9134 8.09497 13.0307 7.91341 13.2318 7.77933C13.4106 7.66201 13.6034 7.62291 13.8101 7.66201C14.0168 7.70112 14.1816 7.81006 14.3045 7.98883C14.6453 8.44134 14.9106 8.97486 15.1006 9.58939C15.2905 10.1983 15.3855 10.8352 15.3855 11.5C15.3855 12.1648 15.2905 12.8017 15.1006 13.4106C14.9106 14.0196 14.6453 14.5503 14.3045 15.0028C14.1816 15.1872 14.0168 15.2989 13.8101 15.338C13.6034 15.3715 13.4106 15.3324 13.2318 15.2207Z" fill="black"/>
</svg>
