<svg width="24" height="24" viewBox="0 0 24 24" fill="none" xmlns="http://www.w3.org/2000/svg">
<path d="M21.7985 6.80332C21.7138 6.47479 21.5522 6.17112 21.327 5.91735C21.1018 5.66359 20.8195 5.46701 20.5034 5.34383C17.4436 4.16804 12.5707 4.17785 12.3047 4.17924C12.0388 4.1771 7.16583 4.16799 4.10601 5.34383C3.7899 5.467 3.50761 5.66357 3.28243 5.91732C3.05726 6.17106 2.89564 6.47472 2.81093 6.80323C2.57996 7.6899 2.30469 9.31121 2.30469 12C2.30469 14.6887 2.57996 16.31 2.81089 17.1966C2.89558 17.5252 3.05719 17.8288 3.28237 18.0826C3.50755 18.3364 3.78985 18.533 4.10597 18.6561C7.03509 19.7817 11.6258 19.8209 12.2459 19.8209C12.3013 19.8209 12.3081 19.8209 12.3635 19.8209C12.9841 19.8209 17.5744 19.7817 20.5034 18.6561C20.8195 18.533 21.1018 18.3364 21.3269 18.0826C21.5521 17.8289 21.7137 17.5252 21.7984 17.1967C22.0294 16.3101 22.3047 14.6888 22.3047 12C22.3047 9.31125 22.0294 7.68994 21.7985 6.80332ZM15.3599 12.2971L11.0742 15.1543C11.0204 15.1901 10.9579 15.2107 10.8934 15.2139C10.8288 15.217 10.7646 15.2025 10.7076 15.172C10.6506 15.1415 10.6029 15.0961 10.5697 15.0407C10.5365 14.9852 10.519 14.9218 10.519 14.8571V9.14284C10.519 9.07819 10.5365 9.01476 10.5697 8.9593C10.6029 8.90384 10.6506 8.85844 10.7076 8.82793C10.7646 8.79743 10.8288 8.78297 10.8934 8.7861C10.9579 8.78922 11.0204 8.80982 11.0742 8.84568L15.3599 11.7028C15.4089 11.7354 15.449 11.7796 15.4767 11.8315C15.5045 11.8833 15.519 11.9412 15.519 12C15.519 12.0588 15.5045 12.1167 15.4767 12.1685C15.449 12.2203 15.4089 12.2645 15.3599 12.2971Z" fill="black"/>
</svg>
