<svg width="24" height="24" viewBox="0 0 24 24" fill="none" xmlns="http://www.w3.org/2000/svg">
<path fill-rule="evenodd" clip-rule="evenodd" d="M11.9909 8.06397C14.1645 8.06397 15.9269 9.82641 15.9269 12C15.9269 14.1736 14.1645 15.936 11.9909 15.936C9.81727 15.936 8.05483 14.1736 8.05483 12C8.05483 9.82641 9.81727 8.06397 11.9909 8.06397ZM11.9909 9.8812C10.8205 9.8812 9.87207 10.8296 9.87207 12C9.87207 13.1704 10.8205 14.1188 11.9909 14.1188C13.1613 14.1188 14.1097 13.1704 14.1097 12C14.1097 10.8296 13.1613 9.8812 11.9909 9.8812Z" fill="black"/>
<path fill-rule="evenodd" clip-rule="evenodd" d="M11.9909 1C12.7316 1 13.4033 1.20499 14.1244 1.54005C14.8273 1.86663 15.6403 2.34842 16.6483 2.94535L17.3411 3.35531C18.3494 3.95245 19.1632 4.43383 19.79 4.89464C20.4334 5.36768 20.9371 5.85926 21.3027 6.50887C21.6677 7.15738 21.8296 7.84706 21.9068 8.65033C21.9822 9.43473 21.9817 10.3949 21.9817 11.59V12.41C21.9817 13.6052 21.9822 14.5653 21.9068 15.3497C21.8296 16.1529 21.6677 16.8426 21.3027 17.4911C20.9371 18.1407 20.4334 18.6323 19.79 19.1054C19.1632 19.5661 18.3493 20.0466 17.3411 20.6437L16.6483 21.0546C15.6403 21.6516 14.8273 22.1334 14.1244 22.46C13.4033 22.795 12.7316 23 11.9909 23C11.2501 23 10.5784 22.795 9.85728 22.46C9.15441 22.1334 8.34144 21.6516 7.33345 21.0546L6.64066 20.6437C5.63245 20.0466 4.8185 19.5661 4.19172 19.1054C3.54834 18.6323 3.04464 18.1407 2.679 17.4911C2.31399 16.8426 2.1521 16.1529 2.0749 15.3497C1.99951 14.5653 2 13.6052 2 12.41V11.59C2 10.3949 1.99951 9.43473 2.0749 8.65033C2.1521 7.84706 2.314 7.15738 2.679 6.50887C3.04464 5.85927 3.54834 5.36768 4.19172 4.89464C4.81855 4.43383 5.63232 3.95245 6.64066 3.35531L7.33345 2.94535C8.34143 2.34842 9.15441 1.86663 9.85728 1.54005C10.5784 1.20499 11.2501 1 11.9909 1ZM11.9909 2.81724C11.6077 2.81724 11.2055 2.91569 10.622 3.18679C10.0204 3.46634 9.29769 3.89311 8.25882 4.50833L7.56603 4.91829C6.52711 5.53354 5.80517 5.9631 5.26787 6.35809C4.74752 6.74066 4.45794 7.05109 4.26169 7.39975C4.06482 7.74956 3.94657 8.16541 3.88326 8.82378C3.81814 9.50139 3.81724 10.3604 3.81724 11.59V12.41C3.81724 13.6396 3.81814 14.4986 3.88326 15.1762C3.94657 15.8346 4.06482 16.2505 4.26169 16.6003C4.45794 16.9489 4.74751 17.2593 5.26787 17.6419C5.80517 18.0369 6.5271 18.4665 7.56603 19.0817L8.25882 19.4917C9.29769 20.1069 10.0204 20.5337 10.622 20.8132C11.2055 21.0843 11.6077 21.1828 11.9909 21.1828C12.374 21.1828 12.7762 21.0843 13.3597 20.8132C13.9613 20.5337 14.684 20.1069 15.7229 19.4917L16.4157 19.0817C17.4546 18.4665 18.1765 18.0369 18.7139 17.6419C19.2342 17.2593 19.5238 16.9489 19.72 16.6003C19.9169 16.2504 20.0352 15.8346 20.0985 15.1762C20.1636 14.4986 20.1645 13.6396 20.1645 12.41V11.59C20.1645 10.3604 20.1636 9.50139 20.0985 8.82378C20.0352 8.16541 19.9169 7.74956 19.72 7.39975C19.5238 7.0511 19.2342 6.74067 18.7139 6.35809C18.1765 5.96309 17.4546 5.53355 16.4157 4.91829L15.7229 4.50833C14.684 3.89311 13.9613 3.46635 13.3597 3.18679C12.7762 2.91569 12.374 2.81724 11.9909 2.81724Z" fill="black"/>
</svg>
