<svg width="25" height="24" viewBox="0 0 25 24" fill="none" xmlns="http://www.w3.org/2000/svg">
<path fill-rule="evenodd" clip-rule="evenodd" d="M12.1006 0C18.728 0 24.1006 5.37258 24.1006 12C24.1006 18.6274 18.728 24 12.1006 24C5.47317 24 0.100586 18.6274 0.100586 12C0.100586 5.37258 5.47317 0 12.1006 0ZM12.1006 6C11.5329 6 11.1915 6.75668 10.5098 8.27051L8.12695 13.5625C7.25862 15.4905 6.82463 16.4542 7.29102 16.8613C7.75741 17.2684 8.69809 16.7463 10.5791 15.7021L11.2393 15.3359C11.6598 15.1025 11.87 14.9854 12.1006 14.9854C12.3311 14.9854 12.5414 15.1025 12.9619 15.3359L13.6221 15.7021C15.503 16.7463 16.4438 17.2684 16.9102 16.8613C17.3765 16.4542 16.9426 15.4905 16.0742 13.5625L13.6914 8.27051C13.0096 6.75668 12.6682 6.00001 12.1006 6Z" fill="#22A0FB"/>
</svg>
