<svg width="24" height="24" viewBox="0 0 24 24" fill="none" xmlns="http://www.w3.org/2000/svg">
<path fill-rule="evenodd" clip-rule="evenodd" d="M10.8469 3.13613C11.6049 2.95462 12.3951 2.95462 13.1531 3.13613C14.0487 3.35084 14.8541 3.9039 16.0905 4.72816L21.5946 8.39752C21.8903 8.59467 22.0316 8.93524 21.9911 9.26554C21.9974 9.32954 22.0002 9.39348 21.9931 9.4569C21.9968 9.49014 22 9.52428 22 9.5585V17.2346C22 17.7849 22.0006 18.2529 21.9694 18.6352C21.9373 19.0282 21.8665 19.411 21.6804 19.7765C21.3996 20.3276 20.9512 20.776 20.4001 21.0568C20.0346 21.243 19.6518 21.3137 19.2588 21.3458C18.8764 21.3771 18.4086 21.3764 17.8582 21.3764H6.14184C5.59135 21.3764 5.12356 21.3771 4.74117 21.3458C4.34817 21.3137 3.96544 21.243 3.59992 21.0568C3.0487 20.776 2.60038 20.3275 2.31959 19.7765C2.13346 19.411 2.06268 19.0282 2.03058 18.6352C1.99938 18.2529 2 17.7849 2 17.2346V9.5585C2.00002 9.52428 2.00321 9.49014 2.00691 9.4569C1.99982 9.39351 2.00163 9.32951 2.00789 9.26554C1.96749 8.93527 2.10972 8.59465 2.40541 8.39752L7.91044 4.72816C9.14679 3.90398 9.95131 3.35083 10.8469 3.13613ZM16.0905 13.7822C14.8541 14.6065 14.0487 15.1595 13.1531 15.3742C12.3951 15.5558 11.6049 15.5558 10.8469 15.3742C9.9513 15.1595 9.14683 14.6064 7.91044 13.7822L3.8189 11.0549V17.2346C3.8189 17.8149 3.81882 18.1961 3.84257 18.4873C3.86543 18.767 3.90541 18.8843 3.93924 18.9509C4.04576 19.1599 4.21661 19.3307 4.42553 19.4372C4.49214 19.471 4.6091 19.511 4.88913 19.5338C5.18034 19.5576 5.56135 19.5575 6.14184 19.5575H17.8582C18.4386 19.5575 18.8196 19.5576 19.1109 19.5338C19.3909 19.511 19.5079 19.471 19.5745 19.4372C19.7834 19.3307 19.9543 19.1598 20.0608 18.9509C20.0946 18.8843 20.1346 18.7671 20.1574 18.4873C20.1812 18.1961 20.1811 17.8149 20.1811 17.2346V11.0549L16.0905 13.7822ZM12.7299 4.90472C12.2502 4.78982 11.7498 4.78982 11.2701 4.90472C10.7653 5.0258 10.2734 5.33713 8.91852 6.24029L4.39594 9.25469L8.91852 12.2701C10.2734 13.1733 10.7654 13.4846 11.2701 13.6056C11.7498 13.7206 12.2502 13.7206 12.7299 13.6056C13.2347 13.4846 13.7267 13.1733 15.0815 12.2701L19.6031 9.25469L15.0815 6.24029C13.7267 5.33715 13.2347 5.0258 12.7299 4.90472Z" fill="black"/>
</svg>
