<svg width="24" height="24" viewBox="0 0 24 24" fill="none" xmlns="http://www.w3.org/2000/svg">
<path d="M6.91707 18.9317C6.65691 18.9317 6.43902 18.8407 6.26341 18.6585C6.08781 18.4764 6 18.2585 6 18.0049C6 17.7512 6.08781 17.5333 6.26341 17.3512C6.43902 17.1691 6.65691 17.078 6.91707 17.078H17.122C17.3821 17.078 17.6 17.1691 17.7756 17.3512C17.9577 17.5333 18.0488 17.7512 18.0488 18.0049C18.0488 18.265 17.9577 18.4862 17.7756 18.6683C17.6 18.8439 17.3821 18.9317 17.122 18.9317H6.91707ZM4.93659 12.8976C4.68293 12.8976 4.46504 12.8065 4.28293 12.6244C4.10732 12.4423 4.01951 12.2244 4.01951 11.9707C4.01951 11.7106 4.10732 11.4927 4.28293 11.3171C4.45854 11.135 4.67642 11.0439 4.93659 11.0439H19.1122C19.3594 11.0439 19.5707 11.135 19.7463 11.3171C19.9285 11.4927 20.0195 11.7106 20.0195 11.9707C20.0195 12.2244 19.9285 12.4423 19.7463 12.6244C19.5707 12.8065 19.3594 12.8976 19.1122 12.8976H4.93659ZM2.91707 6.85366C2.66341 6.85366 2.44553 6.7626 2.26341 6.58049C2.0878 6.39837 2 6.18374 2 5.93659C2 5.67642 2.0878 5.45528 2.26341 5.27317C2.44553 5.09106 2.66341 5 2.91707 5H21.0829C21.3431 5 21.561 5.09106 21.7366 5.27317C21.9122 5.45528 22 5.67642 22 5.93659C22 6.19024 21.9122 6.40813 21.7366 6.59024C21.561 6.76585 21.3431 6.85366 21.0829 6.85366H2.91707Z" fill="black"/>
</svg>
