<svg width="24" height="24" viewBox="0 0 24 24" fill="none" xmlns="http://www.w3.org/2000/svg">
<path d="M10.124 2.46812C12.3886 2.01495 14.7403 2.36137 16.7783 3.44761C18.2184 4.21514 19.4377 5.31983 20.3428 6.65366L21.6397 5.77378C21.9131 5.58833 22.2787 5.80748 22.2441 6.13609L21.835 10.0326C21.8098 10.2717 21.5753 10.4312 21.3438 10.3666L17.5703 9.30894C17.2525 9.2196 17.184 8.79929 17.457 8.61362L18.8535 7.66441C18.1115 6.57079 17.1122 5.66473 15.9316 5.0355C14.261 4.14518 12.3328 3.86222 10.4766 4.23374C8.62044 4.60536 6.95015 5.60889 5.75098 7.07359C4.55186 8.53838 3.89817 10.3739 3.9004 12.2669C3.90267 14.1599 4.56111 15.9935 5.76368 17.4554C6.96642 18.9174 8.63889 19.9174 10.4961 20.2845C12.3533 20.6517 14.2807 20.3635 15.9492 19.4691C17.6176 18.5747 18.9241 17.1291 19.6465 15.3792C19.8363 14.92 20.3629 14.7014 20.8223 14.891C21.2816 15.0807 21.5001 15.6074 21.3106 16.0667C20.4293 18.2014 18.8352 19.9649 16.7998 21.056C14.7643 22.1471 12.4131 22.4979 10.1475 22.0501C7.88172 21.6023 5.84134 20.3826 4.37403 18.599C2.90676 16.8154 2.10236 14.5785 2.09962 12.2689C2.09692 9.95937 2.89537 7.72 4.35841 5.93296C5.82147 4.14595 7.8594 2.92138 10.124 2.46812Z" fill="black"/>
<path d="M12.2041 7.7103C12.7012 7.7103 13.1045 8.11364 13.1045 8.61069V12.806L15.4453 14.4779C15.8496 14.7668 15.9431 15.3293 15.6543 15.7337C15.3654 16.138 14.8029 16.2315 14.3984 15.9427L11.7461 14.0482C11.4689 13.8502 11.3039 13.5304 11.3037 13.1898V8.61069C11.3037 8.11364 11.7071 7.71031 12.2041 7.7103Z" fill="black"/>
</svg>
