<svg width="24" height="24" viewBox="0 0 24 24" fill="none" xmlns="http://www.w3.org/2000/svg">
<path d="M15.1806 17.9971V18.9978C15.1806 20.6559 13.8366 22 12.1785 22C10.5204 22 9.17632 20.6559 9.17632 18.9978V17.9971M15.1806 17.9971H9.17632M15.1806 17.9971H18.7737C19.1565 17.9971 19.3488 17.9971 19.5039 17.9449C19.8 17.845 20.0316 17.6124 20.1315 17.3164C20.1839 17.1608 20.1839 16.9679 20.1839 16.582C20.1839 16.4132 20.1837 16.3288 20.1705 16.2483C20.1456 16.0962 20.0866 15.9519 19.9967 15.8268C19.9492 15.7606 19.8887 15.7003 19.7697 15.5812L19.38 15.1914C19.2542 15.0656 19.1835 14.895 19.1835 14.7172V10.9921C19.1835 7.1233 16.0473 3.98703 12.1785 3.98704C8.30971 3.98705 5.17344 7.12331 5.17344 10.9921V14.7172C5.17344 14.8951 5.10263 15.0656 4.97687 15.1914L4.58708 15.5812C4.46771 15.7006 4.40793 15.7605 4.36036 15.8268C4.27045 15.952 4.2109 16.0962 4.18593 16.2483C4.17272 16.3288 4.17272 16.4132 4.17272 16.5821C4.17272 16.9679 4.17272 17.1607 4.22521 17.3163C4.32508 17.6124 4.5578 17.845 4.85387 17.9449C5.00889 17.9971 5.20047 17.9971 5.5833 17.9971H9.17632M18.2014 3C19.5816 4.04007 20.6689 5.41984 21.3575 7.00495M6.15612 3C4.77591 4.04007 3.68858 5.41984 3 7.00495" stroke="black" stroke-width="1.8" stroke-linecap="round" stroke-linejoin="round"/>
</svg>
