<svg width="24" height="24" viewBox="0 0 24 24" fill="none" xmlns="http://www.w3.org/2000/svg">
<path d="M16.2696 13.8423C16.4148 13.418 17.0145 13.418 17.1597 13.8423L17.5843 15.0853C17.8668 15.9125 18.5168 16.5625 19.344 16.845L20.5871 17.2696C21.0112 17.4148 21.0112 18.0145 20.5871 18.1597L19.344 18.5843C18.5168 18.8668 17.8668 19.5168 17.5843 20.344L17.1597 21.5871C17.0145 22.0112 16.4148 22.0112 16.2696 21.5871L15.845 20.344C15.5625 19.5168 14.9125 18.8668 14.0853 18.5843L12.8422 18.1597C12.418 18.0145 12.418 17.4148 12.8422 17.2696L14.0853 16.845C14.9125 16.5625 15.5625 15.9125 15.845 15.0853L16.2696 13.8423Z" fill="black"/>
<path d="M6.61775 2.47774C6.83527 1.84076 7.73639 1.84076 7.95391 2.47774L8.59027 4.34182C9.01401 5.58266 9.98901 6.55766 11.2299 6.98139L13.0939 7.61776C13.7309 7.83528 13.7309 8.7364 13.0939 8.95392L11.2299 9.59028C9.98901 10.014 9.01401 10.989 8.59027 12.2299L7.95391 14.0939C7.73639 14.7309 6.83527 14.7309 6.61775 14.0939L5.98139 12.2299C5.55766 10.989 4.58266 10.014 3.34181 9.59028L1.47774 8.95392C0.840755 8.7364 0.840755 7.83528 1.47774 7.61776L3.34181 6.98139C4.58266 6.55766 5.55766 5.58266 5.98139 4.34182L6.61775 2.47774Z" fill="black"/>
<path d="M19.5241 2.23834C19.6331 1.92056 20.0821 1.92054 20.1911 2.23834L20.5103 3.1714C20.7222 3.79142 21.2091 4.27828 21.8291 4.49016L22.7611 4.80937C23.0796 4.91813 23.0796 5.36766 22.7611 5.47642L21.8291 5.79563C21.209 6.00753 20.7222 6.49434 20.5103 7.1144L20.1911 8.04643C20.0824 8.36492 19.6328 8.36492 19.5241 8.04643L19.2049 7.1144C18.993 6.49436 18.5061 6.00755 17.8861 5.79563L16.953 5.47642C16.6352 5.36742 16.6353 4.9184 16.953 4.80937L17.8861 4.49016C18.5061 4.27826 18.993 3.79141 19.2049 3.1714L19.5241 2.23834Z" fill="black"/>
</svg>
