<svg width="24" height="24" viewBox="0 0 24 24" fill="none" xmlns="http://www.w3.org/2000/svg">
<path d="M8.27111 14.918H15.7574C15.935 14.918 16.084 14.8609 16.2045 14.7467C16.3314 14.6262 16.3948 14.4772 16.3948 14.2996C16.3948 14.1221 16.3314 13.973 16.2045 13.8526C16.084 13.7321 15.935 13.6718 15.7574 13.6718H8.27111C8.0872 13.6718 7.93183 13.7321 7.80499 13.8526C7.6845 13.973 7.62426 14.1221 7.62426 14.2996C7.62426 14.4772 7.6845 14.6262 7.80499 14.7467C7.93183 14.8609 8.0872 14.918 8.27111 14.918ZM8.27111 18.5232H15.7574C15.935 18.5232 16.084 18.4629 16.2045 18.3425C16.3314 18.222 16.3948 18.0761 16.3948 17.9049C16.3948 17.7273 16.3314 17.5783 16.2045 17.4578C16.084 17.3373 15.935 17.2771 15.7574 17.2771H8.27111C8.0872 17.2771 7.93183 17.3373 7.80499 17.4578C7.6845 17.5783 7.62426 17.7273 7.62426 17.9049C7.62426 18.0761 7.6845 18.222 7.80499 18.3425C7.93183 18.4629 8.0872 18.5232 8.27111 18.5232ZM6.94887 22.3948C5.96591 22.3948 5.22711 22.1474 4.73246 21.6528C4.24415 21.1581 4 20.413 4 19.4174V4.98692C4 3.99762 4.24415 3.25248 4.73246 2.75149C5.22711 2.2505 5.96591 2 6.94887 2H11.3151V8.98216C11.3151 10.1807 11.9144 10.78 13.113 10.78H20V19.4174C20 20.4067 19.7527 21.1486 19.258 21.6433C18.7697 22.1443 18.0341 22.3948 17.0511 22.3948H6.94887ZM13.1415 9.47681C12.7927 9.47681 12.6183 9.30559 12.6183 8.96314V2.10464C12.8149 2.13635 13.0147 2.22196 13.2176 2.36147C13.4205 2.49465 13.633 2.67539 13.8549 2.90369L19.0963 8.24019C19.3246 8.47483 19.5054 8.69045 19.6385 8.88704C19.7717 9.08363 19.8541 9.28022 19.8858 9.47681H13.1415Z" fill="black"/>
</svg>
