<svg width="24" height="24" viewBox="0 0 24 24" fill="none" xmlns="http://www.w3.org/2000/svg">
<path d="M22 18.1826C22 19.1875 21.7259 19.9641 21.1777 20.5117C20.6352 21.0593 19.8805 21.333 18.9141 21.333H5.1709C4.15917 21.333 3.37617 21.0594 2.82227 20.5117C2.27409 19.9641 2 19.1875 2 18.1826V10.4014H22V18.1826ZM6.02051 13V14.3301H8.66113V14.4102L6 17.6611V18.7139H10.8691V17.3838H8.11133V17.3047L10.7725 14.0498V13H6.02051ZM11.3789 13V18.7139H13.1592V13H11.3789ZM13.8359 13V18.7139H15.6162V17.1543H16.5439C17.0168 17.1543 17.4253 17.0706 17.7695 16.9043C18.1165 16.7353 18.3838 16.4964 18.5713 16.1875C18.7615 15.8787 18.8564 15.5131 18.8564 15.0908V15.083C18.8564 14.6607 18.7615 14.2939 18.5713 13.9824C18.3838 13.6709 18.1165 13.4294 17.7695 13.2578C17.4253 13.0862 17.0168 13 16.5439 13H13.8359ZM16.1201 14.2637C16.4138 14.2637 16.6435 14.3315 16.8086 14.4688C16.9765 14.6034 17.0605 14.8085 17.0605 15.083V15.0908C17.0605 15.3627 16.9765 15.5691 16.8086 15.709C16.6435 15.8462 16.4138 15.915 16.1201 15.915H15.6162V14.2637H16.1201ZM7.43457 3C7.78497 3 8.08217 3.02222 8.3252 3.06738C8.56805 3.11255 8.7908 3.18968 8.99414 3.29688C9.19758 3.39848 9.41577 3.53596 9.64746 3.71094L10.0371 3.99902C10.331 4.22486 10.6029 4.3833 10.8516 4.47363C11.1058 4.56389 11.4085 4.60938 11.7588 4.60938H18.8291C19.8408 4.60938 20.6207 4.88616 21.1689 5.43945C21.7228 5.9871 22 6.76051 22 7.75977V8.85156H2V6.19238C2.00007 5.17638 2.2773 4.39209 2.83105 3.83887C3.39061 3.27992 4.14517 3 5.09473 3H7.43457Z" fill="black"/>
</svg>
