<svg width="24" height="24" viewBox="0 0 24 24" fill="none" xmlns="http://www.w3.org/2000/svg">
<path fill-rule="evenodd" clip-rule="evenodd" d="M2.90909 5C1.30244 5 0 6.30244 0 7.90909V16.4545C0 18.0612 1.30244 19.3636 2.90909 19.3636H21.0909C22.6976 19.3636 24 18.0612 24 16.4545V7.90909C24 6.30244 22.6976 5 21.0909 5H2.90909ZM5.38814 13.5064V15.4545H3.69389V8.79297H6.56534C7.06084 8.79297 7.49171 8.89145 7.85795 9.08842C8.2242 9.28232 8.50734 9.55623 8.70739 9.91016C8.91051 10.261 9.01207 10.675 9.01207 11.152V11.1612C9.01207 11.6352 8.91051 12.0491 8.70739 12.4031C8.50734 12.7539 8.2242 13.0263 7.85795 13.2202C7.49171 13.411 7.06084 13.5064 6.56534 13.5064H5.38814ZM5.38814 12.223H6.15447C6.51456 12.223 6.79463 12.1322 6.99467 11.9506C7.1978 11.7691 7.29936 11.5059 7.29936 11.1612V11.152C7.29936 10.8042 7.1978 10.5411 6.99467 10.3626C6.79463 10.1841 6.51456 10.0948 6.15447 10.0948H5.38814V12.223ZM9.53125 8.79297V15.4545H12.3288C12.9998 15.4545 13.5661 15.3237 14.0277 15.0621C14.4924 14.8005 14.8448 14.4174 15.0849 13.9126C15.3249 13.4048 15.445 12.7878 15.445 12.0614V12.0522C15.445 11.3597 15.3234 10.7704 15.0803 10.2841C14.8371 9.79782 14.4832 9.4285 14.0185 9.17614C13.5568 8.92069 12.9936 8.79297 12.3288 8.79297H9.53125ZM12.0241 14.0927H11.2255V10.1548H12.0241C12.3781 10.1548 12.6812 10.2302 12.9336 10.381C13.189 10.5288 13.3829 10.7473 13.5153 11.0366C13.6507 11.3228 13.7184 11.6721 13.7184 12.0845V12.0937C13.7184 12.5308 13.6522 12.8986 13.5199 13.1971C13.3906 13.4925 13.1998 13.7157 12.9474 13.8665C12.6982 14.0173 12.3904 14.0927 12.0241 14.0927ZM15.978 8.79297V15.4545H17.6722V12.9709H20.2528V11.6737H17.6722V10.1548H20.5114V8.79297H15.978Z" fill="black"/>
</svg>
