<svg width="24" height="24" viewBox="0 0 24 24" fill="none" xmlns="http://www.w3.org/2000/svg">
<path d="M5.67447 22C5.11241 22 4.69087 21.8595 4.40984 21.5785C4.13661 21.2974 4 20.8759 4 20.3138V3.67447C4 3.12022 4.14052 2.70258 4.42155 2.42155C4.70258 2.14052 5.12022 2 5.67447 2H8.42623C8.97268 2 9.38642 2.13661 9.66745 2.40984C9.95628 2.68306 10.1007 3.10461 10.1007 3.67447V20.3138C10.1007 20.8759 9.95628 21.2974 9.66745 21.5785C9.38642 21.8595 8.97268 22 8.42623 22H5.67447ZM14.5504 22C13.9883 22 13.5667 21.8595 13.2857 21.5785C13.0047 21.2974 12.8642 20.8759 12.8642 20.3138V3.67447C12.8642 3.12022 13.0047 2.70258 13.2857 2.42155C13.5667 2.14052 13.9883 2 14.5504 2H17.2787C17.8408 2 18.2623 2.13661 18.5433 2.40984C18.8244 2.68306 18.9649 3.10461 18.9649 3.67447V20.3138C18.9649 20.8759 18.8244 21.2974 18.5433 21.5785C18.2623 21.8595 17.8408 22 17.2787 22H14.5504Z" fill="black"/>
</svg>
