<svg width="24" height="24" viewBox="0 0 24 24" fill="none" xmlns="http://www.w3.org/2000/svg">
<path d="M9.16309 14.458L7.58008 14.9854L8.1084 13.4023L9.16309 14.458Z" fill="black"/>
<path d="M13.8564 7.61328C14.1593 7.31096 14.6504 7.31067 14.9531 7.61328C15.2555 7.91599 15.2554 8.40719 14.9531 8.70996L9.80176 13.8604L8.70508 12.7637L13.8564 7.61328Z" fill="black"/>
<path fill-rule="evenodd" clip-rule="evenodd" d="M12 0C18.6274 0 24 5.37258 24 12C24 18.6274 18.6274 24 12 24C5.37258 24 0 18.6274 0 12C0 5.37258 5.37258 0 12 0ZM15.3633 12.8994C15.2805 12.6572 14.9384 12.6574 14.8555 12.8994L14.6133 13.6084C14.4521 14.0802 14.0802 14.4501 13.6084 14.6113L12.8994 14.8545C12.6577 14.9375 12.6577 15.2793 12.8994 15.3623L13.6084 15.6045C14.0802 15.7657 14.452 16.1367 14.6133 16.6084L14.8555 17.3174C14.9382 17.5597 15.2805 17.5597 15.3633 17.3174L15.6064 16.6084C15.7678 16.1368 16.1378 15.7657 16.6094 15.6045L17.3193 15.3623C17.5607 15.2792 17.5608 14.9376 17.3193 14.8545L16.6094 14.6113C16.1378 14.4501 15.7677 14.08 15.6064 13.6084L15.3633 12.8994ZM15.5791 6.98633C14.9303 6.33791 13.8784 6.33797 13.2295 6.98633L7.53906 12.6768L7.4541 12.7725C7.37464 12.873 7.31224 12.9882 7.27148 13.1104L6.53027 15.335C6.3952 15.7406 6.7482 16.1282 7.14941 16.0566L7.23047 16.0361L9.45703 15.2939C9.57893 15.2532 9.69363 15.1916 9.79395 15.1123L9.88965 15.0264L15.5791 9.33691C16.2277 8.68799 16.2278 7.63519 15.5791 6.98633Z" fill="black"/>
</svg>
