<svg width="24" height="24" viewBox="0 0 24 24" fill="none" xmlns="http://www.w3.org/2000/svg">
<path d="M17.0589 13.0265C17.2462 13.0265 17.401 13.0913 17.5234 13.2209C17.653 13.3434 17.7178 13.4982 17.7178 13.6854C17.7178 13.8726 17.653 14.0311 17.5234 14.1607C17.401 14.2903 17.2462 14.3551 17.0589 14.3551H8.86064C8.66622 14.3551 8.5042 14.2903 8.37458 14.1607C8.24496 14.0311 8.18015 13.8726 8.18015 13.6854C8.18015 13.4982 8.24496 13.3434 8.37458 13.2209C8.5042 13.0913 8.66622 13.0265 8.86064 13.0265H17.0589ZM17.0589 16.7962C17.2462 16.7962 17.401 16.861 17.5234 16.9906C17.653 17.1203 17.7178 17.2823 17.7178 17.4767C17.7178 17.6567 17.653 17.8116 17.5234 17.9412C17.401 18.0636 17.2462 18.1248 17.0589 18.1248H8.86064C8.66622 18.1248 8.5042 18.0636 8.37458 17.9412C8.24496 17.8116 8.18015 17.6567 8.18015 17.4767C8.18015 17.2823 8.24496 17.1203 8.37458 16.9906C8.5042 16.861 8.66622 16.7962 8.86064 16.7962H17.0589ZM7.34844 23.1583C6.2323 23.1583 5.39338 22.8774 4.83171 22.3157C4.27724 21.7541 4 20.908 4 19.7774V3.39165C4 2.2683 4.27724 1.42219 4.83171 0.853313C5.39338 0.284438 6.2323 0 7.34844 0H12.4791C12.8824 0 13.2352 0.0288038 13.5377 0.0864114C13.8473 0.136818 14.1317 0.237631 14.391 0.388851C14.6502 0.53287 14.9166 0.745298 15.1903 1.02614L21.1419 7.08574C21.4299 7.38098 21.6459 7.66181 21.79 7.92825C21.9412 8.18748 22.042 8.47552 22.0924 8.79236C22.1428 9.1092 22.168 9.50166 22.168 9.96972V19.7774C22.168 20.9008 21.8872 21.7433 21.3255 22.3049C20.771 22.8738 19.9357 23.1583 18.8196 23.1583H7.34844ZM7.42405 21.4192H18.7331C19.2948 21.4192 19.7161 21.2752 19.9969 20.9872C20.285 20.6991 20.429 20.2851 20.429 19.745V10.0453H14.2722C13.5953 10.0453 13.0876 9.8761 12.7492 9.53766C12.4107 9.19921 12.2415 8.69155 12.2415 8.01466V1.73903H7.43485C6.87318 1.73903 6.44832 1.88665 6.16029 2.18189C5.87945 2.47713 5.73903 2.89118 5.73903 3.42405V19.745C5.73903 20.2851 5.87945 20.6991 6.16029 20.9872C6.44832 21.2752 6.86958 21.4192 7.42405 21.4192ZM14.4666 8.41431H20.0941L13.8725 2.07387V7.80943C13.8725 8.02546 13.9157 8.18028 14.0021 8.27389C14.0957 8.36751 14.2506 8.41431 14.4666 8.41431Z" fill="black"/>
</svg>
