<svg width="24" height="24" viewBox="0 0 24 24" fill="none" xmlns="http://www.w3.org/2000/svg">
<path d="M8.80512 17.2778V18.3333C8.80512 20.0823 10.2228 21.5 11.9718 21.5C13.7207 21.5 15.1385 20.0823 15.1385 18.3333V17.2778M8.80512 17.2778H15.1385M8.80512 17.2778L4.58313 17.278C4.0418 17.278 3.59542 16.8704 3.53445 16.3455L3.52734 16.222V15.6038C3.52734 15.3238 3.63864 15.0557 3.83659 14.8577L4.3757 14.3183C4.50837 14.1856 4.5829 14.0059 4.5829 13.8182V9.88874C4.5829 7.94478 5.33361 6.17615 6.56094 4.85696M15.1385 17.2778H19.3606M4.5829 2.5L21.4718 19.3889M19.3601 13.0545L19.3611 9.88889C19.3611 5.80813 16.0531 2.5 11.9723 2.5L11.7182 2.50429C10.8685 2.53299 10.0554 2.70482 9.30197 2.99697" stroke="black" stroke-width="1.8" stroke-linecap="round" stroke-linejoin="round"/>
</svg>
