<svg width="24" height="24" viewBox="0 0 24 24" fill="none" xmlns="http://www.w3.org/2000/svg">
<path d="M11.9308 2C12.1069 2 12.2746 2.03774 12.434 2.11321C12.6017 2.18868 12.761 2.29769 12.9119 2.44025L18.434 7.72327C18.5514 7.84906 18.6478 7.98742 18.7233 8.13836C18.7987 8.28931 18.8365 8.46122 18.8365 8.65409C18.8365 9.02306 18.7107 9.32914 18.4591 9.57233C18.2075 9.81551 17.9099 9.93711 17.566 9.93711C17.4067 9.93711 17.2474 9.91195 17.0881 9.86164C16.9287 9.80294 16.7778 9.7065 16.6352 9.57233L11.9308 4.95597L7.20126 9.57233C7.06709 9.71488 6.91614 9.81132 6.74843 9.86164C6.5891 9.91195 6.43396 9.93711 6.28302 9.93711C5.93082 9.93711 5.62893 9.81551 5.37736 9.57233C5.12579 9.32914 5 9.02306 5 8.65409C5 8.46122 5.03774 8.28931 5.11321 8.13836C5.18868 7.98742 5.28512 7.84906 5.40252 7.72327L10.9371 2.44025C11.0881 2.29769 11.2432 2.18868 11.4025 2.11321C11.5618 2.03774 11.7379 2 11.9308 2ZM11.9308 22C11.7379 22 11.5618 21.9623 11.4025 21.8868C11.2432 21.8113 11.0881 21.7023 10.9371 21.5597L5.40252 16.2767C5.28512 16.1509 5.18868 16.0126 5.11321 15.8616C5.03774 15.7107 5 15.5388 5 15.3459C5 14.9769 5.12579 14.6709 5.37736 14.4277C5.62893 14.1845 5.93082 14.0629 6.28302 14.0629C6.43396 14.0629 6.5891 14.0881 6.74843 14.1384C6.91614 14.1887 7.06709 14.2851 7.20126 14.4277L11.9308 19.044L16.6352 14.4277C16.7778 14.2935 16.9287 14.2013 17.0881 14.1509C17.2474 14.0922 17.4067 14.0629 17.566 14.0629C17.9099 14.0629 18.2075 14.1845 18.4591 14.4277C18.7107 14.6709 18.8365 14.9769 18.8365 15.3459C18.8365 15.5388 18.7987 15.7107 18.7233 15.8616C18.6478 16.0126 18.5514 16.1509 18.434 16.2767L12.9119 21.5597C12.761 21.7023 12.6017 21.8113 12.434 21.8868C12.2746 21.9623 12.1069 22 11.9308 22Z" fill="black"/>
</svg>
