<svg width="24" height="24" viewBox="0 0 24 24" fill="none" xmlns="http://www.w3.org/2000/svg">
<path d="M12 24C10.3451 24 8.79216 23.6863 7.34118 23.0588C5.8902 22.4392 4.61569 21.5804 3.51765 20.4824C2.41961 19.3765 1.55686 18.102 0.929412 16.6588C0.309804 15.2078 0 13.6549 0 12C0 10.3451 0.309804 8.79216 0.929412 7.34118C1.55686 5.8902 2.41961 4.61569 3.51765 3.51765C4.61569 2.41961 5.8902 1.56078 7.34118 0.941176C8.79216 0.313726 10.3451 0 12 0C13.6549 0 15.2078 0.313726 16.6588 0.941176C18.1098 1.56078 19.3843 2.41961 20.4824 3.51765C21.5804 4.61569 22.4392 5.8902 23.0588 7.34118C23.6863 8.79216 24 10.3451 24 12C24 13.6549 23.6863 15.2078 23.0588 16.6588C22.4392 18.102 21.5804 19.3765 20.4824 20.4824C19.3843 21.5804 18.1098 22.4392 16.6588 23.0588C15.2078 23.6863 13.6549 24 12 24ZM12.0118 5.88235C11.8863 5.88235 11.7686 5.90588 11.6588 5.95294C11.549 5.99216 11.4314 6.07451 11.3059 6.2L7.30588 10.0588C7.21176 10.1451 7.14118 10.2431 7.09412 10.3529C7.04706 10.4549 7.02353 10.5725 7.02353 10.7059C7.02353 10.949 7.10588 11.1529 7.27059 11.3176C7.43529 11.4745 7.64314 11.5529 7.89412 11.5529C8.17647 11.5529 8.4 11.4549 8.56471 11.2588L10.4118 9.29412L11.1176 8.55294L11.0353 10.3647V17.1765C11.0353 17.4353 11.1294 17.6588 11.3176 17.8471C11.5137 18.0275 11.7451 18.1176 12.0118 18.1176C12.2784 18.1176 12.5059 18.0275 12.6941 17.8471C12.8824 17.6588 12.9765 17.4353 12.9765 17.1765V10.3647L12.9059 8.55294L13.6118 9.29412L15.4588 11.2588C15.6157 11.4549 15.8353 11.5529 16.1176 11.5529C16.3686 11.5529 16.5765 11.4745 16.7412 11.3176C16.9137 11.1529 17 10.949 17 10.7059C17 10.5725 16.9725 10.4549 16.9176 10.3529C16.8706 10.2431 16.8 10.1451 16.7059 10.0588L12.7176 6.2C12.5922 6.07451 12.4745 5.99216 12.3647 5.95294C12.2549 5.90588 12.1373 5.88235 12.0118 5.88235Z" fill="black"/>
</svg>
