<svg width="24" height="24" viewBox="0 0 24 24" fill="none" xmlns="http://www.w3.org/2000/svg">
<path d="M16.9079 2C17.2376 2 17.511 2.03425 17.7356 2.09394C17.9602 2.15362 18.1766 2.25314 18.3755 2.40085C18.5744 2.54856 18.8016 2.74723 19.0572 2.99702C19.3128 3.24681 20.7518 4.67669 21.002 4.93246C21.2521 5.18821 21.4513 5.42178 21.599 5.62349C21.7468 5.82521 21.8463 6.03802 21.906 6.26244C21.9657 6.48685 21.9999 6.76247 21.9999 7.09763C21.9999 7.43278 21.9999 9.96221 21.9999 10.3203C21.9999 10.6783 21.9994 10.9526 21.9404 11.2243C21.8814 11.4959 21.8215 11.6431 21.7097 11.8976C21.598 12.1521 21.3914 12.6084 21.0475 12.9523C20.5713 13.4285 20.3624 13.5867 20.0951 13.4285C19.8766 13.2992 19.7426 12.7907 19.619 12.4761C19.4953 12.1616 19.2246 11.3694 19.4218 11.2085C19.619 11.0476 19.5664 11.0648 19.6459 10.9853C19.7255 10.9057 19.7792 10.8231 19.8161 10.7379C19.8531 10.6526 19.8766 10.5421 19.8766 10.4058C19.8766 10.2695 19.8766 7.42516 19.8766 7.20923C19.8766 6.99331 19.7994 6.80835 19.6459 6.65492C19.4924 6.50143 17.4966 4.50646 17.3431 4.35304C17.1896 4.19962 17.0021 4.12241 16.7804 4.12238C16.5586 4.12236 13.7153 4.12236 13.5904 4.12238C13.4654 4.12241 13.363 4.14859 13.2834 4.19121C13.2039 4.23383 13.1185 4.29305 13.0277 4.37815C12.9363 4.46375 5.016 12.3778 4.77158 12.6221C4.52715 12.8665 4.40237 13.1172 4.39677 13.3643C4.39116 13.6114 4.51876 13.8585 4.77995 14.114C5.04114 14.3695 9.46672 18.7983 9.89804 19.2293C10.3293 19.6602 10.8448 19.5957 11.1843 19.4125C11.5238 19.2293 12 19.4575 12.4761 19.6189C12.9523 19.7804 13.3207 19.8138 13.4285 20.0951C13.5364 20.3765 13.0694 20.7293 12.7552 20.9852C12.0471 21.5617 11.3735 21.997 10.6486 21.9999C9.92373 22.0028 9.2207 21.6645 8.53272 20.9768C7.84471 20.2891 3.72023 16.1743 3.03238 15.4867C2.34453 14.7992 1.99724 14.0917 2.00002 13.3643C2.00279 12.637 2.34675 11.9349 3.02308 11.2587C3.6994 10.5825 11.2198 3.07392 11.4587 2.83519C11.6974 2.59663 11.9135 2.41786 12.1153 2.29855C12.3171 2.17923 12.5415 2.09931 12.7803 2.05952C13.0191 2.01974 13.3177 2 13.6759 2H16.9079Z" fill="black"/>
<path d="M17.2585 13.754C17.4068 13.3198 18.0216 13.3198 18.1699 13.754L18.6033 15.0254C18.8922 15.8714 19.557 16.5362 20.403 16.8251L21.6744 17.2585C22.1086 17.4068 22.1086 18.0216 21.6744 18.1699L20.403 18.6033C19.557 18.8922 18.8922 19.557 18.6033 20.403L18.1699 21.6744C18.0216 22.1085 17.4068 22.1085 17.2585 21.6744L16.8251 20.403C16.5362 19.557 15.8714 18.8922 15.0254 18.6033L13.754 18.1699C13.3199 18.0216 13.3199 17.4068 13.754 17.2585L15.0254 16.8251C15.8714 16.5362 16.5362 15.8714 16.8251 15.0254L17.2585 13.754Z" fill="black"/>
<path d="M15.7397 6.9358C16.115 6.9358 16.428 7.06416 16.6781 7.31991C16.9338 7.56994 17.0613 7.88241 17.0613 8.2574C17.0613 8.62108 16.9339 8.9308 16.6781 9.18653C16.428 9.44227 16.115 9.57064 15.7397 9.57064C15.3702 9.57061 15.0571 9.44225 14.8013 9.18653C14.5513 8.93082 14.4265 8.62102 14.4265 8.2574C14.4265 7.88246 14.5513 7.56992 14.8013 7.31991C15.0571 7.06418 15.3702 6.93582 15.7397 6.9358Z" fill="black"/>
</svg>
