<svg width="24" height="24" viewBox="0 0 24 24" fill="none" xmlns="http://www.w3.org/2000/svg">
<path d="M9.78161 8.28119C9.55301 8.50979 9.55301 8.88042 9.78161 9.10902L11.7091 11.0366H4.34187C3.56562 11.0366 2.82117 11.3449 2.27229 11.8938C1.7234 12.4427 1.41504 13.1871 1.41504 13.9634V16.3049C1.41504 16.6281 1.67712 16.8902 2.0004 16.8902C2.32369 16.8902 2.58577 16.6281 2.58577 16.3049V13.9634C2.58577 13.4976 2.77079 13.051 3.10012 12.7216C3.42945 12.3923 3.87612 12.2073 4.34187 12.2073H11.7092L9.78161 14.1348C9.55301 14.3634 9.55301 14.7341 9.78161 14.9627C10.0102 15.1913 10.3808 15.1913 10.6094 14.9627L13.5363 12.0359C13.5937 11.9785 13.6367 11.9121 13.6652 11.8413C13.6926 11.7736 13.7077 11.6995 13.7077 11.6219C13.7077 11.4694 13.6494 11.3305 13.5538 11.2263C13.5474 11.2194 13.5409 11.2126 13.5342 11.2059L10.6094 8.28119C10.3808 8.05259 10.0102 8.05259 9.78161 8.28119Z" fill="black"/>
<path d="M23.3794 11.5541L20.6756 13.8073C20.5671 13.8978 20.4094 13.8978 20.3009 13.8073L17.5971 11.5541C17.3868 11.3789 17.5107 11.0366 17.7844 11.0366H23.192C23.4658 11.0366 23.5897 11.3789 23.3794 11.5541Z" fill="black"/>
</svg>
