<svg width="24" height="24" viewBox="0 0 24 24" fill="none" xmlns="http://www.w3.org/2000/svg">
<path d="M12.8552 10.6926C12.8943 10.7921 12.9539 10.8853 13.0343 10.9656C13.1128 11.0442 13.2036 11.103 13.3005 11.142C13.3923 11.1791 13.4926 11.1996 13.5976 11.1999C13.5984 11.1999 13.5992 11.2 13.6 11.2L18.4 11.2C18.8418 11.2 19.2 10.8418 19.2 10.4C19.2 9.95812 18.8418 9.59995 18.4 9.59995L15.5314 9.59995L19.7657 5.36564C20.0781 5.05322 20.0781 4.54668 19.7657 4.23427C19.4533 3.92185 18.9467 3.92185 18.6343 4.23427L14.4 8.46857L14.4 5.59995C14.4 5.15812 14.0418 4.79995 13.6 4.79995C13.1582 4.79995 12.8 5.15812 12.8 5.59995L12.8 10.4C12.8 10.4141 12.8004 10.4282 12.8011 10.4421" fill="black"/>
<path d="M4.23451 18.6343C3.92209 18.9467 3.92209 19.4533 4.23451 19.7657C4.54693 20.0781 5.05346 20.0781 5.36588 19.7657L9.6002 15.5314L9.6002 18.4C9.6002 18.8418 9.95837 19.2 10.4002 19.2C10.842 19.2 11.2002 18.8418 11.2002 18.4L11.2002 13.6001C11.2002 13.6002 11.2002 13.6001 11.2002 13.6001C11.2002 13.4886 11.1774 13.3822 11.1361 13.2857C11.1021 13.2061 11.0547 13.1309 10.9937 13.0635C10.9752 13.0431 10.9557 13.0237 10.9353 13.0053C10.8717 12.948 10.8012 12.9027 10.7266 12.8694C10.6269 12.8248 10.5164 12.8 10.4002 12.8L5.6002 12.8C5.15837 12.8 4.8002 13.1582 4.8002 13.6C4.8002 14.0418 5.15837 14.4 5.6002 14.4L8.46884 14.4L4.23451 18.6343Z" fill="black"/>
</svg>
