<svg width="24" height="24" viewBox="0 0 24 24" fill="none" xmlns="http://www.w3.org/2000/svg">
<path d="M21.54 8.33851C21.54 9.35821 21.3647 10.2791 21.0142 11.1013C20.6701 11.9234 20.1985 12.5766 19.5994 13.061C19.0067 13.5454 18.3375 13.7875 17.5919 13.7875H16.2726C16.5785 13.386 16.8653 12.924 17.133 12.4014C17.4007 11.8788 17.6205 11.2893 17.7926 10.6328C17.9711 9.97641 18.0635 9.24668 18.0698 8.44367C18.0953 7.322 17.9009 6.28637 17.4867 5.33677C17.0724 4.38718 16.4351 3.58416 15.5748 2.92773H17.2381C18.0539 2.92773 18.7836 3.17309 19.4273 3.66383C20.0774 4.15456 20.5904 4.81099 20.9664 5.63312C21.3488 6.44888 21.54 7.35068 21.54 8.33851ZM16.7028 8.41499C16.6901 9.17976 16.6136 9.86806 16.4734 10.4799C16.3332 11.0917 16.1228 11.6685 15.8424 12.2102C15.562 12.7519 15.2083 13.3064 14.7813 13.8736C14.042 14.8614 13.2263 15.9385 12.334 17.1047C11.4418 18.2647 10.6324 19.552 9.90586 20.9669C9.70192 21.362 9.49161 21.6711 9.27492 21.8941C9.05824 22.1172 8.77145 22.2287 8.41455 22.2287C8.00667 22.2287 7.66571 22.0917 7.39166 21.8177C7.11762 21.55 6.9806 21.1772 6.9806 20.6992C6.9806 20.2594 7.06345 19.791 7.22915 19.2939C7.39485 18.7968 7.58604 18.2997 7.80273 17.8026C8.01942 17.3055 8.20742 16.8371 8.36675 16.3973C8.53245 15.9576 8.6153 15.5784 8.6153 15.2597C8.6153 14.9156 8.49103 14.6479 8.24248 14.4567C7.99392 14.2591 7.65934 14.1604 7.23871 14.1604H3.78766C3.44989 14.1604 3.14716 14.0807 2.87949 13.9214C2.61182 13.7557 2.39832 13.539 2.23899 13.2713C2.07966 12.9973 2 12.6945 2 12.3631C2 12.0827 2.04461 11.831 2.13384 11.6079C2.22306 11.3849 2.34415 11.2096 2.4971 11.0821C2.63094 10.9611 2.6405 10.8495 2.52578 10.7476C2.40469 10.6201 2.30591 10.448 2.22943 10.2313C2.15933 10.0083 2.12428 9.77884 2.12428 9.54303C2.12428 9.218 2.19438 8.92484 2.33459 8.66354C2.4748 8.39587 2.65962 8.19512 2.88905 8.06128C3.02926 7.97206 3.05475 7.86053 2.96553 7.72669C2.7361 7.43353 2.62138 7.06389 2.62138 6.61777C2.62138 6.23538 2.72654 5.90398 2.93685 5.62356C3.15354 5.34314 3.41483 5.12964 3.72074 4.98306C3.82909 4.93845 3.84821 4.85879 3.7781 4.74407C3.72074 4.63573 3.66976 4.51145 3.62515 4.37124C3.58691 4.23103 3.56779 4.06852 3.56779 3.8837C3.56779 3.41846 3.72393 3.05201 4.03621 2.78433C4.35487 2.51029 4.72132 2.32228 5.13558 2.22031C5.40962 2.14384 5.77926 2.08648 6.2445 2.04824C6.71611 2.00363 7.26739 1.98451 7.89833 1.99088L9.22712 2.00044C10.3743 2.01319 11.4099 2.18207 12.334 2.5071C13.2581 2.83213 14.0484 3.28462 14.7048 3.86458C15.3613 4.43816 15.8615 5.11371 16.2057 5.89123C16.5562 6.66238 16.7219 7.50363 16.7028 8.41499Z" fill="black"/>
</svg>
