<svg width="24" height="25" viewBox="0 0 24 25" fill="none" xmlns="http://www.w3.org/2000/svg">
<path d="M11.9943 24C10.3436 24 8.79129 23.6856 7.33743 23.0568C5.89115 22.4356 4.61902 21.5758 3.52106 20.4773C2.4231 19.3788 1.55987 18.1061 0.931377 16.6591C0.310459 15.2045 0 13.6515 0 12C0 10.3409 0.310459 8.78788 0.931377 7.34091C1.55987 5.88636 2.4231 4.60985 3.52106 3.51136C4.61902 2.41288 5.89115 1.55303 7.33743 0.931818C8.79129 0.310606 10.3436 0 11.9943 0C13.6526 0 15.2049 0.310606 16.6512 0.931818C18.1051 1.55303 19.381 2.41288 20.4789 3.51136C21.5769 4.60985 22.4363 5.88636 23.0573 7.34091C23.6858 8.78788 24 10.3409 24 12C24 13.6515 23.6858 15.2045 23.0573 16.6591C22.4363 18.1061 21.5769 19.3788 20.4789 20.4773C19.381 21.5758 18.1051 22.4356 16.6512 23.0568C15.2049 23.6856 13.6526 24 11.9943 24ZM10.7449 17.6932C10.9948 17.6932 11.222 17.6364 11.4264 17.5227C11.6384 17.4015 11.8202 17.2311 11.9716 17.0114L17.2532 8.94318C17.3441 8.79924 17.416 8.65152 17.469 8.5C17.5296 8.34848 17.5599 8.20076 17.5599 8.05682C17.5599 7.70833 17.4274 7.42045 17.1623 7.19318C16.9049 6.96591 16.6058 6.85227 16.265 6.85227C15.8183 6.85227 15.4434 7.0947 15.1406 7.57955L10.7222 14.6136L8.7345 12.1818C8.58306 11.9924 8.42404 11.8561 8.25745 11.7727C8.09844 11.6894 7.91292 11.6477 7.7009 11.6477C7.36015 11.6477 7.06484 11.7727 6.81496 12.0227C6.56507 12.2652 6.44013 12.5606 6.44013 12.9091C6.44013 13.0758 6.47042 13.2348 6.531 13.3864C6.59158 13.5379 6.68623 13.6932 6.81496 13.8523L9.47279 17.0341C9.65452 17.2538 9.84761 17.4205 10.0521 17.5341C10.2565 17.6402 10.4875 17.6932 10.7449 17.6932Z" fill="black"/>
</svg>
