<svg width="24" height="24" viewBox="0 0 24 24" fill="none" xmlns="http://www.w3.org/2000/svg">
<path d="M6.06579 21.5971C5.72349 21.5971 5.4582 21.5116 5.26994 21.3404C5.08167 21.175 4.97898 20.9667 4.96186 20.7157C4.95045 20.4647 5.03603 20.2194 5.21859 19.9798C5.3441 19.82 5.49243 19.6146 5.66358 19.3636C5.83473 19.1183 6.00303 18.8616 6.16848 18.5934C6.33963 18.3196 6.48796 18.0657 6.61347 17.8318C5.71778 17.3982 4.93619 16.842 4.2687 16.1631C3.60692 15.4842 3.09347 14.7226 2.72835 13.8782C2.36322 13.0339 2.18066 12.1439 2.18066 11.2083C2.18066 10.1072 2.43454 9.0746 2.94229 8.11045C3.45574 7.1406 4.16316 6.2934 5.06455 5.56886C5.97165 4.83862 7.02423 4.26812 8.22229 3.85735C9.42605 3.44659 10.7154 3.24121 12.0903 3.24121C13.4652 3.24121 14.7517 3.44659 15.9497 3.85735C17.1535 4.26812 18.2089 4.83862 19.116 5.56886C20.0231 6.2934 20.7306 7.1406 21.2383 8.11045C21.7461 9.0746 21.9999 10.1072 21.9999 11.2083C21.9999 12.1268 21.8288 12.9911 21.4865 13.8012C21.1442 14.6113 20.6564 15.3501 20.0231 16.0176C19.3956 16.6794 18.6454 17.2499 17.7725 17.7291C16.9053 18.2026 15.9383 18.5649 14.8715 18.8159C13.8047 19.067 12.6665 19.1811 11.457 19.1582C10.858 19.5918 10.2162 19.9912 9.53159 20.3563C8.84699 20.7271 8.19376 21.0266 7.57191 21.2548C6.95577 21.483 6.45373 21.5971 6.06579 21.5971ZM7.08413 19.86C7.33516 19.7573 7.65749 19.5918 8.05114 19.3636C8.44478 19.1411 8.84984 18.8901 9.26631 18.6106C9.68848 18.3367 10.0707 18.0743 10.413 17.8233C10.5785 17.692 10.7382 17.5979 10.8922 17.5409C11.0463 17.4781 11.2146 17.4467 11.3971 17.4467C11.5455 17.4524 11.6767 17.4581 11.7908 17.4638C11.9106 17.4638 12.0104 17.4638 12.0903 17.4638C13.2313 17.4638 14.2953 17.3012 15.2823 16.9761C16.2749 16.6509 17.1449 16.203 17.8923 15.6325C18.6397 15.0563 19.2244 14.3917 19.6466 13.6386C20.0688 12.8799 20.2799 12.0697 20.2799 11.2083C20.2799 10.3468 20.0688 9.53956 19.6466 8.7865C19.2244 8.03343 18.6397 7.3688 17.8923 6.79259C17.1449 6.21638 16.2749 5.76569 15.2823 5.4405C14.2953 5.11531 13.2313 4.95272 12.0903 4.95272C10.955 4.95272 9.89101 5.11531 8.89833 5.4405C7.90566 5.76569 7.03564 6.21638 6.28828 6.79259C5.54092 7.3688 4.95616 8.03343 4.53399 8.7865C4.11752 9.53956 3.90929 10.3468 3.90929 11.2083C3.90929 11.9556 4.06903 12.6659 4.38851 13.3391C4.7137 14.0066 5.18436 14.6199 5.8005 15.179C6.41665 15.7324 7.16115 16.2144 8.03402 16.6252C8.30786 16.7564 8.47046 16.9219 8.5218 17.1215C8.57885 17.3155 8.54462 17.5323 8.41911 17.7719C8.25937 18.0629 8.03973 18.3966 7.76018 18.7731C7.48063 19.1554 7.23247 19.4806 7.01567 19.7487C6.97574 19.7943 6.96433 19.8286 6.98144 19.8514C6.99856 19.8799 7.03279 19.8828 7.08413 19.86Z" fill="black"/>
</svg>
