<svg width="24" height="25" viewBox="0 0 24 25" fill="none" xmlns="http://www.w3.org/2000/svg">
<circle cx="12" cy="12" r="11.1" stroke="black" stroke-width="1.8"/>
<path d="M8.68354 16.6163C8.43876 16.6163 8.25519 16.5551 8.1328 16.4326C8.01041 16.302 7.94922 16.1347 7.94922 15.9306V8.08163C7.94922 7.86938 8.01041 7.70203 8.1328 7.57959C8.25519 7.44897 8.43876 7.38367 8.68354 7.38367H9.93188C10.1848 7.38367 10.3725 7.44897 10.4949 7.57959C10.6172 7.70203 10.6784 7.86938 10.6784 8.08163V15.9306C10.6784 16.1347 10.6172 16.302 10.4949 16.4326C10.3725 16.5551 10.1848 16.6163 9.93188 16.6163H8.68354ZM14.0685 16.6163C13.8238 16.6163 13.6402 16.5551 13.5178 16.4326C13.4036 16.302 13.3465 16.1347 13.3465 15.9306V8.08163C13.3465 7.86938 13.4036 7.70203 13.5178 7.57959C13.6402 7.44897 13.8238 7.38367 14.0685 7.38367H15.3169C15.5617 7.38367 15.7452 7.44897 15.8676 7.57959C15.99 7.70203 16.0512 7.86938 16.0512 8.08163V15.9306C16.0512 16.1347 15.99 16.302 15.8676 16.4326C15.7452 16.5551 15.5617 16.6163 15.3169 16.6163H14.0685Z" fill="black"/>
</svg>
