<svg width="24" height="24" viewBox="0 0 24 24" fill="none" xmlns="http://www.w3.org/2000/svg">
<circle cx="12" cy="12" r="11.1" stroke="black" stroke-width="1.8"/>
<path d="M10.2949 16.3628C10.1231 16.4673 9.95137 16.5121 9.77963 16.4972C9.60789 16.4823 9.46228 16.4225 9.34281 16.318C9.23081 16.206 9.1748 16.0604 9.1748 15.8812V8.09683C9.1748 7.91762 9.23454 7.77575 9.35401 7.67121C9.47348 7.56667 9.61909 7.51067 9.79083 7.5032C9.97004 7.48827 10.138 7.5256 10.2949 7.61521L16.6791 11.401C16.8285 11.4906 16.9293 11.6138 16.9816 11.7706C17.0338 11.9199 17.0338 12.073 16.9816 12.2298C16.9368 12.3791 16.8359 12.5024 16.6791 12.5994L10.2949 16.3628Z" fill="black"/>
</svg>
