<svg width="24" height="24" viewBox="0 0 24 24" fill="none" xmlns="http://www.w3.org/2000/svg">
<path d="M4.10809 12.8143C3.84052 12.8143 3.61076 12.7213 3.41881 12.5351C3.22685 12.349 3.13088 12.1134 3.13088 11.8284V10.1968C3.13088 9.52787 3.31701 9.0189 3.68929 8.6699C4.06156 8.31508 4.5967 8.13766 5.29472 8.13766H7.65051V7.04702C7.65051 6.8318 7.70577 6.66311 7.81629 6.54096C7.92681 6.41881 8.0635 6.35191 8.22637 6.34028C8.39506 6.32865 8.56665 6.39263 8.74115 6.53223L11.4372 8.61755C11.6117 8.75715 11.699 8.93456 11.699 9.14978C11.699 9.365 11.6117 9.54241 11.4372 9.68202L8.74115 11.7673C8.57247 11.9011 8.40378 11.9651 8.23509 11.9593C8.06641 11.9476 7.92681 11.8808 7.81629 11.7586C7.70577 11.6365 7.65051 11.4678 7.65051 11.2525V10.0746H5.50412C5.36452 10.0746 5.25691 10.1125 5.18129 10.1881C5.11149 10.2637 5.07659 10.3684 5.07659 10.5022V11.8546C5.07659 12.1163 4.98061 12.3432 4.78866 12.5351C4.60252 12.7213 4.37567 12.8143 4.10809 12.8143ZM14.1071 7.65778C13.8803 7.65778 13.6883 7.57635 13.5313 7.41348C13.3742 7.25061 13.2957 7.05574 13.2957 6.82889C13.2957 6.59622 13.3742 6.40136 13.5313 6.2443C13.6883 6.08143 13.8803 6 14.1071 6H20.1711C20.398 6 20.5928 6.08143 20.7557 6.2443C20.9186 6.40136 21 6.59622 21 6.82889C21 7.05574 20.9186 7.25061 20.7557 7.41348C20.5928 7.57635 20.398 7.65778 20.1711 7.65778H14.1071ZM14.1071 13.221C13.8803 13.221 13.6883 13.1396 13.5313 12.9767C13.3742 12.8139 13.2957 12.619 13.2957 12.3921C13.2957 12.1595 13.3742 11.9646 13.5313 11.8076C13.6883 11.6447 13.8803 11.5633 14.1071 11.5633H20.1711C20.398 11.5633 20.5928 11.6447 20.7557 11.8076C20.9186 11.9646 21 12.1595 21 12.3921C21 12.619 20.9186 12.8139 20.7557 12.9767C20.5928 13.1396 20.398 13.221 20.1711 13.221H14.1071ZM3.82016 18.793C3.59331 18.793 3.39845 18.7116 3.23558 18.5487C3.07853 18.38 3 18.1852 3 17.9641C3 17.7315 3.07853 17.5366 3.23558 17.3795C3.39845 17.2167 3.59331 17.1352 3.82016 17.1352H20.1711C20.398 17.1352 20.5928 17.2167 20.7557 17.3795C20.9186 17.5366 21 17.7315 21 17.9641C21 18.191 20.9186 18.3858 20.7557 18.5487C20.5928 18.7116 20.398 18.793 20.1711 18.793H3.82016Z" fill="black"/>
</svg>
