<svg width="24" height="24" viewBox="0 0 24 24" fill="none" xmlns="http://www.w3.org/2000/svg">
<path d="M12 8.04811C11.7136 8.04811 11.4645 7.94502 11.2526 7.73883C11.0464 7.52692 10.9433 7.27778 10.9433 6.99141V3.0567C10.9433 2.77033 11.0464 2.52406 11.2526 2.31787C11.4588 2.10596 11.7079 2 12 2C12.2921 2 12.5412 2.10596 12.7474 2.31787C12.9536 2.52406 13.0567 2.77033 13.0567 3.0567V6.99141C13.0567 7.27778 12.9536 7.52692 12.7474 7.73883C12.5412 7.94502 12.2921 8.04811 12 8.04811ZM14.7921 9.2079C14.5859 9.00172 14.4828 8.75258 14.4828 8.46048C14.4828 8.16266 14.5859 7.91065 14.7921 7.70447L17.567 4.92955C17.7789 4.72337 18.0309 4.62028 18.323 4.62028C18.6151 4.62028 18.8643 4.72337 19.0704 4.92955C19.2766 5.13001 19.3797 5.37915 19.3797 5.67698C19.3797 5.96907 19.2766 6.21821 19.0704 6.4244L16.2869 9.2079C16.0865 9.41409 15.8373 9.51718 15.5395 9.51718C15.2474 9.51718 14.9983 9.41409 14.7921 9.2079ZM15.9433 12C15.9433 11.7079 16.0493 11.4588 16.2612 11.2526C16.4731 11.0464 16.7251 10.9433 17.0172 10.9433H20.9433C21.2297 10.9433 21.4759 11.0464 21.6821 11.2526C21.894 11.4588 22 11.7079 22 12C22 12.2921 21.8969 12.5412 21.6907 12.7474C21.4845 12.9536 21.2354 13.0567 20.9433 13.0567H17.0172C16.7251 13.0567 16.4731 12.9536 16.2612 12.7474C16.0493 12.5412 15.9433 12.2921 15.9433 12ZM14.7921 14.7921C14.9983 14.5859 15.2474 14.4828 15.5395 14.4828C15.8373 14.4828 16.0865 14.5859 16.2869 14.7921L19.0704 17.567C19.2766 17.7732 19.3797 18.0223 19.3797 18.3144C19.3797 18.6123 19.2766 18.8643 19.0704 19.0704C18.8643 19.2709 18.6151 19.3711 18.323 19.3711C18.0309 19.3711 17.7789 19.2709 17.567 19.0704L14.7921 16.2869C14.5859 16.0865 14.4828 15.8402 14.4828 15.5481C14.4828 15.2503 14.5859 14.9983 14.7921 14.7921ZM12 15.9519C12.2921 15.9519 12.5412 16.0578 12.7474 16.2698C12.9536 16.4759 13.0567 16.7222 13.0567 17.0086V20.9347C13.0567 21.2268 12.9536 21.4759 12.7474 21.6821C12.5412 21.894 12.2921 22 12 22C11.7079 22 11.4588 21.894 11.2526 21.6821C11.0464 21.4759 10.9433 21.2268 10.9433 20.9347V17.0086C10.9433 16.7222 11.0464 16.4759 11.2526 16.2698C11.4645 16.0578 11.7136 15.9519 12 15.9519ZM9.2079 14.7921C9.41982 14.9983 9.52291 15.2503 9.51718 15.5481C9.51718 15.8402 9.41409 16.0865 9.2079 16.2869L6.43299 19.0704C6.2268 19.2709 5.9748 19.3711 5.67698 19.3711C5.38488 19.3711 5.13574 19.2709 4.92955 19.0704C4.72337 18.8643 4.62028 18.6123 4.62028 18.3144C4.62028 18.0223 4.72337 17.7732 4.92955 17.567L7.71306 14.7921C7.91352 14.5859 8.15979 14.4828 8.45189 14.4828C8.74971 14.4828 9.00172 14.5859 9.2079 14.7921ZM8.0567 12C8.0567 12.2921 7.95074 12.5412 7.73883 12.7474C7.52692 12.9536 7.27778 13.0567 6.99141 13.0567H3.0567C2.77033 13.0567 2.52119 12.9536 2.30928 12.7474C2.10309 12.5412 2 12.2921 2 12C2 11.7079 2.10309 11.4588 2.30928 11.2526C2.52119 11.0464 2.77033 10.9433 3.0567 10.9433H6.99141C7.27778 10.9433 7.52692 11.0464 7.73883 11.2526C7.95074 11.4588 8.0567 11.7079 8.0567 12ZM9.2079 9.2079C9.00172 9.41409 8.74971 9.51718 8.45189 9.51718C8.15979 9.51718 7.91352 9.41409 7.71306 9.2079L4.92955 6.4244C4.72337 6.21821 4.62028 5.96907 4.62028 5.67698C4.62028 5.37915 4.72337 5.13001 4.92955 4.92955C5.13574 4.72337 5.38488 4.62028 5.67698 4.62028C5.9748 4.62028 6.2268 4.72337 6.43299 4.92955L9.2079 7.70447C9.41409 7.91065 9.51718 8.16266 9.51718 8.46048C9.51718 8.75258 9.41409 9.00172 9.2079 9.2079Z" fill="black"/>
</svg>
