<svg width="24" height="24" viewBox="0 0 24 24" fill="none" xmlns="http://www.w3.org/2000/svg">
<path d="M21.2045 15.3918L18.5693 12.7577C18.3588 12.5472 18.2384 12.4279 18.144 12.3478C18.1125 12.3211 18.0918 12.3063 18.0804 12.2985C18.0669 12.2961 18.0533 12.2958 18.0399 12.2985C18.0282 12.3066 18.0085 12.3223 17.9785 12.3478C17.9313 12.3878 17.8777 12.4374 17.8097 12.5034L17.5532 12.7577L15.2896 15.0191L20.1555 19.885C20.5032 19.6795 20.7879 19.3806 20.9721 19.019L21.0346 18.8721C21.0932 18.7083 21.1386 18.4871 21.1661 18.1498C21.2037 17.6895 21.2045 17.0959 21.2045 16.2326V15.3918ZM11.9781 14.3198C11.9663 14.328 11.9461 14.343 11.9167 14.368C11.8696 14.408 11.8159 14.4577 11.7479 14.5237L11.4925 14.778L6.08839 20.181C6.2891 20.1818 6.50796 20.1843 6.74719 20.1843H17.2528C17.4916 20.1843 17.7101 20.1818 17.9105 20.181L12.5075 14.778C12.2973 14.5678 12.1776 14.4481 12.0833 14.368C12.0532 14.3425 12.0325 14.3279 12.0208 14.3198C12.0065 14.317 11.9923 14.3169 11.9781 14.3198ZM9.08201 8.95954C9.08201 8.33977 8.57927 7.83731 7.95954 7.83707C7.33962 7.83707 6.83707 8.33962 6.83707 8.95954C6.83731 9.57929 7.33976 10.082 7.95954 10.082C8.57913 10.0818 9.08178 9.57914 9.08201 8.95954ZM21.2045 7.74719C21.2045 6.8837 21.2037 6.28922 21.1661 5.8289C21.1294 5.37983 21.0618 5.13708 20.9721 4.96074V4.95964C20.7932 4.60872 20.5211 4.31495 20.1872 4.11012L20.0404 4.0279C19.8639 3.93801 19.6206 3.87065 19.1711 3.83388C18.7108 3.79627 18.1163 3.79552 17.2528 3.79552H6.74719C5.8837 3.79552 5.28922 3.79627 4.8289 3.83388C4.49198 3.86144 4.27136 3.90687 4.10763 3.96542L3.96074 4.0279C3.60942 4.20691 3.31504 4.47953 3.11012 4.81385L3.0279 4.96074C2.93816 5.13709 2.87061 5.37983 2.83388 5.8289C2.79627 6.28922 2.79552 6.8837 2.79552 7.74719V16.2326C2.79552 17.0959 2.7963 17.6895 2.83388 18.1498C2.87061 18.5992 2.93808 18.8426 3.0279 19.019L3.11012 19.1659C3.2917 19.4621 3.54413 19.7079 3.84345 19.885L10.222 13.5075L10.4983 13.2346C10.5874 13.1483 10.6731 13.0683 10.7548 12.9989C10.926 12.8535 11.1373 12.7028 11.4103 12.6142L11.555 12.5736C11.8961 12.4917 12.2542 12.5051 12.5897 12.6142L12.7827 12.6909C12.9655 12.7776 13.1167 12.8898 13.2452 12.9989C13.4085 13.1375 13.5885 13.3181 13.778 13.5075L14.0202 13.7498L16.2838 11.4873L16.56 11.2144C16.6491 11.1281 16.7349 11.048 16.8165 10.9787C16.9449 10.8697 17.0955 10.7573 17.278 10.6707L17.472 10.5928C17.8545 10.4686 18.2668 10.4689 18.6493 10.5928H18.6504C18.9236 10.6815 19.1357 10.8332 19.307 10.9787C19.4703 11.1173 19.6504 11.2979 19.8398 11.4873L21.2045 12.852V7.74719ZM10.8775 8.95954C10.8773 10.571 9.57099 11.8773 7.95954 11.8775C6.3479 11.8775 5.0407 10.5712 5.04046 8.95954C5.04046 7.34774 6.34774 6.04046 7.95954 6.04046C9.57114 6.0407 10.8775 7.34789 10.8775 8.95954ZM23 16.2326C23 17.0665 23.0011 17.7462 22.9562 18.2967C22.916 18.7873 22.8361 19.2355 22.6558 19.6559L22.5725 19.8346C22.2429 20.4815 21.741 21.0224 21.1256 21.3999L20.8548 21.5512C20.383 21.7915 19.8778 21.8901 19.3169 21.9359C18.7665 21.9809 18.0867 21.9798 17.2528 21.9798H6.74719C5.91334 21.9798 5.23353 21.9809 4.68311 21.9359C4.19253 21.8958 3.74424 21.8158 3.32387 21.6356L3.14519 21.5512C2.49843 21.2217 1.95735 20.7207 1.57987 20.1053L1.42751 19.8346C1.18725 19.3629 1.08968 18.8574 1.04385 18.2967C0.998878 17.7462 1 17.0665 1 16.2326V7.74719C1 6.91334 0.998878 6.23353 1.04385 5.68311C1.08966 5.12241 1.18727 4.61689 1.42751 4.14519L1.57987 3.87444C1.95734 3.25905 2.49838 2.75707 3.14519 2.42751L3.32387 2.3442C3.74426 2.16395 4.1925 2.08394 4.68311 2.04385C5.23353 1.99888 5.91333 2 6.74719 2H17.2528C18.0867 2 18.7665 1.99888 19.3169 2.04385C19.8776 2.08966 20.3831 2.18728 20.8548 2.42751L21.1256 2.57987C21.741 2.95736 22.2429 3.49838 22.5725 4.14519L22.6558 4.32387C22.8361 4.74426 22.9161 5.19251 22.9562 5.68311C23.0011 6.23353 23 6.91334 23 7.74719V16.2326Z" fill="black"/>
</svg>
