<svg width="24" height="24" viewBox="0 0 24 24" fill="none" xmlns="http://www.w3.org/2000/svg">
<path d="M17 12.1782C16.9949 12.0098 16.9594 11.8558 16.8935 11.7162C16.8275 11.5767 16.726 11.442 16.589 11.312L8.96347 4.31038C8.74531 4.10346 8.47641 4 8.15677 4C7.94368 4 7.75089 4.04812 7.57839 4.14436C7.40081 4.24061 7.26129 4.37053 7.15982 4.53415C7.05327 4.69776 7 4.88062 7 5.08273C7 5.38108 7.11923 5.64334 7.35769 5.86951L14.2527 12.171L7.35769 18.4797C7.11923 18.7107 7 18.9729 7 19.2665C7 19.4734 7.05327 19.6587 7.15982 19.8223C7.26129 19.9859 7.40081 20.1158 7.57839 20.2121C7.75089 20.3131 7.94368 20.3636 8.15677 20.3636C8.47641 20.3636 8.74531 20.2578 8.96347 20.046L16.589 13.0444C16.7311 12.9145 16.8351 12.7797 16.9011 12.6402C16.967 12.4958 17 12.3418 17 12.1782Z" fill="black"/>
</svg>
