<svg width="24" height="24" viewBox="0 0 24 24" fill="none" xmlns="http://www.w3.org/2000/svg">
<path d="M5.1275 20.7446C4.42832 20.6247 3.89894 20.3551 3.53937 19.9355C3.17979 19.5227 3 18.9733 3 18.2875V4.19407C3 3.6547 3.1132 3.19857 3.3396 2.82568C3.566 2.45278 3.8823 2.18976 4.28848 2.0366C4.70133 1.87679 5.18077 1.8435 5.72679 1.93672L16.7538 3.88443C17.8392 4.07754 18.6516 4.42047 19.191 4.91322C19.7303 5.39931 20 6.18173 20 7.26046V19.566C20 20.3451 19.8568 20.9943 19.5705 21.5137C19.2908 22.0397 18.888 22.4093 18.3619 22.6224C17.8425 22.8355 17.2233 22.8787 16.5041 22.7522L5.1275 20.7446ZM5.7168 18.7969L16.4542 20.6947C16.9269 20.7879 17.2998 20.7146 17.5729 20.4749C17.8525 20.2419 17.9924 19.8756 17.9924 19.3762V7.24048C17.9924 6.82097 17.8725 6.50801 17.6328 6.30159C17.3997 6.0885 17.0568 5.94201 16.604 5.8621L5.90658 3.98431C5.62691 3.93104 5.40717 3.96767 5.24736 4.09418C5.08754 4.2207 5.00764 4.41048 5.00764 4.66351V17.9379C5.00764 18.1843 5.06424 18.3774 5.17744 18.5172C5.29064 18.6637 5.47043 18.7569 5.7168 18.7969ZM17.2133 5.48255V2.90558C17.2133 2.49939 17.0768 2.2064 16.8038 2.02662C16.5307 1.84017 16.1612 1.7869 15.6951 1.8668L5.28731 3.61475L4.64806 1.94671L15.0658 0.0988837C16.331 -0.120858 17.3198 0.0256365 18.0323 0.538367C18.7515 1.0511 19.111 1.8668 19.111 2.98549V5.48255H17.2133ZM7.44477 8.40911C7.26498 8.37581 7.12182 8.29258 7.01528 8.1594C6.91539 8.02622 6.86545 7.86641 6.86545 7.67996C6.86545 7.44691 6.94536 7.26712 7.10517 7.1406C7.27164 7.00742 7.48139 6.96414 7.73443 7.01075L15.1357 8.30922C15.5353 8.37581 15.735 8.6122 15.735 9.01839C15.735 9.25145 15.6584 9.4379 15.5053 9.57773C15.3521 9.71757 15.149 9.76418 14.896 9.71757L7.44477 8.40911ZM7.44477 12.2646C7.26498 12.2379 7.12182 12.1614 7.01528 12.0348C6.91539 11.9017 6.86545 11.7352 6.86545 11.5354C6.86545 11.3157 6.94536 11.1392 7.10517 11.0061C7.27164 10.8729 7.48139 10.8263 7.73443 10.8662L15.1357 12.1647C15.5353 12.2379 15.735 12.4777 15.735 12.8838C15.735 13.1102 15.6584 13.2967 15.5053 13.4432C15.3521 13.583 15.149 13.6296 14.896 13.583L7.44477 12.2646Z" fill="black"/>
</svg>
