<svg width="24" height="24" viewBox="0 0 24 24" fill="none" xmlns="http://www.w3.org/2000/svg">
<path d="M16.4805 7C17.7123 7 18.3283 7.00048 18.7988 7.24023C19.2126 7.45113 19.5489 7.78739 19.7598 8.20117C19.9995 8.67172 20 9.28773 20 10.5195V13.4805C20 14.7123 19.9995 15.3283 19.7598 15.7988C19.5489 16.2126 19.2126 16.5489 18.7988 16.7598C18.3283 16.9995 17.7123 17 16.4805 17H15.5195C14.2877 17 13.6717 16.9995 13.2012 16.7598C12.7874 16.5489 12.4511 16.2126 12.2402 15.7988C12.0005 15.3283 12 14.7123 12 13.4805V10.5195C12 9.28773 12.0005 8.67172 12.2402 8.20117C12.4511 7.78739 12.7874 7.45113 13.2012 7.24023C13.6717 7.00048 14.2877 7 15.5195 7H16.4805Z" fill="black"/>
<path fill-rule="evenodd" clip-rule="evenodd" d="M16 3C18.8 3 20.2 3.00013 21.2695 3.54492C22.2103 4.02429 22.9757 4.78966 23.4551 5.73047C23.9999 6.79998 24 8.20005 24 11V13C24 15.8 23.9999 17.2 23.4551 18.2695L23.3623 18.4443C22.8798 19.3054 22.1516 20.0056 21.2695 20.4551L21.0654 20.5508C20.2988 20.8801 19.3444 20.9678 17.8545 20.9912L16 21H8L6.14551 20.9912C4.6556 20.9678 3.70119 20.8801 2.93457 20.5508L2.73047 20.4551C1.78966 19.9757 1.02429 19.2103 0.544922 18.2695C0.136356 17.4674 0.0343336 16.4795 0.00878906 14.8545L0 13V11C0 8.37459 9.54866e-05 6.97996 0.449219 5.93457L0.544922 5.73047C0.994354 4.84841 1.6946 4.12016 2.55566 3.6377L2.73047 3.54492C3.79998 3.00013 5.20005 3 8 3H16ZM8 4.7998C6.57017 4.7998 5.60576 4.80156 4.8623 4.8623C4.14006 4.92134 3.78558 5.02681 3.54688 5.14844C2.94487 5.45521 2.45521 5.94487 2.14844 6.54688C2.02681 6.78558 1.92134 7.14006 1.8623 7.8623C1.80156 8.60576 1.7998 9.57017 1.7998 11V13C1.7998 14.4298 1.80156 15.3942 1.8623 16.1377C1.92134 16.8599 2.02681 17.2144 2.14844 17.4531C2.45521 18.0551 2.94487 18.5448 3.54688 18.8516C3.78558 18.9732 4.14006 19.0787 4.8623 19.1377C5.60576 19.1984 6.57017 19.2002 8 19.2002H16C17.4298 19.2002 18.3942 19.1984 19.1377 19.1377C19.8599 19.0787 20.2144 18.9732 20.4531 18.8516C21.0551 18.5448 21.5448 18.0551 21.8516 17.4531C21.9732 17.2144 22.0787 16.8599 22.1377 16.1377C22.1984 15.3942 22.2002 14.4298 22.2002 13V11C22.2002 9.57017 22.1984 8.60576 22.1377 7.8623C22.0787 7.14006 21.9732 6.78558 21.8516 6.54688C21.5448 5.94487 21.0551 5.45521 20.4531 5.14844C20.2144 5.02681 19.8599 4.92134 19.1377 4.8623C18.3942 4.80156 17.4298 4.7998 16 4.7998H8Z" fill="black"/>
</svg>
