<svg width="24" height="24" viewBox="0 0 24 24" fill="none" xmlns="http://www.w3.org/2000/svg">
<path fill-rule="evenodd" clip-rule="evenodd" d="M9.29314 4C9.61143 4 9.87405 4.1089 10.0807 4.32657C10.2874 4.5444 10.3909 4.81 10.3909 5.12276V17.9195C10.3908 18.2265 10.2873 18.4832 10.0807 18.6898C9.87967 18.8964 9.62306 18.9999 9.31038 19C9.09261 19 8.88845 18.9527 8.69859 18.8578C8.51423 18.7629 8.31243 18.6204 8.09455 18.4304L4.41607 15.1371C4.36579 15.0868 4.3043 15.0613 4.23168 15.0613H1.86035C1.24588 15.0613 0.78246 14.8993 0.469612 14.5753C0.156799 14.2513 3.63985e-05 13.7683 0 13.126V9.89987C0 9.24624 0.156763 8.7595 0.469612 8.44106C0.782457 8.11727 1.24604 7.95508 1.86035 7.95508H4.23168C4.30423 7.95508 4.36582 7.93029 4.41607 7.88011L8.09455 4.6204C8.33467 4.40821 8.53879 4.25136 8.70634 4.15079C8.87949 4.05026 9.07533 4.00002 9.29314 4ZM8.69859 6.09473C8.67065 6.09473 8.64511 6.10079 8.62276 6.11196C8.60048 6.12313 8.57783 6.13965 8.55555 6.16194L5.20364 9.21226C5.10882 9.30148 5.01411 9.36008 4.91929 9.38804C4.83001 9.41594 4.72928 9.43023 4.6177 9.43026H2.00253C1.86317 9.43031 1.75714 9.46643 1.68457 9.53883C1.61756 9.60584 1.58378 9.70946 1.58375 9.84903V13.1673C1.58375 13.307 1.61753 13.4105 1.68457 13.4775C1.75715 13.5445 1.86301 13.5783 2.00253 13.5784H4.6177C4.72928 13.5784 4.83001 13.5949 4.91929 13.6283C5.01408 13.6618 5.10885 13.7205 5.20364 13.8041L8.56417 16.8381C8.60886 16.8828 8.65389 16.9053 8.69859 16.9053C8.77101 16.9052 8.80713 16.8631 8.80716 16.7795V6.22053C8.8071 6.13696 8.77098 6.09483 8.69859 6.09473Z" fill="black"/>
<path d="M13.3654 8.51689C13.5608 8.51321 13.7377 8.5902 13.8962 8.74868L15.411 10.2635L16.9267 8.74868C17.0778 8.59757 17.2494 8.52206 17.4411 8.52206C17.6364 8.51843 17.8081 8.59006 17.9555 8.73748C18.1102 8.89218 18.1872 9.06556 18.1873 9.25707C18.191 9.45243 18.1155 9.62786 17.9607 9.78269L16.445 11.2975L17.9607 12.8132C18.1155 12.968 18.191 13.1434 18.1873 13.3388C18.1873 13.5303 18.1102 13.7037 17.9555 13.8584C17.8081 14.0059 17.638 14.0798 17.4463 14.0798C17.2546 14.0798 17.0815 14.002 16.9267 13.8472L15.411 12.3315L13.891 13.8532C13.7399 14.0043 13.5645 14.0798 13.3654 14.0798C13.1737 14.0798 13.0006 14.002 12.8458 13.8472C12.6984 13.6998 12.6244 13.5304 12.6244 13.3388C12.6281 13.1434 12.7059 12.9695 12.857 12.8184L14.377 11.2975L12.8622 9.78269C12.7074 9.62786 12.6281 9.45243 12.6244 9.25707C12.6245 9.06553 12.6985 8.89604 12.8458 8.74868C13.0006 8.59394 13.1738 8.51689 13.3654 8.51689Z" fill="black"/>
</svg>
