<svg width="24" height="24" viewBox="0 0 24 24" fill="none" xmlns="http://www.w3.org/2000/svg">
<path fill-rule="evenodd" clip-rule="evenodd" d="M12 1.09961C18.0199 1.09961 22.9004 5.9801 22.9004 12C22.9004 18.0199 18.0199 22.9004 12 22.9004C5.9801 22.9004 1.09961 18.0199 1.09961 12C1.09961 5.9801 5.9801 1.09961 12 1.09961ZM6.2334 19.0391C7.8032 20.3266 9.81118 21.0996 12 21.0996C14.1885 21.0996 16.1959 20.3263 17.7656 19.0391L14.7686 16.042C13.9807 16.5828 13.0276 16.9003 12 16.9004C10.9722 16.9004 10.0184 16.5829 9.23047 16.042L6.2334 19.0391ZM4.95996 6.2334C3.67268 7.80313 2.90039 9.81141 2.90039 12C2.90039 14.1883 3.67297 16.196 4.95996 17.7656L7.95703 14.7686C7.4164 13.9807 7.09961 13.0276 7.09961 12C7.09961 10.9721 7.41612 10.0184 7.95703 9.23047L4.95996 6.2334ZM16.042 9.23047C16.5829 10.0184 16.9004 10.9721 16.9004 12C16.9004 13.0276 16.5826 13.9807 16.042 14.7686L19.0391 17.7656C20.3263 16.1959 21.0996 14.1885 21.0996 12C21.0996 9.81118 20.3266 7.8032 19.0391 6.2334L16.042 9.23047ZM12 8.90039C10.2879 8.90039 8.90039 10.2879 8.90039 12C8.90039 13.7121 10.2879 15.0996 12 15.0996C13.7119 15.0993 15.0996 13.7119 15.0996 12C15.0996 10.2881 13.7119 8.90065 12 8.90039ZM12 2.90039C9.81141 2.90039 7.80313 3.67268 6.2334 4.95996L9.23047 7.95703C10.0183 7.41635 10.9724 7.09961 12 7.09961C13.0274 7.09971 13.9808 7.41644 14.7686 7.95703L17.7656 4.95996C16.196 3.67297 14.1883 2.90039 12 2.90039Z" fill="black"/>
</svg>
