<svg width="24" height="24" viewBox="0 0 24 24" fill="none" xmlns="http://www.w3.org/2000/svg">
<path d="M11.9656 24C11.8634 24 11.7376 23.9764 11.5882 23.9292C11.4388 23.8899 11.2894 23.831 11.14 23.7523C9.44177 22.8246 8.00688 21.9912 6.83538 21.2521C5.67174 20.5209 4.73219 19.8093 4.01671 19.1174C3.30909 18.4256 2.7941 17.6786 2.47174 16.8767C2.15725 16.0668 2 15.1233 2 14.0462V5.13022C2 4.43047 2.13759 3.91941 2.41278 3.59705C2.69582 3.26683 3.12826 2.97985 3.71007 2.73612C3.96953 2.62604 4.33514 2.48059 4.80688 2.29975C5.27862 2.11892 5.80147 1.92629 6.37543 1.72187C6.94939 1.50958 7.51941 1.30123 8.0855 1.09681C8.65946 0.892383 9.17838 0.711548 9.64226 0.5543C10.114 0.389189 10.4796 0.271253 10.7391 0.200491C10.9278 0.153317 11.1283 0.110074 11.3405 0.0707617C11.5607 0.0235872 11.769 0 11.9656 0C12.1622 0 12.3666 0.019656 12.5789 0.0589681C12.799 0.0982801 13.0074 0.145455 13.2039 0.200491C13.4555 0.286978 13.8133 0.412776 14.2772 0.577887C14.7489 0.742998 15.2678 0.927764 15.8339 1.13219C16.4079 1.32875 16.9779 1.52924 17.544 1.73366C18.1179 1.93808 18.6408 2.13071 19.1125 2.31155C19.5843 2.48452 19.9499 2.62604 20.2093 2.73612C20.799 2.98772 21.2315 3.27469 21.5066 3.59705C21.7897 3.91941 21.9312 4.43047 21.9312 5.13022V14.0462C21.9312 15.1233 21.77 16.0668 21.4477 16.8767C21.1332 17.6786 20.6182 18.4295 19.9027 19.1292C19.1951 19.8211 18.2555 20.5327 17.084 21.2639C15.9204 21.9951 14.4894 22.8246 12.7912 23.7523C12.6418 23.831 12.4924 23.8899 12.343 23.9292C12.1936 23.9764 12.0678 24 11.9656 24ZM11.9656 21.5115C12.0442 21.5115 12.1346 21.4919 12.2369 21.4526C12.3391 21.4133 12.4727 21.3425 12.6378 21.2403C13.9744 20.4383 15.0948 19.7504 15.999 19.1764C16.9032 18.5946 17.6265 18.0442 18.169 17.5253C18.7194 17.0064 19.1125 16.4442 19.3484 15.8388C19.5843 15.2256 19.7022 14.4826 19.7022 13.6098V5.50762C19.7022 5.30319 19.6747 5.14988 19.6197 5.04767C19.5646 4.93759 19.4585 4.85504 19.3012 4.8C18.9396 4.6742 18.5268 4.52875 18.0629 4.36364C17.6069 4.19853 17.1233 4.02555 16.6123 3.84472C16.1091 3.66388 15.6098 3.48305 15.1145 3.30221C14.6192 3.12138 14.1514 2.95233 13.7111 2.79509C13.2708 2.62998 12.8934 2.48452 12.5789 2.35872C12.4452 2.31155 12.3273 2.27617 12.2251 2.25258C12.1307 2.22899 12.0442 2.2172 11.9656 2.2172C11.8791 2.2172 11.7848 2.22899 11.6826 2.25258C11.5882 2.27617 11.4742 2.31155 11.3405 2.35872C11.026 2.48452 10.6486 2.62604 10.2084 2.78329C9.77592 2.94054 9.30811 3.10565 8.80491 3.27862C8.30172 3.4516 7.79459 3.6285 7.28354 3.80934C6.78034 3.99017 6.29681 4.16708 5.83292 4.34005C5.3769 4.50516 4.97592 4.65848 4.62998 4.8C4.46486 4.8629 4.35479 4.94545 4.29975 5.04767C4.24472 5.14988 4.2172 5.30319 4.2172 5.50762V13.6098C4.2172 14.4747 4.33514 15.2098 4.57101 15.8152C4.80688 16.4206 5.19214 16.9828 5.72678 17.5017C6.26929 18.0128 6.99263 18.5592 7.89681 19.141C8.80885 19.7229 9.9371 20.4226 11.2816 21.2403C11.4545 21.3425 11.5882 21.4133 11.6826 21.4526C11.7848 21.4919 11.8791 21.5115 11.9656 21.5115Z" fill="black"/>
</svg>
