<svg width="24" height="24" viewBox="0 0 24 24" fill="none" xmlns="http://www.w3.org/2000/svg">
<path d="M5.28235 18.7174C5.15493 18.5957 5.07095 18.4507 5.03041 18.2826C4.98986 18.1145 4.98986 17.9464 5.03041 17.7783C5.07674 17.6101 5.16072 17.4681 5.28235 17.3522L10.6165 11.9957L5.28235 6.64783C5.16072 6.53188 5.07964 6.38986 5.03909 6.22174C4.99855 6.05362 4.99855 5.88551 5.03909 5.71739C5.07964 5.54928 5.16072 5.40435 5.28235 5.28261C5.40976 5.15507 5.55745 5.07101 5.72541 5.03043C5.89337 4.98986 6.06133 4.98986 6.22929 5.03043C6.39725 5.07101 6.54204 5.15217 6.66367 5.27391L12.0065 10.6217L17.3407 5.27391C17.4623 5.14638 17.6071 5.06522 17.7751 5.03043C17.943 4.98986 18.1081 4.98986 18.2702 5.03043C18.4382 5.07101 18.5888 5.15507 18.722 5.28261C18.8436 5.40435 18.9247 5.54928 18.9652 5.71739C19.0116 5.88551 19.0116 6.05362 18.9652 6.22174C18.9247 6.38406 18.8436 6.52899 18.722 6.65652L13.3878 11.9957L18.722 17.3435C18.8436 17.471 18.9247 17.6188 18.9652 17.787C19.0058 17.9493 19.0058 18.1145 18.9652 18.2826C18.9247 18.4507 18.8436 18.5957 18.722 18.7174C18.5946 18.8449 18.4469 18.929 18.2789 18.9696C18.111 19.0101 17.943 19.0101 17.7751 18.9696C17.6071 18.929 17.4623 18.8478 17.3407 18.7261L12.0065 13.3783L6.66367 18.7261C6.54204 18.8478 6.39725 18.929 6.22929 18.9696C6.06712 19.0101 5.89916 19.0101 5.72541 18.9696C5.55745 18.929 5.40976 18.8449 5.28235 18.7174Z" fill="black"/>
</svg>
