<svg width="24" height="24" viewBox="0 0 24 24" fill="none" xmlns="http://www.w3.org/2000/svg">
<path d="M12.7548 20.9854C12.0782 21.6618 11.376 21.9999 10.6482 21.9999C9.92608 22.0056 9.22104 21.6646 8.53305 20.9769L3.03198 15.4867C2.34399 14.799 2 14.0915 2 13.364C2.00569 12.6365 2.34684 11.9346 3.02345 11.2583L11.4584 2.83546C11.6972 2.59676 11.9161 2.41773 12.1151 2.29838C12.3198 2.17903 12.5416 2.09946 12.7804 2.05968C13.0192 2.01989 13.3177 2 13.6759 2H16.9083C17.2381 2 17.5139 2.03126 17.7356 2.09378C17.963 2.15061 18.1763 2.25291 18.3753 2.40068C18.5743 2.54845 18.8017 2.74737 19.0576 2.99744L21.0021 4.93264C21.2523 5.1884 21.4513 5.41857 21.5991 5.62318C21.747 5.8221 21.8493 6.03522 21.9062 6.26256C21.9687 6.48421 22 6.7627 22 7.09802V10.3205C22 10.6786 21.9801 10.9798 21.9403 11.2242C21.9062 11.4686 21.8294 11.6931 21.71 11.8977C21.5963 12.0966 21.42 12.3154 21.1812 12.5541L12.7548 20.9854ZM11.3902 19.2378L19.6461 10.9855C19.7257 10.9059 19.7825 10.8235 19.8166 10.7382C19.8564 10.653 19.8763 10.5422 19.8763 10.4058V7.20885C19.8763 6.99288 19.7996 6.80817 19.6461 6.65472L17.3433 4.35293C17.1898 4.19948 17.0021 4.12276 16.7804 4.12276H13.5906C13.4655 4.12276 13.3632 4.14549 13.2836 4.19096C13.204 4.23074 13.1187 4.29326 13.0277 4.37851L4.77186 12.6223C4.52736 12.8667 4.40227 13.1139 4.39659 13.364C4.3909 13.6084 4.51883 13.8584 4.78038 14.1142L9.89765 19.2293C10.398 19.7294 10.8955 19.7323 11.3902 19.2378ZM15.7399 9.57031C15.3703 9.57031 15.0576 9.44243 14.8017 9.18668C14.5515 8.93092 14.4264 8.62118 14.4264 8.25744C14.4264 7.88233 14.5515 7.56975 14.8017 7.31967C15.0576 7.06392 15.3703 6.93604 15.7399 6.93604C16.1151 6.93604 16.4279 7.06392 16.678 7.31967C16.9339 7.56975 17.0618 7.88233 17.0618 8.25744C17.0618 8.62118 16.9339 8.93092 16.678 9.18668C16.4279 9.44243 16.1151 9.57031 15.7399 9.57031Z" fill="black"/>
</svg>
