<svg width="24" height="24" viewBox="0 0 24 24" fill="none" xmlns="http://www.w3.org/2000/svg">
<path d="M19 10.1667V16C19 17.8565 18.2625 19.637 16.9497 20.9497C15.637 22.2625 13.8565 23 12 23C10.1435 23 8.36301 22.2625 7.05025 20.9497C5.7375 19.637 5 17.8565 5 16L5 6.66667C5 5.42899 5.49167 4.242 6.36683 3.36683C7.242 2.49167 8.42899 2 9.66667 2C10.9043 2 12.0913 2.49167 12.9665 3.36683C13.8417 4.242 14.3333 5.42899 14.3333 6.66667V16C14.3333 16.6188 14.0875 17.2123 13.6499 17.6499C13.2123 18.0875 12.6188 18.3333 12 18.3333C11.3812 18.3333 10.7877 18.0875 10.3501 17.6499C9.9125 17.2123 9.66667 16.6188 9.66667 16V10.1667" stroke="black" stroke-width="1.86667" stroke-linecap="round" stroke-linejoin="round"/>
</svg>
