<svg width="24" height="24" viewBox="0 0 24 24" fill="none" xmlns="http://www.w3.org/2000/svg">
<path d="M10.9465 24C9.35651 24 7.96613 23.6613 6.7754 22.984C5.58467 22.3137 4.65775 21.3547 3.99465 20.107C3.33155 18.8592 3 17.3725 3 15.6471V6.29947C3 5.64349 3.19251 5.1123 3.57754 4.70588C3.9697 4.29947 4.47237 4.09626 5.08556 4.09626C5.29234 4.09626 5.48841 4.13191 5.6738 4.20321C5.85918 4.26738 6.01961 4.36364 6.15508 4.49198V3.48663C6.15508 2.85205 6.34403 2.34225 6.72193 1.95722C7.09982 1.56506 7.59537 1.36898 8.20856 1.36898C8.59358 1.36898 8.918 1.48663 9.18182 1.72193C9.2959 1.20143 9.53476 0.784314 9.8984 0.470588C10.2692 0.156863 10.7219 0 11.2567 0C11.7986 0 12.2513 0.156863 12.615 0.470588C12.9786 0.777184 13.2103 1.20143 13.3102 1.74332C13.4528 1.6221 13.6168 1.52941 13.8021 1.46524C13.9875 1.40107 14.18 1.36898 14.3797 1.36898C15.0428 1.36898 15.574 1.57219 15.9733 1.97861C16.3725 2.3779 16.5722 2.91266 16.5722 3.58289V11.8289C16.5722 11.8859 16.5971 11.9144 16.6471 11.9144C16.6898 11.9144 16.7184 11.893 16.7326 11.8503L17.3102 10.4278C17.4955 10.0143 17.7522 9.70053 18.0802 9.48663C18.4082 9.2656 18.7611 9.15508 19.139 9.15508C19.738 9.15508 20.2371 9.35472 20.6364 9.75401C21.0428 10.1533 21.246 10.6524 21.246 11.2513C21.246 11.615 21.1783 11.9893 21.0428 12.3743L19.139 17.7219C18.3975 19.8039 17.3387 21.369 15.9626 22.4171C14.5936 23.4724 12.9216 24 10.9465 24ZM10.893 22.1925C12.4332 22.1925 13.7594 21.8075 14.8717 21.0374C15.9911 20.2674 16.8824 18.9733 17.5455 17.1551L19.5348 11.6684C19.6132 11.4332 19.6239 11.2335 19.5668 11.0695C19.5169 10.9055 19.3993 10.7879 19.2139 10.7166C19.0499 10.6524 18.8824 10.656 18.7112 10.7273C18.5472 10.7914 18.4225 10.9305 18.3369 11.1444L16.7968 14.5882C16.6684 14.8734 16.5116 15.0731 16.3262 15.1872C16.1408 15.3012 15.9412 15.3583 15.7273 15.3583C15.4777 15.3583 15.2674 15.2763 15.0963 15.1123C14.9251 14.9412 14.8396 14.7023 14.8396 14.3957V3.74332C14.8396 3.54367 14.7754 3.37968 14.6471 3.25134C14.5187 3.11586 14.3583 3.04813 14.1658 3.04813C13.9661 3.04813 13.8021 3.11586 13.6738 3.25134C13.5526 3.37968 13.492 3.54367 13.492 3.74332V11.3262C13.492 11.5401 13.4135 11.7219 13.2567 11.8717C13.0998 12.0214 12.9144 12.0963 12.7005 12.0963C12.4795 12.0963 12.2906 12.0214 12.1337 11.8717C11.984 11.7219 11.9091 11.5401 11.9091 11.3262V2.39572C11.9091 2.18895 11.8449 2.02139 11.7166 1.89305C11.5954 1.75758 11.4385 1.68984 11.246 1.68984C11.0463 1.68984 10.8824 1.75758 10.754 1.89305C10.6257 2.02139 10.5615 2.18895 10.5615 2.39572V11.4439C10.5615 11.672 10.4831 11.861 10.3262 12.0107C10.1693 12.1533 9.98396 12.2246 9.77005 12.2246C9.55615 12.2246 9.37077 12.1533 9.2139 12.0107C9.05704 11.861 8.97861 11.672 8.97861 11.4439V3.74332C8.97861 3.54367 8.91444 3.37968 8.7861 3.25134C8.65775 3.11586 8.49376 3.04813 8.29412 3.04813C8.1016 3.04813 7.94474 3.11586 7.82353 3.25134C7.70945 3.37968 7.65241 3.54367 7.65241 3.74332V12C7.65241 12.2282 7.57041 12.4171 7.40642 12.5668C7.24242 12.7094 7.05348 12.7807 6.83957 12.7807C6.6328 12.7807 6.45098 12.7094 6.29412 12.5668C6.13725 12.4171 6.05882 12.2282 6.05882 12V6.49198C6.05882 6.29234 5.99465 6.12834 5.86631 6C5.73797 5.87166 5.57398 5.80749 5.37433 5.80749C5.18182 5.80749 5.02496 5.87166 4.90374 6C4.78253 6.12834 4.72193 6.29234 4.72193 6.49198V15.4652C4.72193 16.8913 4.96791 18.107 5.45989 19.1123C5.959 20.1176 6.66845 20.8806 7.58824 21.4011C8.50802 21.9287 9.60963 22.1925 10.893 22.1925Z" fill="black"/>
</svg>
