<svg width="24" height="24" viewBox="0 0 24 24" fill="none" xmlns="http://www.w3.org/2000/svg">
<path d="M3.59961 11.5517V9.57081C3.59961 9.21633 3.72819 8.91746 3.98536 8.6742C4.24948 8.42398 4.56225 8.29887 4.92368 8.29887C5.2851 8.29887 5.59787 8.42398 5.86199 8.6742C6.12611 8.91746 6.25817 9.21633 6.25817 9.57081V11.4683C6.25817 12.6499 6.51881 13.6785 7.0401 14.5543C7.56833 15.4301 8.28771 16.1112 9.19822 16.5977C10.1157 17.0773 11.1617 17.3171 12.3364 17.3171C13.511 17.3171 14.5536 17.0773 15.4641 16.5977C16.3815 16.1112 17.1009 15.4301 17.6222 14.5543C18.1504 13.6785 18.4146 12.6499 18.4146 11.4683V9.57081C18.4146 9.21633 18.5431 8.91746 18.8003 8.6742C19.0644 8.42398 19.3807 8.29887 19.749 8.29887C20.1105 8.29887 20.4198 8.42398 20.6769 8.6742C20.9411 8.91746 21.0731 9.21633 21.0731 9.57081V11.5517C21.0731 13.1017 20.7499 14.4639 20.1035 15.6386C19.4641 16.8063 18.5814 17.7446 17.4554 18.4535C16.3294 19.1625 15.0401 19.5969 13.5874 19.7567V21.3936H17.3407C17.7021 21.3936 18.0149 21.5187 18.279 21.7689C18.5501 22.0261 18.6856 22.3388 18.6856 22.7072C18.6856 23.0547 18.5501 23.3571 18.279 23.6142C18.0149 23.8714 17.7021 24 17.3407 24H7.33202C6.97059 24 6.65434 23.8714 6.38328 23.6142C6.11916 23.3571 5.9871 23.0547 5.9871 22.7072C5.9871 22.3388 6.11916 22.0261 6.38328 21.7689C6.65434 21.5187 6.97059 21.3936 7.33202 21.3936H11.0853V19.7567C9.63262 19.5969 8.34331 19.1625 7.21733 18.4535C6.09136 17.7446 5.20517 16.8063 4.55878 15.6386C3.91933 14.4639 3.59961 13.1017 3.59961 11.5517ZM12.3364 15.2945C11.6135 15.2945 10.9497 15.1242 10.345 14.7837C9.74036 14.4431 9.25382 13.967 8.88545 13.3553C8.52402 12.7368 8.34331 12.0174 8.34331 11.1972V4.09731C8.34331 3.27715 8.52402 2.56125 8.88545 1.94961C9.25382 1.33797 9.74036 0.861859 10.345 0.521286C10.9497 0.173762 11.6135 0 12.3364 0C13.0592 0 13.723 0.173762 14.3277 0.521286C14.9324 0.861859 15.4119 1.34144 15.7664 1.96003C16.1278 2.57168 16.3086 3.28758 16.3086 4.10773V11.1972C16.3086 12.0174 16.1278 12.7368 15.7664 13.3553C15.4119 13.967 14.9324 14.4431 14.3277 14.7837C13.723 15.1242 13.0592 15.2945 12.3364 15.2945Z" fill="black"/>
</svg>
