<svg width="24" height="24" viewBox="0 0 24 24" fill="none" xmlns="http://www.w3.org/2000/svg">
<path fill-rule="evenodd" clip-rule="evenodd" d="M10.9929 2C8.25502 2 6.03557 4.21944 6.03557 6.95727V7.03559H2.93593C1.86675 7.03559 1 7.90232 1 8.9715V17.0285C1 20.3225 3.67035 22.9929 6.9644 22.9929H17.0356C20.3296 22.9929 23 20.3225 23 17.0285V8.9715C23 7.90232 22.1333 7.03559 21.064 7.03559H17.9643V6.95727C17.9643 4.21945 15.7449 2 13.0071 2H10.9929ZM16.1067 8.89321V9.97858C16.1067 10.4916 16.5226 10.9074 17.0355 10.9074C17.5485 10.9074 17.9643 10.4916 17.9643 9.97858V8.89321H21.064C21.1073 8.89321 21.1424 8.92827 21.1424 8.9715V17.0285C21.1424 19.2965 19.3037 21.1353 17.0356 21.1353H6.9644C4.69629 21.1353 2.85763 19.2965 2.85763 17.0285V8.9715C2.85763 8.92827 2.89268 8.89321 2.93593 8.89321H6.03557V9.97858C6.03557 10.4916 6.45141 10.9074 6.96439 10.9074C7.47735 10.9074 7.8932 10.4916 7.8932 9.97858V8.89321H16.1067ZM16.1067 7.03559V6.95727C16.1067 5.24538 14.7189 3.85763 13.0071 3.85763H10.9929C9.28096 3.85763 7.8932 5.24538 7.8932 6.95727V7.03559H16.1067Z" fill="black"/>
</svg>
