<svg width="24" height="24" viewBox="0 0 24 24" fill="none" xmlns="http://www.w3.org/2000/svg">
<path d="M3.03396 8.52343L0.452919 7.98053C0.304583 7.95086 0.185914 7.87372 0.0969127 7.74912C0.0138447 7.62452 -0.0158225 7.48805 0.00791124 7.33971C0.0257115 7.17951 0.0998794 7.05491 0.230415 6.96591C0.366884 6.87097 0.518186 6.84131 0.684322 6.87691L3.25646 7.42872C3.41073 7.46432 3.5294 7.54738 3.61247 7.67792C3.69554 7.80252 3.72224 7.93899 3.69257 8.08733C3.6629 8.2416 3.5828 8.36026 3.45227 8.44333C3.32173 8.5264 3.1823 8.5531 3.03396 8.52343ZM3.93288 5.55969L2.07275 3.69955C1.95408 3.58089 1.89474 3.44738 1.89474 3.29905C1.90068 3.15071 1.96001 3.02018 2.07275 2.90744C2.18548 2.79471 2.31602 2.73834 2.46435 2.73834C2.61862 2.73241 2.75212 2.78877 2.86486 2.90744L4.73389 4.76757C4.84069 4.88031 4.89409 5.01381 4.89409 5.16808C4.89409 5.32235 4.84069 5.45288 4.73389 5.55969C4.62709 5.67242 4.49358 5.72879 4.33338 5.72879C4.17911 5.72879 4.04561 5.67242 3.93288 5.55969ZM7.25263 4.67857C7.09836 4.71417 6.95596 4.68747 6.82542 4.59847C6.70082 4.50947 6.62072 4.3908 6.58512 4.24246L6.03331 1.67922C5.99771 1.52495 6.02441 1.38255 6.11341 1.25201C6.20241 1.12148 6.32405 1.04138 6.47832 1.01171C6.62665 0.982044 6.76609 1.00874 6.89662 1.09181C7.02716 1.17488 7.11023 1.29355 7.14583 1.44782L7.69764 4.01996C7.73324 4.16236 7.70654 4.3018 7.61754 4.43827C7.52853 4.5688 7.4069 4.6489 7.25263 4.67857ZM19.7484 20.9035C18.8644 21.7936 17.8972 22.381 16.847 22.6658C15.8027 22.9565 14.7406 22.9328 13.6607 22.5946C12.5809 22.2564 11.5514 21.5977 10.5724 20.6187L5.1611 15.2074C4.81102 14.8574 4.62709 14.4717 4.60929 14.0504C4.59742 13.6232 4.75466 13.2464 5.08099 12.9201C5.21153 12.7836 5.35987 12.6798 5.526 12.6086C5.69807 12.5315 5.87014 12.4929 6.04221 12.4929L5.3391 11.7987C4.99496 11.4486 4.81696 11.0689 4.80509 10.6595C4.79322 10.2501 4.95046 9.88219 5.2768 9.55585C5.52007 9.31258 5.80487 9.18798 6.13121 9.18204C5.87014 8.82604 5.74554 8.4552 5.75741 8.06953C5.76927 7.67792 5.92947 7.33081 6.23801 7.02821C6.54655 6.71374 6.89069 6.55057 7.27043 6.5387C7.6561 6.52683 8.03288 6.66034 8.40075 6.93921C8.40668 6.77307 8.44228 6.61287 8.50755 6.4586C8.57875 6.2984 8.67962 6.15303 8.81015 6.02249C9.16023 5.67242 9.54887 5.50035 9.97608 5.50628C10.4033 5.50628 10.8008 5.69022 11.1687 6.05809L16.2151 11.1045C16.2566 11.1401 16.2922 11.143 16.3219 11.1134C16.3456 11.0896 16.3486 11.057 16.3308 11.0155L15.7434 9.60035C15.595 9.24435 15.5476 8.91207 15.601 8.60354C15.6603 8.28906 15.7997 8.02503 16.0193 7.81142C16.3397 7.48508 16.7165 7.31895 17.1496 7.31301C17.5827 7.30115 17.9654 7.46135 18.2977 7.79362C18.4876 7.98349 18.6537 8.2238 18.7961 8.51453L20.7987 12.7421C21.5581 14.3382 21.8489 15.8216 21.6709 17.1922C21.4988 18.5628 20.858 19.7999 19.7484 20.9035ZM18.8495 20.0669C19.7277 19.1888 20.2706 18.1979 20.4782 17.0943C20.6918 15.9847 20.4545 14.7001 19.7662 13.2405L17.7014 8.87054C17.5946 8.65694 17.47 8.51453 17.3276 8.44333C17.1852 8.3662 17.0309 8.3662 16.8648 8.44333C16.7105 8.51453 16.6037 8.62727 16.5444 8.78154C16.485 8.93581 16.4939 9.11084 16.5711 9.30665L17.6836 12.2348C17.7726 12.4603 17.7993 12.6501 17.7637 12.8044C17.7281 12.9587 17.6539 13.0922 17.5412 13.2049C17.4107 13.3354 17.2594 13.4007 17.0873 13.4007C16.9152 13.3948 16.7521 13.3147 16.5978 13.1604L10.4033 6.96591C10.2668 6.82944 10.1155 6.76121 9.94937 6.76121C9.78324 6.75527 9.63787 6.81757 9.51327 6.94811C9.38273 7.07864 9.31746 7.22698 9.31746 7.39312C9.31746 7.55925 9.3857 7.70759 9.52217 7.83812L14.0167 12.3327C14.1235 12.4395 14.174 12.57 14.168 12.7243C14.1621 12.8786 14.1028 13.0121 13.99 13.1248C13.8832 13.2316 13.7527 13.288 13.5984 13.2939C13.4501 13.2939 13.3225 13.2405 13.2157 13.1337L7.94684 7.86482C7.81037 7.72835 7.6561 7.65715 7.48403 7.65122C7.3179 7.64529 7.17253 7.70759 7.04793 7.83812C6.91739 7.96866 6.85212 8.11996 6.85212 8.29203C6.85806 8.45817 6.92926 8.6065 7.06573 8.73704L12.3346 14.0059C12.4473 14.1246 12.4978 14.2611 12.4859 14.4153C12.48 14.5637 12.4236 14.6912 12.3168 14.798C12.2159 14.9048 12.0884 14.9642 11.9341 14.976C11.7858 14.982 11.6523 14.9256 11.5336 14.8069L7.04793 10.3213C6.91146 10.1848 6.75719 10.1166 6.58512 10.1166C6.41898 10.1166 6.27065 10.1818 6.14011 10.3124C6.00958 10.4429 5.94728 10.5912 5.95321 10.7574C5.95914 10.9176 6.03034 11.0629 6.16681 11.1935L10.9818 16.0085C11.0945 16.1212 11.145 16.2547 11.1331 16.409C11.1272 16.5632 11.0708 16.6938 10.964 16.8006C10.8572 16.9014 10.7267 16.9578 10.5724 16.9697C10.424 16.9756 10.2935 16.9222 10.1808 16.8095L6.95892 13.5876C6.82839 13.4571 6.67709 13.3918 6.50502 13.3918C6.33888 13.3918 6.19055 13.4541 6.06001 13.5787C5.92947 13.7093 5.86717 13.8576 5.87311 14.0237C5.87904 14.1839 5.95024 14.3323 6.08671 14.4687L11.3022 19.6842C12.1447 20.5327 13.0051 21.1053 13.8832 21.4019C14.7614 21.7045 15.6217 21.7431 16.4643 21.5176C17.3128 21.2922 18.1078 20.8086 18.8495 20.0669ZM11.0886 5.22148C11.4387 4.87141 11.8243 4.69934 12.2456 4.70527C12.6728 4.70527 13.0733 4.88921 13.4471 5.25708L16.4198 8.22973L15.6989 9.19094L12.6817 6.1649C12.5452 6.02843 12.3939 5.95723 12.2278 5.95129C12.0617 5.94536 11.9133 6.00766 11.7828 6.1382C11.6523 6.26873 11.587 6.42003 11.587 6.5921C11.5929 6.75824 11.6612 6.90657 11.7917 7.03711L10.6703 6.1382C10.6822 5.97206 10.7207 5.80889 10.786 5.64869C10.8572 5.48848 10.9581 5.34608 11.0886 5.22148ZM22.0269 20.1114C21.3564 20.776 20.6384 21.2714 19.873 21.5977C19.1136 21.9241 18.3363 22.0754 17.5412 22.0517L18.8406 20.681C19.6416 20.4496 20.4011 19.975 21.1191 19.257C22.0031 18.3848 22.549 17.3939 22.7567 16.2844C22.9644 15.1748 22.724 13.8932 22.0358 12.4395L20.0154 8.17633C19.879 7.87372 19.6713 7.72242 19.3924 7.72242C19.2026 7.72242 19.0513 7.78175 18.9385 7.90042C18.8317 8.01909 18.7783 8.14963 18.7783 8.29203C18.7783 8.41663 18.808 8.5442 18.8673 8.67474L17.8082 8.38103C17.7963 8.2861 17.7904 8.18523 17.7904 8.07843C17.7904 7.78769 17.8438 7.54145 17.9506 7.33971C18.0574 7.13798 18.1939 6.97778 18.36 6.85911C18.5261 6.7345 18.6982 6.6455 18.8762 6.5921C19.0542 6.5387 19.2144 6.512 19.3568 6.512C19.7188 6.512 20.0481 6.61287 20.3447 6.81461C20.6414 7.01634 20.8817 7.31301 21.0657 7.70462L23.0771 11.9411C23.8366 13.5431 24.1273 15.0294 23.9493 16.4001C23.7713 17.7648 23.1305 19.0019 22.0269 20.1114Z" fill="black"/>
</svg>
