<svg width="24" height="24" viewBox="0 0 24 24" fill="none" xmlns="http://www.w3.org/2000/svg">
<path d="M12.1351 23C12.0414 23 11.9261 22.9784 11.7892 22.9351C11.6523 22.8991 11.5153 22.845 11.3784 22.773C9.82162 21.9225 8.50631 21.1586 7.43243 20.4811C6.36577 19.8108 5.5045 19.1586 4.84865 18.5243C4.2 17.8901 3.72793 17.2054 3.43243 16.4703C3.14414 15.7279 3 14.8631 3 13.8757V5.7027C3 5.06126 3.12613 4.59279 3.37838 4.2973C3.63784 3.99459 4.03423 3.73153 4.56757 3.50811C4.80541 3.40721 5.14054 3.27387 5.57297 3.10811C6.00541 2.94234 6.48468 2.76577 7.01081 2.57838C7.53694 2.38378 8.05946 2.19279 8.57838 2.00541C9.1045 1.81802 9.58018 1.65225 10.0054 1.50811C10.4378 1.35676 10.773 1.24865 11.0108 1.18378C11.1838 1.14054 11.3676 1.1009 11.5622 1.06486C11.764 1.02162 11.955 1 12.1351 1C12.3153 1 12.5027 1.01802 12.6973 1.05405C12.8991 1.09009 13.0901 1.13333 13.2703 1.18378C13.5009 1.26306 13.8288 1.37838 14.2541 1.52973C14.6865 1.68108 15.1622 1.85045 15.6811 2.03784C16.2072 2.21802 16.7297 2.4018 17.2486 2.58919C17.7748 2.77658 18.2541 2.95315 18.6865 3.11892C19.1189 3.27748 19.4541 3.40721 19.6919 3.50811C20.2324 3.73874 20.6288 4.0018 20.8811 4.2973C21.1405 4.59279 21.2703 5.06126 21.2703 5.7027V13.8757C21.2703 14.8631 21.1225 15.7279 20.827 16.4703C20.5387 17.2054 20.0667 17.8937 19.4108 18.5351C18.7622 19.1694 17.9009 19.8216 16.827 20.4919C15.7604 21.1622 14.4486 21.9225 12.8919 22.773C12.755 22.845 12.618 22.8991 12.4811 22.9351C12.3441 22.9784 12.2288 23 12.1351 23ZM12.1351 20.7189C12.2072 20.7189 12.2901 20.7009 12.3838 20.6649C12.4775 20.6288 12.6 20.564 12.7514 20.4703C13.9766 19.7351 15.0036 19.1045 15.8324 18.5784C16.6613 18.045 17.3243 17.5405 17.8216 17.0649C18.3261 16.5892 18.6865 16.0739 18.9027 15.5189C19.1189 14.9568 19.227 14.2757 19.227 13.4757V6.04865C19.227 5.86126 19.2018 5.72072 19.1514 5.62703C19.1009 5.52613 19.0036 5.45045 18.8595 5.4C18.5279 5.28469 18.1495 5.15135 17.7243 5C17.3063 4.84865 16.8631 4.69009 16.3946 4.52432C15.9333 4.35856 15.4757 4.19279 15.0216 4.02703C14.5676 3.86126 14.1387 3.70631 13.7351 3.56216C13.3315 3.41081 12.9856 3.27748 12.6973 3.16216C12.5748 3.11892 12.4667 3.08649 12.373 3.06486C12.2865 3.04324 12.2072 3.03243 12.1351 3.03243C12.0559 3.03243 11.9694 3.04324 11.8757 3.06486C11.7892 3.08649 11.6847 3.11892 11.5622 3.16216C11.2739 3.27748 10.9279 3.40721 10.5243 3.55135C10.1279 3.6955 9.6991 3.84685 9.23784 4.00541C8.77658 4.16396 8.31171 4.32613 7.84324 4.49189C7.38198 4.65766 6.93874 4.81982 6.51351 4.97838C6.0955 5.12973 5.72793 5.27027 5.41081 5.4C5.25946 5.45766 5.15856 5.53333 5.10811 5.62703C5.05766 5.72072 5.03243 5.86126 5.03243 6.04865V13.4757C5.03243 14.2685 5.14054 14.9423 5.35676 15.4973C5.57297 16.0523 5.92613 16.5676 6.41622 17.0432C6.91351 17.5117 7.57658 18.0126 8.40541 18.5459C9.24144 19.0793 10.2757 19.7207 11.5081 20.4703C11.6667 20.564 11.7892 20.6288 11.8757 20.6649C11.9694 20.7009 12.0559 20.7189 12.1351 20.7189ZM10.9892 16.5568C10.7874 16.5568 10.6072 16.5135 10.4486 16.427C10.2901 16.3333 10.1351 16.1964 9.98378 16.0162L7.43243 12.9027C7.24504 12.6649 7.15135 12.4234 7.15135 12.1784C7.15135 11.9117 7.24144 11.6847 7.42162 11.4973C7.60901 11.3027 7.83243 11.2054 8.09189 11.2054C8.25766 11.2054 8.40541 11.2414 8.53513 11.3135C8.67207 11.3784 8.80541 11.4973 8.93513 11.6703L10.9459 14.2216L15.2162 7.37838C15.4396 7.01081 15.7207 6.82703 16.0595 6.82703C16.3117 6.82703 16.5387 6.90991 16.7405 7.07568C16.9423 7.24144 17.0432 7.45766 17.0432 7.72432C17.0432 7.84685 17.0144 7.97297 16.9568 8.1027C16.9063 8.22523 16.845 8.34054 16.773 8.44865L11.9405 16.0054C11.7099 16.373 11.3928 16.5568 10.9892 16.5568Z" fill="black"/>
</svg>
