<svg width="24" height="24" viewBox="0 0 24 24" fill="none" xmlns="http://www.w3.org/2000/svg">
<path fill-rule="evenodd" clip-rule="evenodd" d="M13.6001 4.8C13.6001 4.35817 13.9583 4 14.4001 4H19.2001C19.6419 4 20.0001 4.35817 20.0001 4.8V9.6C20.0001 10.0418 19.6419 10.4 19.2001 10.4C18.7583 10.4 18.4001 10.0418 18.4001 9.6V5.6H14.4001C13.9583 5.6 13.6001 5.24183 13.6001 4.8Z" fill="black"/>
<path fill-rule="evenodd" clip-rule="evenodd" d="M4.8 13.6C5.24183 13.6 5.6 13.9581 5.6 14.4V18.4H9.6C10.0418 18.4 10.4 18.7581 10.4 19.2C10.4 19.6418 10.0418 20 9.6 20H4.8C4.35817 20 4 19.6418 4 19.2V14.4C4 13.9581 4.35817 13.6 4.8 13.6Z" fill="black"/>
<path fill-rule="evenodd" clip-rule="evenodd" d="M19.7655 4.23431C20.0779 4.54673 20.0779 5.05327 19.7655 5.36569L14.1655 10.9657C13.8531 11.2781 13.3465 11.2781 13.0341 10.9657C12.7217 10.6533 12.7217 10.1467 13.0341 9.83431L18.6341 4.23431C18.9465 3.9219 19.4531 3.9219 19.7655 4.23431Z" fill="black"/>
<path fill-rule="evenodd" clip-rule="evenodd" d="M10.9657 13.0343C11.2781 13.3467 11.2781 13.8533 10.9657 14.1657L5.36569 19.7657C5.05327 20.0781 4.54673 20.0781 4.23431 19.7657C3.9219 19.4533 3.9219 18.9467 4.23431 18.6343L9.83431 13.0343C10.1467 12.7219 10.6533 12.7219 10.9657 13.0343Z" fill="black"/>
</svg>
