<svg width="24" height="24" viewBox="0 0 24 24" fill="none" xmlns="http://www.w3.org/2000/svg">
<path d="M12 24C10.3451 24 8.79216 23.6863 7.34118 23.0588C5.8902 22.4392 4.61569 21.5804 3.51765 20.4824C2.41961 19.3843 1.55686 18.1098 0.929412 16.6588C0.309804 15.2078 0 13.6549 0 12C0 10.3451 0.309804 8.79216 0.929412 7.34118C1.55686 5.8902 2.41961 4.61569 3.51765 3.51765C4.61569 2.41176 5.8902 1.54902 7.34118 0.929412C8.79216 0.309804 10.3451 0 12 0C13.6549 0 15.2078 0.309804 16.6588 0.929412C18.1098 1.54902 19.3843 2.41176 20.4824 3.51765C21.5804 4.61569 22.4392 5.8902 23.0588 7.34118C23.6863 8.79216 24 10.3451 24 12C24 13.6549 23.6863 15.2078 23.0588 16.6588C22.4392 18.1098 21.5804 19.3843 20.4824 20.4824C19.3843 21.5804 18.1098 22.4392 16.6588 23.0588C15.2078 23.6863 13.6549 24 12 24ZM12 22C13.3804 22 14.6745 21.7412 15.8824 21.2235C17.0902 20.7059 18.1529 19.9882 19.0706 19.0706C19.9882 18.1529 20.7059 17.0902 21.2235 15.8824C21.7412 14.6745 22 13.3804 22 12C22 10.6196 21.7412 9.32549 21.2235 8.11765C20.7059 6.90196 19.9882 5.83922 19.0706 4.92941C18.1529 4.01176 17.0902 3.29412 15.8824 2.77647C14.6745 2.25882 13.3804 2 12 2C10.6196 2 9.32549 2.25882 8.11765 2.77647C6.9098 3.29412 5.84706 4.01176 4.92941 4.92941C4.01176 5.83922 3.29412 6.90196 2.77647 8.11765C2.25882 9.32549 2 10.6196 2 12C2 13.3804 2.25882 14.6745 2.77647 15.8824C3.29412 17.0902 4.01176 18.1529 4.92941 19.0706C5.84706 19.9882 6.9098 20.7059 8.11765 21.2235C9.32549 21.7412 10.6196 22 12 22ZM7.97647 16.9765C7.71765 16.9765 7.49412 16.8824 7.30588 16.6941C7.12549 16.5059 7.03529 16.2824 7.03529 16.0235C7.03529 15.7647 7.12941 15.5451 7.31765 15.3647L10.6588 12.0118L7.31765 8.65882C7.12941 8.47843 7.03529 8.25882 7.03529 8C7.03529 7.74118 7.12549 7.52157 7.30588 7.34118C7.49412 7.16078 7.71765 7.07059 7.97647 7.07059C8.24314 7.07059 8.46274 7.16471 8.63529 7.35294L11.9882 10.6941L15.3765 7.34118C15.5647 7.1451 15.7804 7.04706 16.0235 7.04706C16.2824 7.04706 16.502 7.14118 16.6824 7.32941C16.8706 7.5098 16.9647 7.72941 16.9647 7.98823C16.9647 8.23922 16.8706 8.45882 16.6824 8.64706L13.3294 12.0118L16.6706 15.3529C16.8588 15.5412 16.9529 15.7647 16.9529 16.0235C16.9529 16.2824 16.8588 16.5059 16.6706 16.6941C16.4902 16.8824 16.2706 16.9765 16.0118 16.9765C15.7529 16.9765 15.5294 16.8784 15.3412 16.6824L11.9882 13.3412L8.65882 16.6824C8.47843 16.8784 8.25098 16.9765 7.97647 16.9765Z" fill="black"/>
</svg>
