<svg width="24" height="24" viewBox="0 0 24 24" fill="none" xmlns="http://www.w3.org/2000/svg">
<path d="M15.3299 6.23217C15.0203 6.54173 15.0203 7.04363 15.3299 7.35319L17.9401 9.96339H7.96359C6.91243 9.96339 5.90432 10.381 5.16104 11.1242C4.41776 11.8675 4.00019 12.8756 4.00019 13.9268V17.0975C4.00019 17.5353 4.35508 17.8902 4.79287 17.8902C5.23065 17.8902 5.58555 17.5353 5.58555 17.0975V13.9268C5.58555 13.2961 5.83609 12.6912 6.28206 12.2453C6.72803 11.7993 7.33289 11.5488 7.96359 11.5488H17.9401L15.3299 14.159C15.0203 14.4685 15.0203 14.9704 15.3299 15.28C15.6395 15.5896 16.1413 15.5896 16.4509 15.28L20.4143 11.3166C20.492 11.2389 20.5502 11.1491 20.5889 11.0532C20.626 10.9614 20.6465 10.8611 20.6465 10.7561C20.6465 10.5495 20.5675 10.3614 20.4381 10.2204C20.4294 10.2109 20.4206 10.2017 20.4115 10.1927L16.4509 6.23217C16.1413 5.92261 15.6395 5.92261 15.3299 6.23217Z" fill="black"/>
</svg>
