<svg width="24" height="24" viewBox="0 0 24 24" fill="none" xmlns="http://www.w3.org/2000/svg">
<path d="M9.30029 3C9.79721 3.00016 10.1997 3.40319 10.1997 3.90015C10.1996 4.39704 9.79717 4.80014 9.30029 4.80029H5.69971C5.46112 4.80037 5.23268 4.89525 5.06396 5.06396C4.89525 5.23268 4.80037 5.46112 4.80029 5.69971V18.3003C4.80037 18.5389 4.89525 18.7673 5.06396 18.936C5.23268 19.1047 5.46112 19.1996 5.69971 19.1997H9.30029C9.79717 19.1999 10.1996 19.603 10.1997 20.0999C10.1997 20.5968 9.79721 20.9998 9.30029 21H5.69971C4.98373 20.9999 4.29729 20.7153 3.79102 20.209C3.28474 19.7027 3.00008 19.0163 3 18.3003V5.69971C3.00008 4.98373 3.28474 4.29729 3.79102 3.79102C4.29729 3.28474 4.98373 3.00008 5.69971 3H9.30029Z" fill="black"/>
<path d="M14.9634 6.86353C15.3149 6.51212 15.8849 6.51208 16.2363 6.86353L20.7363 11.3635C20.8993 11.5264 21 11.7514 21 12C21 12.2486 20.8993 12.4736 20.7363 12.6365L16.2363 17.1365C15.8849 17.4879 15.3149 17.4879 14.9634 17.1365C14.6119 16.785 14.6119 16.215 14.9634 15.8635L17.9268 12.9001H9.30029C8.80324 12.9001 8.40015 12.4971 8.40015 12C8.40015 11.5029 8.80324 11.0999 9.30029 11.0999H17.9268L14.9634 8.13647C14.6119 7.785 14.6119 7.215 14.9634 6.86353Z" fill="black"/>
</svg>
