<svg width="24" height="24" viewBox="0 0 24 24" fill="none" xmlns="http://www.w3.org/2000/svg">
<path d="M11.9942 24C10.3377 24 8.78568 23.6864 7.33817 23.0591C5.89066 22.4395 4.61732 21.5799 3.51814 20.4802C2.41896 19.3882 1.55588 18.1181 0.928882 16.6699C0.309627 15.2139 0 13.6573 0 12C0 10.3427 0.309627 8.78993 0.928882 7.34172C1.55588 5.88577 2.41896 4.60794 3.51814 3.50823C4.61732 2.40852 5.89066 1.54889 7.33817 0.929332C8.78568 0.309777 10.3377 0 11.9942 0C13.6507 0 15.2027 0.309777 16.6502 0.929332C18.1055 1.54889 19.3827 2.40852 20.4819 3.50823C21.581 4.60794 22.4403 5.88577 23.0595 7.34172C23.6865 8.78993 24 10.3427 24 12C24 13.6573 23.6865 15.2139 23.0595 16.6699C22.4403 18.1181 21.581 19.3882 20.4819 20.4802C19.3827 21.5799 18.1055 22.4395 16.6502 23.0591C15.2027 23.6864 13.6507 24 11.9942 24ZM11.9942 21.6302C13.3256 21.6302 14.5718 21.3785 15.7329 20.8751C16.894 20.3795 17.9158 19.6902 18.7983 18.8074C19.6884 17.9245 20.3812 16.9022 20.8766 15.7406C21.372 14.5789 21.6197 13.332 21.6197 12C21.6197 10.668 21.372 9.4211 20.8766 8.25944C20.3812 7.09003 19.6884 6.06776 18.7983 5.19264C17.9158 4.30978 16.894 3.62052 15.7329 3.12488C14.5718 2.62149 13.3256 2.3698 11.9942 2.3698C10.6705 2.3698 9.42429 2.62149 8.25544 3.12488C7.09434 3.62052 6.07257 4.30978 5.19013 5.19264C4.30769 6.06776 3.6149 7.09003 3.11176 8.25944C2.61635 9.4211 2.36865 10.668 2.36865 12C2.36865 13.332 2.61635 14.5789 3.11176 15.7406C3.6149 16.9022 4.30769 17.9245 5.19013 18.8074C6.07257 19.6902 7.09434 20.3795 8.25544 20.8751C9.42429 21.3785 10.6705 21.6302 11.9942 21.6302ZM10.7402 17.5179C10.5235 17.5179 10.3299 17.4714 10.1597 17.3785C9.98936 17.2778 9.82293 17.1307 9.66038 16.9371L6.92017 13.5915C6.71892 13.3359 6.61829 13.0765 6.61829 12.8132C6.61829 12.5266 6.71505 12.2827 6.90856 12.0813C7.10982 11.8722 7.34978 11.7677 7.62845 11.7677C7.80648 11.7677 7.96517 11.8064 8.1045 11.8838C8.25157 11.9535 8.39478 12.0813 8.53411 12.2672L10.6938 15.0087L15.2801 7.65537C15.5201 7.26041 15.822 7.06292 16.1858 7.06292C16.4567 7.06292 16.7005 7.15198 16.9173 7.33011C17.134 7.50823 17.2424 7.74056 17.2424 8.02711C17.2424 8.15876 17.2114 8.29429 17.1495 8.43369C17.0953 8.56534 17.0295 8.68925 16.9521 8.80542L11.762 16.9255C11.5143 17.3204 11.1737 17.5179 10.7402 17.5179Z" fill="black"/>
</svg>
