<svg width="20" height="20" viewBox="0 0 20 20" fill="none" xmlns="http://www.w3.org/2000/svg">
<path fill-rule="evenodd" clip-rule="evenodd" d="M18.998 0C19.3097 8.24043e-05 19.5543 0.0894587 19.7324 0.267578C19.9105 0.445698 19.9999 0.690306 20 1.00195C20 1.16743 19.9747 1.34618 19.9238 1.53711C19.8793 1.72797 19.8151 1.93456 19.7324 2.15723L15.9639 12C15.9759 11.9999 15.9879 12 16 12C18.2091 12 20 13.7909 20 16C20 18.2091 18.2091 20 16 20C14.9491 20 13.9931 19.5944 13.2793 18.9316C13.1468 19.1899 13.0023 19.4107 12.8398 19.5898C12.5917 19.8633 12.2957 20 11.9521 20C11.5067 20 11.1856 19.8407 10.9883 19.5225C10.791 19.2043 10.6224 18.8064 10.4824 18.3291L8.47754 11.5225L1.58496 9.49902C1.12673 9.35901 0.747367 9.19288 0.448242 9.00195C0.149484 8.80465 2.69016e-05 8.48668 0 8.04785C0 7.70431 0.136698 7.40831 0.410156 7.16016C0.683824 6.91195 1.0219 6.71134 1.42285 6.55859L17.8428 0.267578C18.0654 0.184881 18.272 0.120711 18.4629 0.0761719C18.6602 0.025257 18.8389 0 18.998 0ZM18.1572 2.55859C17.9027 2.88311 17.6262 3.22716 17.3271 3.58984C17.0344 3.95256 16.757 4.26448 16.4961 4.52539L9.92871 11.0928L11.9424 17.6807C11.9678 17.7569 11.9907 17.811 12.0098 17.8428C12.0352 17.8808 12.0674 17.8994 12.1055 17.8994C12.1371 17.8993 12.1661 17.8832 12.1914 17.8516C12.2167 17.8197 12.2423 17.7688 12.2676 17.6992L12.3174 17.5645C12.113 17.0839 12 16.5551 12 16C12 14.4073 12.931 13.0322 14.2783 12.3887L17.1553 4.79199C17.3016 4.40393 17.4635 4.02523 17.6416 3.65625C17.8198 3.28719 17.9918 2.92129 18.1572 2.55859ZM15.7041 14C15.481 14.0002 15.3 14.1812 15.2998 14.4043V16.4023C15.3 16.6255 15.481 16.8064 15.7041 16.8066H16.9033C17.1264 16.8064 17.3074 16.6254 17.3076 16.4023C17.3076 16.1791 17.1265 15.9973 16.9033 15.9971H16.1094V14.4043C16.1092 14.1811 15.9274 14 15.7041 14ZM16.3242 2.36719C15.9616 2.53894 15.5897 2.69841 15.208 2.84473L2.30078 7.73242C2.23078 7.75788 2.18269 7.78654 2.15723 7.81836C2.13184 7.84375 2.1192 7.87258 2.11914 7.9043C2.11914 7.93601 2.13194 7.96484 2.15723 7.99023C2.189 8.01565 2.24316 8.03854 2.31934 8.05762L8.90723 10.0713L15.4746 3.50391C15.7355 3.24297 16.045 2.96561 16.4014 2.67285C16.7576 2.38019 17.095 2.10606 17.4131 1.85156C17.0567 2.01704 16.6934 2.18899 16.3242 2.36719Z" fill="black"/>
</svg>
