<svg width="24" height="24" viewBox="0 0 24 24" fill="none" xmlns="http://www.w3.org/2000/svg">
<path d="M10.1267 19.7574C9.69231 19.7574 9.32127 19.5643 9.01358 19.1782L4.32579 13.3139C4.21116 13.1752 4.1267 13.0394 4.0724 12.9067C4.02413 12.7739 4 12.6382 4 12.4994C4 12.1857 4.10256 11.9263 4.30769 11.7212C4.51885 11.516 4.78431 11.4135 5.10407 11.4135C5.4721 11.4135 5.78281 11.5794 6.0362 11.9112L10.0905 17.1148L17.9457 4.63519C18.0845 4.42402 18.2262 4.27621 18.371 4.19175C18.5158 4.10125 18.7029 4.056 18.9321 4.056C19.2459 4.056 19.5023 4.15555 19.7014 4.35464C19.9005 4.5477 20 4.8011 20 5.11482C20 5.24152 19.9789 5.37123 19.9367 5.50396C19.8944 5.63066 19.8281 5.76641 19.7376 5.9112L11.2308 19.1691C10.9653 19.5613 10.5973 19.7574 10.1267 19.7574Z" fill="black"/>
</svg>
