<svg width="24" height="24" viewBox="0 0 24 24" fill="none" xmlns="http://www.w3.org/2000/svg">
<path fill-rule="evenodd" clip-rule="evenodd" d="M12 0C12.839 0 13.6123 0.239277 14.3154 0.708008C15.0185 1.18138 15.5625 1.79976 15.9375 2.56836C16.4203 2.37152 16.9268 2.27344 17.4658 2.27344C18.661 2.27349 19.6829 2.71899 20.5312 3.61426C21.3796 4.50955 21.8018 5.58794 21.8018 6.85352C21.8017 7.44399 21.7123 7.97823 21.5342 8.46094C22.2842 8.81719 22.8848 9.36582 23.3301 10.1064C23.7753 10.8517 24 11.672 24 12.5625C24 13.4016 23.7986 14.1801 23.3955 14.8926C22.9924 15.605 22.4531 16.1627 21.7734 16.5518C21.7922 16.6783 21.8018 16.8755 21.8018 17.1426C21.8017 18.4126 21.3748 19.4904 20.5312 20.3809C19.6829 21.2761 18.661 21.7216 17.4658 21.7217C16.9315 21.7217 16.4203 21.6236 15.9375 21.4268C15.5625 22.1954 15.0232 22.8137 14.3154 23.2871C13.6123 23.7652 12.8391 24 12 24C11.1422 24 10.3637 23.7705 9.66992 23.3018C8.97162 22.8377 8.43746 22.2141 8.0625 21.4268C7.57971 21.6236 7.07322 21.7217 6.53418 21.7217C5.33895 21.7216 4.31284 21.2761 3.45508 20.3809C2.59736 19.4903 2.17001 18.408 2.16992 17.1426C2.16992 17.002 2.18888 16.8048 2.22168 16.5518C1.54206 16.158 1.00271 15.605 0.599609 14.8926C0.201172 14.1801 0 13.4016 0 12.5625C0 11.6721 0.224793 10.8518 0.669922 10.1113C1.11523 9.3707 1.71582 8.82207 2.46582 8.46582C2.26895 7.93145 2.16992 7.3918 2.16992 6.85742C2.17001 5.59197 2.59736 4.50967 3.45508 3.61914C4.31284 2.72856 5.33895 2.27837 6.53418 2.27832C7.06853 2.27832 7.57971 2.37639 8.0625 2.57324C8.43749 1.80458 8.97683 1.18629 9.68457 0.712891C10.3877 0.239453 11.1609 0 12 0ZM15.791 8.24414C15.4655 7.91865 14.9379 7.91875 14.6123 8.24414L10.9219 11.9336L9.86523 10.877C9.41394 10.4257 9.18799 10.2 8.91406 10.1602C8.83479 10.1487 8.75408 10.1487 8.6748 10.1602C8.40081 10.1999 8.17504 10.4255 7.72363 10.877C7.27227 11.3283 7.04661 11.5541 7.00684 11.8281C6.99538 11.9074 6.99535 11.9882 7.00684 12.0674C7.0467 12.3413 7.2724 12.5673 7.72363 13.0186L10.333 15.6279C10.6586 15.953 11.1863 15.9533 11.5117 15.6279L13.0605 14.0771L13.0615 14.0781L15.2002 11.9375L15.2012 11.9385L16.7539 10.3857C17.0792 10.0603 17.079 9.53256 16.7539 9.20703L15.791 8.24414Z" fill="black"/>
</svg>
