<svg width="24" height="24" viewBox="0 0 24 24" fill="none" xmlns="http://www.w3.org/2000/svg">
<path d="M6.51226 22.4192C5.5251 22.4192 4.77472 22.1691 4.26113 21.6688C3.74754 21.1686 3.49075 20.4249 3.49075 19.4377V8.75238H5.10155V19.5178C5.10155 19.9646 5.22161 20.3082 5.46173 20.5483C5.70185 20.7884 6.04536 20.9085 6.49225 20.9085H17.5078C17.948 20.9085 18.2881 20.7884 18.5283 20.5483C18.7751 20.3082 18.8984 19.9646 18.8984 19.5178V8.75238H20.5093V19.4377C20.5093 20.4182 20.2525 21.1586 19.7389 21.6588C19.2253 22.1658 18.4749 22.4192 17.4877 22.4192H6.51226ZM8.70335 13.5348C8.48991 13.5348 8.31649 13.4681 8.18309 13.3347C8.05636 13.2013 7.993 13.0245 7.993 12.8044V12.4842C7.993 12.2641 8.05636 12.0907 8.18309 11.964C8.31649 11.8306 8.48991 11.7639 8.70335 11.7639H15.3067C15.5201 11.7639 15.6935 11.8306 15.8269 11.964C15.9603 12.0907 16.027 12.2641 16.027 12.4842V12.8044C16.027 13.0245 15.9603 13.2013 15.8269 13.3347C15.6935 13.4681 15.5201 13.5348 15.3067 13.5348H8.70335ZM3.90095 9.50275C3.28731 9.50275 2.81708 9.32266 2.49025 8.96248C2.16342 8.6023 2 8.11873 2 7.51176V5.991C2 5.37736 2.17009 4.89378 2.51026 4.54027C2.85043 4.18009 3.31399 4 3.90095 4H20.0991C20.7127 4 21.1829 4.18009 21.5098 4.54027C21.8366 4.89378 22 5.37736 22 5.991V7.51176C22 8.11873 21.8366 8.6023 21.5098 8.96248C21.1829 9.32266 20.7127 9.50275 20.0991 9.50275H3.90095ZM4.31116 7.992H19.6989C19.9523 7.992 20.1291 7.9353 20.2291 7.82191C20.3358 7.70852 20.3892 7.52843 20.3892 7.28164V6.22111C20.3892 5.96765 20.3358 5.78756 20.2291 5.68084C20.1291 5.56745 19.9523 5.51076 19.6989 5.51076H4.31116C4.0577 5.51076 3.87761 5.56745 3.77089 5.68084C3.66417 5.78756 3.61081 5.96765 3.61081 6.22111V7.28164C3.61081 7.52843 3.66417 7.70852 3.77089 7.82191C3.87761 7.9353 4.0577 7.992 4.31116 7.992Z" fill="black"/>
</svg>
