<svg width="24" height="24" viewBox="0 0 24 24" fill="none" xmlns="http://www.w3.org/2000/svg">
<path d="M6.26549 22.8285C5.19027 22.8285 4.37721 22.5564 3.82633 22.0122C3.27544 21.4679 3 20.6615 3 19.5929V9.84624C3 8.77765 3.27544 7.97124 3.82633 7.42699C4.37721 6.88274 5.19027 6.61062 6.26549 6.61062H8.49248C8.87908 6.61062 9.19248 6.92402 9.19248 7.31062V7.86195C9.19248 8.24855 8.87908 8.56195 8.49248 8.56195H6.38496C5.92035 8.56195 5.56527 8.68142 5.31969 8.92035C5.08075 9.15929 4.96128 9.52102 4.96128 10.0055V19.4237C4.96128 19.9082 5.08075 20.2699 5.31969 20.5089C5.56527 20.7544 5.92035 20.8772 6.38496 20.8772H17.6051C18.0631 20.8772 18.4148 20.7544 18.6604 20.5089C18.9126 20.2699 19.0387 19.9082 19.0387 19.4237V10.0055C19.0387 9.52102 18.9126 9.15929 18.6604 8.92035C18.4148 8.68142 18.0631 8.56195 17.6051 8.56195H15.4976C15.111 8.56195 14.7976 8.24855 14.7976 7.86195V7.31062C14.7976 6.92402 15.111 6.61062 15.4976 6.61062H17.7345C18.8097 6.61062 19.6228 6.88274 20.1737 7.42699C20.7246 7.97124 21 8.77765 21 9.84624V19.5929C21 20.6615 20.7246 21.4679 20.1737 22.0122C19.6228 22.5564 18.8097 22.8285 17.7345 22.8285H6.26549ZM12 14.7942C11.7478 14.7942 11.5288 14.7046 11.3429 14.5254C11.1637 14.3462 11.0741 14.1372 11.0741 13.8982V3.90266L11.1538 2.4292L10.6261 3.05642L9.20243 4.56969C9.04314 4.75553 8.83407 4.84845 8.57522 4.84845C8.34956 4.84845 8.15708 4.77544 7.99779 4.62943C7.8385 4.47677 7.75885 4.28429 7.75885 4.05199C7.75885 3.83296 7.84845 3.63717 8.02766 3.4646L11.2931 0.308628C11.4192 0.189159 11.5387 0.109513 11.6515 0.0696903C11.7644 0.0232301 11.8805 0 12 0C12.1195 0 12.2356 0.0232301 12.3485 0.0696903C12.4613 0.109513 12.5774 0.189159 12.6969 0.308628L15.9723 3.4646C16.1449 3.63717 16.2312 3.83296 16.2312 4.05199C16.2312 4.28429 16.1482 4.47677 15.9823 4.62943C15.823 4.77544 15.6305 4.84845 15.4049 4.84845C15.1593 4.84845 14.9535 4.75553 14.7876 4.56969L13.3739 3.05642L12.8462 2.4292L12.9259 3.90266V13.8982C12.9259 14.1372 12.833 14.3462 12.6471 14.5254C12.4679 14.7046 12.2522 14.7942 12 14.7942Z" fill="black"/>
</svg>
