<svg width="24" height="24" viewBox="0 0 24 24" fill="none" xmlns="http://www.w3.org/2000/svg">
<path d="M9.1001 10.8999C9.1001 10.4028 9.50293 10 10 10C10.4971 10 10.9001 10.4028 10.9001 10.8999V16.1001C10.9001 16.5972 10.4971 17 10 17C9.50293 17 9.1001 16.5972 9.1001 16.1001V10.8999Z" fill="black"/>
<path d="M14 10C13.5029 10 13.1001 10.4028 13.1001 10.8999V16.1001C13.1001 16.5972 13.5029 17 14 17C14.4971 17 14.9001 16.5972 14.9001 16.1001V10.8999C14.9001 10.4028 14.4971 10 14 10Z" fill="black"/>
<path fill-rule="evenodd" clip-rule="evenodd" d="M21 5H17V3.5C17 2.11938 15.8806 1 14.5 1H9.5C8.11938 1 7 2.11938 7 3.5V5H3C2.44775 5 2 5.44775 2 6C2 6.55225 2.44775 7 3 7H4.1001V19C4.1001 21.1538 5.84619 22.8999 8 22.8999H16C18.1541 22.8999 19.9001 21.1538 19.9001 19V7H21C21.5522 7 22 6.55225 22 6C22 5.44775 21.5522 5 21 5ZM18.1001 7H5.90015V19C5.90015 20.1599 6.84033 21.1001 8 21.1001H16C17.1599 21.1001 18.1001 20.1599 18.1001 19V7ZM9.5 2.80005H14.5C14.8867 2.80005 15.2 3.11328 15.2 3.5V5H8.80005V3.5C8.80005 3.11328 9.11328 2.80005 9.5 2.80005Z" fill="black"/>
</svg>
