<svg width="24" height="24" viewBox="0 0 24 24" fill="none" xmlns="http://www.w3.org/2000/svg">
<path d="M12.004 6.30283C11.7775 6.30283 11.5861 6.22207 11.4297 6.06057C11.2733 5.89906 11.1951 5.70794 11.1951 5.48721V3.80754C11.1951 3.58681 11.2733 3.39838 11.4297 3.24226C11.5861 3.08075 11.7775 3 12.004 3C12.2198 3 12.4058 3.08075 12.5622 3.24226C12.724 3.39838 12.8049 3.58681 12.8049 3.80754V5.48721C12.8049 5.70794 12.724 5.89906 12.5622 6.06057C12.4058 6.22207 12.2198 6.30283 12.004 6.30283ZM16.0328 7.9825C15.8764 7.83176 15.7982 7.64334 15.7982 7.41723C15.7982 7.19112 15.8764 7 16.0328 6.84388L17.2301 5.64872C17.3811 5.4926 17.5699 5.41454 17.7964 5.41454C18.0229 5.40915 18.2144 5.48452 18.3708 5.64065C18.5272 5.79677 18.6054 5.98789 18.6054 6.214C18.6054 6.44011 18.5272 6.63122 18.3708 6.78735L17.1816 7.9825C17.0252 8.14401 16.8337 8.22476 16.6072 8.22476C16.3807 8.21938 16.1892 8.13863 16.0328 7.9825ZM17.6993 12.004C17.6993 11.7833 17.7775 11.5949 17.9339 11.4388C18.0957 11.2773 18.2899 11.1965 18.5164 11.1965H20.191C20.4121 11.1965 20.6009 11.2773 20.7573 11.4388C20.9191 11.5949 21 11.7833 21 12.004C21 12.2248 20.9191 12.4132 20.7573 12.5693C20.6009 12.7254 20.4121 12.8035 20.191 12.8035H18.5164C18.2899 12.8035 18.0957 12.7254 17.9339 12.5693C17.7775 12.4132 17.6993 12.2248 17.6993 12.004ZM16.0328 16.0256C16.1838 15.8748 16.3726 15.7995 16.5991 15.7995C16.8256 15.7995 17.0171 15.8748 17.1735 16.0256L18.3708 17.2207C18.5272 17.3715 18.6054 17.5599 18.6054 17.786C18.6054 18.0121 18.5299 18.2032 18.3789 18.3594C18.2225 18.5101 18.031 18.5855 17.8045 18.5855C17.578 18.5908 17.3892 18.5209 17.2382 18.3755L16.0328 17.1642C15.8764 17.0135 15.7982 16.8277 15.7982 16.607C15.7982 16.3809 15.8764 16.1871 16.0328 16.0256ZM12.004 17.7052C12.2198 17.7052 12.4058 17.7833 12.5622 17.9394C12.724 18.1009 12.8049 18.2921 12.8049 18.5128V20.1925C12.8049 20.4132 12.724 20.6016 12.5622 20.7577C12.4058 20.9192 12.2198 21 12.004 21C11.7775 21 11.5861 20.9192 11.4297 20.7577C11.2733 20.6016 11.1951 20.4132 11.1951 20.1925V18.5128C11.1951 18.2921 11.2733 18.1009 11.4297 17.9394C11.5861 17.7833 11.7775 17.7052 12.004 17.7052ZM7.96719 16.0256C8.1182 16.1871 8.19371 16.3809 8.19371 16.607C8.19371 16.8277 8.11551 17.0135 7.9591 17.1642L6.7618 18.3674C6.61079 18.5128 6.41933 18.5828 6.18742 18.5774C5.9609 18.5774 5.76944 18.502 5.61303 18.3513C5.46742 18.1952 5.39461 18.004 5.39461 17.7779C5.39461 17.5518 5.47281 17.3634 5.62921 17.2127L6.81843 16.0256C6.97483 15.8748 7.16629 15.7995 7.39281 15.7995C7.61933 15.7995 7.81079 15.8748 7.96719 16.0256ZM6.30067 12.004C6.30067 12.2248 6.21978 12.4132 6.05798 12.5693C5.89618 12.7254 5.70472 12.8035 5.4836 12.8035H3.8009C3.58517 12.8035 3.3964 12.7254 3.23461 12.5693C3.0782 12.4132 3 12.2248 3 12.004C3 11.7833 3.0782 11.5949 3.23461 11.4388C3.3964 11.2773 3.58517 11.1965 3.8009 11.1965H5.4836C5.70472 11.1965 5.89618 11.2773 6.05798 11.4388C6.21978 11.5949 6.30067 11.7833 6.30067 12.004ZM7.9591 7.9825C7.8027 8.13863 7.61124 8.21669 7.38472 8.21669C7.1636 8.21669 6.97483 8.13863 6.81843 7.9825L5.62921 6.77927C5.4782 6.62853 5.4027 6.44011 5.4027 6.214C5.4027 5.98789 5.4809 5.79677 5.6373 5.64065C5.79371 5.48452 5.98517 5.40915 6.21169 5.41454C6.4382 5.41992 6.62697 5.49798 6.77798 5.64872L7.96719 6.84388C8.1182 6.99462 8.19371 7.18573 8.19371 7.41723C8.19371 7.64334 8.11551 7.83176 7.9591 7.9825ZM11.996 16.2194C11.4135 16.2194 10.8661 16.1117 10.3537 15.8964C9.84135 15.6756 9.39101 15.3742 9.0027 14.9919C8.61978 14.6043 8.31775 14.1548 8.09663 13.6433C7.8809 13.1319 7.77303 12.5855 7.77303 12.004C7.77303 11.4172 7.8809 10.8708 8.09663 10.3647C8.31775 9.8533 8.61978 9.40646 9.0027 9.02423C9.39101 8.63661 9.84135 8.33244 10.3537 8.11171C10.8661 7.89098 11.4135 7.78062 11.996 7.78062C12.5784 7.78062 13.1258 7.89098 13.6382 8.11171C14.1506 8.33244 14.5982 8.63661 14.9811 9.02423C15.3694 9.40646 15.6715 9.8533 15.8872 10.3647C16.1083 10.8708 16.2189 11.4172 16.2189 12.004C16.2189 12.5855 16.1083 13.1319 15.8872 13.6433C15.6715 14.1548 15.3694 14.6043 14.9811 14.9919C14.5982 15.3742 14.1506 15.6756 13.6382 15.8964C13.1258 16.1117 12.5784 16.2194 11.996 16.2194Z" fill="black"/>
</svg>
