<svg width="24" height="24" viewBox="0 0 24 24" fill="none" xmlns="http://www.w3.org/2000/svg">
<path d="M17.5588 0H6.44122C2.88391 0 0 2.88391 0 6.44122V17.5588C0 21.1158 2.88391 24 6.44122 24H17.5588C21.1161 24 24 21.1158 24 17.5588V6.44122C24 2.88391 21.1161 0 17.5588 0ZM20.5733 11.6472C17.824 12.9969 15.2007 14.5604 12.7238 16.3171C11.8835 16.9144 11.0608 17.5321 10.2556 18.1736C9.48851 18.7794 8.73606 19.4092 8.00117 20.0562C8.48426 19.2042 9.02591 18.3932 9.62612 17.6229C9.28942 17.336 8.94979 17.0578 8.60138 16.7826C6.98229 15.5002 5.25194 14.3496 3.4279 13.3453C2.7223 12.9589 2.24682 12.6986 0.955643 12.1391C1.54999 12.1663 2.1584 12.2275 2.55804 12.284L2.55336 6.94569C2.55131 4.51881 4.51823 2.55014 6.9451 2.55014H17.0599C19.4853 2.55014 21.4516 4.51647 21.4516 6.94188V10.6959C21.8559 10.6254 22.3004 10.5955 23.0748 10.5554C22.1212 10.8573 21.2525 11.3105 20.5733 11.6472Z" fill="black"/>
<path d="M9.51543 7.74411L10.9861 9.21447L14.4842 5.71629C14.7925 5.40799 15.2923 5.40799 15.6006 5.71629L16.5124 6.62802C16.8207 6.93632 16.8207 7.4361 16.5124 7.7444L11.5441 12.7126C11.2358 13.0209 10.736 13.0209 10.4277 12.7126L7.48732 9.77222C7.17931 9.46421 7.17931 8.96472 7.48732 8.65701L8.39992 7.7444C8.70793 7.43639 9.20742 7.43639 9.51513 7.7444" fill="black"/>
</svg>
