<svg width="24" height="24" viewBox="0 0 24 24" fill="none" xmlns="http://www.w3.org/2000/svg">
<path d="M2 10.243C2 9.10886 2.21266 8.04557 2.63797 7.05316C3.07004 6.05401 3.66413 5.17637 4.42025 4.42025C5.17637 3.65738 6.05063 3.06329 7.04304 2.63797C8.04219 2.21266 9.10886 2 10.243 2C11.384 2 12.4506 2.21266 13.443 2.63797C14.4422 3.06329 15.3198 3.65738 16.0759 4.42025C16.8321 5.17637 17.4228 6.05401 17.8481 7.05316C18.2802 8.04557 18.4962 9.10886 18.4962 10.243C18.4962 11.1342 18.3578 11.9814 18.081 12.7848C17.811 13.5882 17.4363 14.3207 16.957 14.9823L21.5747 19.6203C21.7165 19.7553 21.8211 19.9139 21.8886 20.0962C21.9629 20.2785 22 20.4709 22 20.6734C22 20.957 21.9359 21.2135 21.8076 21.443C21.6793 21.6726 21.5038 21.8515 21.281 21.9797C21.0582 22.1148 20.8017 22.1823 20.5114 22.1823C20.3089 22.1823 20.1131 22.1451 19.924 22.0709C19.7418 22.0034 19.5764 21.8954 19.4278 21.7468L14.7797 17.0987C14.1316 17.5308 13.4228 17.8717 12.6532 18.1215C11.8903 18.3646 11.0869 18.4861 10.243 18.4861C9.10886 18.4861 8.04219 18.2734 7.04304 17.8481C6.05063 17.4228 5.17637 16.8321 4.42025 16.0759C3.66413 15.3198 3.07004 14.4456 2.63797 13.4532C2.21266 12.454 2 11.384 2 10.243ZM4.11646 10.243C4.11646 11.0937 4.27173 11.8903 4.58228 12.6329C4.89958 13.3688 5.3384 14.0169 5.89873 14.5772C6.46582 15.1376 7.12068 15.5797 7.86329 15.9038C8.60591 16.2211 9.39916 16.3797 10.243 16.3797C11.0937 16.3797 11.8869 16.2211 12.6228 15.9038C13.3654 15.5797 14.0169 15.1376 14.5772 14.5772C15.1376 14.0169 15.5764 13.3688 15.8937 12.6329C16.2177 11.8903 16.3797 11.0937 16.3797 10.243C16.3797 9.39916 16.2177 8.60591 15.8937 7.86329C15.5764 7.12068 15.1376 6.4692 14.5772 5.90886C14.0169 5.34177 13.3654 4.90295 12.6228 4.5924C11.8869 4.27511 11.0937 4.11646 10.243 4.11646C9.39916 4.11646 8.60591 4.27511 7.86329 4.5924C7.12068 4.90295 6.46582 5.34177 5.89873 5.90886C5.3384 6.4692 4.89958 7.12068 4.58228 7.86329C4.27173 8.60591 4.11646 9.39916 4.11646 10.243Z" fill="black"/>
</svg>
