<svg width="24" height="24" viewBox="0 0 24 24" fill="none" xmlns="http://www.w3.org/2000/svg">
<path d="M19.6361 4.42782C18.212 3.76079 16.6893 3.27603 15.0973 3C14.9018 3.35386 14.6734 3.82981 14.5159 4.20842C12.8236 3.95365 11.1469 3.95365 9.48573 4.20842C9.32828 3.82981 9.09468 3.35386 8.89741 3C7.30374 3.27603 5.77928 3.76257 4.35518 4.43135C1.48276 8.77666 0.70409 13.014 1.09342 17.1912C2.99856 18.6155 4.84487 19.4807 6.66003 20.0468C7.1082 19.4294 7.50791 18.773 7.85225 18.0812C7.19644 17.8317 6.56832 17.5239 5.97482 17.1665C6.13227 17.0497 6.28628 16.9276 6.43508 16.802C10.055 18.497 13.9882 18.497 17.5648 16.802C17.7154 16.9276 17.8694 17.0497 18.0251 17.1665C17.4299 17.5256 16.8 17.8335 16.1442 18.083C16.4886 18.773 16.8865 19.4311 17.3364 20.0486C19.1533 19.4824 21.0014 18.6173 22.9065 17.1912C23.3633 12.3488 22.1261 8.15033 19.6361 4.42782ZM8.34541 14.6223C7.25874 14.6223 6.36759 13.6067 6.36759 12.37C6.36759 11.1333 7.23972 10.116 8.34541 10.116C9.45114 10.116 10.3423 11.1315 10.3232 12.37C10.325 13.6067 9.45114 14.6223 8.34541 14.6223ZM15.6545 14.6223C14.5678 14.6223 13.6767 13.6067 13.6767 12.37C13.6767 11.1333 14.5488 10.116 15.6545 10.116C16.7602 10.116 17.6514 11.1315 17.6323 12.37C17.6323 13.6067 16.7602 14.6223 15.6545 14.6223Z" fill="black"/>
</svg>
