<svg width="24" height="24" viewBox="0 0 24 24" fill="none" xmlns="http://www.w3.org/2000/svg">
<path d="M9.05371 17.0088C9.59105 17.0088 10.0273 17.4994 10.0273 18.1045C10.0272 18.7094 9.59095 19.2002 9.05371 19.2002H1.97266C1.43555 19.2 1.00016 18.7093 1 18.1045C1 17.4995 1.43545 17.009 1.97266 17.0088H9.05371ZM14.707 11.707C15.0976 11.3165 15.7306 11.3165 16.1211 11.707L18.3887 13.9746L20.5605 11.8037C20.9511 11.4133 21.5841 11.4132 21.9746 11.8037C22.3651 12.1942 22.365 12.8272 21.9746 13.2178L19.8027 15.3887L21.7783 17.3643C22.1685 17.7548 22.1687 18.3879 21.7783 18.7783C21.3879 19.1687 20.7548 19.1685 20.3643 18.7783L18.3887 16.8027L16.3174 18.875C15.9268 19.2653 15.2938 19.2655 14.9033 18.875C14.5129 18.4845 14.513 17.8515 14.9033 17.4609L16.9746 15.3887L14.707 13.1211C14.3165 12.7306 14.3165 12.0976 14.707 11.707ZM9.05371 10.9043C9.59105 10.9043 10.0273 11.3949 10.0273 12C10.0273 12.605 9.59099 13.0957 9.05371 13.0957H1.97266C1.43551 13.0955 1.00009 12.6049 1 12C1 11.395 1.43545 10.9045 1.97266 10.9043H9.05371ZM22.0273 4.7998C22.5645 4.8 23 5.29052 23 5.89551C23 6.50047 22.5645 6.99102 22.0273 6.99121H1.97266C1.43546 6.99102 1.00002 6.50047 1 5.89551C1 5.29052 1.43545 4.8 1.97266 4.7998H22.0273Z" fill="black"/>
</svg>
