<svg width="24" height="24" viewBox="0 0 24 24" fill="none" xmlns="http://www.w3.org/2000/svg">
<path d="M19.9767 12C19.9767 7.59433 16.4057 4.02326 12 4.02326C7.59433 4.02326 4.02326 7.59433 4.02326 12C4.02326 16.4057 7.59433 19.9767 12 19.9767C16.4057 19.9767 19.9767 16.4057 19.9767 12ZM10.9884 7.00658C10.9884 6.44812 11.4415 5.99495 12 5.99495C12.5585 5.99495 13.0116 6.44812 13.0116 7.00658V10.9884H14.9965C15.5548 10.9886 16.007 11.4417 16.007 12C16.007 12.5583 15.5548 13.0114 14.9965 13.0116H12C11.4415 13.0116 10.9884 12.5585 10.9884 12V7.00658ZM22 12C22 17.5226 17.5226 22 12 22C6.4774 22 2 17.5226 2 12C2 6.4774 6.4774 2 12 2C17.5226 2 22 6.4774 22 12Z" fill="black"/>
</svg>
