<svg width="25" height="24" viewBox="0 0 25 24" fill="none" xmlns="http://www.w3.org/2000/svg">
<path d="M13.8567 20.8C13.6159 20.8 13.39 20.7488 13.1793 20.6465C12.9685 20.5501 12.7457 20.3905 12.5109 20.1677L5.35736 13.4477C5.18274 13.2852 5.05628 13.1105 4.978 12.9239C4.90575 12.7372 4.86962 12.5626 4.86962 12.4C4.86962 12.2314 4.90575 12.0568 4.978 11.8761C5.05026 11.6895 5.17671 11.5148 5.35736 11.3523L12.5109 4.68645C12.7698 4.43957 12.9956 4.26495 13.1883 4.16258C13.381 4.05419 13.6008 4 13.8477 4C14.203 4 14.495 4.12344 14.7238 4.37032C14.9526 4.61118 15.067 4.90323 15.067 5.24645V8.48H15.2928C16.8584 8.48 18.2163 8.72387 19.3664 9.21161C20.5165 9.69333 21.4649 10.3948 22.2116 11.3161C22.9642 12.2374 23.5242 13.3514 23.8916 14.6581C24.2589 15.9587 24.4425 17.428 24.4425 19.0658C24.4425 19.6258 24.3341 20.0473 24.1174 20.3303C23.9066 20.6194 23.6447 20.7639 23.3316 20.7639C23.0967 20.7639 22.8709 20.7127 22.6541 20.6103C22.4434 20.508 22.2507 20.2942 22.0761 19.969C21.6004 19.0778 21.0464 18.3673 20.4141 17.8374C19.7819 17.3075 19.0473 16.9252 18.2103 16.6903C17.3733 16.4555 16.4008 16.3381 15.2928 16.3381H15.067V19.5987C15.067 19.9419 14.9526 20.228 14.7238 20.4568C14.495 20.6856 14.206 20.8 13.8567 20.8ZM13.2967 18.4968C13.381 18.4968 13.4232 18.4486 13.4232 18.3523V15.0013C13.4232 14.8086 13.5225 14.7123 13.7212 14.7123H14.8774C16.2623 14.7123 17.4786 14.8538 18.5264 15.1368C19.5802 15.4138 20.4593 15.8232 21.1638 16.3652C21.8743 16.9011 22.4073 17.5424 22.7625 18.289C22.7746 18.3191 22.7866 18.3432 22.7987 18.3613C22.8107 18.3733 22.8257 18.3794 22.8438 18.3794C22.892 18.3794 22.9161 18.3462 22.9161 18.28C22.886 17.4249 22.7716 16.597 22.5728 15.7961C22.3802 14.9892 22.0881 14.2426 21.6967 13.5561C21.3113 12.8637 20.8085 12.2585 20.1883 11.7406C19.5741 11.2228 18.8275 10.8224 17.9483 10.5394C17.0752 10.2503 16.0516 10.1058 14.8774 10.1058H13.7212C13.5225 10.1058 13.4232 10.0065 13.4232 9.80774V6.38452C13.4232 6.29419 13.378 6.24903 13.2877 6.24903C13.2576 6.24903 13.2305 6.25505 13.2064 6.2671C13.1823 6.27914 13.1582 6.29419 13.1341 6.31226L6.94704 12.2374C6.8808 12.2976 6.84768 12.3518 6.84768 12.4C6.84768 12.4241 6.8537 12.4512 6.86575 12.4813C6.88381 12.5054 6.91091 12.5355 6.94704 12.5716L13.1341 18.4245C13.1883 18.4727 13.2425 18.4968 13.2967 18.4968ZM9.08768 20.8C8.8408 20.8 8.61198 20.7488 8.40123 20.6465C8.19048 20.5501 7.96768 20.3905 7.73284 20.1677L0.579296 13.4477C0.404672 13.2852 0.281231 13.1105 0.208973 12.9239C0.136715 12.7372 0.100586 12.5626 0.100586 12.4C0.100586 12.2314 0.133704 12.0568 0.199941 11.8761C0.272199 11.6895 0.39865 11.5148 0.579296 11.3523L7.73284 4.68645C7.99779 4.43957 8.22661 4.26495 8.4193 4.16258C8.61198 4.05419 8.82876 4 9.06962 4C9.42489 4 9.71693 4.12344 9.94575 4.37032C10.1806 4.61118 10.298 4.90323 10.298 5.24645V7.53161L8.6451 8.93161V6.38452C8.6451 6.29419 8.59994 6.24903 8.50962 6.24903C8.48553 6.24903 8.46145 6.25505 8.43736 6.2671C8.41327 6.27914 8.38919 6.29419 8.3651 6.31226L2.17801 12.2374C2.11177 12.2976 2.07865 12.3518 2.07865 12.4C2.07865 12.4241 2.08467 12.4512 2.09671 12.4813C2.11478 12.5054 2.14188 12.5355 2.17801 12.5716L8.3651 18.4245C8.4193 18.4727 8.46747 18.4968 8.50962 18.4968C8.59994 18.4968 8.6451 18.4486 8.6451 18.3523V15.8594L10.298 17.2774V19.5987C10.298 19.9419 10.1836 20.228 9.95478 20.4568C9.72596 20.6856 9.43693 20.8 9.08768 20.8Z" fill="black"/>
</svg>
