<svg width="24" height="24" viewBox="0 0 24 24" fill="none" xmlns="http://www.w3.org/2000/svg">
<path d="M3 12.0047C3 11.71 3.11286 11.4529 3.33858 11.2335L8.24291 6.33858C8.35577 6.22572 8.47489 6.14107 8.60029 6.08464C8.72569 6.02821 8.85736 6 8.9953 6C9.28371 6 9.52511 6.09405 9.71947 6.28215C9.91384 6.47024 10.011 6.70537 10.011 6.98751C10.011 7.13799 9.98281 7.27593 9.92638 7.40133C9.86995 7.52046 9.79471 7.62704 9.70066 7.72109L8.87805 8.57192L5.37943 11.779L5.04086 10.9702H8.30435H20.0624C20.3759 10.9702 20.6267 11.0673 20.8148 11.2617C21.0092 11.4498 21.1063 11.6975 21.1063 12.0047C21.1063 12.3057 21.0092 12.5533 20.8148 12.7477C20.6267 12.9358 20.3759 13.0298 20.0624 13.0298H8.30435H5.04086L5.37943 12.2398L8.87805 15.4375L9.70066 16.2789C9.79471 16.373 9.86995 16.4827 9.92638 16.6081C9.98281 16.7335 10.011 16.8683 10.011 17.0125C10.011 17.2946 9.91384 17.5298 9.71947 17.7179C9.52511 17.906 9.28371 18 8.9953 18C8.71942 18 8.47176 17.8934 8.25231 17.6802L3.33858 12.7759C3.11286 12.5565 3 12.2994 3 12.0047Z" fill="black"/>
</svg>
